<svg xmlns="http://www.w3.org/2000/svg" viewBox="0.0 0.0 16.0 16.0"><g><defs><g id="plaquette_drawing_6"><g transform="rotate(0 0.5 0.5)"><path stroke="black" stroke-width="0.01" d="M 0 1 A 0.5 0.5 180 1 1 1 1 Z " fill="#ff7f7f"/></g><g/><text dominant-baseline="central" text-anchor="middle" font-size="0.1" fill="black" x="0.09999999999999998" y="0.9">3</text><text dominant-baseline="central" text-anchor="middle" font-size="0.1" fill="black" x="0.9" y="0.9">5</text></g><g id="plaquette_drawing_7"><g transform="rotate(270 0.5 0.5)"><path stroke="black" stroke-width="0.01" d="M 0 1 A 0.5 0.5 180 1 1 1 1 Z " fill="#7396ff"/></g><g/><text dominant-baseline="central" text-anchor="middle" font-size="0.1" fill="black" x="0.9" y="0.09999999999999998">4</text><text dominant-baseline="central" text-anchor="middle" font-size="0.1" fill="black" x="0.9" y="0.9">5</text></g><g id="plaquette_drawing_9"><path stroke="black" stroke-width="0.01" d="M 0.0 0.0 L 1.0 0.0 L 1.0 1.0 L 0.0 1.0 Z " fill="#ff7f7f"/><g><g transform="translate(0 0)"><rect stroke="black" stroke-width="0.01" x="0" y="0" width="0.05" height="0.05" fill="#ff7f7f"/></g><g transform="translate(1 0)"><rect stroke="black" stroke-width="0.01" x="-0.05" y="0" width="0.05" height="0.05" fill="#ff7f7f"/></g><g transform="translate(0.0 1.0)"><rect stroke="black" stroke-width="0.01" x="0" y="-0.05" width="0.05" height="0.05" fill="#ff7f7f"/></g><g transform="translate(1.0 1.0)"><rect stroke="black" stroke-width="0.01" x="-0.05" y="-0.05" width="0.05" height="0.05" fill="#ff7f7f"/></g></g><line stroke="black" stroke-width="0.01" x1="0.95" y1="0.95" x2="0.04999999999999999" y2="0.95"/><text dominant-baseline="central" text-anchor="middle" font-size="0.1" fill="black" x="0.09999999999999998" y="0.09999999999999998">1</text><text dominant-baseline="central" text-anchor="middle" font-size="0.1" fill="black" x="0.9" y="0.09999999999999998">2</text><text dominant-baseline="central" text-anchor="middle" font-size="0.1" fill="black" x="0.09999999999999998" y="0.9">3</text><text dominant-baseline="central" text-anchor="middle" font-size="0.1" fill="black" x="0.9" y="0.9">5</text></g><g id="plaquette_drawing_10"><path stroke="black" stroke-width="0.01" d="M 0.0 0.0 L 1.0 0.0 L 1.0 1.0 L 0.0 1.0 Z " fill="#7396ff"/><g><g transform="translate(0 0)"><rect stroke="black" stroke-width="0.01" x="0" y="0" width="0.05" height="0.05" fill="#ff7f7f"/></g><g transform="translate(1 0)"><rect stroke="black" stroke-width="0.01" x="-0.05" y="0" width="0.05" height="0.05" fill="#ff7f7f"/></g><g transform="translate(0.0 1.0)"><rect stroke="black" stroke-width="0.01" x="0" y="-0.05" width="0.05" height="0.05" fill="#ff7f7f"/></g><g transform="translate(1.0 1.0)"><rect stroke="black" stroke-width="0.01" x="-0.05" y="-0.05" width="0.05" height="0.05" fill="#ff7f7f"/></g></g><line stroke="black" stroke-width="0.01" x1="0.95" y1="0.95" x2="0.95" y2="0.04999999999999999"/><text dominant-baseline="central" text-anchor="middle" font-size="0.1" fill="black" x="0.09999999999999998" y="0.09999999999999998">1</text><text dominant-baseline="central" text-anchor="middle" font-size="0.1" fill="black" x="0.9" y="0.09999999999999998">4</text><text dominant-baseline="central" text-anchor="middle" font-size="0.1" fill="black" x="0.09999999999999998" y="0.9">3</text><text dominant-baseline="central" text-anchor="middle" font-size="0.1" fill="black" x="0.9" y="0.9">5</text></g><g id="plaquette_drawing_12"><g transform="rotate(90 0.5 0.5)"><path stroke="black" stroke-width="0.01" d="M 0 1 A 0.5 0.5 180 1 1 1 1 Z " fill="#7396ff"/></g><g/><text dominant-baseline="central" text-anchor="middle" font-size="0.1" fill="black" x="0.09999999999999998" y="0.09999999999999998">1</text><text dominant-baseline="central" text-anchor="middle" font-size="0.1" fill="black" x="0.09999999999999998" y="0.9">3</text></g><g id="plaquette_drawing_13"><g><rect x="0" y="0" width="1.0" height="1.0" fill="#ff7f7f"/><line stroke="black" stroke-width="0.01" x1="0" y1="0" x2="1" y2="0"/><line stroke="grey" stroke-width="0.01" x1="0.0" y1="1.0" x2="1.0" y2="1.0"/><line stroke="black" stroke-width="0.01" x1="0" y1="0" x2="0.0" y2="1.0"/><line stroke="black" stroke-width="0.01" x1="1" y1="0" x2="1.0" y2="1.0"/></g><g><g transform="translate(0 0)"><rect stroke="black" stroke-width="0.01" x="0" y="0" width="0.05" height="0.05" fill="#ff7f7f"/></g><g transform="translate(1 0)"><rect stroke="black" stroke-width="0.01" x="-0.05" y="0" width="0.05" height="0.05" fill="#ff7f7f"/></g></g><line stroke="black" stroke-width="0.01" x1="0.04999999999999999" y1="0.04999999999999999" x2="0.95" y2="0.04999999999999999"/><text dominant-baseline="central" text-anchor="middle" font-size="0.1" fill="black" x="0.09999999999999998" y="0.09999999999999998">2</text><text dominant-baseline="central" text-anchor="middle" font-size="0.1" fill="black" x="0.9" y="0.09999999999999998">4</text></g><g id="plaquette_drawing_14"><g><rect x="0" y="0" width="1.0" height="1.0" fill="#7396ff"/><line stroke="black" stroke-width="0.01" x1="0" y1="0" x2="1" y2="0"/><line stroke="grey" stroke-width="0.01" x1="0.0" y1="1.0" x2="1.0" y2="1.0"/><line stroke="black" stroke-width="0.01" x1="0" y1="0" x2="0.0" y2="1.0"/><line stroke="black" stroke-width="0.01" x1="1" y1="0" x2="1.0" y2="1.0"/></g><g><g transform="translate(0 0)"><rect stroke="black" stroke-width="0.01" x="0" y="0" width="0.05" height="0.05" fill="#ff7f7f"/></g><g transform="translate(1 0)"><rect stroke="black" stroke-width="0.01" x="-0.05" y="0" width="0.05" height="0.05" fill="#ff7f7f"/></g></g><line stroke="black" stroke-width="0.01" x1="0.04999999999999999" y1="0.04999999999999999" x2="0.95" y2="0.04999999999999999"/><text dominant-baseline="central" text-anchor="middle" font-size="0.1" fill="black" x="0.09999999999999998" y="0.09999999999999998">2</text><text dominant-baseline="central" text-anchor="middle" font-size="0.1" fill="black" x="0.9" y="0.09999999999999998">4</text></g><g id="plaquette_drawing_3"><g><rect x="0.5" y="0.0" width="0.5" height="1.0" fill="#7396ff"/><line stroke="black" stroke-width="0.01" x1="0.5" y1="0.0" x2="1" y2="0"/><line stroke="grey" stroke-width="0.01" x1="0.5" y1="1.0" x2="1.0" y2="1.0"/><line stroke="black" stroke-width="0.01" x1="0.5" y1="0.0" x2="0.5" y2="1.0"/><line stroke="black" stroke-width="0.01" x1="1" y1="0" x2="1.0" y2="1.0"/></g><g><g transform="translate(1 0)"><rect stroke="black" stroke-width="0.01" x="-0.05" y="0" width="0.05" height="0.05" fill="#ff7f7f"/></g></g><text dominant-baseline="central" text-anchor="middle" font-size="0.1" fill="black" x="0.9" y="0.09999999999999998">4</text></g><g id="plaquette_drawing_37"><g transform="rotate(180 0.5 0.5)"><path stroke="black" stroke-width="0.01" d="M 0 1 A 0.5 0.5 180 1 1 1 1 Z " fill="#7396ff"/></g><g/><text dominant-baseline="central" text-anchor="middle" font-size="0.1" fill="black" x="0.09999999999999998" y="0.09999999999999998">1</text><text dominant-baseline="central" text-anchor="middle" font-size="0.1" fill="black" x="0.9" y="0.09999999999999998">4</text></g><g id="plaquette_drawing_26"><g transform="rotate(270 0.5 0.5)"><path stroke="black" stroke-width="0.01" d="M 0 1 A 0.5 0.5 180 1 1 1 1 Z " fill="#7396ff"/></g><g/><text dominant-baseline="central" text-anchor="middle" font-size="0.1" fill="black" x="0.9" y="0.09999999999999998">4</text><text dominant-baseline="central" text-anchor="middle" font-size="0.1" fill="black" x="0.9" y="0.9">5</text></g><g id="plaquette_drawing_19"><path stroke="black" stroke-width="0.01" d="M 0.0 0.0 L 1.0 0.0 L 1.0 1.0 L 0.0 1.0 Z " fill="#7396ff"/><g><g transform="translate(0 0)"><rect stroke="black" stroke-width="0.01" x="0" y="0" width="0.05" height="0.05" fill="#ff7f7f"/></g><g transform="translate(1 0)"><rect stroke="black" stroke-width="0.01" x="-0.05" y="0" width="0.05" height="0.05" fill="#ff7f7f"/></g><g transform="translate(0.0 1.0)"><rect stroke="black" stroke-width="0.01" x="0" y="-0.05" width="0.05" height="0.05" fill="#ff7f7f"/></g><g transform="translate(1.0 1.0)"><rect stroke="black" stroke-width="0.01" x="-0.05" y="-0.05" width="0.05" height="0.05" fill="#ff7f7f"/></g></g><line stroke="black" stroke-width="0.01" x1="0.95" y1="0.95" x2="0.95" y2="0.04999999999999999"/><text dominant-baseline="central" text-anchor="middle" font-size="0.1" fill="black" x="0.09999999999999998" y="0.09999999999999998">1</text><text dominant-baseline="central" text-anchor="middle" font-size="0.1" fill="black" x="0.9" y="0.09999999999999998">4</text><text dominant-baseline="central" text-anchor="middle" font-size="0.1" fill="black" x="0.09999999999999998" y="0.9">3</text><text dominant-baseline="central" text-anchor="middle" font-size="0.1" fill="black" x="0.9" y="0.9">5</text></g><g id="plaquette_drawing_27"><path stroke="black" stroke-width="0.01" d="M 0.0 0.0 L 1.0 0.0 L 1.0 1.0 L 0.0 1.0 Z " fill="#7396ff"/><g><g transform="translate(0 0)"><rect stroke="black" stroke-width="0.01" x="0" y="0" width="0.05" height="0.05" fill="#ff7f7f"/></g><g transform="translate(1 0)"><rect stroke="black" stroke-width="0.01" x="-0.05" y="0" width="0.05" height="0.05" fill="#ff7f7f"/></g><g transform="translate(0.0 1.0)"><rect stroke="black" stroke-width="0.01" x="0" y="-0.05" width="0.05" height="0.05" fill="#ff7f7f"/></g><g transform="translate(1.0 1.0)"><rect stroke="black" stroke-width="0.01" x="-0.05" y="-0.05" width="0.05" height="0.05" fill="#ff7f7f"/></g></g><line stroke="black" stroke-width="0.01" x1="0.95" y1="0.95" x2="0.95" y2="0.04999999999999999"/><text dominant-baseline="central" text-anchor="middle" font-size="0.1" fill="black" x="0.09999999999999998" y="0.09999999999999998">1</text><text dominant-baseline="central" text-anchor="middle" font-size="0.1" fill="black" x="0.9" y="0.09999999999999998">4</text><text dominant-baseline="central" text-anchor="middle" font-size="0.1" fill="black" x="0.09999999999999998" y="0.9">3</text><text dominant-baseline="central" text-anchor="middle" font-size="0.1" fill="black" x="0.9" y="0.9">5</text></g><g id="plaquette_drawing_22"><path stroke="black" stroke-width="0.01" d="M 0.0 0.0 L 1.0 0.0 L 1.0 1.0 L 0.0 1.0 Z " fill="#7396ff"/><g><g transform="translate(0 0)"><rect stroke="black" stroke-width="0.01" x="0" y="0" width="0.05" height="0.05" fill="#ff7f7f"/></g><g transform="translate(1 0)"><rect stroke="black" stroke-width="0.01" x="-0.05" y="0" width="0.05" height="0.05" fill="#ff7f7f"/></g><g transform="translate(0.0 1.0)"><rect stroke="black" stroke-width="0.01" x="0" y="-0.05" width="0.05" height="0.05" fill="#ff7f7f"/></g><g transform="translate(1.0 1.0)"><rect stroke="black" stroke-width="0.01" x="-0.05" y="-0.05" width="0.05" height="0.05" fill="#ff7f7f"/></g></g><line stroke="black" stroke-width="0.01" x1="0.95" y1="0.95" x2="0.04999999999999999" y2="0.95"/><text dominant-baseline="central" text-anchor="middle" font-size="0.1" fill="black" x="0.09999999999999998" y="0.09999999999999998">1</text><text dominant-baseline="central" text-anchor="middle" font-size="0.1" fill="black" x="0.9" y="0.09999999999999998">2</text><text dominant-baseline="central" text-anchor="middle" font-size="0.1" fill="black" x="0.09999999999999998" y="0.9">3</text><text dominant-baseline="central" text-anchor="middle" font-size="0.1" fill="black" x="0.9" y="0.9">5</text></g><g id="plaquette_drawing_29"><path stroke="black" stroke-width="0.01" d="M 0.0 0.0 L 1.0 0.0 L 1.0 1.0 L 0.0 1.0 Z " fill="#7396ff"/><g><g transform="translate(0 0)"><rect stroke="black" stroke-width="0.01" x="0" y="0" width="0.05" height="0.05" fill="#ff7f7f"/></g><g transform="translate(1 0)"><rect stroke="black" stroke-width="0.01" x="-0.05" y="0" width="0.05" height="0.05" fill="#ff7f7f"/></g><g transform="translate(0.0 1.0)"><rect stroke="black" stroke-width="0.01" x="0" y="-0.05" width="0.05" height="0.05" fill="#ff7f7f"/></g><g transform="translate(1.0 1.0)"><rect stroke="black" stroke-width="0.01" x="-0.05" y="-0.05" width="0.05" height="0.05" fill="#ff7f7f"/></g></g><line stroke="black" stroke-width="0.01" x1="0.95" y1="0.95" x2="0.04999999999999999" y2="0.95"/><text dominant-baseline="central" text-anchor="middle" font-size="0.1" fill="black" x="0.09999999999999998" y="0.09999999999999998">1</text><text dominant-baseline="central" text-anchor="middle" font-size="0.1" fill="black" x="0.9" y="0.09999999999999998">2</text><text dominant-baseline="central" text-anchor="middle" font-size="0.1" fill="black" x="0.09999999999999998" y="0.9">3</text><text dominant-baseline="central" text-anchor="middle" font-size="0.1" fill="black" x="0.9" y="0.9">5</text></g><g id="plaquette_drawing_28"><path stroke="black" stroke-width="0.01" d="M 0.0 0.0 L 1.0 0.0 L 1.0 1.0 L 0.0 1.0 Z " fill="#7396ff"/><g><g transform="translate(0 0)"><rect stroke="black" stroke-width="0.01" x="0" y="0" width="0.05" height="0.05" fill="#ff7f7f"/></g><g transform="translate(1 0)"><rect stroke="black" stroke-width="0.01" x="-0.05" y="0" width="0.05" height="0.05" fill="#ff7f7f"/></g><g transform="translate(0.0 1.0)"><rect stroke="black" stroke-width="0.01" x="0" y="-0.05" width="0.05" height="0.05" fill="#ff7f7f"/></g><g transform="translate(1.0 1.0)"><rect stroke="black" stroke-width="0.01" x="-0.05" y="-0.05" width="0.05" height="0.05" fill="#ff7f7f"/></g></g><line stroke="black" stroke-width="0.01" x1="0.95" y1="0.95" x2="0.04999999999999999" y2="0.95"/><text dominant-baseline="central" text-anchor="middle" font-size="0.1" fill="black" x="0.09999999999999998" y="0.09999999999999998">1</text><text dominant-baseline="central" text-anchor="middle" font-size="0.1" fill="black" x="0.9" y="0.09999999999999998">2</text><text dominant-baseline="central" text-anchor="middle" font-size="0.1" fill="black" x="0.09999999999999998" y="0.9">3</text><text dominant-baseline="central" text-anchor="middle" font-size="0.1" fill="black" x="0.9" y="0.9">5</text></g><g id="plaquette_drawing_30"><path stroke="black" stroke-width="0.01" d="M 0.0 0.0 L 1.0 0.0 L 1.0 1.0 L 0.0 1.0 Z " fill="#7396ff"/><g><g transform="translate(0 0)"><rect stroke="black" stroke-width="0.01" x="0" y="0" width="0.05" height="0.05" fill="#ff7f7f"/></g><g transform="translate(1 0)"><rect stroke="black" stroke-width="0.01" x="-0.05" y="0" width="0.05" height="0.05" fill="#ff7f7f"/></g><g transform="translate(0.0 1.0)"><rect stroke="black" stroke-width="0.01" x="0" y="-0.05" width="0.05" height="0.05" fill="#ff7f7f"/></g><g transform="translate(1.0 1.0)"><rect stroke="black" stroke-width="0.01" x="-0.05" y="-0.05" width="0.05" height="0.05" fill="#ff7f7f"/></g></g><line stroke="black" stroke-width="0.01" x1="0.95" y1="0.95" x2="0.95" y2="0.04999999999999999"/><text dominant-baseline="central" text-anchor="middle" font-size="0.1" fill="black" x="0.09999999999999998" y="0.09999999999999998">1</text><text dominant-baseline="central" text-anchor="middle" font-size="0.1" fill="black" x="0.9" y="0.09999999999999998">4</text><text dominant-baseline="central" text-anchor="middle" font-size="0.1" fill="black" x="0.09999999999999998" y="0.9">3</text><text dominant-baseline="central" text-anchor="middle" font-size="0.1" fill="black" x="0.9" y="0.9">5</text></g><g id="plaquette_drawing_20"><path stroke="black" stroke-width="0.01" d="M 0.0 0.0 L 1.0 0.0 L 1.0 1.0 L 0.0 1.0 Z " fill="#ff7f7f"/><g><g transform="translate(0 0)"><rect stroke="black" stroke-width="0.01" x="0" y="0" width="0.05" height="0.05" fill="#ff7f7f"/></g><g transform="translate(1 0)"><rect stroke="black" stroke-width="0.01" x="-0.05" y="0" width="0.05" height="0.05" fill="#ff7f7f"/></g><g transform="translate(0.0 1.0)"><rect stroke="black" stroke-width="0.01" x="0" y="-0.05" width="0.05" height="0.05" fill="#ff7f7f"/></g><g transform="translate(1.0 1.0)"><rect stroke="black" stroke-width="0.01" x="-0.05" y="-0.05" width="0.05" height="0.05" fill="#ff7f7f"/></g></g><line stroke="black" stroke-width="0.01" x1="0.95" y1="0.95" x2="0.04999999999999999" y2="0.95"/><text dominant-baseline="central" text-anchor="middle" font-size="0.1" fill="black" x="0.09999999999999998" y="0.09999999999999998">1</text><text dominant-baseline="central" text-anchor="middle" font-size="0.1" fill="black" x="0.9" y="0.09999999999999998">2</text><text dominant-baseline="central" text-anchor="middle" font-size="0.1" fill="black" x="0.09999999999999998" y="0.9">3</text><text dominant-baseline="central" text-anchor="middle" font-size="0.1" fill="black" x="0.9" y="0.9">5</text></g><g id="plaquette_drawing_31"><path stroke="black" stroke-width="0.01" d="M 0.0 0.0 L 1.0 0.0 L 1.0 1.0 L 0.0 1.0 Z " fill="#ff7f7f"/><g><g transform="translate(0 0)"><rect stroke="black" stroke-width="0.01" x="0" y="0" width="0.05" height="0.05" fill="#ff7f7f"/></g><g transform="translate(1 0)"><rect stroke="black" stroke-width="0.01" x="-0.05" y="0" width="0.05" height="0.05" fill="#ff7f7f"/></g><g transform="translate(0.0 1.0)"><rect stroke="black" stroke-width="0.01" x="0" y="-0.05" width="0.05" height="0.05" fill="#ff7f7f"/></g><g transform="translate(1.0 1.0)"><rect stroke="black" stroke-width="0.01" x="-0.05" y="-0.05" width="0.05" height="0.05" fill="#ff7f7f"/></g></g><line stroke="black" stroke-width="0.01" x1="0.95" y1="0.95" x2="0.04999999999999999" y2="0.95"/><text dominant-baseline="central" text-anchor="middle" font-size="0.1" fill="black" x="0.09999999999999998" y="0.09999999999999998">1</text><text dominant-baseline="central" text-anchor="middle" font-size="0.1" fill="black" x="0.9" y="0.09999999999999998">2</text><text dominant-baseline="central" text-anchor="middle" font-size="0.1" fill="black" x="0.09999999999999998" y="0.9">3</text><text dominant-baseline="central" text-anchor="middle" font-size="0.1" fill="black" x="0.9" y="0.9">5</text></g><g id="plaquette_drawing_21"><path stroke="black" stroke-width="0.01" d="M 0.0 0.0 L 1.0 0.0 L 1.0 1.0 L 0.0 1.0 Z " fill="#ff7f7f"/><g><g transform="translate(0 0)"><rect stroke="black" stroke-width="0.01" x="0" y="0" width="0.05" height="0.05" fill="#ff7f7f"/></g><g transform="translate(1 0)"><rect stroke="black" stroke-width="0.01" x="-0.05" y="0" width="0.05" height="0.05" fill="#ff7f7f"/></g><g transform="translate(0.0 1.0)"><rect stroke="black" stroke-width="0.01" x="0" y="-0.05" width="0.05" height="0.05" fill="#ff7f7f"/></g><g transform="translate(1.0 1.0)"><rect stroke="black" stroke-width="0.01" x="-0.05" y="-0.05" width="0.05" height="0.05" fill="#ff7f7f"/></g></g><line stroke="black" stroke-width="0.01" x1="0.95" y1="0.95" x2="0.95" y2="0.04999999999999999"/><text dominant-baseline="central" text-anchor="middle" font-size="0.1" fill="black" x="0.09999999999999998" y="0.09999999999999998">1</text><text dominant-baseline="central" text-anchor="middle" font-size="0.1" fill="black" x="0.9" y="0.09999999999999998">4</text><text dominant-baseline="central" text-anchor="middle" font-size="0.1" fill="black" x="0.09999999999999998" y="0.9">3</text><text dominant-baseline="central" text-anchor="middle" font-size="0.1" fill="black" x="0.9" y="0.9">5</text></g><g id="plaquette_drawing_33"><path stroke="black" stroke-width="0.01" d="M 0.0 0.0 L 1.0 0.0 L 1.0 1.0 L 0.0 1.0 Z " fill="#ff7f7f"/><g><g transform="translate(0 0)"><rect stroke="black" stroke-width="0.01" x="0" y="0" width="0.05" height="0.05" fill="#ff7f7f"/></g><g transform="translate(1 0)"><rect stroke="black" stroke-width="0.01" x="-0.05" y="0" width="0.05" height="0.05" fill="#ff7f7f"/></g><g transform="translate(0.0 1.0)"><rect stroke="black" stroke-width="0.01" x="0" y="-0.05" width="0.05" height="0.05" fill="#ff7f7f"/></g><g transform="translate(1.0 1.0)"><rect stroke="black" stroke-width="0.01" x="-0.05" y="-0.05" width="0.05" height="0.05" fill="#ff7f7f"/></g></g><line stroke="black" stroke-width="0.01" x1="0.95" y1="0.95" x2="0.95" y2="0.04999999999999999"/><text dominant-baseline="central" text-anchor="middle" font-size="0.1" fill="black" x="0.09999999999999998" y="0.09999999999999998">1</text><text dominant-baseline="central" text-anchor="middle" font-size="0.1" fill="black" x="0.9" y="0.09999999999999998">4</text><text dominant-baseline="central" text-anchor="middle" font-size="0.1" fill="black" x="0.09999999999999998" y="0.9">3</text><text dominant-baseline="central" text-anchor="middle" font-size="0.1" fill="black" x="0.9" y="0.9">5</text></g><g id="plaquette_drawing_32"><path stroke="black" stroke-width="0.01" d="M 0.0 0.0 L 1.0 0.0 L 1.0 1.0 L 0.0 1.0 Z " fill="#ff7f7f"/><g><g transform="translate(0 0)"><rect stroke="black" stroke-width="0.01" x="0" y="0" width="0.05" height="0.05" fill="#ff7f7f"/></g><g transform="translate(1 0)"><rect stroke="black" stroke-width="0.01" x="-0.05" y="0" width="0.05" height="0.05" fill="#ff7f7f"/></g><g transform="translate(0.0 1.0)"><rect stroke="black" stroke-width="0.01" x="0" y="-0.05" width="0.05" height="0.05" fill="#ff7f7f"/></g><g transform="translate(1.0 1.0)"><rect stroke="black" stroke-width="0.01" x="-0.05" y="-0.05" width="0.05" height="0.05" fill="#ff7f7f"/></g></g><line stroke="black" stroke-width="0.01" x1="0.95" y1="0.95" x2="0.95" y2="0.04999999999999999"/><text dominant-baseline="central" text-anchor="middle" font-size="0.1" fill="black" x="0.09999999999999998" y="0.09999999999999998">1</text><text dominant-baseline="central" text-anchor="middle" font-size="0.1" fill="black" x="0.9" y="0.09999999999999998">4</text><text dominant-baseline="central" text-anchor="middle" font-size="0.1" fill="black" x="0.09999999999999998" y="0.9">3</text><text dominant-baseline="central" text-anchor="middle" font-size="0.1" fill="black" x="0.9" y="0.9">5</text></g><g id="plaquette_drawing_34"><path stroke="black" stroke-width="0.01" d="M 0.0 0.0 L 1.0 0.0 L 1.0 1.0 L 0.0 1.0 Z " fill="#ff7f7f"/><g><g transform="translate(0 0)"><rect stroke="black" stroke-width="0.01" x="0" y="0" width="0.05" height="0.05" fill="#ff7f7f"/></g><g transform="translate(1 0)"><rect stroke="black" stroke-width="0.01" x="-0.05" y="0" width="0.05" height="0.05" fill="#ff7f7f"/></g><g transform="translate(0.0 1.0)"><rect stroke="black" stroke-width="0.01" x="0" y="-0.05" width="0.05" height="0.05" fill="#ff7f7f"/></g><g transform="translate(1.0 1.0)"><rect stroke="black" stroke-width="0.01" x="-0.05" y="-0.05" width="0.05" height="0.05" fill="#ff7f7f"/></g></g><line stroke="black" stroke-width="0.01" x1="0.95" y1="0.95" x2="0.04999999999999999" y2="0.95"/><text dominant-baseline="central" text-anchor="middle" font-size="0.1" fill="black" x="0.09999999999999998" y="0.09999999999999998">1</text><text dominant-baseline="central" text-anchor="middle" font-size="0.1" fill="black" x="0.9" y="0.09999999999999998">2</text><text dominant-baseline="central" text-anchor="middle" font-size="0.1" fill="black" x="0.09999999999999998" y="0.9">3</text><text dominant-baseline="central" text-anchor="middle" font-size="0.1" fill="black" x="0.9" y="0.9">5</text></g><g id="plaquette_drawing_23"><g><rect x="0" y="0" width="1.0" height="1.0" fill="#ff7f7f"/><line stroke="grey" stroke-width="0.01" x1="0" y1="0" x2="1" y2="0"/><line stroke="black" stroke-width="0.01" x1="0.0" y1="1.0" x2="1.0" y2="1.0"/><line stroke="black" stroke-width="0.01" x1="0" y1="0" x2="0.0" y2="1.0"/><line stroke="black" stroke-width="0.01" x1="1" y1="0" x2="1.0" y2="1.0"/></g><g><g transform="translate(0.0 1.0)"><rect stroke="black" stroke-width="0.01" x="0" y="-0.05" width="0.05" height="0.05" fill="#ff7f7f"/></g><g transform="translate(1.0 1.0)"><rect stroke="black" stroke-width="0.01" x="-0.05" y="-0.05" width="0.05" height="0.05" fill="#ff7f7f"/></g></g><line stroke="black" stroke-width="0.01" x1="0.04999999999999999" y1="0.95" x2="0.95" y2="0.95"/><text dominant-baseline="central" text-anchor="middle" font-size="0.1" fill="black" x="0.09999999999999998" y="0.9">3</text><text dominant-baseline="central" text-anchor="middle" font-size="0.1" fill="black" x="0.9" y="0.9">5</text></g><g id="plaquette_drawing_24"><g><rect x="0" y="0" width="1.0" height="1.0" fill="#7396ff"/><line stroke="grey" stroke-width="0.01" x1="0" y1="0" x2="1" y2="0"/><line stroke="black" stroke-width="0.01" x1="0.0" y1="1.0" x2="1.0" y2="1.0"/><line stroke="black" stroke-width="0.01" x1="0" y1="0" x2="0.0" y2="1.0"/><line stroke="black" stroke-width="0.01" x1="1" y1="0" x2="1.0" y2="1.0"/></g><g><g transform="translate(0.0 1.0)"><rect stroke="black" stroke-width="0.01" x="0" y="-0.05" width="0.05" height="0.05" fill="#ff7f7f"/></g><g transform="translate(1.0 1.0)"><rect stroke="black" stroke-width="0.01" x="-0.05" y="-0.05" width="0.05" height="0.05" fill="#ff7f7f"/></g></g><line stroke="black" stroke-width="0.01" x1="0.04999999999999999" y1="0.95" x2="0.95" y2="0.95"/><text dominant-baseline="central" text-anchor="middle" font-size="0.1" fill="black" x="0.09999999999999998" y="0.9">3</text><text dominant-baseline="central" text-anchor="middle" font-size="0.1" fill="black" x="0.9" y="0.9">5</text></g><g id="plaquette_drawing_15"><g><rect x="0.5" y="0.0" width="0.5" height="1.0" fill="#7396ff"/><line stroke="grey" stroke-width="0.01" x1="0.5" y1="0.0" x2="1" y2="0"/><line stroke="black" stroke-width="0.01" x1="0.5" y1="1.0" x2="1.0" y2="1.0"/><line stroke="black" stroke-width="0.01" x1="0.5" y1="0.0" x2="0.5" y2="1.0"/><line stroke="black" stroke-width="0.01" x1="1" y1="0" x2="1.0" y2="1.0"/></g><g><g transform="translate(1.0 1.0)"><rect stroke="black" stroke-width="0.01" x="-0.05" y="-0.05" width="0.05" height="0.05" fill="#ff7f7f"/></g></g><text dominant-baseline="central" text-anchor="middle" font-size="0.1" fill="black" x="0.9" y="0.9">5</text></g><g id="plaquette_drawing_18"><g transform="rotate(180 0.5 0.5)"><path stroke="black" stroke-width="0.01" d="M 0 1 A 0.5 0.5 180 1 1 1 1 Z " fill="#7396ff"/></g><g/><text dominant-baseline="central" text-anchor="middle" font-size="0.1" fill="black" x="0.09999999999999998" y="0.09999999999999998">1</text><text dominant-baseline="central" text-anchor="middle" font-size="0.1" fill="black" x="0.9" y="0.09999999999999998">4</text></g><g id="plaquette_drawing_35"><path stroke="black" stroke-width="0.01" d="M 0.0 0.0 L 1.0 0.0 L 1.0 1.0 L 0.0 1.0 Z " fill="#7396ff"/><g><g transform="translate(1 0)"><rect stroke="black" stroke-width="0.01" x="-0.05" y="0" width="0.05" height="0.05" fill="#ff7f7f"/></g><g transform="translate(1.0 1.0)"><rect stroke="black" stroke-width="0.01" x="-0.05" y="-0.05" width="0.05" height="0.05" fill="#ff7f7f"/></g></g><line stroke="black" stroke-width="0.01" x1="0.95" y1="0.95" x2="0.04999999999999999" y2="0.95"/><text dominant-baseline="central" text-anchor="middle" font-size="0.1" fill="black" x="0.09999999999999998" y="0.09999999999999998">1</text><text dominant-baseline="central" text-anchor="middle" font-size="0.1" fill="black" x="0.9" y="0.09999999999999998">2</text><text dominant-baseline="central" text-anchor="middle" font-size="0.1" fill="black" x="0.09999999999999998" y="0.9">3</text><text dominant-baseline="central" text-anchor="middle" font-size="0.1" fill="black" x="0.9" y="0.9">5</text></g><g id="plaquette_drawing_36"><path stroke="black" stroke-width="0.01" d="M 0.0 0.0 L 1.0 0.0 L 1.0 1.0 L 0.0 1.0 Z " fill="#ff7f7f"/><g><g transform="translate(1 0)"><rect stroke="black" stroke-width="0.01" x="-0.05" y="0" width="0.05" height="0.05" fill="#ff7f7f"/></g><g transform="translate(1.0 1.0)"><rect stroke="black" stroke-width="0.01" x="-0.05" y="-0.05" width="0.05" height="0.05" fill="#ff7f7f"/></g></g><line stroke="black" stroke-width="0.01" x1="0.95" y1="0.95" x2="0.95" y2="0.04999999999999999"/><text dominant-baseline="central" text-anchor="middle" font-size="0.1" fill="black" x="0.09999999999999998" y="0.09999999999999998">1</text><text dominant-baseline="central" text-anchor="middle" font-size="0.1" fill="black" x="0.9" y="0.09999999999999998">4</text><text dominant-baseline="central" text-anchor="middle" font-size="0.1" fill="black" x="0.09999999999999998" y="0.9">3</text><text dominant-baseline="central" text-anchor="middle" font-size="0.1" fill="black" x="0.9" y="0.9">5</text></g><g id="plaquette_drawing_44"><g transform="rotate(0 0.5 0.5)"><path stroke="black" stroke-width="0.01" d="M 0 1 A 0.5 0.5 180 1 1 1 1 Z " fill="#7396ff"/></g><g/><text dominant-baseline="central" text-anchor="middle" font-size="0.1" fill="black" x="0.09999999999999998" y="0.9">3</text><text dominant-baseline="central" text-anchor="middle" font-size="0.1" fill="black" x="0.9" y="0.9">5</text></g><g id="plaquette_drawing_47"><path stroke="black" stroke-width="0.01" d="M 0.0 0.0 L 1.0 0.0 L 1.0 1.0 L 0.0 1.0 Z " fill="#7396ff"/><g><g transform="translate(0 0)"><rect stroke="black" stroke-width="0.01" x="0" y="0" width="0.05" height="0.05" fill="#ff7f7f"/></g><g transform="translate(1 0)"><rect stroke="black" stroke-width="0.01" x="-0.05" y="0" width="0.05" height="0.05" fill="#ff7f7f"/></g><g transform="translate(0.0 1.0)"><rect stroke="black" stroke-width="0.01" x="0" y="-0.05" width="0.05" height="0.05" fill="#ff7f7f"/></g><g transform="translate(1.0 1.0)"><rect stroke="black" stroke-width="0.01" x="-0.05" y="-0.05" width="0.05" height="0.05" fill="#ff7f7f"/></g></g><line stroke="black" stroke-width="0.01" x1="0.95" y1="0.95" x2="0.04999999999999999" y2="0.95"/><text dominant-baseline="central" text-anchor="middle" font-size="0.1" fill="black" x="0.09999999999999998" y="0.09999999999999998">1</text><text dominant-baseline="central" text-anchor="middle" font-size="0.1" fill="black" x="0.9" y="0.09999999999999998">2</text><text dominant-baseline="central" text-anchor="middle" font-size="0.1" fill="black" x="0.09999999999999998" y="0.9">3</text><text dominant-baseline="central" text-anchor="middle" font-size="0.1" fill="black" x="0.9" y="0.9">5</text></g><g id="plaquette_drawing_48"><path stroke="black" stroke-width="0.01" d="M 0.0 0.0 L 1.0 0.0 L 1.0 1.0 L 0.0 1.0 Z " fill="#ff7f7f"/><g><g transform="translate(0 0)"><rect stroke="black" stroke-width="0.01" x="0" y="0" width="0.05" height="0.05" fill="#ff7f7f"/></g><g transform="translate(1 0)"><rect stroke="black" stroke-width="0.01" x="-0.05" y="0" width="0.05" height="0.05" fill="#ff7f7f"/></g><g transform="translate(0.0 1.0)"><rect stroke="black" stroke-width="0.01" x="0" y="-0.05" width="0.05" height="0.05" fill="#ff7f7f"/></g><g transform="translate(1.0 1.0)"><rect stroke="black" stroke-width="0.01" x="-0.05" y="-0.05" width="0.05" height="0.05" fill="#ff7f7f"/></g></g><line stroke="black" stroke-width="0.01" x1="0.95" y1="0.95" x2="0.95" y2="0.04999999999999999"/><text dominant-baseline="central" text-anchor="middle" font-size="0.1" fill="black" x="0.09999999999999998" y="0.09999999999999998">1</text><text dominant-baseline="central" text-anchor="middle" font-size="0.1" fill="black" x="0.9" y="0.09999999999999998">4</text><text dominant-baseline="central" text-anchor="middle" font-size="0.1" fill="black" x="0.09999999999999998" y="0.9">3</text><text dominant-baseline="central" text-anchor="middle" font-size="0.1" fill="black" x="0.9" y="0.9">5</text></g><g id="plaquette_drawing_50"><g transform="rotate(90 0.5 0.5)"><path stroke="black" stroke-width="0.01" d="M 0 1 A 0.5 0.5 180 1 1 1 1 Z " fill="#ff7f7f"/></g><g/><text dominant-baseline="central" text-anchor="middle" font-size="0.1" fill="black" x="0.09999999999999998" y="0.09999999999999998">1</text><text dominant-baseline="central" text-anchor="middle" font-size="0.1" fill="black" x="0.09999999999999998" y="0.9">3</text></g><g id="plaquette_drawing_51"><g transform="rotate(180 0.5 0.5)"><path stroke="black" stroke-width="0.01" d="M 0 1 A 0.5 0.5 180 1 1 1 1 Z " fill="#7396ff"/></g><g/><text dominant-baseline="central" text-anchor="middle" font-size="0.1" fill="black" x="0.09999999999999998" y="0.09999999999999998">1</text><text dominant-baseline="central" text-anchor="middle" font-size="0.1" fill="black" x="0.9" y="0.09999999999999998">4</text></g><g id="plaquette_drawing_39"><g transform="rotate(0 0.5 0.5)"><path stroke="black" stroke-width="0.01" d="M 0 1 A 0.5 0.5 180 1 1 1 1 Z " fill="#7396ff"/></g><g/><text dominant-baseline="central" text-anchor="middle" font-size="0.1" fill="black" x="0.09999999999999998" y="0.9">3</text><text dominant-baseline="central" text-anchor="middle" font-size="0.1" fill="black" x="0.9" y="0.9">5</text></g><g id="plaquette_drawing_45"><path stroke="black" stroke-width="0.01" d="M 0.0 0.0 L 1.0 0.0 L 1.0 1.0 L 0.0 1.0 Z " fill="#ff7f7f"/><g><g transform="translate(0 0)"><rect stroke="black" stroke-width="0.01" x="0" y="0" width="0.05" height="0.05" fill="#ff7f7f"/></g><g transform="translate(0.0 1.0)"><rect stroke="black" stroke-width="0.01" x="0" y="-0.05" width="0.05" height="0.05" fill="#ff7f7f"/></g></g><line stroke="black" stroke-width="0.01" x1="0.95" y1="0.95" x2="0.95" y2="0.04999999999999999"/><text dominant-baseline="central" text-anchor="middle" font-size="0.1" fill="black" x="0.09999999999999998" y="0.09999999999999998">1</text><text dominant-baseline="central" text-anchor="middle" font-size="0.1" fill="black" x="0.9" y="0.09999999999999998">4</text><text dominant-baseline="central" text-anchor="middle" font-size="0.1" fill="black" x="0.09999999999999998" y="0.9">3</text><text dominant-baseline="central" text-anchor="middle" font-size="0.1" fill="black" x="0.9" y="0.9">5</text></g><g id="plaquette_drawing_46"><path stroke="black" stroke-width="0.01" d="M 0.0 0.0 L 1.0 0.0 L 1.0 1.0 L 0.0 1.0 Z " fill="#7396ff"/><g><g transform="translate(0 0)"><rect stroke="black" stroke-width="0.01" x="0" y="0" width="0.05" height="0.05" fill="#ff7f7f"/></g><g transform="translate(0.0 1.0)"><rect stroke="black" stroke-width="0.01" x="0" y="-0.05" width="0.05" height="0.05" fill="#ff7f7f"/></g></g><line stroke="black" stroke-width="0.01" x1="0.95" y1="0.95" x2="0.04999999999999999" y2="0.95"/><text dominant-baseline="central" text-anchor="middle" font-size="0.1" fill="black" x="0.09999999999999998" y="0.09999999999999998">1</text><text dominant-baseline="central" text-anchor="middle" font-size="0.1" fill="black" x="0.9" y="0.09999999999999998">2</text><text dominant-baseline="central" text-anchor="middle" font-size="0.1" fill="black" x="0.09999999999999998" y="0.9">3</text><text dominant-baseline="central" text-anchor="middle" font-size="0.1" fill="black" x="0.9" y="0.9">5</text></g><g id="plaquette_drawing_default"/></defs><use href="#plaquette_drawing_default" x="0.0" y="0.0"/><use href="#plaquette_drawing_default" x="1.0" y="0.0"/><use href="#plaquette_drawing_6" x="2.0" y="0.0"/><use href="#plaquette_drawing_default" x="3.0" y="0.0"/><use href="#plaquette_drawing_6" x="4.0" y="0.0"/><use href="#plaquette_drawing_default" x="5.0" y="0.0"/><use href="#plaquette_drawing_6" x="6.0" y="0.0"/><use href="#plaquette_drawing_default" x="7.0" y="0.0"/><use href="#plaquette_drawing_7" x="0.0" y="1.0"/><use href="#plaquette_drawing_9" x="1.0" y="1.0"/><use href="#plaquette_drawing_10" x="2.0" y="1.0"/><use href="#plaquette_drawing_9" x="3.0" y="1.0"/><use href="#plaquette_drawing_10" x="4.0" y="1.0"/><use href="#plaquette_drawing_9" x="5.0" y="1.0"/><use href="#plaquette_drawing_10" x="6.0" y="1.0"/><use href="#plaquette_drawing_default" x="7.0" y="1.0"/><use href="#plaquette_drawing_default" x="0.0" y="2.0"/><use href="#plaquette_drawing_10" x="1.0" y="2.0"/><use href="#plaquette_drawing_9" x="2.0" y="2.0"/><use href="#plaquette_drawing_10" x="3.0" y="2.0"/><use href="#plaquette_drawing_9" x="4.0" y="2.0"/><use href="#plaquette_drawing_10" x="5.0" y="2.0"/><use href="#plaquette_drawing_9" x="6.0" y="2.0"/><use href="#plaquette_drawing_12" x="7.0" y="2.0"/><use href="#plaquette_drawing_7" x="0.0" y="3.0"/><use href="#plaquette_drawing_9" x="1.0" y="3.0"/><use href="#plaquette_drawing_10" x="2.0" y="3.0"/><use href="#plaquette_drawing_9" x="3.0" y="3.0"/><use href="#plaquette_drawing_10" x="4.0" y="3.0"/><use href="#plaquette_drawing_9" x="5.0" y="3.0"/><use href="#plaquette_drawing_10" x="6.0" y="3.0"/><use href="#plaquette_drawing_default" x="7.0" y="3.0"/><use href="#plaquette_drawing_default" x="0.0" y="4.0"/><use href="#plaquette_drawing_10" x="1.0" y="4.0"/><use href="#plaquette_drawing_9" x="2.0" y="4.0"/><use href="#plaquette_drawing_10" x="3.0" y="4.0"/><use href="#plaquette_drawing_9" x="4.0" y="4.0"/><use href="#plaquette_drawing_10" x="5.0" y="4.0"/><use href="#plaquette_drawing_9" x="6.0" y="4.0"/><use href="#plaquette_drawing_12" x="7.0" y="4.0"/><use href="#plaquette_drawing_7" x="0.0" y="5.0"/><use href="#plaquette_drawing_9" x="1.0" y="5.0"/><use href="#plaquette_drawing_10" x="2.0" y="5.0"/><use href="#plaquette_drawing_9" x="3.0" y="5.0"/><use href="#plaquette_drawing_10" x="4.0" y="5.0"/><use href="#plaquette_drawing_9" x="5.0" y="5.0"/><use href="#plaquette_drawing_10" x="6.0" y="5.0"/><use href="#plaquette_drawing_default" x="7.0" y="5.0"/><use href="#plaquette_drawing_default" x="0.0" y="6.0"/><use href="#plaquette_drawing_10" x="1.0" y="6.0"/><use href="#plaquette_drawing_9" x="2.0" y="6.0"/><use href="#plaquette_drawing_10" x="3.0" y="6.0"/><use href="#plaquette_drawing_9" x="4.0" y="6.0"/><use href="#plaquette_drawing_10" x="5.0" y="6.0"/><use href="#plaquette_drawing_9" x="6.0" y="6.0"/><use href="#plaquette_drawing_12" x="7.0" y="6.0"/><use href="#plaquette_drawing_3" x="0.0" y="7.0"/><use href="#plaquette_drawing_13" x="1.0" y="7.0"/><use href="#plaquette_drawing_14" x="2.0" y="7.0"/><use href="#plaquette_drawing_13" x="3.0" y="7.0"/><use href="#plaquette_drawing_14" x="4.0" y="7.0"/><use href="#plaquette_drawing_13" x="5.0" y="7.0"/><use href="#plaquette_drawing_14" x="6.0" y="7.0"/><use href="#plaquette_drawing_default" x="7.0" y="7.0"/><use href="#plaquette_drawing_15" x="0.0" y="8.0"/><use href="#plaquette_drawing_23" x="1.0" y="8.0"/><use href="#plaquette_drawing_24" x="2.0" y="8.0"/><use href="#plaquette_drawing_23" x="3.0" y="8.0"/><use href="#plaquette_drawing_24" x="4.0" y="8.0"/><use href="#plaquette_drawing_23" x="5.0" y="8.0"/><use href="#plaquette_drawing_24" x="6.0" y="8.0"/><use href="#plaquette_drawing_default" x="7.0" y="8.0"/><use href="#plaquette_drawing_39" x="8.0" y="8.0"/><use href="#plaquette_drawing_default" x="9.0" y="8.0"/><use href="#plaquette_drawing_44" x="10.0" y="8.0"/><use href="#plaquette_drawing_default" x="11.0" y="8.0"/><use href="#plaquette_drawing_44" x="12.0" y="8.0"/><use href="#plaquette_drawing_default" x="13.0" y="8.0"/><use href="#plaquette_drawing_44" x="14.0" y="8.0"/><use href="#plaquette_drawing_default" x="15.0" y="8.0"/><use href="#plaquette_drawing_default" x="0.0" y="9.0"/><use href="#plaquette_drawing_19" x="1.0" y="9.0"/><use href="#plaquette_drawing_31" x="2.0" y="9.0"/><use href="#plaquette_drawing_27" x="3.0" y="9.0"/><use href="#plaquette_drawing_31" x="4.0" y="9.0"/><use href="#plaquette_drawing_27" x="5.0" y="9.0"/><use href="#plaquette_drawing_20" x="6.0" y="9.0"/><use href="#plaquette_drawing_35" x="7.0" y="9.0"/><use href="#plaquette_drawing_45" x="8.0" y="9.0"/><use href="#plaquette_drawing_47" x="9.0" y="9.0"/><use href="#plaquette_drawing_48" x="10.0" y="9.0"/><use href="#plaquette_drawing_47" x="11.0" y="9.0"/><use href="#plaquette_drawing_48" x="12.0" y="9.0"/><use href="#plaquette_drawing_47" x="13.0" y="9.0"/><use href="#plaquette_drawing_48" x="14.0" y="9.0"/><use href="#plaquette_drawing_default" x="15.0" y="9.0"/><use href="#plaquette_drawing_26" x="0.0" y="10.0"/><use href="#plaquette_drawing_34" x="1.0" y="10.0"/><use href="#plaquette_drawing_27" x="2.0" y="10.0"/><use href="#plaquette_drawing_31" x="3.0" y="10.0"/><use href="#plaquette_drawing_27" x="4.0" y="10.0"/><use href="#plaquette_drawing_31" x="5.0" y="10.0"/><use href="#plaquette_drawing_28" x="6.0" y="10.0"/><use href="#plaquette_drawing_36" x="7.0" y="10.0"/><use href="#plaquette_drawing_46" x="8.0" y="10.0"/><use href="#plaquette_drawing_48" x="9.0" y="10.0"/><use href="#plaquette_drawing_47" x="10.0" y="10.0"/><use href="#plaquette_drawing_48" x="11.0" y="10.0"/><use href="#plaquette_drawing_47" x="12.0" y="10.0"/><use href="#plaquette_drawing_48" x="13.0" y="10.0"/><use href="#plaquette_drawing_47" x="14.0" y="10.0"/><use href="#plaquette_drawing_50" x="15.0" y="10.0"/><use href="#plaquette_drawing_default" x="0.0" y="11.0"/><use href="#plaquette_drawing_30" x="1.0" y="11.0"/><use href="#plaquette_drawing_34" x="2.0" y="11.0"/><use href="#plaquette_drawing_27" x="3.0" y="11.0"/><use href="#plaquette_drawing_31" x="4.0" y="11.0"/><use href="#plaquette_drawing_28" x="5.0" y="11.0"/><use href="#plaquette_drawing_32" x="6.0" y="11.0"/><use href="#plaquette_drawing_35" x="7.0" y="11.0"/><use href="#plaquette_drawing_45" x="8.0" y="11.0"/><use href="#plaquette_drawing_47" x="9.0" y="11.0"/><use href="#plaquette_drawing_48" x="10.0" y="11.0"/><use href="#plaquette_drawing_47" x="11.0" y="11.0"/><use href="#plaquette_drawing_48" x="12.0" y="11.0"/><use href="#plaquette_drawing_47" x="13.0" y="11.0"/><use href="#plaquette_drawing_48" x="14.0" y="11.0"/><use href="#plaquette_drawing_default" x="15.0" y="11.0"/><use href="#plaquette_drawing_26" x="0.0" y="12.0"/><use href="#plaquette_drawing_34" x="1.0" y="12.0"/><use href="#plaquette_drawing_30" x="2.0" y="12.0"/><use href="#plaquette_drawing_33" x="3.0" y="12.0"/><use href="#plaquette_drawing_29" x="4.0" y="12.0"/><use href="#plaquette_drawing_32" x="5.0" y="12.0"/><use href="#plaquette_drawing_28" x="6.0" y="12.0"/><use href="#plaquette_drawing_36" x="7.0" y="12.0"/><use href="#plaquette_drawing_46" x="8.0" y="12.0"/><use href="#plaquette_drawing_48" x="9.0" y="12.0"/><use href="#plaquette_drawing_47" x="10.0" y="12.0"/><use href="#plaquette_drawing_48" x="11.0" y="12.0"/><use href="#plaquette_drawing_47" x="12.0" y="12.0"/><use href="#plaquette_drawing_48" x="13.0" y="12.0"/><use href="#plaquette_drawing_47" x="14.0" y="12.0"/><use href="#plaquette_drawing_50" x="15.0" y="12.0"/><use href="#plaquette_drawing_default" x="0.0" y="13.0"/><use href="#plaquette_drawing_30" x="1.0" y="13.0"/><use href="#plaquette_drawing_33" x="2.0" y="13.0"/><use href="#plaquette_drawing_29" x="3.0" y="13.0"/><use href="#plaquette_drawing_33" x="4.0" y="13.0"/><use href="#plaquette_drawing_29" x="5.0" y="13.0"/><use href="#plaquette_drawing_32" x="6.0" y="13.0"/><use href="#plaquette_drawing_35" x="7.0" y="13.0"/><use href="#plaquette_drawing_45" x="8.0" y="13.0"/><use href="#plaquette_drawing_47" x="9.0" y="13.0"/><use href="#plaquette_drawing_48" x="10.0" y="13.0"/><use href="#plaquette_drawing_47" x="11.0" y="13.0"/><use href="#plaquette_drawing_48" x="12.0" y="13.0"/><use href="#plaquette_drawing_47" x="13.0" y="13.0"/><use href="#plaquette_drawing_48" x="14.0" y="13.0"/><use href="#plaquette_drawing_default" x="15.0" y="13.0"/><use href="#plaquette_drawing_26" x="0.0" y="14.0"/><use href="#plaquette_drawing_21" x="1.0" y="14.0"/><use href="#plaquette_drawing_29" x="2.0" y="14.0"/><use href="#plaquette_drawing_33" x="3.0" y="14.0"/><use href="#plaquette_drawing_29" x="4.0" y="14.0"/><use href="#plaquette_drawing_33" x="5.0" y="14.0"/><use href="#plaquette_drawing_22" x="6.0" y="14.0"/><use href="#plaquette_drawing_36" x="7.0" y="14.0"/><use href="#plaquette_drawing_46" x="8.0" y="14.0"/><use href="#plaquette_drawing_48" x="9.0" y="14.0"/><use href="#plaquette_drawing_47" x="10.0" y="14.0"/><use href="#plaquette_drawing_48" x="11.0" y="14.0"/><use href="#plaquette_drawing_47" x="12.0" y="14.0"/><use href="#plaquette_drawing_48" x="13.0" y="14.0"/><use href="#plaquette_drawing_47" x="14.0" y="14.0"/><use href="#plaquette_drawing_50" x="15.0" y="14.0"/><use href="#plaquette_drawing_default" x="0.0" y="15.0"/><use href="#plaquette_drawing_37" x="1.0" y="15.0"/><use href="#plaquette_drawing_default" x="2.0" y="15.0"/><use href="#plaquette_drawing_37" x="3.0" y="15.0"/><use href="#plaquette_drawing_default" x="4.0" y="15.0"/><use href="#plaquette_drawing_37" x="5.0" y="15.0"/><use href="#plaquette_drawing_default" x="6.0" y="15.0"/><use href="#plaquette_drawing_18" x="7.0" y="15.0"/><use href="#plaquette_drawing_default" x="8.0" y="15.0"/><use href="#plaquette_drawing_51" x="9.0" y="15.0"/><use href="#plaquette_drawing_default" x="10.0" y="15.0"/><use href="#plaquette_drawing_51" x="11.0" y="15.0"/><use href="#plaquette_drawing_default" x="12.0" y="15.0"/><use href="#plaquette_drawing_51" x="13.0" y="15.0"/><use href="#plaquette_drawing_default" x="14.0" y="15.0"/><use href="#plaquette_drawing_default" x="15.0" y="15.0"/><g><g transform="translate(1.5 8.5)"><circle stroke="black" stroke-width="0.01" cx="0" cy="0" r="0.15" fill="transparent"/><text dominant-baseline="middle" text-anchor="middle" font-size="0.08" fill="black" x="0" y="0">D3 (0)</text></g><g transform="translate(3.5 7.5)"><circle stroke="black" stroke-width="0.01" cx="0" cy="0" r="0.15" fill="transparent"/><text dominant-baseline="middle" text-anchor="middle" font-size="0.08" fill="black" x="0" y="0">D84 (1)</text></g><g transform="translate(5.5 8.5)"><circle stroke="black" stroke-width="0.01" cx="0" cy="0" r="0.15" fill="transparent"/><text dominant-baseline="middle" text-anchor="middle" font-size="0.08" fill="black" x="0" y="0">D11 (0)</text></g><g transform="translate(4.5 9.5)"><circle stroke="black" stroke-width="0.01" cx="0" cy="0" r="0.15" fill="transparent"/><text dominant-baseline="middle" text-anchor="middle" font-size="0.08" fill="black" x="0" y="0">D195 (1)</text></g><g><g transform="translate(1.0 7.0)"><path stroke="#0000ff" stroke-width="0.03333333333333333" d="M -0.08333333333333333 -0.08333333333333333 L 0.08333333333333333 0.08333333333333333 M -0.08333333333333333 0.08333333333333333 L 0.08333333333333333 -0.08333333333333333"/><text dominant-baseline="auto" text-anchor="middle" font-size="0.3" font-weight="bold" fill="#0000ff" x="0" y="-0.16666666666666666">0</text></g><line stroke="black" stroke-width="0.01" x1="1.0" y1="7.0" x2="1.5" y2="8.5"/></g><g><g transform="translate(2.0 8.0)"><path stroke="#ff0000" stroke-width="0.03333333333333333" d="M -0.08333333333333333 -0.08333333333333333 L 0.08333333333333333 0.08333333333333333 M -0.08333333333333333 0.08333333333333333 L 0.08333333333333333 -0.08333333333333333"/><text dominant-baseline="auto" text-anchor="middle" font-size="0.3" font-weight="bold" fill="#ff0000" x="0" y="-0.16666666666666666">0</text></g><line stroke="black" stroke-width="0.01" x1="2.0" y1="8.0" x2="1.5" y2="8.5"/><line stroke="black" stroke-width="0.01" x1="2.0" y1="8.0" x2="3.5" y2="7.5"/></g><g><g transform="translate(6.0 8.0)"><path stroke="#ff0000" stroke-width="0.03333333333333333" d="M -0.08333333333333333 -0.08333333333333333 L 0.08333333333333333 0.08333333333333333 M -0.08333333333333333 0.08333333333333333 L 0.08333333333333333 -0.08333333333333333"/><text dominant-baseline="auto" text-anchor="middle" font-size="0.3" font-weight="bold" fill="#ff0000" x="0" y="-0.16666666666666666">0</text></g><line stroke="black" stroke-width="0.01" x1="6.0" y1="8.0" x2="5.5" y2="8.5"/></g><g><g transform="translate(5.0 9.0)"><path stroke="#0000ff" stroke-width="0.03333333333333333" d="M -0.08333333333333333 -0.08333333333333333 L 0.08333333333333333 0.08333333333333333 M -0.08333333333333333 0.08333333333333333 L 0.08333333333333333 -0.08333333333333333"/><text dominant-baseline="auto" text-anchor="middle" font-size="0.3" font-weight="bold" fill="#0000ff" x="0" y="-0.16666666666666666">2</text></g><line stroke="black" stroke-width="0.01" x1="5.0" y1="9.0" x2="5.5" y2="8.5"/><line stroke="black" stroke-width="0.01" x1="5.0" y1="9.0" x2="4.5" y2="9.5"/></g><g><g transform="translate(4.0 9.0)"><path stroke="#0000ff" stroke-width="0.03333333333333333" d="M -0.08333333333333333 -0.08333333333333333 L 0.08333333333333333 0.08333333333333333 M -0.08333333333333333 0.08333333333333333 L 0.08333333333333333 -0.08333333333333333"/><text dominant-baseline="auto" text-anchor="middle" font-size="0.3" font-weight="bold" fill="#0000ff" x="0" y="-0.16666666666666666">5</text></g><line stroke="black" stroke-width="0.01" x1="4.0" y1="9.0" x2="3.5" y2="7.5"/><line stroke="black" stroke-width="0.01" x1="4.0" y1="9.0" x2="4.5" y2="9.5"/></g></g></g><text dominant-baseline="hanging" text-anchor="start" font-size="0.5" fill="red" x="0" y="0">Moments: 0 -> 8</text></svg>
