<?xml version="1.0" encoding="utf-8" standalone="no"?>
<!DOCTYPE svg PUBLIC "-//W3C//DTD SVG 1.1//EN"
  "http://www.w3.org/Graphics/SVG/1.1/DTD/svg11.dtd">
<svg xmlns:xlink="http://www.w3.org/1999/xlink" width="281.131255pt" height="280.512pt" viewBox="0 0 281.131255 280.512" xmlns="http://www.w3.org/2000/svg" version="1.1">
 <metadata>
  <rdf:RDF xmlns:dc="http://purl.org/dc/elements/1.1/" xmlns:cc="http://creativecommons.org/ns#" xmlns:rdf="http://www.w3.org/1999/02/22-rdf-syntax-ns#">
   <cc:Work>
    <dc:type rdf:resource="http://purl.org/dc/dcmitype/StillImage"/>
    <dc:date>2025-10-10T20:05:47.520666</dc:date>
    <dc:format>image/svg+xml</dc:format>
    <dc:creator>
     <cc:Agent>
      <dc:title>Matplotlib v3.10.3, https://matplotlib.org/</dc:title>
     </cc:Agent>
    </dc:creator>
   </cc:Work>
  </rdf:RDF>
 </metadata>
 <defs>
  <style type="text/css">*{stroke-linejoin: round; stroke-linecap: butt}</style>
 </defs>
 <g id="figure_1">
  <g id="patch_1">
   <path d="M 0 280.512 
L 281.131255 280.512 
L 281.131255 0 
L 0 0 
z
" style="fill: #ffffff"/>
  </g>
  <g id="axes_1">
   <g id="line2d_1">
    <path d="M 121.987237 158.524763 
L 143.644915 136.867085 
" clip-path="url(#p8307e054e2)" style="fill: none; stroke: #000000; stroke-opacity: 0.5; stroke-width: 1.5; stroke-linecap: square"/>
   </g>
   <g id="line2d_2">
    <path d="M 121.987237 158.524763 
L 73.444535 207.067465 
" clip-path="url(#p8307e054e2)" style="fill: none; stroke: #000000; stroke-opacity: 0.5; stroke-width: 1.5; stroke-linecap: square"/>
   </g>
   <g id="line2d_3">
    <path d="M 121.987237 158.524763 
L 180.781953 99.730047 
" clip-path="url(#p8307e054e2)" style="fill: none; stroke: #000000; stroke-opacity: 0.5; stroke-width: 1.5; stroke-linecap: square"/>
   </g>
   <g id="line2d_4">
    <path d="M 121.987237 158.524763 
L 86.186623 194.325377 
" clip-path="url(#p8307e054e2)" style="fill: none; stroke: #000000; stroke-opacity: 0.5; stroke-width: 1.5; stroke-linecap: square"/>
   </g>
   <g id="line2d_5">
    <path d="M 143.644915 136.867085 
L 107.530222 172.981778 
" clip-path="url(#p8307e054e2)" style="fill: none; stroke: #000000; stroke-opacity: 0.5; stroke-width: 1.5; stroke-linecap: square"/>
   </g>
   <g id="line2d_6">
    <path d="M 143.644915 136.867085 
L 162.972333 117.539667 
" clip-path="url(#p8307e054e2)" style="fill: none; stroke: #000000; stroke-opacity: 0.5; stroke-width: 1.5; stroke-linecap: square"/>
   </g>
   <g id="line2d_7">
    <path d="M 143.644915 136.867085 
L 201.782371 78.729629 
" clip-path="url(#p8307e054e2)" style="fill: none; stroke: #000000; stroke-opacity: 0.5; stroke-width: 1.5; stroke-linecap: square"/>
   </g>
   <g id="line2d_8">
    <path d="M 73.444535 207.067465 
L 25.297851 255.214149 
" clip-path="url(#p8307e054e2)" style="fill: none; stroke: #000000; stroke-opacity: 0.5; stroke-width: 1.5; stroke-linecap: square"/>
   </g>
   <g id="line2d_9">
    <path d="M 73.444535 207.067465 
L 107.530222 172.981778 
" clip-path="url(#p8307e054e2)" style="fill: none; stroke: #000000; stroke-opacity: 0.5; stroke-width: 1.5; stroke-linecap: square"/>
   </g>
   <g id="line2d_10">
    <path d="M 180.781953 99.730047 
L 235.300084 45.211916 
" clip-path="url(#p8307e054e2)" style="fill: none; stroke: #000000; stroke-opacity: 0.5; stroke-width: 1.5; stroke-linecap: square"/>
   </g>
   <g id="line2d_11">
    <path d="M 180.781953 99.730047 
L 201.782371 78.729629 
" clip-path="url(#p8307e054e2)" style="fill: none; stroke: #000000; stroke-opacity: 0.5; stroke-width: 1.5; stroke-linecap: square"/>
   </g>
   <g id="line2d_12">
    <path d="M 107.530222 172.981778 
L 165.857132 114.654868 
" clip-path="url(#p8307e054e2)" style="fill: none; stroke: #000000; stroke-opacity: 0.5; stroke-width: 1.5; stroke-linecap: square"/>
   </g>
   <g id="line2d_13">
    <path d="M 107.530222 172.981778 
L 55.593413 224.918587 
" clip-path="url(#p8307e054e2)" style="fill: none; stroke: #000000; stroke-opacity: 0.5; stroke-width: 1.5; stroke-linecap: square"/>
   </g>
   <g id="line2d_14">
    <path d="M 165.857132 114.654868 
L 219.095484 61.416516 
" clip-path="url(#p8307e054e2)" style="fill: none; stroke: #000000; stroke-opacity: 0.5; stroke-width: 1.5; stroke-linecap: square"/>
   </g>
   <g id="line2d_15">
    <path d="M 165.857132 114.654868 
L 201.782371 78.729629 
" clip-path="url(#p8307e054e2)" style="fill: none; stroke: #000000; stroke-opacity: 0.5; stroke-width: 1.5; stroke-linecap: square"/>
   </g>
   <g id="line2d_16">
    <path d="M 201.782371 78.729629 
L 255.214149 25.297851 
" clip-path="url(#p8307e054e2)" style="fill: none; stroke: #000000; stroke-opacity: 0.5; stroke-width: 1.5; stroke-linecap: square"/>
   </g>
   <g id="patch_2">
    <path d="M 121.987237 164.526615 
C 123.578946 164.526615 125.105678 163.894222 126.231186 162.768713 
C 127.356695 161.643205 127.989088 160.116473 127.989088 158.524763 
C 127.989088 156.933054 127.356695 155.406322 126.231186 154.280814 
C 125.105678 153.155305 123.578946 152.522912 121.987237 152.522912 
C 120.395527 152.522912 118.868795 153.155305 117.743287 154.280814 
C 116.617778 155.406322 115.985385 156.933054 115.985385 158.524763 
C 115.985385 160.116473 116.617778 161.643205 117.743287 162.768713 
C 118.868795 163.894222 120.395527 164.526615 121.987237 164.526615 
z
" clip-path="url(#p8307e054e2)" style="fill: #b9cdff; stroke: #b9cdff; stroke-linejoin: miter"/>
   </g>
   <g id="patch_3">
    <path d="M 143.644915 142.868936 
C 145.236625 142.868936 146.763357 142.236543 147.888865 141.111034 
C 149.014374 139.985526 149.646767 138.458794 149.646767 136.867085 
C 149.646767 135.275375 149.014374 133.748643 147.888865 132.623135 
C 146.763357 131.497626 145.236625 130.865233 143.644915 130.865233 
C 142.053206 130.865233 140.526474 131.497626 139.400966 132.623135 
C 138.275457 133.748643 137.643064 135.275375 137.643064 136.867085 
C 137.643064 138.458794 138.275457 139.985526 139.400966 141.111034 
C 140.526474 142.236543 142.053206 142.868936 143.644915 142.868936 
z
" clip-path="url(#p8307e054e2)" style="fill: #d7a4a1; stroke: #d7a4a1; stroke-linejoin: miter"/>
   </g>
   <g id="patch_4">
    <path d="M 73.444535 213.069316 
C 75.036245 213.069316 76.562976 212.436923 77.688485 211.311415 
C 78.813993 210.185906 79.446386 208.659175 79.446386 207.067465 
C 79.446386 205.475755 78.813993 203.949024 77.688485 202.823515 
C 76.562976 201.698007 75.036245 201.065614 73.444535 201.065614 
C 71.852825 201.065614 70.326094 201.698007 69.200585 202.823515 
C 68.075077 203.949024 67.442684 205.475755 67.442684 207.067465 
C 67.442684 208.659175 68.075077 210.185906 69.200585 211.311415 
C 70.326094 212.436923 71.852825 213.069316 73.444535 213.069316 
z
" clip-path="url(#p8307e054e2)" style="fill: #d7a4a1; stroke: #d7a4a1; stroke-linejoin: miter"/>
   </g>
   <g id="patch_5">
    <path d="M 180.781953 105.731898 
C 182.373663 105.731898 183.900395 105.099505 185.025903 103.973996 
C 186.151412 102.848488 186.783805 101.321756 186.783805 99.730047 
C 186.783805 98.138337 186.151412 96.611605 185.025903 95.486097 
C 183.900395 94.360588 182.373663 93.728195 180.781953 93.728195 
C 179.190244 93.728195 177.663512 94.360588 176.538004 95.486097 
C 175.412495 96.611605 174.780102 98.138337 174.780102 99.730047 
C 174.780102 101.321756 175.412495 102.848488 176.538004 103.973996 
C 177.663512 105.099505 179.190244 105.731898 180.781953 105.731898 
z
" clip-path="url(#p8307e054e2)" style="fill: #d7a4a1; stroke: #d7a4a1; stroke-linejoin: miter"/>
   </g>
   <g id="patch_6">
    <path d="M 107.530222 178.983629 
C 109.121932 178.983629 110.648663 178.351236 111.774172 177.225728 
C 112.89968 176.100219 113.532073 174.573488 113.532073 172.981778 
C 113.532073 171.390068 112.89968 169.863337 111.774172 168.737828 
C 110.648663 167.61232 109.121932 166.979927 107.530222 166.979927 
C 105.938512 166.979927 104.411781 167.61232 103.286272 168.737828 
C 102.160764 169.863337 101.528371 171.390068 101.528371 172.981778 
C 101.528371 174.573488 102.160764 176.100219 103.286272 177.225728 
C 104.411781 178.351236 105.938512 178.983629 107.530222 178.983629 
z
" clip-path="url(#p8307e054e2)" style="fill: #b9cdff; stroke: #b9cdff; stroke-linejoin: miter"/>
   </g>
   <g id="patch_7">
    <path d="M 165.857132 120.656719 
C 167.448842 120.656719 168.975573 120.024326 170.101082 118.898817 
C 171.226591 117.773309 171.858984 116.246577 171.858984 114.654868 
C 171.858984 113.063158 171.226591 111.536427 170.101082 110.410918 
C 168.975573 109.285409 167.448842 108.653016 165.857132 108.653016 
C 164.265423 108.653016 162.738691 109.285409 161.613183 110.410918 
C 160.487674 111.536427 159.855281 113.063158 159.855281 114.654868 
C 159.855281 116.246577 160.487674 117.773309 161.613183 118.898817 
C 162.738691 120.024326 164.265423 120.656719 165.857132 120.656719 
z
" clip-path="url(#p8307e054e2)" style="fill: #d7a4a1; stroke: #d7a4a1; stroke-linejoin: miter"/>
   </g>
   <g id="patch_8">
    <path d="M 201.782371 84.73148 
C 203.374081 84.73148 204.900813 84.099087 206.026321 82.973578 
C 207.15183 81.84807 207.784223 80.321338 207.784223 78.729629 
C 207.784223 77.137919 207.15183 75.611187 206.026321 74.485679 
C 204.900813 73.36017 203.374081 72.727777 201.782371 72.727777 
C 200.190662 72.727777 198.66393 73.36017 197.538422 74.485679 
C 196.412913 75.611187 195.78052 77.137919 195.78052 78.729629 
C 195.78052 80.321338 196.412913 81.84807 197.538422 82.973578 
C 198.66393 84.099087 200.190662 84.73148 201.782371 84.73148 
z
" clip-path="url(#p8307e054e2)" style="fill: #b9cdff; stroke: #b9cdff; stroke-linejoin: miter"/>
   </g>
   <g id="patch_9">
    <path d="M 162.972333 123.541518 
C 164.564043 123.541518 166.090774 122.909125 167.216283 121.783616 
C 168.341792 120.658108 168.974185 119.131376 168.974185 117.539667 
C 168.974185 115.947957 168.341792 114.421226 167.216283 113.295717 
C 166.090774 112.170208 164.564043 111.537815 162.972333 111.537815 
C 161.380624 111.537815 159.853892 112.170208 158.728384 113.295717 
C 157.602875 114.421226 156.970482 115.947957 156.970482 117.539667 
C 156.970482 119.131376 157.602875 120.658108 158.728384 121.783616 
C 159.853892 122.909125 161.380624 123.541518 162.972333 123.541518 
z
" clip-path="url(#p8307e054e2)" style="fill: #555555; stroke: #555555; stroke-linejoin: miter"/>
   </g>
   <g id="patch_10">
    <path d="M 25.297851 261.216 
C 26.889561 261.216 28.416293 260.583607 29.541801 259.458098 
C 30.66731 258.33259 31.299703 256.805858 31.299703 255.214149 
C 31.299703 253.622439 30.66731 252.095707 29.541801 250.970199 
C 28.416293 249.84469 26.889561 249.212297 25.297851 249.212297 
C 23.706142 249.212297 22.17941 249.84469 21.053902 250.970199 
C 19.928393 252.095707 19.296 253.622439 19.296 255.214149 
C 19.296 256.805858 19.928393 258.33259 21.053902 259.458098 
C 22.17941 260.583607 23.706142 261.216 25.297851 261.216 
z
" clip-path="url(#p8307e054e2)" style="fill: #555555; stroke: #555555; stroke-linejoin: miter"/>
   </g>
   <g id="patch_11">
    <path d="M 235.300084 51.213767 
C 236.891794 51.213767 238.418526 50.581374 239.544034 49.455865 
C 240.669543 48.330357 241.301936 46.803625 241.301936 45.211916 
C 241.301936 43.620206 240.669543 42.093474 239.544034 40.967966 
C 238.418526 39.842457 236.891794 39.210064 235.300084 39.210064 
C 233.708375 39.210064 232.181643 39.842457 231.056135 40.967966 
C 229.930626 42.093474 229.298233 43.620206 229.298233 45.211916 
C 229.298233 46.803625 229.930626 48.330357 231.056135 49.455865 
C 232.181643 50.581374 233.708375 51.213767 235.300084 51.213767 
z
" clip-path="url(#p8307e054e2)" style="fill: #555555; stroke: #555555; stroke-linejoin: miter"/>
   </g>
   <g id="patch_12">
    <path d="M 86.186623 200.327228 
C 87.778333 200.327228 89.305064 199.694835 90.430573 198.569327 
C 91.556081 197.443818 92.188474 195.917087 92.188474 194.325377 
C 92.188474 192.733667 91.556081 191.206936 90.430573 190.081427 
C 89.305064 188.955919 87.778333 188.323526 86.186623 188.323526 
C 84.594913 188.323526 83.068182 188.955919 81.942673 190.081427 
C 80.817165 191.206936 80.184772 192.733667 80.184772 194.325377 
C 80.184772 195.917087 80.817165 197.443818 81.942673 198.569327 
C 83.068182 199.694835 84.594913 200.327228 86.186623 200.327228 
z
" clip-path="url(#p8307e054e2)" style="fill: #555555; stroke: #555555; stroke-linejoin: miter"/>
   </g>
   <g id="patch_13">
    <path d="M 219.095484 67.418367 
C 220.687194 67.418367 222.213925 66.785974 223.339434 65.660466 
C 224.464942 64.534957 225.097335 63.008226 225.097335 61.416516 
C 225.097335 59.824806 224.464942 58.298075 223.339434 57.172566 
C 222.213925 56.047058 220.687194 55.414665 219.095484 55.414665 
C 217.503774 55.414665 215.977043 56.047058 214.851534 57.172566 
C 213.726026 58.298075 213.093633 59.824806 213.093633 61.416516 
C 213.093633 63.008226 213.726026 64.534957 214.851534 65.660466 
C 215.977043 66.785974 217.503774 67.418367 219.095484 67.418367 
z
" clip-path="url(#p8307e054e2)" style="fill: #555555; stroke: #555555; stroke-linejoin: miter"/>
   </g>
   <g id="patch_14">
    <path d="M 55.593413 230.920438 
C 57.185123 230.920438 58.711854 230.288045 59.837363 229.162536 
C 60.962872 228.037028 61.595265 226.510296 61.595265 224.918587 
C 61.595265 223.326877 60.962872 221.800146 59.837363 220.674637 
C 58.711854 219.549128 57.185123 218.916735 55.593413 218.916735 
C 54.001704 218.916735 52.474972 219.549128 51.349464 220.674637 
C 50.223955 221.800146 49.591562 223.326877 49.591562 224.918587 
C 49.591562 226.510296 50.223955 228.037028 51.349464 229.162536 
C 52.474972 230.288045 54.001704 230.920438 55.593413 230.920438 
z
" clip-path="url(#p8307e054e2)" style="fill: #555555; stroke: #555555; stroke-linejoin: miter"/>
   </g>
   <g id="patch_15">
    <path d="M 255.214149 31.299703 
C 256.805858 31.299703 258.33259 30.66731 259.458098 29.541801 
C 260.583607 28.416293 261.216 26.889561 261.216 25.297851 
C 261.216 23.706142 260.583607 22.17941 259.458098 21.053902 
C 258.33259 19.928393 256.805858 19.296 255.214149 19.296 
C 253.622439 19.296 252.095707 19.928393 250.970199 21.053902 
C 249.84469 22.17941 249.212297 23.706142 249.212297 25.297851 
C 249.212297 26.889561 249.84469 28.416293 250.970199 29.541801 
C 252.095707 30.66731 253.622439 31.299703 255.214149 31.299703 
z
" clip-path="url(#p8307e054e2)" style="fill: #555555; stroke: #555555; stroke-linejoin: miter"/>
   </g>
   <g id="text_1">
    <!-- 10 -->
    <g transform="translate(126.788718 151.643595) scale(0.1 -0.1)">
     <defs>
      <path id="DejaVuSans-Bold-31" d="M 750 831 
L 1813 831 
L 1813 3847 
L 722 3622 
L 722 4441 
L 1806 4666 
L 2950 4666 
L 2950 831 
L 4013 831 
L 4013 0 
L 750 0 
L 750 831 
z
" transform="scale(0.015625)"/>
      <path id="DejaVuSans-Bold-30" d="M 2944 2338 
Q 2944 3213 2780 3570 
Q 2616 3928 2228 3928 
Q 1841 3928 1675 3570 
Q 1509 3213 1509 2338 
Q 1509 1453 1675 1090 
Q 1841 728 2228 728 
Q 2613 728 2778 1090 
Q 2944 1453 2944 2338 
z
M 4147 2328 
Q 4147 1169 3647 539 
Q 3147 -91 2228 -91 
Q 1306 -91 806 539 
Q 306 1169 306 2328 
Q 306 3491 806 4120 
Q 1306 4750 2228 4750 
Q 3147 4750 3647 4120 
Q 4147 3491 4147 2328 
z
" transform="scale(0.015625)"/>
     </defs>
     <use xlink:href="#DejaVuSans-Bold-31"/>
     <use xlink:href="#DejaVuSans-Bold-30" transform="translate(69.580078 0)"/>
    </g>
   </g>
   <g id="text_2">
    <!-- 11 -->
    <g transform="translate(148.446397 129.985916) scale(0.1 -0.1)">
     <use xlink:href="#DejaVuSans-Bold-31"/>
     <use xlink:href="#DejaVuSans-Bold-31" transform="translate(69.580078 0)"/>
    </g>
   </g>
   <g id="text_3">
    <!-- 13 -->
    <g transform="translate(78.246016 200.186296) scale(0.1 -0.1)">
     <defs>
      <path id="DejaVuSans-Bold-33" d="M 2981 2516 
Q 3453 2394 3698 2092 
Q 3944 1791 3944 1325 
Q 3944 631 3412 270 
Q 2881 -91 1863 -91 
Q 1503 -91 1142 -33 
Q 781 25 428 141 
L 428 1069 
Q 766 900 1098 814 
Q 1431 728 1753 728 
Q 2231 728 2486 893 
Q 2741 1059 2741 1369 
Q 2741 1688 2480 1852 
Q 2219 2016 1709 2016 
L 1228 2016 
L 1228 2791 
L 1734 2791 
Q 2188 2791 2409 2933 
Q 2631 3075 2631 3366 
Q 2631 3634 2415 3781 
Q 2200 3928 1806 3928 
Q 1516 3928 1219 3862 
Q 922 3797 628 3669 
L 628 4550 
Q 984 4650 1334 4700 
Q 1684 4750 2022 4750 
Q 2931 4750 3382 4451 
Q 3834 4153 3834 3553 
Q 3834 3144 3618 2883 
Q 3403 2622 2981 2516 
z
" transform="scale(0.015625)"/>
     </defs>
     <use xlink:href="#DejaVuSans-Bold-31"/>
     <use xlink:href="#DejaVuSans-Bold-33" transform="translate(69.580078 0)"/>
    </g>
   </g>
   <g id="text_4">
    <!-- 15 -->
    <g transform="translate(185.583435 92.848878) scale(0.1 -0.1)">
     <defs>
      <path id="DejaVuSans-Bold-35" d="M 678 4666 
L 3669 4666 
L 3669 3781 
L 1638 3781 
L 1638 3059 
Q 1775 3097 1914 3117 
Q 2053 3138 2203 3138 
Q 3056 3138 3531 2711 
Q 4006 2284 4006 1522 
Q 4006 766 3489 337 
Q 2972 -91 2053 -91 
Q 1656 -91 1267 -14 
Q 878 63 494 219 
L 494 1166 
Q 875 947 1217 837 
Q 1559 728 1863 728 
Q 2300 728 2551 942 
Q 2803 1156 2803 1522 
Q 2803 1891 2551 2103 
Q 2300 2316 1863 2316 
Q 1603 2316 1309 2248 
Q 1016 2181 678 2041 
L 678 4666 
z
" transform="scale(0.015625)"/>
     </defs>
     <use xlink:href="#DejaVuSans-Bold-31"/>
     <use xlink:href="#DejaVuSans-Bold-35" transform="translate(69.580078 0)"/>
    </g>
   </g>
   <g id="text_5">
    <!-- 20 -->
    <g transform="translate(112.331703 166.100609) scale(0.1 -0.1)">
     <defs>
      <path id="DejaVuSans-Bold-32" d="M 1844 884 
L 3897 884 
L 3897 0 
L 506 0 
L 506 884 
L 2209 2388 
Q 2438 2594 2547 2791 
Q 2656 2988 2656 3200 
Q 2656 3528 2436 3728 
Q 2216 3928 1850 3928 
Q 1569 3928 1234 3808 
Q 900 3688 519 3450 
L 519 4475 
Q 925 4609 1322 4679 
Q 1719 4750 2100 4750 
Q 2938 4750 3402 4381 
Q 3866 4013 3866 3353 
Q 3866 2972 3669 2642 
Q 3472 2313 2841 1759 
L 1844 884 
z
" transform="scale(0.015625)"/>
     </defs>
     <use xlink:href="#DejaVuSans-Bold-32"/>
     <use xlink:href="#DejaVuSans-Bold-30" transform="translate(69.580078 0)"/>
    </g>
   </g>
   <g id="text_6">
    <!-- 25 -->
    <g transform="translate(170.658613 107.773699) scale(0.1 -0.1)">
     <use xlink:href="#DejaVuSans-Bold-32"/>
     <use xlink:href="#DejaVuSans-Bold-35" transform="translate(69.580078 0)"/>
    </g>
   </g>
   <g id="text_7">
    <!-- 30 -->
    <g transform="translate(206.583852 71.84846) scale(0.1 -0.1)">
     <use xlink:href="#DejaVuSans-Bold-33"/>
     <use xlink:href="#DejaVuSans-Bold-30" transform="translate(69.580078 0)"/>
    </g>
   </g>
   <g id="text_8">
    <!-- 43 -->
    <g transform="translate(167.773814 110.658498) scale(0.1 -0.1)">
     <defs>
      <path id="DejaVuSans-Bold-34" d="M 2356 3675 
L 1038 1722 
L 2356 1722 
L 2356 3675 
z
M 2156 4666 
L 3494 4666 
L 3494 1722 
L 4159 1722 
L 4159 850 
L 3494 850 
L 3494 0 
L 2356 0 
L 2356 850 
L 288 850 
L 288 1881 
L 2156 4666 
z
" transform="scale(0.015625)"/>
     </defs>
     <use xlink:href="#DejaVuSans-Bold-34"/>
     <use xlink:href="#DejaVuSans-Bold-33" transform="translate(69.580078 0)"/>
    </g>
   </g>
   <g id="text_9">
    <!-- 44 -->
    <g transform="translate(30.099332 248.33298) scale(0.1 -0.1)">
     <use xlink:href="#DejaVuSans-Bold-34"/>
     <use xlink:href="#DejaVuSans-Bold-34" transform="translate(69.580078 0)"/>
    </g>
   </g>
   <g id="text_10">
    <!-- 45 -->
    <g transform="translate(240.101566 38.330747) scale(0.1 -0.1)">
     <use xlink:href="#DejaVuSans-Bold-34"/>
     <use xlink:href="#DejaVuSans-Bold-35" transform="translate(69.580078 0)"/>
    </g>
   </g>
   <g id="text_11">
    <!-- 46 -->
    <g transform="translate(90.988104 187.444208) scale(0.1 -0.1)">
     <defs>
      <path id="DejaVuSans-Bold-36" d="M 2316 2303 
Q 2000 2303 1842 2098 
Q 1684 1894 1684 1484 
Q 1684 1075 1842 870 
Q 2000 666 2316 666 
Q 2634 666 2792 870 
Q 2950 1075 2950 1484 
Q 2950 1894 2792 2098 
Q 2634 2303 2316 2303 
z
M 3803 4544 
L 3803 3681 
Q 3506 3822 3243 3889 
Q 2981 3956 2731 3956 
Q 2194 3956 1894 3657 
Q 1594 3359 1544 2772 
Q 1750 2925 1990 3001 
Q 2231 3078 2516 3078 
Q 3231 3078 3670 2659 
Q 4109 2241 4109 1563 
Q 4109 813 3618 361 
Q 3128 -91 2303 -91 
Q 1394 -91 895 523 
Q 397 1138 397 2266 
Q 397 3422 980 4083 
Q 1563 4744 2578 4744 
Q 2900 4744 3203 4694 
Q 3506 4644 3803 4544 
z
" transform="scale(0.015625)"/>
     </defs>
     <use xlink:href="#DejaVuSans-Bold-34"/>
     <use xlink:href="#DejaVuSans-Bold-36" transform="translate(69.580078 0)"/>
    </g>
   </g>
   <g id="text_12">
    <!-- 47 -->
    <g transform="translate(223.896965 54.535347) scale(0.1 -0.1)">
     <defs>
      <path id="DejaVuSans-Bold-37" d="M 428 4666 
L 3944 4666 
L 3944 3988 
L 2125 0 
L 953 0 
L 2675 3781 
L 428 3781 
L 428 4666 
z
" transform="scale(0.015625)"/>
     </defs>
     <use xlink:href="#DejaVuSans-Bold-34"/>
     <use xlink:href="#DejaVuSans-Bold-37" transform="translate(69.580078 0)"/>
    </g>
   </g>
   <g id="text_13">
    <!-- 48 -->
    <g transform="translate(60.394894 218.037418) scale(0.1 -0.1)">
     <defs>
      <path id="DejaVuSans-Bold-38" d="M 2228 2088 
Q 1891 2088 1709 1903 
Q 1528 1719 1528 1375 
Q 1528 1031 1709 848 
Q 1891 666 2228 666 
Q 2563 666 2741 848 
Q 2919 1031 2919 1375 
Q 2919 1722 2741 1905 
Q 2563 2088 2228 2088 
z
M 1350 2484 
Q 925 2613 709 2878 
Q 494 3144 494 3541 
Q 494 4131 934 4440 
Q 1375 4750 2228 4750 
Q 3075 4750 3515 4442 
Q 3956 4134 3956 3541 
Q 3956 3144 3739 2878 
Q 3522 2613 3097 2484 
Q 3572 2353 3814 2058 
Q 4056 1763 4056 1313 
Q 4056 619 3595 264 
Q 3134 -91 2228 -91 
Q 1319 -91 855 264 
Q 391 619 391 1313 
Q 391 1763 633 2058 
Q 875 2353 1350 2484 
z
M 1631 3419 
Q 1631 3141 1786 2991 
Q 1941 2841 2228 2841 
Q 2509 2841 2662 2991 
Q 2816 3141 2816 3419 
Q 2816 3697 2662 3845 
Q 2509 3994 2228 3994 
Q 1941 3994 1786 3844 
Q 1631 3694 1631 3419 
z
" transform="scale(0.015625)"/>
     </defs>
     <use xlink:href="#DejaVuSans-Bold-34"/>
     <use xlink:href="#DejaVuSans-Bold-38" transform="translate(69.580078 0)"/>
    </g>
   </g>
   <g id="text_14">
    <!-- 49 -->
    <g transform="translate(260.01563 18.416683) scale(0.1 -0.1)">
     <defs>
      <path id="DejaVuSans-Bold-39" d="M 641 103 
L 641 966 
Q 928 831 1190 764 
Q 1453 697 1709 697 
Q 2247 697 2547 995 
Q 2847 1294 2900 1881 
Q 2688 1725 2447 1647 
Q 2206 1569 1925 1569 
Q 1209 1569 770 1986 
Q 331 2403 331 3084 
Q 331 3838 820 4291 
Q 1309 4744 2131 4744 
Q 3044 4744 3544 4128 
Q 4044 3513 4044 2388 
Q 4044 1231 3459 570 
Q 2875 -91 1856 -91 
Q 1528 -91 1228 -42 
Q 928 6 641 103 
z
M 2125 2350 
Q 2441 2350 2600 2554 
Q 2759 2759 2759 3169 
Q 2759 3575 2600 3781 
Q 2441 3988 2125 3988 
Q 1809 3988 1650 3781 
Q 1491 3575 1491 3169 
Q 1491 2759 1650 2554 
Q 1809 2350 2125 2350 
z
" transform="scale(0.015625)"/>
     </defs>
     <use xlink:href="#DejaVuSans-Bold-34"/>
     <use xlink:href="#DejaVuSans-Bold-39" transform="translate(69.580078 0)"/>
    </g>
   </g>
  </g>
 </g>
 <defs>
  <clipPath id="p8307e054e2">
   <rect x="7.2" y="7.2" width="266.112" height="266.112"/>
  </clipPath>
 </defs>
</svg>
