<svg viewBox="0 0 2241.72 1743.92"  version="1.1" xmlns="http://www.w3.org/2000/svg">
<g id="qubit_dots">
<circle id="qubit_dot:0:-12_4:140" cx="80" cy="804.077" r="2" stroke="none" fill="black"/>
<circle id="qubit_dot:1:-12_8:140" cx="80" cy="985.097" r="2" stroke="none" fill="black"/>
<circle id="qubit_dot:2:-11_1:140" cx="125.255" cy="668.313" r="2" stroke="none" fill="black"/>
<circle id="qubit_dot:3:-11_3:140" cx="125.255" cy="758.823" r="2" stroke="none" fill="black"/>
<circle id="qubit_dot:4:-11_5:140" cx="125.255" cy="849.332" r="2" stroke="none" fill="black"/>
<circle id="qubit_dot:5:-11_7:140" cx="125.255" cy="939.842" r="2" stroke="none" fill="black"/>
<circle id="qubit_dot:6:-11_9:140" cx="125.255" cy="1030.35" r="2" stroke="none" fill="black"/>
<circle id="qubit_dot:7:-10_0:140" cx="170.51" cy="623.058" r="2" stroke="none" fill="black"/>
<circle id="qubit_dot:8:-10_2:140" cx="170.51" cy="713.568" r="2" stroke="none" fill="black"/>
<circle id="qubit_dot:9:-10_4:140" cx="170.51" cy="804.077" r="2" stroke="none" fill="black"/>
<circle id="qubit_dot:10:-10_6:140" cx="170.51" cy="894.587" r="2" stroke="none" fill="black"/>
<circle id="qubit_dot:11:-10_8:140" cx="170.51" cy="985.097" r="2" stroke="none" fill="black"/>
<circle id="qubit_dot:12:-9_1:140" cx="215.764" cy="668.313" r="2" stroke="none" fill="black"/>
<circle id="qubit_dot:13:-9_3:140" cx="215.764" cy="758.823" r="2" stroke="none" fill="black"/>
<circle id="qubit_dot:14:-9_5:140" cx="215.764" cy="849.332" r="2" stroke="none" fill="black"/>
<circle id="qubit_dot:15:-9_7:140" cx="215.764" cy="939.842" r="2" stroke="none" fill="black"/>
<circle id="qubit_dot:16:-9_9:140" cx="215.764" cy="1030.35" r="2" stroke="none" fill="black"/>
<circle id="qubit_dot:17:-8_2:140" cx="261.019" cy="713.568" r="2" stroke="none" fill="black"/>
<circle id="qubit_dot:18:-8_4:140" cx="261.019" cy="804.077" r="2" stroke="none" fill="black"/>
<circle id="qubit_dot:19:-8_6:140" cx="261.019" cy="894.587" r="2" stroke="none" fill="black"/>
<circle id="qubit_dot:20:-8_8:140" cx="261.019" cy="985.097" r="2" stroke="none" fill="black"/>
<circle id="qubit_dot:21:-8_10:140" cx="261.019" cy="1075.61" r="2" stroke="none" fill="black"/>
<circle id="qubit_dot:22:-7_1:140" cx="306.274" cy="668.313" r="2" stroke="none" fill="black"/>
<circle id="qubit_dot:23:-7_3:140" cx="306.274" cy="758.823" r="2" stroke="none" fill="black"/>
<circle id="qubit_dot:24:-7_5:140" cx="306.274" cy="849.332" r="2" stroke="none" fill="black"/>
<circle id="qubit_dot:25:-7_7:140" cx="306.274" cy="939.842" r="2" stroke="none" fill="black"/>
<circle id="qubit_dot:26:-7_9:140" cx="306.274" cy="1030.35" r="2" stroke="none" fill="black"/>
<circle id="qubit_dot:27:-6_0:140" cx="351.529" cy="623.058" r="2" stroke="none" fill="black"/>
<circle id="qubit_dot:28:-6_2:140" cx="351.529" cy="713.568" r="2" stroke="none" fill="black"/>
<circle id="qubit_dot:29:-6_4:140" cx="351.529" cy="804.077" r="2" stroke="none" fill="black"/>
<circle id="qubit_dot:30:-6_6:140" cx="351.529" cy="894.587" r="2" stroke="none" fill="black"/>
<circle id="qubit_dot:31:-6_8:140" cx="351.529" cy="985.097" r="2" stroke="none" fill="black"/>
<circle id="qubit_dot:32:-5_1:140" cx="396.784" cy="668.313" r="2" stroke="none" fill="black"/>
<circle id="qubit_dot:33:-5_3:140" cx="396.784" cy="758.823" r="2" stroke="none" fill="black"/>
<circle id="qubit_dot:34:-5_5:140" cx="396.784" cy="849.332" r="2" stroke="none" fill="black"/>
<circle id="qubit_dot:35:-5_7:140" cx="396.784" cy="939.842" r="2" stroke="none" fill="black"/>
<circle id="qubit_dot:36:-5_9:140" cx="396.784" cy="1030.35" r="2" stroke="none" fill="black"/>
<circle id="qubit_dot:37:-4_2:140" cx="442.039" cy="713.568" r="2" stroke="none" fill="black"/>
<circle id="qubit_dot:38:-4_4:140" cx="442.039" cy="804.077" r="2" stroke="none" fill="black"/>
<circle id="qubit_dot:39:-4_6:140" cx="442.039" cy="894.587" r="2" stroke="none" fill="black"/>
<circle id="qubit_dot:40:-4_8:140" cx="442.039" cy="985.097" r="2" stroke="none" fill="black"/>
<circle id="qubit_dot:41:-4_10:140" cx="442.039" cy="1075.61" r="2" stroke="none" fill="black"/>
<circle id="qubit_dot:42:-3_1:140" cx="487.293" cy="668.313" r="2" stroke="none" fill="black"/>
<circle id="qubit_dot:43:-3_3:140" cx="487.293" cy="758.823" r="2" stroke="none" fill="black"/>
<circle id="qubit_dot:44:-3_5:140" cx="487.293" cy="849.332" r="2" stroke="none" fill="black"/>
<circle id="qubit_dot:45:-3_7:140" cx="487.293" cy="939.842" r="2" stroke="none" fill="black"/>
<circle id="qubit_dot:46:-3_9:140" cx="487.293" cy="1030.35" r="2" stroke="none" fill="black"/>
<circle id="qubit_dot:47:-2_0:140" cx="532.548" cy="623.058" r="2" stroke="none" fill="black"/>
<circle id="qubit_dot:48:-2_2:140" cx="532.548" cy="713.568" r="2" stroke="none" fill="black"/>
<circle id="qubit_dot:49:-2_4:140" cx="532.548" cy="804.077" r="2" stroke="none" fill="black"/>
<circle id="qubit_dot:50:-2_6:140" cx="532.548" cy="894.587" r="2" stroke="none" fill="black"/>
<circle id="qubit_dot:51:-2_8:140" cx="532.548" cy="985.097" r="2" stroke="none" fill="black"/>
<circle id="qubit_dot:52:-1_1:140" cx="577.803" cy="668.313" r="2" stroke="none" fill="black"/>
<circle id="qubit_dot:53:-1_3:140" cx="577.803" cy="758.823" r="2" stroke="none" fill="black"/>
<circle id="qubit_dot:54:-1_5:140" cx="577.803" cy="849.332" r="2" stroke="none" fill="black"/>
<circle id="qubit_dot:55:-1_7:140" cx="577.803" cy="939.842" r="2" stroke="none" fill="black"/>
<circle id="qubit_dot:56:-1_9:140" cx="577.803" cy="1030.35" r="2" stroke="none" fill="black"/>
<circle id="qubit_dot:57:0_-10:140" cx="623.058" cy="170.51" r="2" stroke="none" fill="black"/>
<circle id="qubit_dot:58:0_-6:140" cx="623.058" cy="351.529" r="2" stroke="none" fill="black"/>
<circle id="qubit_dot:59:0_2:140" cx="623.058" cy="713.568" r="2" stroke="none" fill="black"/>
<circle id="qubit_dot:60:0_4:140" cx="623.058" cy="804.077" r="2" stroke="none" fill="black"/>
<circle id="qubit_dot:61:0_6:140" cx="623.058" cy="894.587" r="2" stroke="none" fill="black"/>
<circle id="qubit_dot:62:0_8:140" cx="623.058" cy="985.097" r="2" stroke="none" fill="black"/>
<circle id="qubit_dot:63:0_10:140" cx="623.058" cy="1075.61" r="2" stroke="none" fill="black"/>
<circle id="qubit_dot:64:0_14:140" cx="623.058" cy="1256.63" r="2" stroke="none" fill="black"/>
<circle id="qubit_dot:65:0_18:140" cx="623.058" cy="1437.65" r="2" stroke="none" fill="black"/>
<circle id="qubit_dot:66:0_22:140" cx="623.058" cy="1618.66" r="2" stroke="none" fill="black"/>
<circle id="qubit_dot:67:1_-11:140" cx="668.313" cy="125.255" r="2" stroke="none" fill="black"/>
<circle id="qubit_dot:68:1_-9:140" cx="668.313" cy="215.764" r="2" stroke="none" fill="black"/>
<circle id="qubit_dot:69:1_-7:140" cx="668.313" cy="306.274" r="2" stroke="none" fill="black"/>
<circle id="qubit_dot:70:1_-5:140" cx="668.313" cy="396.784" r="2" stroke="none" fill="black"/>
<circle id="qubit_dot:71:1_-3:140" cx="668.313" cy="487.293" r="2" stroke="none" fill="black"/>
<circle id="qubit_dot:72:1_-1:140" cx="668.313" cy="577.803" r="2" stroke="none" fill="black"/>
<circle id="qubit_dot:73:1_1:140" cx="668.313" cy="668.313" r="2" stroke="none" fill="black"/>
<circle id="qubit_dot:74:1_3:140" cx="668.313" cy="758.823" r="2" stroke="none" fill="black"/>
<circle id="qubit_dot:75:1_5:140" cx="668.313" cy="849.332" r="2" stroke="none" fill="black"/>
<circle id="qubit_dot:76:1_7:140" cx="668.313" cy="939.842" r="2" stroke="none" fill="black"/>
<circle id="qubit_dot:77:1_9:140" cx="668.313" cy="1030.35" r="2" stroke="none" fill="black"/>
<circle id="qubit_dot:78:1_11:140" cx="668.313" cy="1120.86" r="2" stroke="none" fill="black"/>
<circle id="qubit_dot:79:1_13:140" cx="668.313" cy="1211.37" r="2" stroke="none" fill="black"/>
<circle id="qubit_dot:80:1_15:140" cx="668.313" cy="1301.88" r="2" stroke="none" fill="black"/>
<circle id="qubit_dot:81:1_17:140" cx="668.313" cy="1392.39" r="2" stroke="none" fill="black"/>
<circle id="qubit_dot:82:1_19:140" cx="668.313" cy="1482.9" r="2" stroke="none" fill="black"/>
<circle id="qubit_dot:83:1_21:140" cx="668.313" cy="1573.41" r="2" stroke="none" fill="black"/>
<circle id="qubit_dot:84:1_23:140" cx="668.313" cy="1663.92" r="2" stroke="none" fill="black"/>
<circle id="qubit_dot:85:2_-10:140" cx="713.568" cy="170.51" r="2" stroke="none" fill="black"/>
<circle id="qubit_dot:86:2_-8:140" cx="713.568" cy="261.019" r="2" stroke="none" fill="black"/>
<circle id="qubit_dot:87:2_-6:140" cx="713.568" cy="351.529" r="2" stroke="none" fill="black"/>
<circle id="qubit_dot:88:2_-4:140" cx="713.568" cy="442.039" r="2" stroke="none" fill="black"/>
<circle id="qubit_dot:89:2_-2:140" cx="713.568" cy="532.548" r="2" stroke="none" fill="black"/>
<circle id="qubit_dot:90:2_0:140" cx="713.568" cy="623.058" r="2" stroke="none" fill="black"/>
<circle id="qubit_dot:91:2_2:140" cx="713.568" cy="713.568" r="2" stroke="none" fill="black"/>
<circle id="qubit_dot:92:2_4:140" cx="713.568" cy="804.077" r="2" stroke="none" fill="black"/>
<circle id="qubit_dot:93:2_6:140" cx="713.568" cy="894.587" r="2" stroke="none" fill="black"/>
<circle id="qubit_dot:94:2_8:140" cx="713.568" cy="985.097" r="2" stroke="none" fill="black"/>
<circle id="qubit_dot:95:2_10:140" cx="713.568" cy="1075.61" r="2" stroke="none" fill="black"/>
<circle id="qubit_dot:96:2_12:140" cx="713.568" cy="1166.12" r="2" stroke="none" fill="black"/>
<circle id="qubit_dot:97:2_14:140" cx="713.568" cy="1256.63" r="2" stroke="none" fill="black"/>
<circle id="qubit_dot:98:2_16:140" cx="713.568" cy="1347.14" r="2" stroke="none" fill="black"/>
<circle id="qubit_dot:99:2_18:140" cx="713.568" cy="1437.65" r="2" stroke="none" fill="black"/>
<circle id="qubit_dot:100:2_20:140" cx="713.568" cy="1528.15" r="2" stroke="none" fill="black"/>
<circle id="qubit_dot:101:3_-11:140" cx="758.823" cy="125.255" r="2" stroke="none" fill="black"/>
<circle id="qubit_dot:102:3_-9:140" cx="758.823" cy="215.764" r="2" stroke="none" fill="black"/>
<circle id="qubit_dot:103:3_-7:140" cx="758.823" cy="306.274" r="2" stroke="none" fill="black"/>
<circle id="qubit_dot:104:3_-5:140" cx="758.823" cy="396.784" r="2" stroke="none" fill="black"/>
<circle id="qubit_dot:105:3_-3:140" cx="758.823" cy="487.293" r="2" stroke="none" fill="black"/>
<circle id="qubit_dot:106:3_-1:140" cx="758.823" cy="577.803" r="2" stroke="none" fill="black"/>
<circle id="qubit_dot:107:3_1:140" cx="758.823" cy="668.313" r="2" stroke="none" fill="black"/>
<circle id="qubit_dot:108:3_3:140" cx="758.823" cy="758.823" r="2" stroke="none" fill="black"/>
<circle id="qubit_dot:109:3_5:140" cx="758.823" cy="849.332" r="2" stroke="none" fill="black"/>
<circle id="qubit_dot:110:3_7:140" cx="758.823" cy="939.842" r="2" stroke="none" fill="black"/>
<circle id="qubit_dot:111:3_9:140" cx="758.823" cy="1030.35" r="2" stroke="none" fill="black"/>
<circle id="qubit_dot:112:3_11:140" cx="758.823" cy="1120.86" r="2" stroke="none" fill="black"/>
<circle id="qubit_dot:113:3_13:140" cx="758.823" cy="1211.37" r="2" stroke="none" fill="black"/>
<circle id="qubit_dot:114:3_15:140" cx="758.823" cy="1301.88" r="2" stroke="none" fill="black"/>
<circle id="qubit_dot:115:3_17:140" cx="758.823" cy="1392.39" r="2" stroke="none" fill="black"/>
<circle id="qubit_dot:116:3_19:140" cx="758.823" cy="1482.9" r="2" stroke="none" fill="black"/>
<circle id="qubit_dot:117:3_21:140" cx="758.823" cy="1573.41" r="2" stroke="none" fill="black"/>
<circle id="qubit_dot:118:4_-12:140" cx="804.077" cy="80" r="2" stroke="none" fill="black"/>
<circle id="qubit_dot:119:4_-10:140" cx="804.077" cy="170.51" r="2" stroke="none" fill="black"/>
<circle id="qubit_dot:120:4_-8:140" cx="804.077" cy="261.019" r="2" stroke="none" fill="black"/>
<circle id="qubit_dot:121:4_-6:140" cx="804.077" cy="351.529" r="2" stroke="none" fill="black"/>
<circle id="qubit_dot:122:4_-4:140" cx="804.077" cy="442.039" r="2" stroke="none" fill="black"/>
<circle id="qubit_dot:123:4_-2:140" cx="804.077" cy="532.548" r="2" stroke="none" fill="black"/>
<circle id="qubit_dot:124:4_0:140" cx="804.077" cy="623.058" r="2" stroke="none" fill="black"/>
<circle id="qubit_dot:125:4_2:140" cx="804.077" cy="713.568" r="2" stroke="none" fill="black"/>
<circle id="qubit_dot:126:4_4:140" cx="804.077" cy="804.077" r="2" stroke="none" fill="black"/>
<circle id="qubit_dot:127:4_6:140" cx="804.077" cy="894.587" r="2" stroke="none" fill="black"/>
<circle id="qubit_dot:128:4_8:140" cx="804.077" cy="985.097" r="2" stroke="none" fill="black"/>
<circle id="qubit_dot:129:4_10:140" cx="804.077" cy="1075.61" r="2" stroke="none" fill="black"/>
<circle id="qubit_dot:130:4_12:140" cx="804.077" cy="1166.12" r="2" stroke="none" fill="black"/>
<circle id="qubit_dot:131:4_14:140" cx="804.077" cy="1256.63" r="2" stroke="none" fill="black"/>
<circle id="qubit_dot:132:4_16:140" cx="804.077" cy="1347.14" r="2" stroke="none" fill="black"/>
<circle id="qubit_dot:133:4_18:140" cx="804.077" cy="1437.65" r="2" stroke="none" fill="black"/>
<circle id="qubit_dot:134:4_20:140" cx="804.077" cy="1528.15" r="2" stroke="none" fill="black"/>
<circle id="qubit_dot:135:5_-11:140" cx="849.332" cy="125.255" r="2" stroke="none" fill="black"/>
<circle id="qubit_dot:136:5_-9:140" cx="849.332" cy="215.764" r="2" stroke="none" fill="black"/>
<circle id="qubit_dot:137:5_-7:140" cx="849.332" cy="306.274" r="2" stroke="none" fill="black"/>
<circle id="qubit_dot:138:5_-5:140" cx="849.332" cy="396.784" r="2" stroke="none" fill="black"/>
<circle id="qubit_dot:139:5_-3:140" cx="849.332" cy="487.293" r="2" stroke="none" fill="black"/>
<circle id="qubit_dot:140:5_-1:140" cx="849.332" cy="577.803" r="2" stroke="none" fill="black"/>
<circle id="qubit_dot:141:5_1:140" cx="849.332" cy="668.313" r="2" stroke="none" fill="black"/>
<circle id="qubit_dot:142:5_3:140" cx="849.332" cy="758.823" r="2" stroke="none" fill="black"/>
<circle id="qubit_dot:143:5_5:140" cx="849.332" cy="849.332" r="2" stroke="none" fill="black"/>
<circle id="qubit_dot:144:5_7:140" cx="849.332" cy="939.842" r="2" stroke="none" fill="black"/>
<circle id="qubit_dot:145:5_9:140" cx="849.332" cy="1030.35" r="2" stroke="none" fill="black"/>
<circle id="qubit_dot:146:5_11:140" cx="849.332" cy="1120.86" r="2" stroke="none" fill="black"/>
<circle id="qubit_dot:147:5_13:140" cx="849.332" cy="1211.37" r="2" stroke="none" fill="black"/>
<circle id="qubit_dot:148:5_15:140" cx="849.332" cy="1301.88" r="2" stroke="none" fill="black"/>
<circle id="qubit_dot:149:5_17:140" cx="849.332" cy="1392.39" r="2" stroke="none" fill="black"/>
<circle id="qubit_dot:150:5_19:140" cx="849.332" cy="1482.9" r="2" stroke="none" fill="black"/>
<circle id="qubit_dot:151:5_21:140" cx="849.332" cy="1573.41" r="2" stroke="none" fill="black"/>
<circle id="qubit_dot:152:6_-10:140" cx="894.587" cy="170.51" r="2" stroke="none" fill="black"/>
<circle id="qubit_dot:153:6_-8:140" cx="894.587" cy="261.019" r="2" stroke="none" fill="black"/>
<circle id="qubit_dot:154:6_-6:140" cx="894.587" cy="351.529" r="2" stroke="none" fill="black"/>
<circle id="qubit_dot:155:6_-4:140" cx="894.587" cy="442.039" r="2" stroke="none" fill="black"/>
<circle id="qubit_dot:156:6_-2:140" cx="894.587" cy="532.548" r="2" stroke="none" fill="black"/>
<circle id="qubit_dot:157:6_0:140" cx="894.587" cy="623.058" r="2" stroke="none" fill="black"/>
<circle id="qubit_dot:158:6_2:140" cx="894.587" cy="713.568" r="2" stroke="none" fill="black"/>
<circle id="qubit_dot:159:6_4:140" cx="894.587" cy="804.077" r="2" stroke="none" fill="black"/>
<circle id="qubit_dot:160:6_6:140" cx="894.587" cy="894.587" r="2" stroke="none" fill="black"/>
<circle id="qubit_dot:161:6_8:140" cx="894.587" cy="985.097" r="2" stroke="none" fill="black"/>
<circle id="qubit_dot:162:6_10:140" cx="894.587" cy="1075.61" r="2" stroke="none" fill="black"/>
<circle id="qubit_dot:163:6_12:140" cx="894.587" cy="1166.12" r="2" stroke="none" fill="black"/>
<circle id="qubit_dot:164:6_14:140" cx="894.587" cy="1256.63" r="2" stroke="none" fill="black"/>
<circle id="qubit_dot:165:6_16:140" cx="894.587" cy="1347.14" r="2" stroke="none" fill="black"/>
<circle id="qubit_dot:166:6_18:140" cx="894.587" cy="1437.65" r="2" stroke="none" fill="black"/>
<circle id="qubit_dot:167:6_20:140" cx="894.587" cy="1528.15" r="2" stroke="none" fill="black"/>
<circle id="qubit_dot:168:7_-11:140" cx="939.842" cy="125.255" r="2" stroke="none" fill="black"/>
<circle id="qubit_dot:169:7_-9:140" cx="939.842" cy="215.764" r="2" stroke="none" fill="black"/>
<circle id="qubit_dot:170:7_-7:140" cx="939.842" cy="306.274" r="2" stroke="none" fill="black"/>
<circle id="qubit_dot:171:7_-5:140" cx="939.842" cy="396.784" r="2" stroke="none" fill="black"/>
<circle id="qubit_dot:172:7_-3:140" cx="939.842" cy="487.293" r="2" stroke="none" fill="black"/>
<circle id="qubit_dot:173:7_-1:140" cx="939.842" cy="577.803" r="2" stroke="none" fill="black"/>
<circle id="qubit_dot:174:7_1:140" cx="939.842" cy="668.313" r="2" stroke="none" fill="black"/>
<circle id="qubit_dot:175:7_3:140" cx="939.842" cy="758.823" r="2" stroke="none" fill="black"/>
<circle id="qubit_dot:176:7_5:140" cx="939.842" cy="849.332" r="2" stroke="none" fill="black"/>
<circle id="qubit_dot:177:7_7:140" cx="939.842" cy="939.842" r="2" stroke="none" fill="black"/>
<circle id="qubit_dot:178:7_9:140" cx="939.842" cy="1030.35" r="2" stroke="none" fill="black"/>
<circle id="qubit_dot:179:7_11:140" cx="939.842" cy="1120.86" r="2" stroke="none" fill="black"/>
<circle id="qubit_dot:180:7_13:140" cx="939.842" cy="1211.37" r="2" stroke="none" fill="black"/>
<circle id="qubit_dot:181:7_15:140" cx="939.842" cy="1301.88" r="2" stroke="none" fill="black"/>
<circle id="qubit_dot:182:7_17:140" cx="939.842" cy="1392.39" r="2" stroke="none" fill="black"/>
<circle id="qubit_dot:183:7_19:140" cx="939.842" cy="1482.9" r="2" stroke="none" fill="black"/>
<circle id="qubit_dot:184:7_21:140" cx="939.842" cy="1573.41" r="2" stroke="none" fill="black"/>
<circle id="qubit_dot:185:8_-12:140" cx="985.097" cy="80" r="2" stroke="none" fill="black"/>
<circle id="qubit_dot:186:8_-10:140" cx="985.097" cy="170.51" r="2" stroke="none" fill="black"/>
<circle id="qubit_dot:187:8_-8:140" cx="985.097" cy="261.019" r="2" stroke="none" fill="black"/>
<circle id="qubit_dot:188:8_-6:140" cx="985.097" cy="351.529" r="2" stroke="none" fill="black"/>
<circle id="qubit_dot:189:8_-4:140" cx="985.097" cy="442.039" r="2" stroke="none" fill="black"/>
<circle id="qubit_dot:190:8_-2:140" cx="985.097" cy="532.548" r="2" stroke="none" fill="black"/>
<circle id="qubit_dot:191:8_0:140" cx="985.097" cy="623.058" r="2" stroke="none" fill="black"/>
<circle id="qubit_dot:192:8_2:140" cx="985.097" cy="713.568" r="2" stroke="none" fill="black"/>
<circle id="qubit_dot:193:8_4:140" cx="985.097" cy="804.077" r="2" stroke="none" fill="black"/>
<circle id="qubit_dot:194:8_6:140" cx="985.097" cy="894.587" r="2" stroke="none" fill="black"/>
<circle id="qubit_dot:195:8_8:140" cx="985.097" cy="985.097" r="2" stroke="none" fill="black"/>
<circle id="qubit_dot:196:8_10:140" cx="985.097" cy="1075.61" r="2" stroke="none" fill="black"/>
<circle id="qubit_dot:197:8_12:140" cx="985.097" cy="1166.12" r="2" stroke="none" fill="black"/>
<circle id="qubit_dot:198:8_14:140" cx="985.097" cy="1256.63" r="2" stroke="none" fill="black"/>
<circle id="qubit_dot:199:8_16:140" cx="985.097" cy="1347.14" r="2" stroke="none" fill="black"/>
<circle id="qubit_dot:200:8_18:140" cx="985.097" cy="1437.65" r="2" stroke="none" fill="black"/>
<circle id="qubit_dot:201:8_20:140" cx="985.097" cy="1528.15" r="2" stroke="none" fill="black"/>
<circle id="qubit_dot:202:9_-11:140" cx="1030.35" cy="125.255" r="2" stroke="none" fill="black"/>
<circle id="qubit_dot:203:9_-9:140" cx="1030.35" cy="215.764" r="2" stroke="none" fill="black"/>
<circle id="qubit_dot:204:9_-7:140" cx="1030.35" cy="306.274" r="2" stroke="none" fill="black"/>
<circle id="qubit_dot:205:9_-5:140" cx="1030.35" cy="396.784" r="2" stroke="none" fill="black"/>
<circle id="qubit_dot:206:9_-3:140" cx="1030.35" cy="487.293" r="2" stroke="none" fill="black"/>
<circle id="qubit_dot:207:9_-1:140" cx="1030.35" cy="577.803" r="2" stroke="none" fill="black"/>
<circle id="qubit_dot:208:9_1:140" cx="1030.35" cy="668.313" r="2" stroke="none" fill="black"/>
<circle id="qubit_dot:209:9_3:140" cx="1030.35" cy="758.823" r="2" stroke="none" fill="black"/>
<circle id="qubit_dot:210:9_5:140" cx="1030.35" cy="849.332" r="2" stroke="none" fill="black"/>
<circle id="qubit_dot:211:9_7:140" cx="1030.35" cy="939.842" r="2" stroke="none" fill="black"/>
<circle id="qubit_dot:212:9_9:140" cx="1030.35" cy="1030.35" r="2" stroke="none" fill="black"/>
<circle id="qubit_dot:213:9_11:140" cx="1030.35" cy="1120.86" r="2" stroke="none" fill="black"/>
<circle id="qubit_dot:214:9_13:140" cx="1030.35" cy="1211.37" r="2" stroke="none" fill="black"/>
<circle id="qubit_dot:215:9_15:140" cx="1030.35" cy="1301.88" r="2" stroke="none" fill="black"/>
<circle id="qubit_dot:216:9_17:140" cx="1030.35" cy="1392.39" r="2" stroke="none" fill="black"/>
<circle id="qubit_dot:217:9_19:140" cx="1030.35" cy="1482.9" r="2" stroke="none" fill="black"/>
<circle id="qubit_dot:218:9_21:140" cx="1030.35" cy="1573.41" r="2" stroke="none" fill="black"/>
<circle id="qubit_dot:219:10_-8:140" cx="1075.61" cy="261.019" r="2" stroke="none" fill="black"/>
<circle id="qubit_dot:220:10_-4:140" cx="1075.61" cy="442.039" r="2" stroke="none" fill="black"/>
<circle id="qubit_dot:221:10_0:140" cx="1075.61" cy="623.058" r="2" stroke="none" fill="black"/>
<circle id="qubit_dot:222:10_2:140" cx="1075.61" cy="713.568" r="2" stroke="none" fill="black"/>
<circle id="qubit_dot:223:10_4:140" cx="1075.61" cy="804.077" r="2" stroke="none" fill="black"/>
<circle id="qubit_dot:224:10_6:140" cx="1075.61" cy="894.587" r="2" stroke="none" fill="black"/>
<circle id="qubit_dot:225:10_8:140" cx="1075.61" cy="985.097" r="2" stroke="none" fill="black"/>
<circle id="qubit_dot:226:10_12:140" cx="1075.61" cy="1166.12" r="2" stroke="none" fill="black"/>
<circle id="qubit_dot:227:10_14:140" cx="1075.61" cy="1256.63" r="2" stroke="none" fill="black"/>
<circle id="qubit_dot:228:10_16:140" cx="1075.61" cy="1347.14" r="2" stroke="none" fill="black"/>
<circle id="qubit_dot:229:10_18:140" cx="1075.61" cy="1437.65" r="2" stroke="none" fill="black"/>
<circle id="qubit_dot:230:10_20:140" cx="1075.61" cy="1528.15" r="2" stroke="none" fill="black"/>
<circle id="qubit_dot:231:11_1:140" cx="1120.86" cy="668.313" r="2" stroke="none" fill="black"/>
<circle id="qubit_dot:232:11_3:140" cx="1120.86" cy="758.823" r="2" stroke="none" fill="black"/>
<circle id="qubit_dot:233:11_5:140" cx="1120.86" cy="849.332" r="2" stroke="none" fill="black"/>
<circle id="qubit_dot:234:11_7:140" cx="1120.86" cy="939.842" r="2" stroke="none" fill="black"/>
<circle id="qubit_dot:235:11_9:140" cx="1120.86" cy="1030.35" r="2" stroke="none" fill="black"/>
<circle id="qubit_dot:236:11_13:140" cx="1120.86" cy="1211.37" r="2" stroke="none" fill="black"/>
<circle id="qubit_dot:237:11_15:140" cx="1120.86" cy="1301.88" r="2" stroke="none" fill="black"/>
<circle id="qubit_dot:238:11_17:140" cx="1120.86" cy="1392.39" r="2" stroke="none" fill="black"/>
<circle id="qubit_dot:239:11_19:140" cx="1120.86" cy="1482.9" r="2" stroke="none" fill="black"/>
<circle id="qubit_dot:240:11_21:140" cx="1120.86" cy="1573.41" r="2" stroke="none" fill="black"/>
<circle id="qubit_dot:241:12_2:140" cx="1166.12" cy="713.568" r="2" stroke="none" fill="black"/>
<circle id="qubit_dot:242:12_4:140" cx="1166.12" cy="804.077" r="2" stroke="none" fill="black"/>
<circle id="qubit_dot:243:12_6:140" cx="1166.12" cy="894.587" r="2" stroke="none" fill="black"/>
<circle id="qubit_dot:244:12_8:140" cx="1166.12" cy="985.097" r="2" stroke="none" fill="black"/>
<circle id="qubit_dot:245:12_10:140" cx="1166.12" cy="1075.61" r="2" stroke="none" fill="black"/>
<circle id="qubit_dot:246:12_12:140" cx="1166.12" cy="1166.12" r="2" stroke="none" fill="black"/>
<circle id="qubit_dot:247:12_14:140" cx="1166.12" cy="1256.63" r="2" stroke="none" fill="black"/>
<circle id="qubit_dot:248:12_16:140" cx="1166.12" cy="1347.14" r="2" stroke="none" fill="black"/>
<circle id="qubit_dot:249:12_18:140" cx="1166.12" cy="1437.65" r="2" stroke="none" fill="black"/>
<circle id="qubit_dot:250:12_20:140" cx="1166.12" cy="1528.15" r="2" stroke="none" fill="black"/>
<circle id="qubit_dot:251:12_22:140" cx="1166.12" cy="1618.66" r="2" stroke="none" fill="black"/>
<circle id="qubit_dot:252:13_1:140" cx="1211.37" cy="668.313" r="2" stroke="none" fill="black"/>
<circle id="qubit_dot:253:13_3:140" cx="1211.37" cy="758.823" r="2" stroke="none" fill="black"/>
<circle id="qubit_dot:254:13_5:140" cx="1211.37" cy="849.332" r="2" stroke="none" fill="black"/>
<circle id="qubit_dot:255:13_7:140" cx="1211.37" cy="939.842" r="2" stroke="none" fill="black"/>
<circle id="qubit_dot:256:13_9:140" cx="1211.37" cy="1030.35" r="2" stroke="none" fill="black"/>
<circle id="qubit_dot:257:13_11:140" cx="1211.37" cy="1120.86" r="2" stroke="none" fill="black"/>
<circle id="qubit_dot:258:13_13:140" cx="1211.37" cy="1211.37" r="2" stroke="none" fill="black"/>
<circle id="qubit_dot:259:13_15:140" cx="1211.37" cy="1301.88" r="2" stroke="none" fill="black"/>
<circle id="qubit_dot:260:13_17:140" cx="1211.37" cy="1392.39" r="2" stroke="none" fill="black"/>
<circle id="qubit_dot:261:13_19:140" cx="1211.37" cy="1482.9" r="2" stroke="none" fill="black"/>
<circle id="qubit_dot:262:13_21:140" cx="1211.37" cy="1573.41" r="2" stroke="none" fill="black"/>
<circle id="qubit_dot:263:14_0:140" cx="1256.63" cy="623.058" r="2" stroke="none" fill="black"/>
<circle id="qubit_dot:264:14_2:140" cx="1256.63" cy="713.568" r="2" stroke="none" fill="black"/>
<circle id="qubit_dot:265:14_4:140" cx="1256.63" cy="804.077" r="2" stroke="none" fill="black"/>
<circle id="qubit_dot:266:14_6:140" cx="1256.63" cy="894.587" r="2" stroke="none" fill="black"/>
<circle id="qubit_dot:267:14_8:140" cx="1256.63" cy="985.097" r="2" stroke="none" fill="black"/>
<circle id="qubit_dot:268:14_10:140" cx="1256.63" cy="1075.61" r="2" stroke="none" fill="black"/>
<circle id="qubit_dot:269:14_12:140" cx="1256.63" cy="1166.12" r="2" stroke="none" fill="black"/>
<circle id="qubit_dot:270:14_14:140" cx="1256.63" cy="1256.63" r="2" stroke="none" fill="black"/>
<circle id="qubit_dot:271:14_16:140" cx="1256.63" cy="1347.14" r="2" stroke="none" fill="black"/>
<circle id="qubit_dot:272:14_18:140" cx="1256.63" cy="1437.65" r="2" stroke="none" fill="black"/>
<circle id="qubit_dot:273:14_20:140" cx="1256.63" cy="1528.15" r="2" stroke="none" fill="black"/>
<circle id="qubit_dot:274:15_1:140" cx="1301.88" cy="668.313" r="2" stroke="none" fill="black"/>
<circle id="qubit_dot:275:15_3:140" cx="1301.88" cy="758.823" r="2" stroke="none" fill="black"/>
<circle id="qubit_dot:276:15_5:140" cx="1301.88" cy="849.332" r="2" stroke="none" fill="black"/>
<circle id="qubit_dot:277:15_7:140" cx="1301.88" cy="939.842" r="2" stroke="none" fill="black"/>
<circle id="qubit_dot:278:15_9:140" cx="1301.88" cy="1030.35" r="2" stroke="none" fill="black"/>
<circle id="qubit_dot:279:15_11:140" cx="1301.88" cy="1120.86" r="2" stroke="none" fill="black"/>
<circle id="qubit_dot:280:15_13:140" cx="1301.88" cy="1211.37" r="2" stroke="none" fill="black"/>
<circle id="qubit_dot:281:15_15:140" cx="1301.88" cy="1301.88" r="2" stroke="none" fill="black"/>
<circle id="qubit_dot:282:15_17:140" cx="1301.88" cy="1392.39" r="2" stroke="none" fill="black"/>
<circle id="qubit_dot:283:15_19:140" cx="1301.88" cy="1482.9" r="2" stroke="none" fill="black"/>
<circle id="qubit_dot:284:15_21:140" cx="1301.88" cy="1573.41" r="2" stroke="none" fill="black"/>
<circle id="qubit_dot:285:16_2:140" cx="1347.14" cy="713.568" r="2" stroke="none" fill="black"/>
<circle id="qubit_dot:286:16_4:140" cx="1347.14" cy="804.077" r="2" stroke="none" fill="black"/>
<circle id="qubit_dot:287:16_6:140" cx="1347.14" cy="894.587" r="2" stroke="none" fill="black"/>
<circle id="qubit_dot:288:16_8:140" cx="1347.14" cy="985.097" r="2" stroke="none" fill="black"/>
<circle id="qubit_dot:289:16_10:140" cx="1347.14" cy="1075.61" r="2" stroke="none" fill="black"/>
<circle id="qubit_dot:290:16_12:140" cx="1347.14" cy="1166.12" r="2" stroke="none" fill="black"/>
<circle id="qubit_dot:291:16_14:140" cx="1347.14" cy="1256.63" r="2" stroke="none" fill="black"/>
<circle id="qubit_dot:292:16_16:140" cx="1347.14" cy="1347.14" r="2" stroke="none" fill="black"/>
<circle id="qubit_dot:293:16_18:140" cx="1347.14" cy="1437.65" r="2" stroke="none" fill="black"/>
<circle id="qubit_dot:294:16_20:140" cx="1347.14" cy="1528.15" r="2" stroke="none" fill="black"/>
<circle id="qubit_dot:295:16_22:140" cx="1347.14" cy="1618.66" r="2" stroke="none" fill="black"/>
<circle id="qubit_dot:296:17_1:140" cx="1392.39" cy="668.313" r="2" stroke="none" fill="black"/>
<circle id="qubit_dot:297:17_3:140" cx="1392.39" cy="758.823" r="2" stroke="none" fill="black"/>
<circle id="qubit_dot:298:17_5:140" cx="1392.39" cy="849.332" r="2" stroke="none" fill="black"/>
<circle id="qubit_dot:299:17_7:140" cx="1392.39" cy="939.842" r="2" stroke="none" fill="black"/>
<circle id="qubit_dot:300:17_9:140" cx="1392.39" cy="1030.35" r="2" stroke="none" fill="black"/>
<circle id="qubit_dot:301:17_11:140" cx="1392.39" cy="1120.86" r="2" stroke="none" fill="black"/>
<circle id="qubit_dot:302:17_13:140" cx="1392.39" cy="1211.37" r="2" stroke="none" fill="black"/>
<circle id="qubit_dot:303:17_15:140" cx="1392.39" cy="1301.88" r="2" stroke="none" fill="black"/>
<circle id="qubit_dot:304:17_17:140" cx="1392.39" cy="1392.39" r="2" stroke="none" fill="black"/>
<circle id="qubit_dot:305:17_19:140" cx="1392.39" cy="1482.9" r="2" stroke="none" fill="black"/>
<circle id="qubit_dot:306:17_21:140" cx="1392.39" cy="1573.41" r="2" stroke="none" fill="black"/>
<circle id="qubit_dot:307:18_0:140" cx="1437.65" cy="623.058" r="2" stroke="none" fill="black"/>
<circle id="qubit_dot:308:18_2:140" cx="1437.65" cy="713.568" r="2" stroke="none" fill="black"/>
<circle id="qubit_dot:309:18_4:140" cx="1437.65" cy="804.077" r="2" stroke="none" fill="black"/>
<circle id="qubit_dot:310:18_6:140" cx="1437.65" cy="894.587" r="2" stroke="none" fill="black"/>
<circle id="qubit_dot:311:18_8:140" cx="1437.65" cy="985.097" r="2" stroke="none" fill="black"/>
<circle id="qubit_dot:312:18_10:140" cx="1437.65" cy="1075.61" r="2" stroke="none" fill="black"/>
<circle id="qubit_dot:313:18_12:140" cx="1437.65" cy="1166.12" r="2" stroke="none" fill="black"/>
<circle id="qubit_dot:314:18_14:140" cx="1437.65" cy="1256.63" r="2" stroke="none" fill="black"/>
<circle id="qubit_dot:315:18_16:140" cx="1437.65" cy="1347.14" r="2" stroke="none" fill="black"/>
<circle id="qubit_dot:316:18_18:140" cx="1437.65" cy="1437.65" r="2" stroke="none" fill="black"/>
<circle id="qubit_dot:317:18_20:140" cx="1437.65" cy="1528.15" r="2" stroke="none" fill="black"/>
<circle id="qubit_dot:318:19_1:140" cx="1482.9" cy="668.313" r="2" stroke="none" fill="black"/>
<circle id="qubit_dot:319:19_3:140" cx="1482.9" cy="758.823" r="2" stroke="none" fill="black"/>
<circle id="qubit_dot:320:19_5:140" cx="1482.9" cy="849.332" r="2" stroke="none" fill="black"/>
<circle id="qubit_dot:321:19_7:140" cx="1482.9" cy="939.842" r="2" stroke="none" fill="black"/>
<circle id="qubit_dot:322:19_9:140" cx="1482.9" cy="1030.35" r="2" stroke="none" fill="black"/>
<circle id="qubit_dot:323:19_11:140" cx="1482.9" cy="1120.86" r="2" stroke="none" fill="black"/>
<circle id="qubit_dot:324:19_13:140" cx="1482.9" cy="1211.37" r="2" stroke="none" fill="black"/>
<circle id="qubit_dot:325:19_15:140" cx="1482.9" cy="1301.88" r="2" stroke="none" fill="black"/>
<circle id="qubit_dot:326:19_17:140" cx="1482.9" cy="1392.39" r="2" stroke="none" fill="black"/>
<circle id="qubit_dot:327:19_19:140" cx="1482.9" cy="1482.9" r="2" stroke="none" fill="black"/>
<circle id="qubit_dot:328:19_21:140" cx="1482.9" cy="1573.41" r="2" stroke="none" fill="black"/>
<circle id="qubit_dot:329:20_2:140" cx="1528.15" cy="713.568" r="2" stroke="none" fill="black"/>
<circle id="qubit_dot:330:20_4:140" cx="1528.15" cy="804.077" r="2" stroke="none" fill="black"/>
<circle id="qubit_dot:331:20_6:140" cx="1528.15" cy="894.587" r="2" stroke="none" fill="black"/>
<circle id="qubit_dot:332:20_8:140" cx="1528.15" cy="985.097" r="2" stroke="none" fill="black"/>
<circle id="qubit_dot:333:20_10:140" cx="1528.15" cy="1075.61" r="2" stroke="none" fill="black"/>
<circle id="qubit_dot:334:20_12:140" cx="1528.15" cy="1166.12" r="2" stroke="none" fill="black"/>
<circle id="qubit_dot:335:20_14:140" cx="1528.15" cy="1256.63" r="2" stroke="none" fill="black"/>
<circle id="qubit_dot:336:20_16:140" cx="1528.15" cy="1347.14" r="2" stroke="none" fill="black"/>
<circle id="qubit_dot:337:20_18:140" cx="1528.15" cy="1437.65" r="2" stroke="none" fill="black"/>
<circle id="qubit_dot:338:20_20:140" cx="1528.15" cy="1528.15" r="2" stroke="none" fill="black"/>
<circle id="qubit_dot:339:20_22:140" cx="1528.15" cy="1618.66" r="2" stroke="none" fill="black"/>
<circle id="qubit_dot:340:21_1:140" cx="1573.41" cy="668.313" r="2" stroke="none" fill="black"/>
<circle id="qubit_dot:341:21_3:140" cx="1573.41" cy="758.823" r="2" stroke="none" fill="black"/>
<circle id="qubit_dot:342:21_5:140" cx="1573.41" cy="849.332" r="2" stroke="none" fill="black"/>
<circle id="qubit_dot:343:21_7:140" cx="1573.41" cy="939.842" r="2" stroke="none" fill="black"/>
<circle id="qubit_dot:344:21_9:140" cx="1573.41" cy="1030.35" r="2" stroke="none" fill="black"/>
<circle id="qubit_dot:345:21_11:140" cx="1573.41" cy="1120.86" r="2" stroke="none" fill="black"/>
<circle id="qubit_dot:346:21_13:140" cx="1573.41" cy="1211.37" r="2" stroke="none" fill="black"/>
<circle id="qubit_dot:347:21_15:140" cx="1573.41" cy="1301.88" r="2" stroke="none" fill="black"/>
<circle id="qubit_dot:348:21_17:140" cx="1573.41" cy="1392.39" r="2" stroke="none" fill="black"/>
<circle id="qubit_dot:349:21_19:140" cx="1573.41" cy="1482.9" r="2" stroke="none" fill="black"/>
<circle id="qubit_dot:350:21_21:140" cx="1573.41" cy="1573.41" r="2" stroke="none" fill="black"/>
<circle id="qubit_dot:351:22_2:140" cx="1618.66" cy="713.568" r="2" stroke="none" fill="black"/>
<circle id="qubit_dot:352:22_6:140" cx="1618.66" cy="894.587" r="2" stroke="none" fill="black"/>
<circle id="qubit_dot:353:22_10:140" cx="1618.66" cy="1075.61" r="2" stroke="none" fill="black"/>
<circle id="qubit_dot:354:22_12:140" cx="1618.66" cy="1166.12" r="2" stroke="none" fill="black"/>
<circle id="qubit_dot:355:22_14:140" cx="1618.66" cy="1256.63" r="2" stroke="none" fill="black"/>
<circle id="qubit_dot:356:22_16:140" cx="1618.66" cy="1347.14" r="2" stroke="none" fill="black"/>
<circle id="qubit_dot:357:22_18:140" cx="1618.66" cy="1437.65" r="2" stroke="none" fill="black"/>
<circle id="qubit_dot:358:22_20:140" cx="1618.66" cy="1528.15" r="2" stroke="none" fill="black"/>
<circle id="qubit_dot:359:23_13:140" cx="1663.92" cy="1211.37" r="2" stroke="none" fill="black"/>
<circle id="qubit_dot:360:23_15:140" cx="1663.92" cy="1301.88" r="2" stroke="none" fill="black"/>
<circle id="qubit_dot:361:23_17:140" cx="1663.92" cy="1392.39" r="2" stroke="none" fill="black"/>
<circle id="qubit_dot:362:23_19:140" cx="1663.92" cy="1482.9" r="2" stroke="none" fill="black"/>
<circle id="qubit_dot:363:23_21:140" cx="1663.92" cy="1573.41" r="2" stroke="none" fill="black"/>
<circle id="qubit_dot:364:24_14:140" cx="1709.17" cy="1256.63" r="2" stroke="none" fill="black"/>
<circle id="qubit_dot:365:24_16:140" cx="1709.17" cy="1347.14" r="2" stroke="none" fill="black"/>
<circle id="qubit_dot:366:24_18:140" cx="1709.17" cy="1437.65" r="2" stroke="none" fill="black"/>
<circle id="qubit_dot:367:24_20:140" cx="1709.17" cy="1528.15" r="2" stroke="none" fill="black"/>
<circle id="qubit_dot:368:24_22:140" cx="1709.17" cy="1618.66" r="2" stroke="none" fill="black"/>
<circle id="qubit_dot:369:25_13:140" cx="1754.43" cy="1211.37" r="2" stroke="none" fill="black"/>
<circle id="qubit_dot:370:25_15:140" cx="1754.43" cy="1301.88" r="2" stroke="none" fill="black"/>
<circle id="qubit_dot:371:25_17:140" cx="1754.43" cy="1392.39" r="2" stroke="none" fill="black"/>
<circle id="qubit_dot:372:25_19:140" cx="1754.43" cy="1482.9" r="2" stroke="none" fill="black"/>
<circle id="qubit_dot:373:25_21:140" cx="1754.43" cy="1573.41" r="2" stroke="none" fill="black"/>
<circle id="qubit_dot:374:26_12:140" cx="1799.68" cy="1166.12" r="2" stroke="none" fill="black"/>
<circle id="qubit_dot:375:26_14:140" cx="1799.68" cy="1256.63" r="2" stroke="none" fill="black"/>
<circle id="qubit_dot:376:26_16:140" cx="1799.68" cy="1347.14" r="2" stroke="none" fill="black"/>
<circle id="qubit_dot:377:26_18:140" cx="1799.68" cy="1437.65" r="2" stroke="none" fill="black"/>
<circle id="qubit_dot:378:26_20:140" cx="1799.68" cy="1528.15" r="2" stroke="none" fill="black"/>
<circle id="qubit_dot:379:27_13:140" cx="1844.94" cy="1211.37" r="2" stroke="none" fill="black"/>
<circle id="qubit_dot:380:27_15:140" cx="1844.94" cy="1301.88" r="2" stroke="none" fill="black"/>
<circle id="qubit_dot:381:27_17:140" cx="1844.94" cy="1392.39" r="2" stroke="none" fill="black"/>
<circle id="qubit_dot:382:27_19:140" cx="1844.94" cy="1482.9" r="2" stroke="none" fill="black"/>
<circle id="qubit_dot:383:27_21:140" cx="1844.94" cy="1573.41" r="2" stroke="none" fill="black"/>
<circle id="qubit_dot:384:28_14:140" cx="1890.19" cy="1256.63" r="2" stroke="none" fill="black"/>
<circle id="qubit_dot:385:28_16:140" cx="1890.19" cy="1347.14" r="2" stroke="none" fill="black"/>
<circle id="qubit_dot:386:28_18:140" cx="1890.19" cy="1437.65" r="2" stroke="none" fill="black"/>
<circle id="qubit_dot:387:28_20:140" cx="1890.19" cy="1528.15" r="2" stroke="none" fill="black"/>
<circle id="qubit_dot:388:28_22:140" cx="1890.19" cy="1618.66" r="2" stroke="none" fill="black"/>
<circle id="qubit_dot:389:29_13:140" cx="1935.45" cy="1211.37" r="2" stroke="none" fill="black"/>
<circle id="qubit_dot:390:29_15:140" cx="1935.45" cy="1301.88" r="2" stroke="none" fill="black"/>
<circle id="qubit_dot:391:29_17:140" cx="1935.45" cy="1392.39" r="2" stroke="none" fill="black"/>
<circle id="qubit_dot:392:29_19:140" cx="1935.45" cy="1482.9" r="2" stroke="none" fill="black"/>
<circle id="qubit_dot:393:29_21:140" cx="1935.45" cy="1573.41" r="2" stroke="none" fill="black"/>
<circle id="qubit_dot:394:30_12:140" cx="1980.7" cy="1166.12" r="2" stroke="none" fill="black"/>
<circle id="qubit_dot:395:30_14:140" cx="1980.7" cy="1256.63" r="2" stroke="none" fill="black"/>
<circle id="qubit_dot:396:30_16:140" cx="1980.7" cy="1347.14" r="2" stroke="none" fill="black"/>
<circle id="qubit_dot:397:30_18:140" cx="1980.7" cy="1437.65" r="2" stroke="none" fill="black"/>
<circle id="qubit_dot:398:30_20:140" cx="1980.7" cy="1528.15" r="2" stroke="none" fill="black"/>
<circle id="qubit_dot:399:31_13:140" cx="2025.96" cy="1211.37" r="2" stroke="none" fill="black"/>
<circle id="qubit_dot:400:31_15:140" cx="2025.96" cy="1301.88" r="2" stroke="none" fill="black"/>
<circle id="qubit_dot:401:31_17:140" cx="2025.96" cy="1392.39" r="2" stroke="none" fill="black"/>
<circle id="qubit_dot:402:31_19:140" cx="2025.96" cy="1482.9" r="2" stroke="none" fill="black"/>
<circle id="qubit_dot:403:31_21:140" cx="2025.96" cy="1573.41" r="2" stroke="none" fill="black"/>
<circle id="qubit_dot:404:32_14:140" cx="2071.21" cy="1256.63" r="2" stroke="none" fill="black"/>
<circle id="qubit_dot:405:32_16:140" cx="2071.21" cy="1347.14" r="2" stroke="none" fill="black"/>
<circle id="qubit_dot:406:32_18:140" cx="2071.21" cy="1437.65" r="2" stroke="none" fill="black"/>
<circle id="qubit_dot:407:32_20:140" cx="2071.21" cy="1528.15" r="2" stroke="none" fill="black"/>
<circle id="qubit_dot:408:32_22:140" cx="2071.21" cy="1618.66" r="2" stroke="none" fill="black"/>
<circle id="qubit_dot:409:33_13:140" cx="2116.47" cy="1211.37" r="2" stroke="none" fill="black"/>
<circle id="qubit_dot:410:33_15:140" cx="2116.47" cy="1301.88" r="2" stroke="none" fill="black"/>
<circle id="qubit_dot:411:33_17:140" cx="2116.47" cy="1392.39" r="2" stroke="none" fill="black"/>
<circle id="qubit_dot:412:33_19:140" cx="2116.47" cy="1482.9" r="2" stroke="none" fill="black"/>
<circle id="qubit_dot:413:33_21:140" cx="2116.47" cy="1573.41" r="2" stroke="none" fill="black"/>
<circle id="qubit_dot:414:34_14:140" cx="2161.72" cy="1256.63" r="2" stroke="none" fill="black"/>
<circle id="qubit_dot:415:34_18:140" cx="2161.72" cy="1437.65" r="2" stroke="none" fill="black"/>
</g>
<path d="M1256.63,623.058 L1211.37,668.313 " fill="none" stroke="black" stroke-width="5"/>
<circle cx="1256.63" cy="623.058" r="12" stroke="none" fill="black"/>
<circle cx="1211.37" cy="668.313" r="12" stroke="black" fill="white"/>
<path d="M1199.37,668.313 L1223.37,668.313 M1211.37,656.313 L1211.37,680.313 " stroke="black"/>
<path d="M1256.63,804.077 L1211.37,849.332 " fill="none" stroke="black" stroke-width="5"/>
<circle cx="1256.63" cy="804.077" r="12" stroke="none" fill="black"/>
<circle cx="1211.37" cy="849.332" r="12" stroke="black" fill="white"/>
<path d="M1199.37,849.332 L1223.37,849.332 M1211.37,837.332 L1211.37,861.332 " stroke="black"/>
<path d="M1256.63,985.097 L1211.37,1030.35 " fill="none" stroke="black" stroke-width="5"/>
<circle cx="1256.63" cy="985.097" r="12" stroke="none" fill="black"/>
<circle cx="1211.37" cy="1030.35" r="12" stroke="black" fill="white"/>
<path d="M1199.37,1030.35 L1223.37,1030.35 M1211.37,1018.35 L1211.37,1042.35 " stroke="black"/>
<path d="M1347.14,713.568 L1301.88,758.823 " fill="none" stroke="black" stroke-width="5"/>
<circle cx="1347.14" cy="713.568" r="12" stroke="none" fill="black"/>
<circle cx="1301.88" cy="758.823" r="12" stroke="black" fill="white"/>
<path d="M1289.88,758.823 L1313.88,758.823 M1301.88,746.823 L1301.88,770.823 " stroke="black"/>
<path d="M1347.14,894.587 L1301.88,939.842 " fill="none" stroke="black" stroke-width="5"/>
<circle cx="1347.14" cy="894.587" r="12" stroke="none" fill="black"/>
<circle cx="1301.88" cy="939.842" r="12" stroke="black" fill="white"/>
<path d="M1289.88,939.842 L1313.88,939.842 M1301.88,927.842 L1301.88,951.842 " stroke="black"/>
<path d="M1437.65,623.058 L1392.39,668.313 " fill="none" stroke="black" stroke-width="5"/>
<circle cx="1437.65" cy="623.058" r="12" stroke="none" fill="black"/>
<circle cx="1392.39" cy="668.313" r="12" stroke="black" fill="white"/>
<path d="M1380.39,668.313 L1404.39,668.313 M1392.39,656.313 L1392.39,680.313 " stroke="black"/>
<path d="M1437.65,804.077 L1392.39,849.332 " fill="none" stroke="black" stroke-width="5"/>
<circle cx="1437.65" cy="804.077" r="12" stroke="none" fill="black"/>
<circle cx="1392.39" cy="849.332" r="12" stroke="black" fill="white"/>
<path d="M1380.39,849.332 L1404.39,849.332 M1392.39,837.332 L1392.39,861.332 " stroke="black"/>
<path d="M1437.65,985.097 L1392.39,1030.35 " fill="none" stroke="black" stroke-width="5"/>
<circle cx="1437.65" cy="985.097" r="12" stroke="none" fill="black"/>
<circle cx="1392.39" cy="1030.35" r="12" stroke="black" fill="white"/>
<path d="M1380.39,1030.35 L1404.39,1030.35 M1392.39,1018.35 L1392.39,1042.35 " stroke="black"/>
<path d="M1528.15,713.568 L1482.9,758.823 " fill="none" stroke="black" stroke-width="5"/>
<circle cx="1528.15" cy="713.568" r="12" stroke="none" fill="black"/>
<circle cx="1482.9" cy="758.823" r="12" stroke="black" fill="white"/>
<path d="M1470.9,758.823 L1494.9,758.823 M1482.9,746.823 L1482.9,770.823 " stroke="black"/>
<path d="M1528.15,894.587 L1482.9,939.842 " fill="none" stroke="black" stroke-width="5"/>
<circle cx="1528.15" cy="894.587" r="12" stroke="none" fill="black"/>
<circle cx="1482.9" cy="939.842" r="12" stroke="black" fill="white"/>
<path d="M1470.9,939.842 L1494.9,939.842 M1482.9,927.842 L1482.9,951.842 " stroke="black"/>
<path d="M1618.66,713.568 L1573.41,758.823 " fill="none" stroke="black" stroke-width="5"/>
<circle cx="1618.66" cy="713.568" r="12" stroke="none" fill="black"/>
<circle cx="1573.41" cy="758.823" r="12" stroke="black" fill="white"/>
<path d="M1561.41,758.823 L1585.41,758.823 M1573.41,746.823 L1573.41,770.823 " stroke="black"/>
<path d="M1618.66,894.587 L1573.41,939.842 " fill="none" stroke="black" stroke-width="5"/>
<circle cx="1618.66" cy="894.587" r="12" stroke="none" fill="black"/>
<circle cx="1573.41" cy="939.842" r="12" stroke="black" fill="white"/>
<path d="M1561.41,939.842 L1585.41,939.842 M1573.41,927.842 L1573.41,951.842 " stroke="black"/>
<path d="M1256.63,713.568 L1211.37,758.823 " fill="none" stroke="black" stroke-width="5"/>
<circle cx="1256.63" cy="713.568" r="12" stroke="none" fill="black"/>
<circle cx="1211.37" cy="758.823" r="12" stroke="none" fill="black"/>
<path d="M1256.63,894.587 L1211.37,939.842 " fill="none" stroke="black" stroke-width="5"/>
<circle cx="1256.63" cy="894.587" r="12" stroke="none" fill="black"/>
<circle cx="1211.37" cy="939.842" r="12" stroke="none" fill="black"/>
<path d="M1347.14,804.077 L1301.88,849.332 " fill="none" stroke="black" stroke-width="5"/>
<circle cx="1347.14" cy="804.077" r="12" stroke="none" fill="black"/>
<circle cx="1301.88" cy="849.332" r="12" stroke="none" fill="black"/>
<path d="M1347.14,985.097 L1301.88,1030.35 " fill="none" stroke="black" stroke-width="5"/>
<circle cx="1347.14" cy="985.097" r="12" stroke="none" fill="black"/>
<circle cx="1301.88" cy="1030.35" r="12" stroke="none" fill="black"/>
<path d="M1437.65,713.568 L1392.39,758.823 " fill="none" stroke="black" stroke-width="5"/>
<circle cx="1437.65" cy="713.568" r="12" stroke="none" fill="black"/>
<circle cx="1392.39" cy="758.823" r="12" stroke="none" fill="black"/>
<path d="M1437.65,894.587 L1392.39,939.842 " fill="none" stroke="black" stroke-width="5"/>
<circle cx="1437.65" cy="894.587" r="12" stroke="none" fill="black"/>
<circle cx="1392.39" cy="939.842" r="12" stroke="none" fill="black"/>
<path d="M1528.15,804.077 L1482.9,849.332 " fill="none" stroke="black" stroke-width="5"/>
<circle cx="1528.15" cy="804.077" r="12" stroke="none" fill="black"/>
<circle cx="1482.9" cy="849.332" r="12" stroke="none" fill="black"/>
<path d="M1528.15,985.097 L1482.9,1030.35 " fill="none" stroke="black" stroke-width="5"/>
<circle cx="1528.15" cy="985.097" r="12" stroke="none" fill="black"/>
<circle cx="1482.9" cy="1030.35" r="12" stroke="none" fill="black"/>
</svg>
