<svg viewBox="0 0 250 500" xmlns="http://www.w3.org/2000/svg">
<clipPath id="clipPath0">
    <path d="M 125.0,62.5 a 1,1 0 0,0 -62.5,0.0 L 125.0,62.5"/>
</clipPath>
<rect clip-path="url(#clipPath0)" x="62.5" y="31.25" width="31.25" height="31.25" fill="#ff7f7f" opacity="1.0" stroke="none"/>
<rect clip-path="url(#clipPath0)" x="93.75" y="31.25" width="31.25" height="31.25" fill="#ff7f7f" opacity="1.0" stroke="none"/>
<clipPath id="clipPath1">
    <path d="M 62.5,125.0 L 62.5,62.5 L 125.0,62.5 L 125.0,125.0 L 62.5,125.0 "/>
</clipPath>
<rect clip-path="url(#clipPath1)" x="62.5" y="62.5" width="31.25" height="31.25" fill="#7396ff" opacity="1.0" stroke="none"/>
<rect clip-path="url(#clipPath1)" x="93.75" y="62.5" width="31.25" height="31.25" fill="#7396ff" opacity="1.0" stroke="none"/>
<rect clip-path="url(#clipPath1)" x="62.5" y="93.75" width="31.25" height="31.25" fill="#7396ff" opacity="1.0" stroke="none"/>
<rect clip-path="url(#clipPath1)" x="93.75" y="93.75" width="31.25" height="31.25" fill="#7396ff" opacity="1.0" stroke="none"/>
<clipPath id="clipPath2">
    <path d="M 125.0,125.0 L 125.0,62.5 L 187.5,62.5 L 187.5,125.0 L 125.0,125.0 "/>
</clipPath>
<rect clip-path="url(#clipPath2)" x="125.0" y="62.5" width="31.25" height="31.25" fill="#ff7f7f" opacity="1.0" stroke="none"/>
<rect clip-path="url(#clipPath2)" x="156.25" y="62.5" width="31.25" height="31.25" fill="#ff7f7f" opacity="1.0" stroke="none"/>
<rect clip-path="url(#clipPath2)" x="125.0" y="93.75" width="31.25" height="31.25" fill="#ff7f7f" opacity="1.0" stroke="none"/>
<rect clip-path="url(#clipPath2)" x="156.25" y="93.75" width="31.25" height="31.25" fill="#ff7f7f" opacity="1.0" stroke="none"/>
<clipPath id="clipPath3">
    <path d="M 62.5,187.5 L 62.5,125.0 L 125.0,125.0 L 125.0,187.5 L 62.5,187.5 "/>
</clipPath>
<rect clip-path="url(#clipPath3)" x="62.5" y="125.0" width="31.25" height="31.25" fill="#ff7f7f" opacity="1.0" stroke="none"/>
<rect clip-path="url(#clipPath3)" x="93.75" y="125.0" width="31.25" height="31.25" fill="#ff7f7f" opacity="1.0" stroke="none"/>
<rect clip-path="url(#clipPath3)" x="62.5" y="156.25" width="31.25" height="31.25" fill="#ff7f7f" opacity="1.0" stroke="none"/>
<rect clip-path="url(#clipPath3)" x="93.75" y="156.25" width="31.25" height="31.25" fill="#ff7f7f" opacity="1.0" stroke="none"/>
<clipPath id="clipPath4">
    <path d="M 125.0,187.5 L 125.0,125.0 L 187.5,125.0 L 187.5,187.5 L 125.0,187.5 "/>
</clipPath>
<rect clip-path="url(#clipPath4)" x="125.0" y="125.0" width="31.25" height="31.25" fill="#7396ff" opacity="1.0" stroke="none"/>
<rect clip-path="url(#clipPath4)" x="156.25" y="125.0" width="31.25" height="31.25" fill="#7396ff" opacity="1.0" stroke="none"/>
<rect clip-path="url(#clipPath4)" x="125.0" y="156.25" width="31.25" height="31.25" fill="#7396ff" opacity="1.0" stroke="none"/>
<rect clip-path="url(#clipPath4)" x="156.25" y="156.25" width="31.25" height="31.25" fill="#7396ff" opacity="1.0" stroke="none"/>
<clipPath id="clipPath5">
    <path d="M 62.5,250.0 L 62.5,187.5 L 125.0,187.5 L 125.0,250.0 L 62.5,250.0 "/>
</clipPath>
<rect clip-path="url(#clipPath5)" x="62.5" y="187.5" width="31.25" height="31.25" fill="#7396ff" opacity="1.0" stroke="none"/>
<rect clip-path="url(#clipPath5)" x="93.75" y="187.5" width="31.25" height="31.25" fill="#7396ff" opacity="1.0" stroke="none"/>
<rect clip-path="url(#clipPath5)" x="62.5" y="218.75" width="31.25" height="31.25" fill="#7396ff" opacity="1.0" stroke="none"/>
<rect clip-path="url(#clipPath5)" x="93.75" y="218.75" width="31.25" height="31.25" fill="#7396ff" opacity="1.0" stroke="none"/>
<clipPath id="clipPath6">
    <path d="M 125.0,250.0 L 125.0,187.5 L 187.5,187.5 L 187.5,250.0 L 125.0,250.0 "/>
</clipPath>
<rect clip-path="url(#clipPath6)" x="125.0" y="187.5" width="31.25" height="31.25" fill="#ff7f7f" opacity="1.0" stroke="none"/>
<rect clip-path="url(#clipPath6)" x="156.25" y="187.5" width="31.25" height="31.25" fill="#ff7f7f" opacity="1.0" stroke="none"/>
<rect clip-path="url(#clipPath6)" x="125.0" y="218.75" width="31.25" height="31.25" fill="#ff7f7f" opacity="1.0" stroke="none"/>
<rect clip-path="url(#clipPath6)" x="156.25" y="218.75" width="31.25" height="31.25" fill="#ff7f7f" opacity="1.0" stroke="none"/>
<clipPath id="clipPath7">
    <path d="M 62.5,312.5 L 62.5,250.0 L 125.0,250.0 L 125.0,312.5 L 62.5,312.5 "/>
</clipPath>
<rect clip-path="url(#clipPath7)" x="62.5" y="250.0" width="31.25" height="31.25" fill="#ff7f7f" opacity="1.0" stroke="none"/>
<rect clip-path="url(#clipPath7)" x="93.75" y="250.0" width="31.25" height="31.25" fill="#ff7f7f" opacity="1.0" stroke="none"/>
<rect clip-path="url(#clipPath7)" x="62.5" y="281.25" width="31.25" height="31.25" fill="#ff7f7f" opacity="1.0" stroke="none"/>
<rect clip-path="url(#clipPath7)" x="93.75" y="281.25" width="31.25" height="31.25" fill="#ff7f7f" opacity="1.0" stroke="none"/>
<clipPath id="clipPath8">
    <path d="M 125.0,312.5 L 125.0,250.0 L 187.5,250.0 L 187.5,312.5 L 125.0,312.5 "/>
</clipPath>
<rect clip-path="url(#clipPath8)" x="125.0" y="250.0" width="31.25" height="31.25" fill="#7396ff" opacity="1.0" stroke="none"/>
<rect clip-path="url(#clipPath8)" x="156.25" y="250.0" width="31.25" height="31.25" fill="#7396ff" opacity="1.0" stroke="none"/>
<rect clip-path="url(#clipPath8)" x="125.0" y="281.25" width="31.25" height="31.25" fill="#7396ff" opacity="1.0" stroke="none"/>
<rect clip-path="url(#clipPath8)" x="156.25" y="281.25" width="31.25" height="31.25" fill="#7396ff" opacity="1.0" stroke="none"/>
<clipPath id="clipPath9">
    <path d="M 62.5,375.0 L 62.5,312.5 L 125.0,312.5 L 125.0,375.0 L 62.5,375.0 "/>
</clipPath>
<rect clip-path="url(#clipPath9)" x="62.5" y="312.5" width="31.25" height="31.25" fill="#7396ff" opacity="1.0" stroke="none"/>
<rect clip-path="url(#clipPath9)" x="93.75" y="312.5" width="31.25" height="31.25" fill="#7396ff" opacity="1.0" stroke="none"/>
<rect clip-path="url(#clipPath9)" x="62.5" y="343.75" width="31.25" height="31.25" fill="#7396ff" opacity="1.0" stroke="none"/>
<rect clip-path="url(#clipPath9)" x="93.75" y="343.75" width="31.25" height="31.25" fill="#7396ff" opacity="1.0" stroke="none"/>
<clipPath id="clipPath10">
    <path d="M 125.0,375.0 L 125.0,312.5 L 187.5,312.5 L 187.5,375.0 L 125.0,375.0 "/>
</clipPath>
<rect clip-path="url(#clipPath10)" x="125.0" y="312.5" width="31.25" height="31.25" fill="#ff7f7f" opacity="1.0" stroke="none"/>
<rect clip-path="url(#clipPath10)" x="156.25" y="312.5" width="31.25" height="31.25" fill="#ff7f7f" opacity="1.0" stroke="none"/>
<rect clip-path="url(#clipPath10)" x="125.0" y="343.75" width="31.25" height="31.25" fill="#ff7f7f" opacity="1.0" stroke="none"/>
<rect clip-path="url(#clipPath10)" x="156.25" y="343.75" width="31.25" height="31.25" fill="#ff7f7f" opacity="1.0" stroke="none"/>
<clipPath id="clipPath11">
    <path d="M 62.5,437.5 L 62.5,375.0 L 125.0,375.0 L 125.0,437.5 L 62.5,437.5 "/>
</clipPath>
<rect clip-path="url(#clipPath11)" x="62.5" y="375.0" width="31.25" height="31.25" fill="#ff7f7f" opacity="1.0" stroke="none"/>
<rect clip-path="url(#clipPath11)" x="93.75" y="375.0" width="31.25" height="31.25" fill="#ff7f7f" opacity="1.0" stroke="none"/>
<rect clip-path="url(#clipPath11)" x="62.5" y="406.25" width="31.25" height="31.25" fill="#ff7f7f" opacity="1.0" stroke="none"/>
<rect clip-path="url(#clipPath11)" x="93.75" y="406.25" width="31.25" height="31.25" fill="#ff7f7f" opacity="1.0" stroke="none"/>
<clipPath id="clipPath12">
    <path d="M 125.0,437.5 L 125.0,375.0 L 187.5,375.0 L 187.5,437.5 L 125.0,437.5 "/>
</clipPath>
<rect clip-path="url(#clipPath12)" x="125.0" y="375.0" width="31.25" height="31.25" fill="#7396ff" opacity="1.0" stroke="none"/>
<rect clip-path="url(#clipPath12)" x="156.25" y="375.0" width="31.25" height="31.25" fill="#7396ff" opacity="1.0" stroke="none"/>
<rect clip-path="url(#clipPath12)" x="125.0" y="406.25" width="31.25" height="31.25" fill="#7396ff" opacity="1.0" stroke="none"/>
<rect clip-path="url(#clipPath12)" x="156.25" y="406.25" width="31.25" height="31.25" fill="#7396ff" opacity="1.0" stroke="none"/>
<clipPath id="clipPath13">
    <path d="M 125.0,437.5 a 1,1 0 0,0 62.5,0.0 L 125.0,437.5"/>
</clipPath>
<rect clip-path="url(#clipPath13)" x="125.0" y="437.5" width="31.25" height="31.25" fill="#ff7f7f" opacity="1.0" stroke="none"/>
<rect clip-path="url(#clipPath13)" x="156.25" y="437.5" width="31.25" height="31.25" fill="#ff7f7f" opacity="1.0" stroke="none"/>
<path d="M 125.0,62.5 a 1,1 0 0,0 -62.5,0.0 L 125.0,62.5" fill="none" stroke="black" stroke-width="1.5625"/>
<path d="M 62.5,125.0 L 62.5,62.5 L 125.0,62.5 L 125.0,125.0 L 62.5,125.0 " fill="none" stroke="black" stroke-width="1.5625"/>
<path d="M 125.0,125.0 L 125.0,62.5 L 187.5,62.5 L 187.5,125.0 L 125.0,125.0 " fill="none" stroke="black" stroke-width="1.5625"/>
<path d="M 62.5,187.5 L 62.5,125.0 L 125.0,125.0 L 125.0,187.5 L 62.5,187.5 " fill="none" stroke="black" stroke-width="1.5625"/>
<path d="M 125.0,187.5 L 125.0,125.0 L 187.5,125.0 L 187.5,187.5 L 125.0,187.5 " fill="none" stroke="black" stroke-width="1.5625"/>
<path d="M 62.5,250.0 L 62.5,187.5 L 125.0,187.5 L 125.0,250.0 L 62.5,250.0 " fill="none" stroke="black" stroke-width="1.5625"/>
<path d="M 125.0,250.0 L 125.0,187.5 L 187.5,187.5 L 187.5,250.0 L 125.0,250.0 " fill="none" stroke="black" stroke-width="1.5625"/>
<path d="M 62.5,312.5 L 62.5,250.0 L 125.0,250.0 L 125.0,312.5 L 62.5,312.5 " fill="none" stroke="black" stroke-width="1.5625"/>
<path d="M 125.0,312.5 L 125.0,250.0 L 187.5,250.0 L 187.5,312.5 L 125.0,312.5 " fill="none" stroke="black" stroke-width="1.5625"/>
<path d="M 62.5,375.0 L 62.5,312.5 L 125.0,312.5 L 125.0,375.0 L 62.5,375.0 " fill="none" stroke="black" stroke-width="1.5625"/>
<path d="M 125.0,375.0 L 125.0,312.5 L 187.5,312.5 L 187.5,375.0 L 125.0,375.0 " fill="none" stroke="black" stroke-width="1.5625"/>
<path d="M 62.5,437.5 L 62.5,375.0 L 125.0,375.0 L 125.0,437.5 L 62.5,437.5 " fill="none" stroke="black" stroke-width="1.5625"/>
<path d="M 125.0,437.5 L 125.0,375.0 L 187.5,375.0 L 187.5,437.5 L 125.0,437.5 " fill="none" stroke="black" stroke-width="1.5625"/>
<path d="M 125.0,437.5 a 1,1 0 0,0 62.5,0.0 L 125.0,437.5" fill="none" stroke="black" stroke-width="1.5625"/>
<text x="71.875" y="53.125" fill="black" font-size="12.5" text-anchor="middle" dominant-baseline="central">3</text>
<text x="115.625" y="53.125" fill="black" font-size="12.5" text-anchor="middle" dominant-baseline="central">5</text>
<text x="71.875" y="71.875" fill="black" font-size="12.5" text-anchor="middle" dominant-baseline="central">1</text>
<text x="115.625" y="71.875" fill="black" font-size="12.5" text-anchor="middle" dominant-baseline="central">4</text>
<text x="71.875" y="115.625" fill="black" font-size="12.5" text-anchor="middle" dominant-baseline="central">3</text>
<text x="115.625" y="115.625" fill="black" font-size="12.5" text-anchor="middle" dominant-baseline="central">5</text>
<text x="134.375" y="71.875" fill="black" font-size="12.5" text-anchor="middle" dominant-baseline="central">1</text>
<text x="178.125" y="71.875" fill="black" font-size="12.5" text-anchor="middle" dominant-baseline="central">2</text>
<text x="134.375" y="115.625" fill="black" font-size="12.5" text-anchor="middle" dominant-baseline="central">3</text>
<text x="178.125" y="115.625" fill="black" font-size="12.5" text-anchor="middle" dominant-baseline="central">5</text>
<text x="71.875" y="134.375" fill="black" font-size="12.5" text-anchor="middle" dominant-baseline="central">1</text>
<text x="115.625" y="134.375" fill="black" font-size="12.5" text-anchor="middle" dominant-baseline="central">2</text>
<text x="71.875" y="178.12499999999997" fill="black" font-size="12.5" text-anchor="middle" dominant-baseline="central">3</text>
<text x="115.625" y="178.12499999999997" fill="black" font-size="12.5" text-anchor="middle" dominant-baseline="central">5</text>
<text x="134.375" y="134.375" fill="black" font-size="12.5" text-anchor="middle" dominant-baseline="central">1</text>
<text x="178.125" y="134.375" fill="black" font-size="12.5" text-anchor="middle" dominant-baseline="central">4</text>
<text x="134.375" y="178.12499999999997" fill="black" font-size="12.5" text-anchor="middle" dominant-baseline="central">3</text>
<text x="178.125" y="178.12499999999997" fill="black" font-size="12.5" text-anchor="middle" dominant-baseline="central">5</text>
<text x="71.875" y="196.875" fill="black" font-size="12.5" text-anchor="middle" dominant-baseline="central">1</text>
<text x="115.625" y="196.875" fill="black" font-size="12.5" text-anchor="middle" dominant-baseline="central">4</text>
<text x="71.875" y="240.625" fill="black" font-size="12.5" text-anchor="middle" dominant-baseline="central">3</text>
<text x="115.625" y="240.625" fill="black" font-size="12.5" text-anchor="middle" dominant-baseline="central">5</text>
<text x="134.375" y="196.875" fill="black" font-size="12.5" text-anchor="middle" dominant-baseline="central">1</text>
<text x="178.125" y="196.875" fill="black" font-size="12.5" text-anchor="middle" dominant-baseline="central">2</text>
<text x="134.375" y="240.625" fill="black" font-size="12.5" text-anchor="middle" dominant-baseline="central">3</text>
<text x="178.125" y="240.625" fill="black" font-size="12.5" text-anchor="middle" dominant-baseline="central">5</text>
<text x="71.875" y="259.375" fill="black" font-size="12.5" text-anchor="middle" dominant-baseline="central">1</text>
<text x="115.625" y="259.375" fill="black" font-size="12.5" text-anchor="middle" dominant-baseline="central">2</text>
<text x="71.875" y="303.125" fill="black" font-size="12.5" text-anchor="middle" dominant-baseline="central">3</text>
<text x="115.625" y="303.125" fill="black" font-size="12.5" text-anchor="middle" dominant-baseline="central">5</text>
<text x="134.375" y="259.375" fill="black" font-size="12.5" text-anchor="middle" dominant-baseline="central">1</text>
<text x="178.125" y="259.375" fill="black" font-size="12.5" text-anchor="middle" dominant-baseline="central">4</text>
<text x="134.375" y="303.125" fill="black" font-size="12.5" text-anchor="middle" dominant-baseline="central">3</text>
<text x="178.125" y="303.125" fill="black" font-size="12.5" text-anchor="middle" dominant-baseline="central">5</text>
<text x="71.875" y="321.875" fill="black" font-size="12.5" text-anchor="middle" dominant-baseline="central">1</text>
<text x="115.625" y="321.875" fill="black" font-size="12.5" text-anchor="middle" dominant-baseline="central">4</text>
<text x="71.875" y="365.625" fill="black" font-size="12.5" text-anchor="middle" dominant-baseline="central">3</text>
<text x="115.625" y="365.625" fill="black" font-size="12.5" text-anchor="middle" dominant-baseline="central">5</text>
<text x="134.375" y="321.875" fill="black" font-size="12.5" text-anchor="middle" dominant-baseline="central">1</text>
<text x="178.125" y="321.875" fill="black" font-size="12.5" text-anchor="middle" dominant-baseline="central">2</text>
<text x="134.375" y="365.625" fill="black" font-size="12.5" text-anchor="middle" dominant-baseline="central">3</text>
<text x="178.125" y="365.625" fill="black" font-size="12.5" text-anchor="middle" dominant-baseline="central">5</text>
<text x="71.875" y="384.37499999999994" fill="black" font-size="12.5" text-anchor="middle" dominant-baseline="central">1</text>
<text x="115.625" y="384.37499999999994" fill="black" font-size="12.5" text-anchor="middle" dominant-baseline="central">2</text>
<text x="71.875" y="428.125" fill="black" font-size="12.5" text-anchor="middle" dominant-baseline="central">3</text>
<text x="115.625" y="428.125" fill="black" font-size="12.5" text-anchor="middle" dominant-baseline="central">5</text>
<text x="134.375" y="384.37499999999994" fill="black" font-size="12.5" text-anchor="middle" dominant-baseline="central">1</text>
<text x="178.125" y="384.37499999999994" fill="black" font-size="12.5" text-anchor="middle" dominant-baseline="central">4</text>
<text x="134.375" y="428.125" fill="black" font-size="12.5" text-anchor="middle" dominant-baseline="central">3</text>
<text x="178.125" y="428.125" fill="black" font-size="12.5" text-anchor="middle" dominant-baseline="central">5</text>
<text x="134.375" y="446.875" fill="black" font-size="12.5" text-anchor="middle" dominant-baseline="central">1</text>
<text x="178.125" y="446.875" fill="black" font-size="12.5" text-anchor="middle" dominant-baseline="central">2</text>
</svg>
