<svg viewBox="0 0 1000 500" xmlns="http://www.w3.org/2000/svg">
<clipPath id="clipPath0">
    <path d="M 125.0,250.0 L 125.0,125.0 L 250.0,125.0 L 250.0,250.0 L 125.0,250.0 "/>
</clipPath>
<rect clip-path="url(#clipPath0)" x="125.0" y="125.0" width="62.5" height="62.5" fill="#7396ff" opacity="1.0" stroke="none"/>
<rect clip-path="url(#clipPath0)" x="187.5" y="125.0" width="62.5" height="62.5" fill="#7396ff" opacity="1.0" stroke="none"/>
<rect clip-path="url(#clipPath0)" x="125.0" y="187.5" width="62.5" height="62.5" fill="#7396ff" opacity="1.0" stroke="none"/>
<rect clip-path="url(#clipPath0)" x="187.5" y="187.5" width="62.5" height="62.5" fill="#7396ff" opacity="1.0" stroke="none"/>
<clipPath id="clipPath1">
    <path d="M 250.0,250.0 L 250.0,125.0 L 375.0,125.0 L 375.0,250.0 L 250.0,250.0 "/>
</clipPath>
<rect clip-path="url(#clipPath1)" x="250.0" y="125.0" width="62.5" height="62.5" fill="#ff7f7f" opacity="1.0" stroke="none"/>
<rect clip-path="url(#clipPath1)" x="312.5" y="125.0" width="62.5" height="62.5" fill="#ff7f7f" opacity="1.0" stroke="none"/>
<rect clip-path="url(#clipPath1)" x="250.0" y="187.5" width="62.5" height="62.5" fill="#ff7f7f" opacity="1.0" stroke="none"/>
<rect clip-path="url(#clipPath1)" x="312.5" y="187.5" width="62.5" height="62.5" fill="#ff7f7f" opacity="1.0" stroke="none"/>
<clipPath id="clipPath2">
    <path d="M 375.0,250.0 L 375.0,125.0 L 500.0,125.0 L 500.0,250.0 L 375.0,250.0 "/>
</clipPath>
<rect clip-path="url(#clipPath2)" x="375.0" y="125.0" width="62.5" height="62.5" fill="#7396ff" opacity="1.0" stroke="none"/>
<rect clip-path="url(#clipPath2)" x="437.5" y="125.0" width="62.5" height="62.5" fill="#7396ff" opacity="1.0" stroke="none"/>
<rect clip-path="url(#clipPath2)" x="375.0" y="187.5" width="62.5" height="62.5" fill="#7396ff" opacity="1.0" stroke="none"/>
<rect clip-path="url(#clipPath2)" x="437.5" y="187.5" width="62.5" height="62.5" fill="#7396ff" opacity="1.0" stroke="none"/>
<clipPath id="clipPath3">
    <path d="M 500.0,250.0 L 500.0,125.0 L 625.0,125.0 L 625.0,250.0 L 500.0,250.0 "/>
</clipPath>
<rect clip-path="url(#clipPath3)" x="500.0" y="125.0" width="62.5" height="62.5" fill="#ff7f7f" opacity="1.0" stroke="none"/>
<rect clip-path="url(#clipPath3)" x="562.5" y="125.0" width="62.5" height="62.5" fill="#ff7f7f" opacity="1.0" stroke="none"/>
<rect clip-path="url(#clipPath3)" x="500.0" y="187.5" width="62.5" height="62.5" fill="#ff7f7f" opacity="1.0" stroke="none"/>
<rect clip-path="url(#clipPath3)" x="562.5" y="187.5" width="62.5" height="62.5" fill="#ff7f7f" opacity="1.0" stroke="none"/>
<clipPath id="clipPath4">
    <path d="M 625.0,250.0 L 625.0,125.0 L 750.0,125.0 L 750.0,250.0 L 625.0,250.0 "/>
</clipPath>
<rect clip-path="url(#clipPath4)" x="625.0" y="125.0" width="62.5" height="62.5" fill="#7396ff" opacity="1.0" stroke="none"/>
<rect clip-path="url(#clipPath4)" x="687.5" y="125.0" width="62.5" height="62.5" fill="#7396ff" opacity="1.0" stroke="none"/>
<rect clip-path="url(#clipPath4)" x="625.0" y="187.5" width="62.5" height="62.5" fill="#7396ff" opacity="1.0" stroke="none"/>
<rect clip-path="url(#clipPath4)" x="687.5" y="187.5" width="62.5" height="62.5" fill="#7396ff" opacity="1.0" stroke="none"/>
<clipPath id="clipPath5">
    <path d="M 750.0,250.0 L 750.0,125.0 L 875.0,125.0 L 875.0,250.0 L 750.0,250.0 "/>
</clipPath>
<rect clip-path="url(#clipPath5)" x="750.0" y="125.0" width="62.5" height="62.5" fill="#ff7f7f" opacity="1.0" stroke="none"/>
<rect clip-path="url(#clipPath5)" x="812.5" y="125.0" width="62.5" height="62.5" fill="#ff7f7f" opacity="1.0" stroke="none"/>
<rect clip-path="url(#clipPath5)" x="750.0" y="187.5" width="62.5" height="62.5" fill="#ff7f7f" opacity="1.0" stroke="none"/>
<rect clip-path="url(#clipPath5)" x="812.5" y="187.5" width="62.5" height="62.5" fill="#ff7f7f" opacity="1.0" stroke="none"/>
<clipPath id="clipPath6">
    <path d="M 125.0,375.0 L 125.0,250.0 L 250.0,250.0 L 250.0,375.0 L 125.0,375.0 "/>
</clipPath>
<rect clip-path="url(#clipPath6)" x="125.0" y="250.0" width="62.5" height="62.5" fill="#ff7f7f" opacity="1.0" stroke="none"/>
<rect clip-path="url(#clipPath6)" x="187.5" y="250.0" width="62.5" height="62.5" fill="#ff7f7f" opacity="1.0" stroke="none"/>
<rect clip-path="url(#clipPath6)" x="125.0" y="312.5" width="62.5" height="62.5" fill="#ff7f7f" opacity="1.0" stroke="none"/>
<rect clip-path="url(#clipPath6)" x="187.5" y="312.5" width="62.5" height="62.5" fill="#ff7f7f" opacity="1.0" stroke="none"/>
<clipPath id="clipPath7">
    <path d="M 250.0,375.0 L 250.0,250.0 L 375.0,250.0 L 375.0,375.0 L 250.0,375.0 "/>
</clipPath>
<rect clip-path="url(#clipPath7)" x="250.0" y="250.0" width="62.5" height="62.5" fill="#7396ff" opacity="1.0" stroke="none"/>
<rect clip-path="url(#clipPath7)" x="312.5" y="250.0" width="62.5" height="62.5" fill="#7396ff" opacity="1.0" stroke="none"/>
<rect clip-path="url(#clipPath7)" x="250.0" y="312.5" width="62.5" height="62.5" fill="#7396ff" opacity="1.0" stroke="none"/>
<rect clip-path="url(#clipPath7)" x="312.5" y="312.5" width="62.5" height="62.5" fill="#7396ff" opacity="1.0" stroke="none"/>
<clipPath id="clipPath8">
    <path d="M 375.0,375.0 L 375.0,250.0 L 500.0,250.0 L 500.0,375.0 L 375.0,375.0 "/>
</clipPath>
<rect clip-path="url(#clipPath8)" x="375.0" y="250.0" width="62.5" height="62.5" fill="#ff7f7f" opacity="1.0" stroke="none"/>
<rect clip-path="url(#clipPath8)" x="437.5" y="250.0" width="62.5" height="62.5" fill="#ff7f7f" opacity="1.0" stroke="none"/>
<rect clip-path="url(#clipPath8)" x="375.0" y="312.5" width="62.5" height="62.5" fill="#ff7f7f" opacity="1.0" stroke="none"/>
<rect clip-path="url(#clipPath8)" x="437.5" y="312.5" width="62.5" height="62.5" fill="#ff7f7f" opacity="1.0" stroke="none"/>
<clipPath id="clipPath9">
    <path d="M 500.0,375.0 L 500.0,250.0 L 625.0,250.0 L 625.0,375.0 L 500.0,375.0 "/>
</clipPath>
<rect clip-path="url(#clipPath9)" x="500.0" y="250.0" width="62.5" height="62.5" fill="#7396ff" opacity="1.0" stroke="none"/>
<rect clip-path="url(#clipPath9)" x="562.5" y="250.0" width="62.5" height="62.5" fill="#7396ff" opacity="1.0" stroke="none"/>
<rect clip-path="url(#clipPath9)" x="500.0" y="312.5" width="62.5" height="62.5" fill="#7396ff" opacity="1.0" stroke="none"/>
<rect clip-path="url(#clipPath9)" x="562.5" y="312.5" width="62.5" height="62.5" fill="#7396ff" opacity="1.0" stroke="none"/>
<clipPath id="clipPath10">
    <path d="M 625.0,375.0 L 625.0,250.0 L 750.0,250.0 L 750.0,375.0 L 625.0,375.0 "/>
</clipPath>
<rect clip-path="url(#clipPath10)" x="625.0" y="250.0" width="62.5" height="62.5" fill="#ff7f7f" opacity="1.0" stroke="none"/>
<rect clip-path="url(#clipPath10)" x="687.5" y="250.0" width="62.5" height="62.5" fill="#ff7f7f" opacity="1.0" stroke="none"/>
<rect clip-path="url(#clipPath10)" x="625.0" y="312.5" width="62.5" height="62.5" fill="#ff7f7f" opacity="1.0" stroke="none"/>
<rect clip-path="url(#clipPath10)" x="687.5" y="312.5" width="62.5" height="62.5" fill="#ff7f7f" opacity="1.0" stroke="none"/>
<clipPath id="clipPath11">
    <path d="M 750.0,375.0 L 750.0,250.0 L 875.0,250.0 L 875.0,375.0 L 750.0,375.0 "/>
</clipPath>
<rect clip-path="url(#clipPath11)" x="750.0" y="250.0" width="62.5" height="62.5" fill="#7396ff" opacity="1.0" stroke="none"/>
<rect clip-path="url(#clipPath11)" x="812.5" y="250.0" width="62.5" height="62.5" fill="#7396ff" opacity="1.0" stroke="none"/>
<rect clip-path="url(#clipPath11)" x="750.0" y="312.5" width="62.5" height="62.5" fill="#7396ff" opacity="1.0" stroke="none"/>
<rect clip-path="url(#clipPath11)" x="812.5" y="312.5" width="62.5" height="62.5" fill="#7396ff" opacity="1.0" stroke="none"/>
<path d="M 125.0,250.0 L 125.0,125.0 L 250.0,125.0 L 250.0,250.0 L 125.0,250.0 " fill="none" stroke="black" stroke-width="3.125"/>
<path d="M 250.0,250.0 L 250.0,125.0 L 375.0,125.0 L 375.0,250.0 L 250.0,250.0 " fill="none" stroke="black" stroke-width="3.125"/>
<path d="M 375.0,250.0 L 375.0,125.0 L 500.0,125.0 L 500.0,250.0 L 375.0,250.0 " fill="none" stroke="black" stroke-width="3.125"/>
<path d="M 500.0,250.0 L 500.0,125.0 L 625.0,125.0 L 625.0,250.0 L 500.0,250.0 " fill="none" stroke="black" stroke-width="3.125"/>
<path d="M 625.0,250.0 L 625.0,125.0 L 750.0,125.0 L 750.0,250.0 L 625.0,250.0 " fill="none" stroke="black" stroke-width="3.125"/>
<path d="M 750.0,250.0 L 750.0,125.0 L 875.0,125.0 L 875.0,250.0 L 750.0,250.0 " fill="none" stroke="black" stroke-width="3.125"/>
<path d="M 125.0,375.0 L 125.0,250.0 L 250.0,250.0 L 250.0,375.0 L 125.0,375.0 " fill="none" stroke="black" stroke-width="3.125"/>
<path d="M 250.0,375.0 L 250.0,250.0 L 375.0,250.0 L 375.0,375.0 L 250.0,375.0 " fill="none" stroke="black" stroke-width="3.125"/>
<path d="M 375.0,375.0 L 375.0,250.0 L 500.0,250.0 L 500.0,375.0 L 375.0,375.0 " fill="none" stroke="black" stroke-width="3.125"/>
<path d="M 500.0,375.0 L 500.0,250.0 L 625.0,250.0 L 625.0,375.0 L 500.0,375.0 " fill="none" stroke="black" stroke-width="3.125"/>
<path d="M 625.0,375.0 L 625.0,250.0 L 750.0,250.0 L 750.0,375.0 L 625.0,375.0 " fill="none" stroke="black" stroke-width="3.125"/>
<path d="M 750.0,375.0 L 750.0,250.0 L 875.0,250.0 L 875.0,375.0 L 750.0,375.0 " fill="none" stroke="black" stroke-width="3.125"/>
<text x="143.75" y="143.75" fill="black" font-size="25.0" text-anchor="middle" dominant-baseline="central">1</text>
<text x="231.25" y="143.75" fill="black" font-size="25.0" text-anchor="middle" dominant-baseline="central">4</text>
<text x="143.75" y="231.25" fill="black" font-size="25.0" text-anchor="middle" dominant-baseline="central">3</text>
<text x="231.25" y="231.25" fill="black" font-size="25.0" text-anchor="middle" dominant-baseline="central">5</text>
<text x="268.75" y="143.75" fill="black" font-size="25.0" text-anchor="middle" dominant-baseline="central">1</text>
<text x="356.24999999999994" y="143.75" fill="black" font-size="25.0" text-anchor="middle" dominant-baseline="central">2</text>
<text x="268.75" y="231.25" fill="black" font-size="25.0" text-anchor="middle" dominant-baseline="central">3</text>
<text x="356.24999999999994" y="231.25" fill="black" font-size="25.0" text-anchor="middle" dominant-baseline="central">5</text>
<text x="393.75" y="143.75" fill="black" font-size="25.0" text-anchor="middle" dominant-baseline="central">1</text>
<text x="481.25" y="143.75" fill="black" font-size="25.0" text-anchor="middle" dominant-baseline="central">4</text>
<text x="393.75" y="231.25" fill="black" font-size="25.0" text-anchor="middle" dominant-baseline="central">3</text>
<text x="481.25" y="231.25" fill="black" font-size="25.0" text-anchor="middle" dominant-baseline="central">5</text>
<text x="518.75" y="143.75" fill="black" font-size="25.0" text-anchor="middle" dominant-baseline="central">1</text>
<text x="606.25" y="143.75" fill="black" font-size="25.0" text-anchor="middle" dominant-baseline="central">2</text>
<text x="518.75" y="231.25" fill="black" font-size="25.0" text-anchor="middle" dominant-baseline="central">3</text>
<text x="606.25" y="231.25" fill="black" font-size="25.0" text-anchor="middle" dominant-baseline="central">5</text>
<text x="643.75" y="143.75" fill="black" font-size="25.0" text-anchor="middle" dominant-baseline="central">1</text>
<text x="731.25" y="143.75" fill="black" font-size="25.0" text-anchor="middle" dominant-baseline="central">4</text>
<text x="643.75" y="231.25" fill="black" font-size="25.0" text-anchor="middle" dominant-baseline="central">3</text>
<text x="731.25" y="231.25" fill="black" font-size="25.0" text-anchor="middle" dominant-baseline="central">5</text>
<text x="768.7499999999999" y="143.75" fill="black" font-size="25.0" text-anchor="middle" dominant-baseline="central">1</text>
<text x="856.25" y="143.75" fill="black" font-size="25.0" text-anchor="middle" dominant-baseline="central">2</text>
<text x="768.7499999999999" y="231.25" fill="black" font-size="25.0" text-anchor="middle" dominant-baseline="central">3</text>
<text x="856.25" y="231.25" fill="black" font-size="25.0" text-anchor="middle" dominant-baseline="central">5</text>
<text x="143.75" y="268.75" fill="black" font-size="25.0" text-anchor="middle" dominant-baseline="central">1</text>
<text x="231.25" y="268.75" fill="black" font-size="25.0" text-anchor="middle" dominant-baseline="central">2</text>
<text x="143.75" y="356.25" fill="black" font-size="25.0" text-anchor="middle" dominant-baseline="central">3</text>
<text x="231.25" y="356.25" fill="black" font-size="25.0" text-anchor="middle" dominant-baseline="central">5</text>
<text x="268.75" y="268.75" fill="black" font-size="25.0" text-anchor="middle" dominant-baseline="central">1</text>
<text x="356.24999999999994" y="268.75" fill="black" font-size="25.0" text-anchor="middle" dominant-baseline="central">4</text>
<text x="268.75" y="356.25" fill="black" font-size="25.0" text-anchor="middle" dominant-baseline="central">3</text>
<text x="356.24999999999994" y="356.25" fill="black" font-size="25.0" text-anchor="middle" dominant-baseline="central">5</text>
<text x="393.75" y="268.75" fill="black" font-size="25.0" text-anchor="middle" dominant-baseline="central">1</text>
<text x="481.25" y="268.75" fill="black" font-size="25.0" text-anchor="middle" dominant-baseline="central">2</text>
<text x="393.75" y="356.25" fill="black" font-size="25.0" text-anchor="middle" dominant-baseline="central">3</text>
<text x="481.25" y="356.25" fill="black" font-size="25.0" text-anchor="middle" dominant-baseline="central">5</text>
<text x="518.75" y="268.75" fill="black" font-size="25.0" text-anchor="middle" dominant-baseline="central">1</text>
<text x="606.25" y="268.75" fill="black" font-size="25.0" text-anchor="middle" dominant-baseline="central">4</text>
<text x="518.75" y="356.25" fill="black" font-size="25.0" text-anchor="middle" dominant-baseline="central">3</text>
<text x="606.25" y="356.25" fill="black" font-size="25.0" text-anchor="middle" dominant-baseline="central">5</text>
<text x="643.75" y="268.75" fill="black" font-size="25.0" text-anchor="middle" dominant-baseline="central">1</text>
<text x="731.25" y="268.75" fill="black" font-size="25.0" text-anchor="middle" dominant-baseline="central">2</text>
<text x="643.75" y="356.25" fill="black" font-size="25.0" text-anchor="middle" dominant-baseline="central">3</text>
<text x="731.25" y="356.25" fill="black" font-size="25.0" text-anchor="middle" dominant-baseline="central">5</text>
<text x="768.7499999999999" y="268.75" fill="black" font-size="25.0" text-anchor="middle" dominant-baseline="central">1</text>
<text x="856.25" y="268.75" fill="black" font-size="25.0" text-anchor="middle" dominant-baseline="central">4</text>
<text x="768.7499999999999" y="356.25" fill="black" font-size="25.0" text-anchor="middle" dominant-baseline="central">3</text>
<text x="856.25" y="356.25" fill="black" font-size="25.0" text-anchor="middle" dominant-baseline="central">5</text>
</svg>
