<svg viewBox="0 0 500 500" xmlns="http://www.w3.org/2000/svg">
<clipPath id="clipPath0">
    <path d="M 50.0,90.0 L 90.0,50.0 L 100.0,50.0 L 100.0,100.0 L 50.0,100.0 L 50.0,90.0 "/>
</clipPath>
<rect clip-path="url(#clipPath0)" x="75.0" y="50.0" width="25.0" height="25.0" fill="#7396ff" opacity="1.0" stroke="none"/>
<rect clip-path="url(#clipPath0)" x="50.0" y="75.0" width="25.0" height="25.0" fill="#7396ff" opacity="1.0" stroke="none"/>
<rect clip-path="url(#clipPath0)" x="75.0" y="75.0" width="25.0" height="25.0" fill="#7396ff" opacity="1.0" stroke="none"/>
<clipPath id="clipPath1">
    <path d="M 100.0,150.0 L 100.0,100.0 L 150.0,100.0 L 150.0,150.0 L 100.0,150.0 "/>
</clipPath>
<rect clip-path="url(#clipPath1)" x="100.0" y="100.0" width="25.0" height="25.0" fill="#7396ff" opacity="1.0" stroke="none"/>
<rect clip-path="url(#clipPath1)" x="125.0" y="100.0" width="25.0" height="25.0" fill="#7396ff" opacity="1.0" stroke="none"/>
<rect clip-path="url(#clipPath1)" x="100.0" y="125.0" width="25.0" height="25.0" fill="#7396ff" opacity="1.0" stroke="none"/>
<rect clip-path="url(#clipPath1)" x="125.0" y="125.0" width="25.0" height="25.0" fill="#7396ff" opacity="1.0" stroke="none"/>
<clipPath id="clipPath2">
    <path d="M 150.0,150.0 L 150.0,100.0 L 200.0,100.0 L 200.0,150.0 L 150.0,150.0 "/>
</clipPath>
<rect clip-path="url(#clipPath2)" x="150.0" y="100.0" width="25.0" height="25.0" fill="#ff7f7f" opacity="1.0" stroke="none"/>
<rect clip-path="url(#clipPath2)" x="175.0" y="100.0" width="25.0" height="25.0" fill="#ff7f7f" opacity="1.0" stroke="none"/>
<rect clip-path="url(#clipPath2)" x="150.0" y="125.0" width="25.0" height="25.0" fill="#ff7f7f" opacity="1.0" stroke="none"/>
<rect clip-path="url(#clipPath2)" x="175.0" y="125.0" width="25.0" height="25.0" fill="#ff7f7f" opacity="1.0" stroke="none"/>
<clipPath id="clipPath3">
    <path d="M 200.0,150.0 L 200.0,100.0 L 250.0,100.0 L 250.0,150.0 L 200.0,150.0 "/>
</clipPath>
<rect clip-path="url(#clipPath3)" x="200.0" y="100.0" width="25.0" height="25.0" fill="#7396ff" opacity="1.0" stroke="none"/>
<rect clip-path="url(#clipPath3)" x="225.0" y="100.0" width="25.0" height="25.0" fill="#7396ff" opacity="1.0" stroke="none"/>
<rect clip-path="url(#clipPath3)" x="200.0" y="125.0" width="25.0" height="25.0" fill="#7396ff" opacity="1.0" stroke="none"/>
<rect clip-path="url(#clipPath3)" x="225.0" y="125.0" width="25.0" height="25.0" fill="#7396ff" opacity="1.0" stroke="none"/>
<clipPath id="clipPath4">
    <path d="M 250.0,150.0 L 250.0,100.0 L 300.0,100.0 L 300.0,150.0 L 250.0,150.0 "/>
</clipPath>
<rect clip-path="url(#clipPath4)" x="250.0" y="100.0" width="25.0" height="25.0" fill="#ff7f7f" opacity="1.0" stroke="none"/>
<rect clip-path="url(#clipPath4)" x="275.0" y="100.0" width="25.0" height="25.0" fill="#ff7f7f" opacity="1.0" stroke="none"/>
<rect clip-path="url(#clipPath4)" x="250.0" y="125.0" width="25.0" height="25.0" fill="#ff7f7f" opacity="1.0" stroke="none"/>
<rect clip-path="url(#clipPath4)" x="275.0" y="125.0" width="25.0" height="25.0" fill="#ff7f7f" opacity="1.0" stroke="none"/>
<clipPath id="clipPath5">
    <path d="M 300.0,150.0 L 300.0,100.0 L 350.0,100.0 L 350.0,150.0 L 300.0,150.0 "/>
</clipPath>
<rect clip-path="url(#clipPath5)" x="300.0" y="100.0" width="25.0" height="25.0" fill="#7396ff" opacity="1.0" stroke="none"/>
<rect clip-path="url(#clipPath5)" x="325.0" y="100.0" width="25.0" height="25.0" fill="#7396ff" opacity="1.0" stroke="none"/>
<rect clip-path="url(#clipPath5)" x="300.0" y="125.0" width="25.0" height="25.0" fill="#7396ff" opacity="1.0" stroke="none"/>
<rect clip-path="url(#clipPath5)" x="325.0" y="125.0" width="25.0" height="25.0" fill="#7396ff" opacity="1.0" stroke="none"/>
<clipPath id="clipPath6">
    <path d="M 350.0,150.0 L 350.0,100.0 L 400.0,100.0 L 400.0,150.0 L 350.0,150.0 "/>
</clipPath>
<rect clip-path="url(#clipPath6)" x="350.0" y="100.0" width="25.0" height="25.0" fill="#ff7f7f" opacity="1.0" stroke="none"/>
<rect clip-path="url(#clipPath6)" x="375.0" y="100.0" width="25.0" height="25.0" fill="#ff7f7f" opacity="1.0" stroke="none"/>
<rect clip-path="url(#clipPath6)" x="350.0" y="125.0" width="25.0" height="25.0" fill="#ff7f7f" opacity="1.0" stroke="none"/>
<rect clip-path="url(#clipPath6)" x="375.0" y="125.0" width="25.0" height="25.0" fill="#ff7f7f" opacity="1.0" stroke="none"/>
<clipPath id="clipPath7">
    <path d="M 100.0,200.0 L 100.0,150.0 L 150.0,150.0 L 150.0,200.0 L 100.0,200.0 "/>
</clipPath>
<rect clip-path="url(#clipPath7)" x="100.0" y="150.0" width="25.0" height="25.0" fill="#ff7f7f" opacity="1.0" stroke="none"/>
<rect clip-path="url(#clipPath7)" x="125.0" y="150.0" width="25.0" height="25.0" fill="#ff7f7f" opacity="1.0" stroke="none"/>
<rect clip-path="url(#clipPath7)" x="100.0" y="175.0" width="25.0" height="25.0" fill="#ff7f7f" opacity="1.0" stroke="none"/>
<rect clip-path="url(#clipPath7)" x="125.0" y="175.0" width="25.0" height="25.0" fill="#ff7f7f" opacity="1.0" stroke="none"/>
<clipPath id="clipPath8">
    <path d="M 150.0,200.0 L 150.0,150.0 L 200.0,150.0 L 200.0,200.0 L 150.0,200.0 "/>
</clipPath>
<rect clip-path="url(#clipPath8)" x="150.0" y="150.0" width="25.0" height="25.0" fill="#7396ff" opacity="1.0" stroke="none"/>
<rect clip-path="url(#clipPath8)" x="175.0" y="150.0" width="25.0" height="25.0" fill="#7396ff" opacity="1.0" stroke="none"/>
<rect clip-path="url(#clipPath8)" x="150.0" y="175.0" width="25.0" height="25.0" fill="#7396ff" opacity="1.0" stroke="none"/>
<rect clip-path="url(#clipPath8)" x="175.0" y="175.0" width="25.0" height="25.0" fill="#7396ff" opacity="1.0" stroke="none"/>
<clipPath id="clipPath9">
    <path d="M 200.0,200.0 L 200.0,150.0 L 250.0,150.0 L 250.0,200.0 L 200.0,200.0 "/>
</clipPath>
<rect clip-path="url(#clipPath9)" x="200.0" y="150.0" width="25.0" height="25.0" fill="#ff7f7f" opacity="1.0" stroke="none"/>
<rect clip-path="url(#clipPath9)" x="225.0" y="150.0" width="25.0" height="25.0" fill="#ff7f7f" opacity="1.0" stroke="none"/>
<rect clip-path="url(#clipPath9)" x="200.0" y="175.0" width="25.0" height="25.0" fill="#ff7f7f" opacity="1.0" stroke="none"/>
<rect clip-path="url(#clipPath9)" x="225.0" y="175.0" width="25.0" height="25.0" fill="#ff7f7f" opacity="1.0" stroke="none"/>
<clipPath id="clipPath10">
    <path d="M 250.0,200.0 L 250.0,150.0 L 300.0,150.0 L 300.0,200.0 L 250.0,200.0 "/>
</clipPath>
<rect clip-path="url(#clipPath10)" x="250.0" y="150.0" width="25.0" height="25.0" fill="#7396ff" opacity="1.0" stroke="none"/>
<rect clip-path="url(#clipPath10)" x="275.0" y="150.0" width="25.0" height="25.0" fill="#7396ff" opacity="1.0" stroke="none"/>
<rect clip-path="url(#clipPath10)" x="250.0" y="175.0" width="25.0" height="25.0" fill="#7396ff" opacity="1.0" stroke="none"/>
<rect clip-path="url(#clipPath10)" x="275.0" y="175.0" width="25.0" height="25.0" fill="#7396ff" opacity="1.0" stroke="none"/>
<clipPath id="clipPath11">
    <path d="M 300.0,200.0 L 300.0,150.0 L 350.0,150.0 L 350.0,200.0 L 300.0,200.0 "/>
</clipPath>
<rect clip-path="url(#clipPath11)" x="300.0" y="150.0" width="25.0" height="25.0" fill="#ff7f7f" opacity="1.0" stroke="none"/>
<rect clip-path="url(#clipPath11)" x="325.0" y="150.0" width="25.0" height="25.0" fill="#ff7f7f" opacity="1.0" stroke="none"/>
<rect clip-path="url(#clipPath11)" x="300.0" y="175.0" width="25.0" height="25.0" fill="#ff7f7f" opacity="1.0" stroke="none"/>
<rect clip-path="url(#clipPath11)" x="325.0" y="175.0" width="25.0" height="25.0" fill="#ff7f7f" opacity="1.0" stroke="none"/>
<clipPath id="clipPath12">
    <path d="M 350.0,200.0 L 350.0,150.0 L 400.0,150.0 L 400.0,200.0 L 350.0,200.0 "/>
</clipPath>
<rect clip-path="url(#clipPath12)" x="350.0" y="150.0" width="25.0" height="25.0" fill="#7396ff" opacity="1.0" stroke="none"/>
<rect clip-path="url(#clipPath12)" x="375.0" y="150.0" width="25.0" height="25.0" fill="#7396ff" opacity="1.0" stroke="none"/>
<rect clip-path="url(#clipPath12)" x="350.0" y="175.0" width="25.0" height="25.0" fill="#7396ff" opacity="1.0" stroke="none"/>
<rect clip-path="url(#clipPath12)" x="375.0" y="175.0" width="25.0" height="25.0" fill="#7396ff" opacity="1.0" stroke="none"/>
<clipPath id="clipPath13">
    <path d="M 100.0,250.0 L 100.0,200.0 L 150.0,200.0 L 150.0,250.0 L 100.0,250.0 "/>
</clipPath>
<rect clip-path="url(#clipPath13)" x="100.0" y="200.0" width="25.0" height="25.0" fill="#7396ff" opacity="1.0" stroke="none"/>
<rect clip-path="url(#clipPath13)" x="125.0" y="200.0" width="25.0" height="25.0" fill="#7396ff" opacity="1.0" stroke="none"/>
<rect clip-path="url(#clipPath13)" x="100.0" y="225.0" width="25.0" height="25.0" fill="#7396ff" opacity="1.0" stroke="none"/>
<rect clip-path="url(#clipPath13)" x="125.0" y="225.0" width="25.0" height="25.0" fill="#7396ff" opacity="1.0" stroke="none"/>
<clipPath id="clipPath14">
    <path d="M 150.0,250.0 L 150.0,200.0 L 200.0,200.0 L 200.0,250.0 L 150.0,250.0 "/>
</clipPath>
<rect clip-path="url(#clipPath14)" x="150.0" y="200.0" width="25.0" height="25.0" fill="#ff7f7f" opacity="1.0" stroke="none"/>
<rect clip-path="url(#clipPath14)" x="175.0" y="200.0" width="25.0" height="25.0" fill="#ff7f7f" opacity="1.0" stroke="none"/>
<rect clip-path="url(#clipPath14)" x="150.0" y="225.0" width="25.0" height="25.0" fill="#ff7f7f" opacity="1.0" stroke="none"/>
<rect clip-path="url(#clipPath14)" x="175.0" y="225.0" width="25.0" height="25.0" fill="#ff7f7f" opacity="1.0" stroke="none"/>
<clipPath id="clipPath15">
    <path d="M 200.0,250.0 L 200.0,200.0 L 250.0,200.0 L 250.0,250.0 L 200.0,250.0 "/>
</clipPath>
<rect clip-path="url(#clipPath15)" x="200.0" y="200.0" width="25.0" height="25.0" fill="#7396ff" opacity="1.0" stroke="none"/>
<rect clip-path="url(#clipPath15)" x="225.0" y="200.0" width="25.0" height="25.0" fill="#7396ff" opacity="1.0" stroke="none"/>
<rect clip-path="url(#clipPath15)" x="200.0" y="225.0" width="25.0" height="25.0" fill="#7396ff" opacity="1.0" stroke="none"/>
<rect clip-path="url(#clipPath15)" x="225.0" y="225.0" width="25.0" height="25.0" fill="#7396ff" opacity="1.0" stroke="none"/>
<clipPath id="clipPath16">
    <path d="M 250.0,250.0 L 250.0,200.0 L 300.0,200.0 L 300.0,250.0 L 250.0,250.0 "/>
</clipPath>
<rect clip-path="url(#clipPath16)" x="250.0" y="200.0" width="25.0" height="25.0" fill="#ff7f7f" opacity="1.0" stroke="none"/>
<rect clip-path="url(#clipPath16)" x="275.0" y="200.0" width="25.0" height="25.0" fill="#ff7f7f" opacity="1.0" stroke="none"/>
<rect clip-path="url(#clipPath16)" x="250.0" y="225.0" width="25.0" height="25.0" fill="#ff7f7f" opacity="1.0" stroke="none"/>
<rect clip-path="url(#clipPath16)" x="275.0" y="225.0" width="25.0" height="25.0" fill="#ff7f7f" opacity="1.0" stroke="none"/>
<clipPath id="clipPath17">
    <path d="M 300.0,250.0 L 300.0,200.0 L 350.0,200.0 L 350.0,250.0 L 300.0,250.0 "/>
</clipPath>
<rect clip-path="url(#clipPath17)" x="300.0" y="200.0" width="25.0" height="25.0" fill="#7396ff" opacity="1.0" stroke="none"/>
<rect clip-path="url(#clipPath17)" x="325.0" y="200.0" width="25.0" height="25.0" fill="#7396ff" opacity="1.0" stroke="none"/>
<rect clip-path="url(#clipPath17)" x="300.0" y="225.0" width="25.0" height="25.0" fill="#7396ff" opacity="1.0" stroke="none"/>
<rect clip-path="url(#clipPath17)" x="325.0" y="225.0" width="25.0" height="25.0" fill="#7396ff" opacity="1.0" stroke="none"/>
<clipPath id="clipPath18">
    <path d="M 350.0,250.0 L 350.0,200.0 L 400.0,200.0 L 400.0,250.0 L 350.0,250.0 "/>
</clipPath>
<rect clip-path="url(#clipPath18)" x="350.0" y="200.0" width="25.0" height="25.0" fill="#ff7f7f" opacity="1.0" stroke="none"/>
<rect clip-path="url(#clipPath18)" x="375.0" y="200.0" width="25.0" height="25.0" fill="#ff7f7f" opacity="1.0" stroke="none"/>
<rect clip-path="url(#clipPath18)" x="350.0" y="225.0" width="25.0" height="25.0" fill="#ff7f7f" opacity="1.0" stroke="none"/>
<rect clip-path="url(#clipPath18)" x="375.0" y="225.0" width="25.0" height="25.0" fill="#ff7f7f" opacity="1.0" stroke="none"/>
<clipPath id="clipPath19">
    <path d="M 100.0,300.0 L 100.0,250.0 L 150.0,250.0 L 150.0,300.0 L 100.0,300.0 "/>
</clipPath>
<rect clip-path="url(#clipPath19)" x="100.0" y="250.0" width="25.0" height="25.0" fill="#ff7f7f" opacity="1.0" stroke="none"/>
<rect clip-path="url(#clipPath19)" x="125.0" y="250.0" width="25.0" height="25.0" fill="#ff7f7f" opacity="1.0" stroke="none"/>
<rect clip-path="url(#clipPath19)" x="100.0" y="275.0" width="25.0" height="25.0" fill="#ff7f7f" opacity="1.0" stroke="none"/>
<rect clip-path="url(#clipPath19)" x="125.0" y="275.0" width="25.0" height="25.0" fill="#ff7f7f" opacity="1.0" stroke="none"/>
<clipPath id="clipPath20">
    <path d="M 150.0,300.0 L 150.0,250.0 L 200.0,250.0 L 200.0,300.0 L 150.0,300.0 "/>
</clipPath>
<rect clip-path="url(#clipPath20)" x="150.0" y="250.0" width="25.0" height="25.0" fill="#7396ff" opacity="1.0" stroke="none"/>
<rect clip-path="url(#clipPath20)" x="175.0" y="250.0" width="25.0" height="25.0" fill="#7396ff" opacity="1.0" stroke="none"/>
<rect clip-path="url(#clipPath20)" x="150.0" y="275.0" width="25.0" height="25.0" fill="#7396ff" opacity="1.0" stroke="none"/>
<rect clip-path="url(#clipPath20)" x="175.0" y="275.0" width="25.0" height="25.0" fill="#7396ff" opacity="1.0" stroke="none"/>
<clipPath id="clipPath21">
    <path d="M 200.0,300.0 L 200.0,250.0 L 250.0,250.0 L 250.0,300.0 L 200.0,300.0 "/>
</clipPath>
<rect clip-path="url(#clipPath21)" x="200.0" y="250.0" width="25.0" height="25.0" fill="#ff7f7f" opacity="1.0" stroke="none"/>
<rect clip-path="url(#clipPath21)" x="225.0" y="250.0" width="25.0" height="25.0" fill="#ff7f7f" opacity="1.0" stroke="none"/>
<rect clip-path="url(#clipPath21)" x="200.0" y="275.0" width="25.0" height="25.0" fill="#ff7f7f" opacity="1.0" stroke="none"/>
<rect clip-path="url(#clipPath21)" x="225.0" y="275.0" width="25.0" height="25.0" fill="#ff7f7f" opacity="1.0" stroke="none"/>
<clipPath id="clipPath22">
    <path d="M 250.0,300.0 L 250.0,250.0 L 300.0,250.0 L 300.0,300.0 L 250.0,300.0 "/>
</clipPath>
<rect clip-path="url(#clipPath22)" x="250.0" y="250.0" width="25.0" height="25.0" fill="#7396ff" opacity="1.0" stroke="none"/>
<rect clip-path="url(#clipPath22)" x="275.0" y="250.0" width="25.0" height="25.0" fill="#7396ff" opacity="1.0" stroke="none"/>
<rect clip-path="url(#clipPath22)" x="250.0" y="275.0" width="25.0" height="25.0" fill="#7396ff" opacity="1.0" stroke="none"/>
<rect clip-path="url(#clipPath22)" x="275.0" y="275.0" width="25.0" height="25.0" fill="#7396ff" opacity="1.0" stroke="none"/>
<clipPath id="clipPath23">
    <path d="M 300.0,300.0 L 300.0,250.0 L 350.0,250.0 L 350.0,300.0 L 300.0,300.0 "/>
</clipPath>
<rect clip-path="url(#clipPath23)" x="300.0" y="250.0" width="25.0" height="25.0" fill="#ff7f7f" opacity="1.0" stroke="none"/>
<rect clip-path="url(#clipPath23)" x="325.0" y="250.0" width="25.0" height="25.0" fill="#ff7f7f" opacity="1.0" stroke="none"/>
<rect clip-path="url(#clipPath23)" x="300.0" y="275.0" width="25.0" height="25.0" fill="#ff7f7f" opacity="1.0" stroke="none"/>
<rect clip-path="url(#clipPath23)" x="325.0" y="275.0" width="25.0" height="25.0" fill="#ff7f7f" opacity="1.0" stroke="none"/>
<clipPath id="clipPath24">
    <path d="M 350.0,300.0 L 350.0,250.0 L 400.0,250.0 L 400.0,300.0 L 350.0,300.0 "/>
</clipPath>
<rect clip-path="url(#clipPath24)" x="350.0" y="250.0" width="25.0" height="25.0" fill="#7396ff" opacity="1.0" stroke="none"/>
<rect clip-path="url(#clipPath24)" x="375.0" y="250.0" width="25.0" height="25.0" fill="#7396ff" opacity="1.0" stroke="none"/>
<rect clip-path="url(#clipPath24)" x="350.0" y="275.0" width="25.0" height="25.0" fill="#7396ff" opacity="1.0" stroke="none"/>
<rect clip-path="url(#clipPath24)" x="375.0" y="275.0" width="25.0" height="25.0" fill="#7396ff" opacity="1.0" stroke="none"/>
<clipPath id="clipPath25">
    <path d="M 100.0,350.0 L 100.0,300.0 L 150.0,300.0 L 150.0,350.0 L 100.0,350.0 "/>
</clipPath>
<rect clip-path="url(#clipPath25)" x="100.0" y="300.0" width="25.0" height="25.0" fill="#7396ff" opacity="1.0" stroke="none"/>
<rect clip-path="url(#clipPath25)" x="125.0" y="300.0" width="25.0" height="25.0" fill="#7396ff" opacity="1.0" stroke="none"/>
<rect clip-path="url(#clipPath25)" x="100.0" y="325.0" width="25.0" height="25.0" fill="#7396ff" opacity="1.0" stroke="none"/>
<rect clip-path="url(#clipPath25)" x="125.0" y="325.0" width="25.0" height="25.0" fill="#7396ff" opacity="1.0" stroke="none"/>
<clipPath id="clipPath26">
    <path d="M 150.0,350.0 L 150.0,300.0 L 200.0,300.0 L 200.0,350.0 L 150.0,350.0 "/>
</clipPath>
<rect clip-path="url(#clipPath26)" x="150.0" y="300.0" width="25.0" height="25.0" fill="#ff7f7f" opacity="1.0" stroke="none"/>
<rect clip-path="url(#clipPath26)" x="175.0" y="300.0" width="25.0" height="25.0" fill="#ff7f7f" opacity="1.0" stroke="none"/>
<rect clip-path="url(#clipPath26)" x="150.0" y="325.0" width="25.0" height="25.0" fill="#ff7f7f" opacity="1.0" stroke="none"/>
<rect clip-path="url(#clipPath26)" x="175.0" y="325.0" width="25.0" height="25.0" fill="#ff7f7f" opacity="1.0" stroke="none"/>
<clipPath id="clipPath27">
    <path d="M 200.0,350.0 L 200.0,300.0 L 250.0,300.0 L 250.0,350.0 L 200.0,350.0 "/>
</clipPath>
<rect clip-path="url(#clipPath27)" x="200.0" y="300.0" width="25.0" height="25.0" fill="#7396ff" opacity="1.0" stroke="none"/>
<rect clip-path="url(#clipPath27)" x="225.0" y="300.0" width="25.0" height="25.0" fill="#7396ff" opacity="1.0" stroke="none"/>
<rect clip-path="url(#clipPath27)" x="200.0" y="325.0" width="25.0" height="25.0" fill="#7396ff" opacity="1.0" stroke="none"/>
<rect clip-path="url(#clipPath27)" x="225.0" y="325.0" width="25.0" height="25.0" fill="#7396ff" opacity="1.0" stroke="none"/>
<clipPath id="clipPath28">
    <path d="M 250.0,350.0 L 250.0,300.0 L 300.0,300.0 L 300.0,350.0 L 250.0,350.0 "/>
</clipPath>
<rect clip-path="url(#clipPath28)" x="250.0" y="300.0" width="25.0" height="25.0" fill="#ff7f7f" opacity="1.0" stroke="none"/>
<rect clip-path="url(#clipPath28)" x="275.0" y="300.0" width="25.0" height="25.0" fill="#ff7f7f" opacity="1.0" stroke="none"/>
<rect clip-path="url(#clipPath28)" x="250.0" y="325.0" width="25.0" height="25.0" fill="#ff7f7f" opacity="1.0" stroke="none"/>
<rect clip-path="url(#clipPath28)" x="275.0" y="325.0" width="25.0" height="25.0" fill="#ff7f7f" opacity="1.0" stroke="none"/>
<clipPath id="clipPath29">
    <path d="M 300.0,350.0 L 300.0,300.0 L 350.0,300.0 L 350.0,350.0 L 300.0,350.0 "/>
</clipPath>
<rect clip-path="url(#clipPath29)" x="300.0" y="300.0" width="25.0" height="25.0" fill="#7396ff" opacity="1.0" stroke="none"/>
<rect clip-path="url(#clipPath29)" x="325.0" y="300.0" width="25.0" height="25.0" fill="#7396ff" opacity="1.0" stroke="none"/>
<rect clip-path="url(#clipPath29)" x="300.0" y="325.0" width="25.0" height="25.0" fill="#7396ff" opacity="1.0" stroke="none"/>
<rect clip-path="url(#clipPath29)" x="325.0" y="325.0" width="25.0" height="25.0" fill="#7396ff" opacity="1.0" stroke="none"/>
<clipPath id="clipPath30">
    <path d="M 350.0,350.0 L 350.0,300.0 L 400.0,300.0 L 400.0,350.0 L 350.0,350.0 "/>
</clipPath>
<rect clip-path="url(#clipPath30)" x="350.0" y="300.0" width="25.0" height="25.0" fill="#ff7f7f" opacity="1.0" stroke="none"/>
<rect clip-path="url(#clipPath30)" x="375.0" y="300.0" width="25.0" height="25.0" fill="#ff7f7f" opacity="1.0" stroke="none"/>
<rect clip-path="url(#clipPath30)" x="350.0" y="325.0" width="25.0" height="25.0" fill="#ff7f7f" opacity="1.0" stroke="none"/>
<rect clip-path="url(#clipPath30)" x="375.0" y="325.0" width="25.0" height="25.0" fill="#ff7f7f" opacity="1.0" stroke="none"/>
<clipPath id="clipPath31">
    <path d="M 100.0,400.0 L 100.0,350.0 L 150.0,350.0 L 150.0,400.0 L 100.0,400.0 "/>
</clipPath>
<rect clip-path="url(#clipPath31)" x="100.0" y="350.0" width="25.0" height="25.0" fill="#ff7f7f" opacity="1.0" stroke="none"/>
<rect clip-path="url(#clipPath31)" x="125.0" y="350.0" width="25.0" height="25.0" fill="#ff7f7f" opacity="1.0" stroke="none"/>
<rect clip-path="url(#clipPath31)" x="100.0" y="375.0" width="25.0" height="25.0" fill="#ff7f7f" opacity="1.0" stroke="none"/>
<rect clip-path="url(#clipPath31)" x="125.0" y="375.0" width="25.0" height="25.0" fill="#ff7f7f" opacity="1.0" stroke="none"/>
<clipPath id="clipPath32">
    <path d="M 150.0,400.0 L 150.0,350.0 L 200.0,350.0 L 200.0,400.0 L 150.0,400.0 "/>
</clipPath>
<rect clip-path="url(#clipPath32)" x="150.0" y="350.0" width="25.0" height="25.0" fill="#7396ff" opacity="1.0" stroke="none"/>
<rect clip-path="url(#clipPath32)" x="175.0" y="350.0" width="25.0" height="25.0" fill="#7396ff" opacity="1.0" stroke="none"/>
<rect clip-path="url(#clipPath32)" x="150.0" y="375.0" width="25.0" height="25.0" fill="#7396ff" opacity="1.0" stroke="none"/>
<rect clip-path="url(#clipPath32)" x="175.0" y="375.0" width="25.0" height="25.0" fill="#7396ff" opacity="1.0" stroke="none"/>
<clipPath id="clipPath33">
    <path d="M 200.0,400.0 L 200.0,350.0 L 250.0,350.0 L 250.0,400.0 L 200.0,400.0 "/>
</clipPath>
<rect clip-path="url(#clipPath33)" x="200.0" y="350.0" width="25.0" height="25.0" fill="#ff7f7f" opacity="1.0" stroke="none"/>
<rect clip-path="url(#clipPath33)" x="225.0" y="350.0" width="25.0" height="25.0" fill="#ff7f7f" opacity="1.0" stroke="none"/>
<rect clip-path="url(#clipPath33)" x="200.0" y="375.0" width="25.0" height="25.0" fill="#ff7f7f" opacity="1.0" stroke="none"/>
<rect clip-path="url(#clipPath33)" x="225.0" y="375.0" width="25.0" height="25.0" fill="#ff7f7f" opacity="1.0" stroke="none"/>
<clipPath id="clipPath34">
    <path d="M 250.0,400.0 L 250.0,350.0 L 300.0,350.0 L 300.0,400.0 L 250.0,400.0 "/>
</clipPath>
<rect clip-path="url(#clipPath34)" x="250.0" y="350.0" width="25.0" height="25.0" fill="#7396ff" opacity="1.0" stroke="none"/>
<rect clip-path="url(#clipPath34)" x="275.0" y="350.0" width="25.0" height="25.0" fill="#7396ff" opacity="1.0" stroke="none"/>
<rect clip-path="url(#clipPath34)" x="250.0" y="375.0" width="25.0" height="25.0" fill="#7396ff" opacity="1.0" stroke="none"/>
<rect clip-path="url(#clipPath34)" x="275.0" y="375.0" width="25.0" height="25.0" fill="#7396ff" opacity="1.0" stroke="none"/>
<clipPath id="clipPath35">
    <path d="M 300.0,400.0 L 300.0,350.0 L 350.0,350.0 L 350.0,400.0 L 300.0,400.0 "/>
</clipPath>
<rect clip-path="url(#clipPath35)" x="300.0" y="350.0" width="25.0" height="25.0" fill="#ff7f7f" opacity="1.0" stroke="none"/>
<rect clip-path="url(#clipPath35)" x="325.0" y="350.0" width="25.0" height="25.0" fill="#ff7f7f" opacity="1.0" stroke="none"/>
<rect clip-path="url(#clipPath35)" x="300.0" y="375.0" width="25.0" height="25.0" fill="#ff7f7f" opacity="1.0" stroke="none"/>
<rect clip-path="url(#clipPath35)" x="325.0" y="375.0" width="25.0" height="25.0" fill="#ff7f7f" opacity="1.0" stroke="none"/>
<clipPath id="clipPath36">
    <path d="M 350.0,400.0 L 350.0,350.0 L 400.0,350.0 L 400.0,400.0 L 350.0,400.0 "/>
</clipPath>
<rect clip-path="url(#clipPath36)" x="350.0" y="350.0" width="25.0" height="25.0" fill="#7396ff" opacity="1.0" stroke="none"/>
<rect clip-path="url(#clipPath36)" x="375.0" y="350.0" width="25.0" height="25.0" fill="#7396ff" opacity="1.0" stroke="none"/>
<rect clip-path="url(#clipPath36)" x="350.0" y="375.0" width="25.0" height="25.0" fill="#7396ff" opacity="1.0" stroke="none"/>
<rect clip-path="url(#clipPath36)" x="375.0" y="375.0" width="25.0" height="25.0" fill="#7396ff" opacity="1.0" stroke="none"/>
<clipPath id="clipPath37">
    <path d="M 400.0,450.0 L 400.0,400.0 L 450.0,400.0 L 450.0,409.99999999999994 L 409.99999999999994,450.0 L 400.0,450.0 "/>
</clipPath>
<rect clip-path="url(#clipPath37)" x="400.0" y="400.0" width="25.0" height="25.0" fill="#7396ff" opacity="1.0" stroke="none"/>
<rect clip-path="url(#clipPath37)" x="425.0" y="400.0" width="25.0" height="25.0" fill="#7396ff" opacity="1.0" stroke="none"/>
<rect clip-path="url(#clipPath37)" x="400.0" y="425.0" width="25.0" height="25.0" fill="#7396ff" opacity="1.0" stroke="none"/>
<path d="M 50.0,90.0 L 90.0,50.0 L 100.0,50.0 L 100.0,100.0 L 50.0,100.0 L 50.0,90.0 " fill="none" stroke="black" stroke-width="1.25"/>
<path d="M 100.0,150.0 L 100.0,100.0 L 150.0,100.0 L 150.0,150.0 L 100.0,150.0 " fill="none" stroke="black" stroke-width="1.25"/>
<path d="M 150.0,150.0 L 150.0,100.0 L 200.0,100.0 L 200.0,150.0 L 150.0,150.0 " fill="none" stroke="black" stroke-width="1.25"/>
<path d="M 200.0,150.0 L 200.0,100.0 L 250.0,100.0 L 250.0,150.0 L 200.0,150.0 " fill="none" stroke="black" stroke-width="1.25"/>
<path d="M 250.0,150.0 L 250.0,100.0 L 300.0,100.0 L 300.0,150.0 L 250.0,150.0 " fill="none" stroke="black" stroke-width="1.25"/>
<path d="M 300.0,150.0 L 300.0,100.0 L 350.0,100.0 L 350.0,150.0 L 300.0,150.0 " fill="none" stroke="black" stroke-width="1.25"/>
<path d="M 350.0,150.0 L 350.0,100.0 L 400.0,100.0 L 400.0,150.0 L 350.0,150.0 " fill="none" stroke="black" stroke-width="1.25"/>
<path d="M 100.0,200.0 L 100.0,150.0 L 150.0,150.0 L 150.0,200.0 L 100.0,200.0 " fill="none" stroke="black" stroke-width="1.25"/>
<path d="M 150.0,200.0 L 150.0,150.0 L 200.0,150.0 L 200.0,200.0 L 150.0,200.0 " fill="none" stroke="black" stroke-width="1.25"/>
<path d="M 200.0,200.0 L 200.0,150.0 L 250.0,150.0 L 250.0,200.0 L 200.0,200.0 " fill="none" stroke="black" stroke-width="1.25"/>
<path d="M 250.0,200.0 L 250.0,150.0 L 300.0,150.0 L 300.0,200.0 L 250.0,200.0 " fill="none" stroke="black" stroke-width="1.25"/>
<path d="M 300.0,200.0 L 300.0,150.0 L 350.0,150.0 L 350.0,200.0 L 300.0,200.0 " fill="none" stroke="black" stroke-width="1.25"/>
<path d="M 350.0,200.0 L 350.0,150.0 L 400.0,150.0 L 400.0,200.0 L 350.0,200.0 " fill="none" stroke="black" stroke-width="1.25"/>
<path d="M 100.0,250.0 L 100.0,200.0 L 150.0,200.0 L 150.0,250.0 L 100.0,250.0 " fill="none" stroke="black" stroke-width="1.25"/>
<path d="M 150.0,250.0 L 150.0,200.0 L 200.0,200.0 L 200.0,250.0 L 150.0,250.0 " fill="none" stroke="black" stroke-width="1.25"/>
<path d="M 200.0,250.0 L 200.0,200.0 L 250.0,200.0 L 250.0,250.0 L 200.0,250.0 " fill="none" stroke="black" stroke-width="1.25"/>
<path d="M 250.0,250.0 L 250.0,200.0 L 300.0,200.0 L 300.0,250.0 L 250.0,250.0 " fill="none" stroke="black" stroke-width="1.25"/>
<path d="M 300.0,250.0 L 300.0,200.0 L 350.0,200.0 L 350.0,250.0 L 300.0,250.0 " fill="none" stroke="black" stroke-width="1.25"/>
<path d="M 350.0,250.0 L 350.0,200.0 L 400.0,200.0 L 400.0,250.0 L 350.0,250.0 " fill="none" stroke="black" stroke-width="1.25"/>
<path d="M 100.0,300.0 L 100.0,250.0 L 150.0,250.0 L 150.0,300.0 L 100.0,300.0 " fill="none" stroke="black" stroke-width="1.25"/>
<path d="M 150.0,300.0 L 150.0,250.0 L 200.0,250.0 L 200.0,300.0 L 150.0,300.0 " fill="none" stroke="black" stroke-width="1.25"/>
<path d="M 200.0,300.0 L 200.0,250.0 L 250.0,250.0 L 250.0,300.0 L 200.0,300.0 " fill="none" stroke="black" stroke-width="1.25"/>
<path d="M 250.0,300.0 L 250.0,250.0 L 300.0,250.0 L 300.0,300.0 L 250.0,300.0 " fill="none" stroke="black" stroke-width="1.25"/>
<path d="M 300.0,300.0 L 300.0,250.0 L 350.0,250.0 L 350.0,300.0 L 300.0,300.0 " fill="none" stroke="black" stroke-width="1.25"/>
<path d="M 350.0,300.0 L 350.0,250.0 L 400.0,250.0 L 400.0,300.0 L 350.0,300.0 " fill="none" stroke="black" stroke-width="1.25"/>
<path d="M 100.0,350.0 L 100.0,300.0 L 150.0,300.0 L 150.0,350.0 L 100.0,350.0 " fill="none" stroke="black" stroke-width="1.25"/>
<path d="M 150.0,350.0 L 150.0,300.0 L 200.0,300.0 L 200.0,350.0 L 150.0,350.0 " fill="none" stroke="black" stroke-width="1.25"/>
<path d="M 200.0,350.0 L 200.0,300.0 L 250.0,300.0 L 250.0,350.0 L 200.0,350.0 " fill="none" stroke="black" stroke-width="1.25"/>
<path d="M 250.0,350.0 L 250.0,300.0 L 300.0,300.0 L 300.0,350.0 L 250.0,350.0 " fill="none" stroke="black" stroke-width="1.25"/>
<path d="M 300.0,350.0 L 300.0,300.0 L 350.0,300.0 L 350.0,350.0 L 300.0,350.0 " fill="none" stroke="black" stroke-width="1.25"/>
<path d="M 350.0,350.0 L 350.0,300.0 L 400.0,300.0 L 400.0,350.0 L 350.0,350.0 " fill="none" stroke="black" stroke-width="1.25"/>
<path d="M 100.0,400.0 L 100.0,350.0 L 150.0,350.0 L 150.0,400.0 L 100.0,400.0 " fill="none" stroke="black" stroke-width="1.25"/>
<path d="M 150.0,400.0 L 150.0,350.0 L 200.0,350.0 L 200.0,400.0 L 150.0,400.0 " fill="none" stroke="black" stroke-width="1.25"/>
<path d="M 200.0,400.0 L 200.0,350.0 L 250.0,350.0 L 250.0,400.0 L 200.0,400.0 " fill="none" stroke="black" stroke-width="1.25"/>
<path d="M 250.0,400.0 L 250.0,350.0 L 300.0,350.0 L 300.0,400.0 L 250.0,400.0 " fill="none" stroke="black" stroke-width="1.25"/>
<path d="M 300.0,400.0 L 300.0,350.0 L 350.0,350.0 L 350.0,400.0 L 300.0,400.0 " fill="none" stroke="black" stroke-width="1.25"/>
<path d="M 350.0,400.0 L 350.0,350.0 L 400.0,350.0 L 400.0,400.0 L 350.0,400.0 " fill="none" stroke="black" stroke-width="1.25"/>
<path d="M 400.0,450.0 L 400.0,400.0 L 450.0,400.0 L 450.0,409.99999999999994 L 409.99999999999994,450.0 L 400.0,450.0 " fill="none" stroke="black" stroke-width="1.25"/>
<text x="92.5" y="57.49999999999999" fill="black" font-size="10.0" text-anchor="middle" dominant-baseline="central">4</text>
<text x="57.49999999999999" y="92.5" fill="black" font-size="10.0" text-anchor="middle" dominant-baseline="central">3</text>
<text x="92.5" y="92.5" fill="black" font-size="10.0" text-anchor="middle" dominant-baseline="central">5</text>
<text x="107.5" y="107.5" fill="black" font-size="10.0" text-anchor="middle" dominant-baseline="central">1</text>
<text x="142.5" y="107.5" fill="black" font-size="10.0" text-anchor="middle" dominant-baseline="central">4</text>
<text x="107.5" y="142.5" fill="black" font-size="10.0" text-anchor="middle" dominant-baseline="central">3</text>
<text x="142.5" y="142.5" fill="black" font-size="10.0" text-anchor="middle" dominant-baseline="central">5</text>
<text x="157.5" y="107.5" fill="black" font-size="10.0" text-anchor="middle" dominant-baseline="central">1</text>
<text x="192.49999999999997" y="107.5" fill="black" font-size="10.0" text-anchor="middle" dominant-baseline="central">2</text>
<text x="157.5" y="142.5" fill="black" font-size="10.0" text-anchor="middle" dominant-baseline="central">3</text>
<text x="192.49999999999997" y="142.5" fill="black" font-size="10.0" text-anchor="middle" dominant-baseline="central">5</text>
<text x="207.50000000000003" y="107.5" fill="black" font-size="10.0" text-anchor="middle" dominant-baseline="central">1</text>
<text x="242.49999999999997" y="107.5" fill="black" font-size="10.0" text-anchor="middle" dominant-baseline="central">4</text>
<text x="207.50000000000003" y="142.5" fill="black" font-size="10.0" text-anchor="middle" dominant-baseline="central">3</text>
<text x="242.49999999999997" y="142.5" fill="black" font-size="10.0" text-anchor="middle" dominant-baseline="central">5</text>
<text x="257.5" y="107.5" fill="black" font-size="10.0" text-anchor="middle" dominant-baseline="central">1</text>
<text x="292.5" y="107.5" fill="black" font-size="10.0" text-anchor="middle" dominant-baseline="central">2</text>
<text x="257.5" y="142.5" fill="black" font-size="10.0" text-anchor="middle" dominant-baseline="central">3</text>
<text x="292.5" y="142.5" fill="black" font-size="10.0" text-anchor="middle" dominant-baseline="central">5</text>
<text x="307.5" y="107.5" fill="black" font-size="10.0" text-anchor="middle" dominant-baseline="central">1</text>
<text x="342.5" y="107.5" fill="black" font-size="10.0" text-anchor="middle" dominant-baseline="central">4</text>
<text x="307.5" y="142.5" fill="black" font-size="10.0" text-anchor="middle" dominant-baseline="central">3</text>
<text x="342.5" y="142.5" fill="black" font-size="10.0" text-anchor="middle" dominant-baseline="central">5</text>
<text x="357.5" y="107.5" fill="black" font-size="10.0" text-anchor="middle" dominant-baseline="central">1</text>
<text x="392.5" y="107.5" fill="black" font-size="10.0" text-anchor="middle" dominant-baseline="central">2</text>
<text x="357.5" y="142.5" fill="black" font-size="10.0" text-anchor="middle" dominant-baseline="central">3</text>
<text x="392.5" y="142.5" fill="black" font-size="10.0" text-anchor="middle" dominant-baseline="central">5</text>
<text x="107.5" y="157.5" fill="black" font-size="10.0" text-anchor="middle" dominant-baseline="central">1</text>
<text x="142.5" y="157.5" fill="black" font-size="10.0" text-anchor="middle" dominant-baseline="central">4</text>
<text x="107.5" y="192.49999999999997" fill="black" font-size="10.0" text-anchor="middle" dominant-baseline="central">3</text>
<text x="142.5" y="192.49999999999997" fill="black" font-size="10.0" text-anchor="middle" dominant-baseline="central">5</text>
<text x="157.5" y="157.5" fill="black" font-size="10.0" text-anchor="middle" dominant-baseline="central">1</text>
<text x="192.49999999999997" y="157.5" fill="black" font-size="10.0" text-anchor="middle" dominant-baseline="central">4</text>
<text x="157.5" y="192.49999999999997" fill="black" font-size="10.0" text-anchor="middle" dominant-baseline="central">3</text>
<text x="192.49999999999997" y="192.49999999999997" fill="black" font-size="10.0" text-anchor="middle" dominant-baseline="central">5</text>
<text x="207.50000000000003" y="157.5" fill="black" font-size="10.0" text-anchor="middle" dominant-baseline="central">1</text>
<text x="242.49999999999997" y="157.5" fill="black" font-size="10.0" text-anchor="middle" dominant-baseline="central">2</text>
<text x="207.50000000000003" y="192.49999999999997" fill="black" font-size="10.0" text-anchor="middle" dominant-baseline="central">3</text>
<text x="242.49999999999997" y="192.49999999999997" fill="black" font-size="10.0" text-anchor="middle" dominant-baseline="central">5</text>
<text x="257.5" y="157.5" fill="black" font-size="10.0" text-anchor="middle" dominant-baseline="central">1</text>
<text x="292.5" y="157.5" fill="black" font-size="10.0" text-anchor="middle" dominant-baseline="central">4</text>
<text x="257.5" y="192.49999999999997" fill="black" font-size="10.0" text-anchor="middle" dominant-baseline="central">3</text>
<text x="292.5" y="192.49999999999997" fill="black" font-size="10.0" text-anchor="middle" dominant-baseline="central">5</text>
<text x="307.5" y="157.5" fill="black" font-size="10.0" text-anchor="middle" dominant-baseline="central">1</text>
<text x="342.5" y="157.5" fill="black" font-size="10.0" text-anchor="middle" dominant-baseline="central">2</text>
<text x="307.5" y="192.49999999999997" fill="black" font-size="10.0" text-anchor="middle" dominant-baseline="central">3</text>
<text x="342.5" y="192.49999999999997" fill="black" font-size="10.0" text-anchor="middle" dominant-baseline="central">5</text>
<text x="357.5" y="157.5" fill="black" font-size="10.0" text-anchor="middle" dominant-baseline="central">1</text>
<text x="392.5" y="157.5" fill="black" font-size="10.0" text-anchor="middle" dominant-baseline="central">2</text>
<text x="357.5" y="192.49999999999997" fill="black" font-size="10.0" text-anchor="middle" dominant-baseline="central">3</text>
<text x="392.5" y="192.49999999999997" fill="black" font-size="10.0" text-anchor="middle" dominant-baseline="central">5</text>
<text x="107.5" y="207.50000000000003" fill="black" font-size="10.0" text-anchor="middle" dominant-baseline="central">1</text>
<text x="142.5" y="207.50000000000003" fill="black" font-size="10.0" text-anchor="middle" dominant-baseline="central">2</text>
<text x="107.5" y="242.49999999999997" fill="black" font-size="10.0" text-anchor="middle" dominant-baseline="central">3</text>
<text x="142.5" y="242.49999999999997" fill="black" font-size="10.0" text-anchor="middle" dominant-baseline="central">5</text>
<text x="157.5" y="207.50000000000003" fill="black" font-size="10.0" text-anchor="middle" dominant-baseline="central">1</text>
<text x="192.49999999999997" y="207.50000000000003" fill="black" font-size="10.0" text-anchor="middle" dominant-baseline="central">4</text>
<text x="157.5" y="242.49999999999997" fill="black" font-size="10.0" text-anchor="middle" dominant-baseline="central">3</text>
<text x="192.49999999999997" y="242.49999999999997" fill="black" font-size="10.0" text-anchor="middle" dominant-baseline="central">5</text>
<text x="207.50000000000003" y="207.50000000000003" fill="black" font-size="10.0" text-anchor="middle" dominant-baseline="central">1</text>
<text x="242.49999999999997" y="207.50000000000003" fill="black" font-size="10.0" text-anchor="middle" dominant-baseline="central">4</text>
<text x="207.50000000000003" y="242.49999999999997" fill="black" font-size="10.0" text-anchor="middle" dominant-baseline="central">3</text>
<text x="242.49999999999997" y="242.49999999999997" fill="black" font-size="10.0" text-anchor="middle" dominant-baseline="central">5</text>
<text x="257.5" y="207.50000000000003" fill="black" font-size="10.0" text-anchor="middle" dominant-baseline="central">1</text>
<text x="292.5" y="207.50000000000003" fill="black" font-size="10.0" text-anchor="middle" dominant-baseline="central">2</text>
<text x="257.5" y="242.49999999999997" fill="black" font-size="10.0" text-anchor="middle" dominant-baseline="central">3</text>
<text x="292.5" y="242.49999999999997" fill="black" font-size="10.0" text-anchor="middle" dominant-baseline="central">5</text>
<text x="307.5" y="207.50000000000003" fill="black" font-size="10.0" text-anchor="middle" dominant-baseline="central">1</text>
<text x="342.5" y="207.50000000000003" fill="black" font-size="10.0" text-anchor="middle" dominant-baseline="central">2</text>
<text x="307.5" y="242.49999999999997" fill="black" font-size="10.0" text-anchor="middle" dominant-baseline="central">3</text>
<text x="342.5" y="242.49999999999997" fill="black" font-size="10.0" text-anchor="middle" dominant-baseline="central">5</text>
<text x="357.5" y="207.50000000000003" fill="black" font-size="10.0" text-anchor="middle" dominant-baseline="central">1</text>
<text x="392.5" y="207.50000000000003" fill="black" font-size="10.0" text-anchor="middle" dominant-baseline="central">4</text>
<text x="357.5" y="242.49999999999997" fill="black" font-size="10.0" text-anchor="middle" dominant-baseline="central">3</text>
<text x="392.5" y="242.49999999999997" fill="black" font-size="10.0" text-anchor="middle" dominant-baseline="central">5</text>
<text x="107.5" y="257.5" fill="black" font-size="10.0" text-anchor="middle" dominant-baseline="central">1</text>
<text x="142.5" y="257.5" fill="black" font-size="10.0" text-anchor="middle" dominant-baseline="central">4</text>
<text x="107.5" y="292.5" fill="black" font-size="10.0" text-anchor="middle" dominant-baseline="central">3</text>
<text x="142.5" y="292.5" fill="black" font-size="10.0" text-anchor="middle" dominant-baseline="central">5</text>
<text x="157.5" y="257.5" fill="black" font-size="10.0" text-anchor="middle" dominant-baseline="central">1</text>
<text x="192.49999999999997" y="257.5" fill="black" font-size="10.0" text-anchor="middle" dominant-baseline="central">2</text>
<text x="157.5" y="292.5" fill="black" font-size="10.0" text-anchor="middle" dominant-baseline="central">3</text>
<text x="192.49999999999997" y="292.5" fill="black" font-size="10.0" text-anchor="middle" dominant-baseline="central">5</text>
<text x="207.50000000000003" y="257.5" fill="black" font-size="10.0" text-anchor="middle" dominant-baseline="central">1</text>
<text x="242.49999999999997" y="257.5" fill="black" font-size="10.0" text-anchor="middle" dominant-baseline="central">2</text>
<text x="207.50000000000003" y="292.5" fill="black" font-size="10.0" text-anchor="middle" dominant-baseline="central">3</text>
<text x="242.49999999999997" y="292.5" fill="black" font-size="10.0" text-anchor="middle" dominant-baseline="central">5</text>
<text x="257.5" y="257.5" fill="black" font-size="10.0" text-anchor="middle" dominant-baseline="central">1</text>
<text x="292.5" y="257.5" fill="black" font-size="10.0" text-anchor="middle" dominant-baseline="central">4</text>
<text x="257.5" y="292.5" fill="black" font-size="10.0" text-anchor="middle" dominant-baseline="central">3</text>
<text x="292.5" y="292.5" fill="black" font-size="10.0" text-anchor="middle" dominant-baseline="central">5</text>
<text x="307.5" y="257.5" fill="black" font-size="10.0" text-anchor="middle" dominant-baseline="central">1</text>
<text x="342.5" y="257.5" fill="black" font-size="10.0" text-anchor="middle" dominant-baseline="central">4</text>
<text x="307.5" y="292.5" fill="black" font-size="10.0" text-anchor="middle" dominant-baseline="central">3</text>
<text x="342.5" y="292.5" fill="black" font-size="10.0" text-anchor="middle" dominant-baseline="central">5</text>
<text x="357.5" y="257.5" fill="black" font-size="10.0" text-anchor="middle" dominant-baseline="central">1</text>
<text x="392.5" y="257.5" fill="black" font-size="10.0" text-anchor="middle" dominant-baseline="central">2</text>
<text x="357.5" y="292.5" fill="black" font-size="10.0" text-anchor="middle" dominant-baseline="central">3</text>
<text x="392.5" y="292.5" fill="black" font-size="10.0" text-anchor="middle" dominant-baseline="central">5</text>
<text x="107.5" y="307.5" fill="black" font-size="10.0" text-anchor="middle" dominant-baseline="central">1</text>
<text x="142.5" y="307.5" fill="black" font-size="10.0" text-anchor="middle" dominant-baseline="central">2</text>
<text x="107.5" y="342.5" fill="black" font-size="10.0" text-anchor="middle" dominant-baseline="central">3</text>
<text x="142.5" y="342.5" fill="black" font-size="10.0" text-anchor="middle" dominant-baseline="central">5</text>
<text x="157.5" y="307.5" fill="black" font-size="10.0" text-anchor="middle" dominant-baseline="central">1</text>
<text x="192.49999999999997" y="307.5" fill="black" font-size="10.0" text-anchor="middle" dominant-baseline="central">2</text>
<text x="157.5" y="342.5" fill="black" font-size="10.0" text-anchor="middle" dominant-baseline="central">3</text>
<text x="192.49999999999997" y="342.5" fill="black" font-size="10.0" text-anchor="middle" dominant-baseline="central">5</text>
<text x="207.50000000000003" y="307.5" fill="black" font-size="10.0" text-anchor="middle" dominant-baseline="central">1</text>
<text x="242.49999999999997" y="307.5" fill="black" font-size="10.0" text-anchor="middle" dominant-baseline="central">4</text>
<text x="207.50000000000003" y="342.5" fill="black" font-size="10.0" text-anchor="middle" dominant-baseline="central">3</text>
<text x="242.49999999999997" y="342.5" fill="black" font-size="10.0" text-anchor="middle" dominant-baseline="central">5</text>
<text x="257.5" y="307.5" fill="black" font-size="10.0" text-anchor="middle" dominant-baseline="central">1</text>
<text x="292.5" y="307.5" fill="black" font-size="10.0" text-anchor="middle" dominant-baseline="central">2</text>
<text x="257.5" y="342.5" fill="black" font-size="10.0" text-anchor="middle" dominant-baseline="central">3</text>
<text x="292.5" y="342.5" fill="black" font-size="10.0" text-anchor="middle" dominant-baseline="central">5</text>
<text x="307.5" y="307.5" fill="black" font-size="10.0" text-anchor="middle" dominant-baseline="central">1</text>
<text x="342.5" y="307.5" fill="black" font-size="10.0" text-anchor="middle" dominant-baseline="central">4</text>
<text x="307.5" y="342.5" fill="black" font-size="10.0" text-anchor="middle" dominant-baseline="central">3</text>
<text x="342.5" y="342.5" fill="black" font-size="10.0" text-anchor="middle" dominant-baseline="central">5</text>
<text x="357.5" y="307.5" fill="black" font-size="10.0" text-anchor="middle" dominant-baseline="central">1</text>
<text x="392.5" y="307.5" fill="black" font-size="10.0" text-anchor="middle" dominant-baseline="central">4</text>
<text x="357.5" y="342.5" fill="black" font-size="10.0" text-anchor="middle" dominant-baseline="central">3</text>
<text x="392.5" y="342.5" fill="black" font-size="10.0" text-anchor="middle" dominant-baseline="central">5</text>
<text x="107.5" y="357.5" fill="black" font-size="10.0" text-anchor="middle" dominant-baseline="central">1</text>
<text x="142.5" y="357.5" fill="black" font-size="10.0" text-anchor="middle" dominant-baseline="central">2</text>
<text x="107.5" y="392.5" fill="black" font-size="10.0" text-anchor="middle" dominant-baseline="central">3</text>
<text x="142.5" y="392.5" fill="black" font-size="10.0" text-anchor="middle" dominant-baseline="central">5</text>
<text x="157.5" y="357.5" fill="black" font-size="10.0" text-anchor="middle" dominant-baseline="central">1</text>
<text x="192.49999999999997" y="357.5" fill="black" font-size="10.0" text-anchor="middle" dominant-baseline="central">4</text>
<text x="157.5" y="392.5" fill="black" font-size="10.0" text-anchor="middle" dominant-baseline="central">3</text>
<text x="192.49999999999997" y="392.5" fill="black" font-size="10.0" text-anchor="middle" dominant-baseline="central">5</text>
<text x="207.50000000000003" y="357.5" fill="black" font-size="10.0" text-anchor="middle" dominant-baseline="central">1</text>
<text x="242.49999999999997" y="357.5" fill="black" font-size="10.0" text-anchor="middle" dominant-baseline="central">2</text>
<text x="207.50000000000003" y="392.5" fill="black" font-size="10.0" text-anchor="middle" dominant-baseline="central">3</text>
<text x="242.49999999999997" y="392.5" fill="black" font-size="10.0" text-anchor="middle" dominant-baseline="central">5</text>
<text x="257.5" y="357.5" fill="black" font-size="10.0" text-anchor="middle" dominant-baseline="central">1</text>
<text x="292.5" y="357.5" fill="black" font-size="10.0" text-anchor="middle" dominant-baseline="central">4</text>
<text x="257.5" y="392.5" fill="black" font-size="10.0" text-anchor="middle" dominant-baseline="central">3</text>
<text x="292.5" y="392.5" fill="black" font-size="10.0" text-anchor="middle" dominant-baseline="central">5</text>
<text x="307.5" y="357.5" fill="black" font-size="10.0" text-anchor="middle" dominant-baseline="central">1</text>
<text x="342.5" y="357.5" fill="black" font-size="10.0" text-anchor="middle" dominant-baseline="central">2</text>
<text x="307.5" y="392.5" fill="black" font-size="10.0" text-anchor="middle" dominant-baseline="central">3</text>
<text x="342.5" y="392.5" fill="black" font-size="10.0" text-anchor="middle" dominant-baseline="central">5</text>
<text x="357.5" y="357.5" fill="black" font-size="10.0" text-anchor="middle" dominant-baseline="central">1</text>
<text x="392.5" y="357.5" fill="black" font-size="10.0" text-anchor="middle" dominant-baseline="central">4</text>
<text x="357.5" y="392.5" fill="black" font-size="10.0" text-anchor="middle" dominant-baseline="central">3</text>
<text x="392.5" y="392.5" fill="black" font-size="10.0" text-anchor="middle" dominant-baseline="central">5</text>
<text x="407.5" y="407.5" fill="black" font-size="10.0" text-anchor="middle" dominant-baseline="central">1</text>
<text x="442.5" y="407.5" fill="black" font-size="10.0" text-anchor="middle" dominant-baseline="central">4</text>
<text x="407.5" y="442.5" fill="black" font-size="10.0" text-anchor="middle" dominant-baseline="central">3</text>
</svg>
