<svg viewBox="0 0 500 500" xmlns="http://www.w3.org/2000/svg">
<clipPath id="clipPath0">
    <path d="M 166.66666666666669,55.55555555555556 a 1,1 0 0,0 -55.55555555555556,0.0 L 166.66666666666669,55.55555555555556"/>
</clipPath>
<rect clip-path="url(#clipPath0)" x="111.11111111111111" y="27.77777777777778" width="27.77777777777777" height="27.77777777777778" fill="#7396ff" opacity="1.0" stroke="none"/>
<rect clip-path="url(#clipPath0)" x="138.88888888888889" y="27.77777777777778" width="27.7777777777778" height="27.77777777777778" fill="#7396ff" opacity="1.0" stroke="none"/>
<clipPath id="clipPath1">
    <path d="M 277.77777777777777,55.55555555555556 a 1,1 0 0,0 -55.55555555555556,0.0 L 277.77777777777777,55.55555555555556"/>
</clipPath>
<rect clip-path="url(#clipPath1)" x="222.22222222222223" y="27.77777777777778" width="27.77777777777777" height="27.77777777777778" fill="#7396ff" opacity="1.0" stroke="none"/>
<rect clip-path="url(#clipPath1)" x="250.0" y="27.77777777777778" width="27.77777777777777" height="27.77777777777778" fill="#7396ff" opacity="1.0" stroke="none"/>
<clipPath id="clipPath2">
    <path d="M 388.8888888888889,55.55555555555556 a 1,1 0 0,0 -55.55555555555556,0.0 L 388.8888888888889,55.55555555555556"/>
</clipPath>
<rect clip-path="url(#clipPath2)" x="333.33333333333337" y="27.77777777777778" width="27.77777777777777" height="27.77777777777778" fill="#7396ff" opacity="1.0" stroke="none"/>
<rect clip-path="url(#clipPath2)" x="361.11111111111114" y="27.77777777777778" width="27.77777777777777" height="27.77777777777778" fill="#7396ff" opacity="1.0" stroke="none"/>
<clipPath id="clipPath3">
    <path d="M 55.55555555555556,100.0 L 100.0,55.55555555555556 L 111.11111111111111,55.55555555555556 L 111.11111111111111,111.11111111111111 L 55.55555555555556,111.11111111111111 L 55.55555555555556,100.0 "/>
</clipPath>
<rect clip-path="url(#clipPath3)" x="83.33333333333334" y="55.55555555555556" width="27.77777777777777" height="27.777777777777786" fill="#7396ff" opacity="1.0" stroke="none"/>
<rect clip-path="url(#clipPath3)" x="55.55555555555556" y="83.33333333333334" width="27.777777777777786" height="27.77777777777777" fill="#7396ff" opacity="1.0" stroke="none"/>
<rect clip-path="url(#clipPath3)" x="83.33333333333334" y="83.33333333333334" width="27.77777777777777" height="27.77777777777777" fill="#7396ff" opacity="1.0" stroke="none"/>
<clipPath id="clipPath4">
    <path d="M 111.11111111111111,111.11111111111111 L 111.11111111111111,55.55555555555556 L 166.66666666666669,55.55555555555556 L 166.66666666666669,111.11111111111111 L 111.11111111111111,111.11111111111111 "/>
</clipPath>
<rect clip-path="url(#clipPath4)" x="111.11111111111111" y="55.55555555555556" width="27.77777777777777" height="27.777777777777786" fill="#ff7f7f" opacity="1.0" stroke="none"/>
<rect clip-path="url(#clipPath4)" x="138.88888888888889" y="55.55555555555556" width="27.7777777777778" height="27.777777777777786" fill="#ff7f7f" opacity="1.0" stroke="none"/>
<rect clip-path="url(#clipPath4)" x="111.11111111111111" y="83.33333333333334" width="27.77777777777777" height="27.77777777777777" fill="#ff7f7f" opacity="1.0" stroke="none"/>
<rect clip-path="url(#clipPath4)" x="138.88888888888889" y="83.33333333333334" width="27.7777777777778" height="27.77777777777777" fill="#ff7f7f" opacity="1.0" stroke="none"/>
<clipPath id="clipPath5">
    <path d="M 166.66666666666669,111.11111111111111 L 166.66666666666669,55.55555555555556 L 222.22222222222223,55.55555555555556 L 222.22222222222223,111.11111111111111 L 166.66666666666669,111.11111111111111 "/>
</clipPath>
<rect clip-path="url(#clipPath5)" x="166.66666666666669" y="55.55555555555556" width="27.77777777777777" height="27.777777777777786" fill="#7396ff" opacity="1.0" stroke="none"/>
<rect clip-path="url(#clipPath5)" x="194.44444444444446" y="55.55555555555556" width="27.77777777777777" height="27.777777777777786" fill="#7396ff" opacity="1.0" stroke="none"/>
<rect clip-path="url(#clipPath5)" x="166.66666666666669" y="83.33333333333334" width="27.77777777777777" height="27.77777777777777" fill="#7396ff" opacity="1.0" stroke="none"/>
<rect clip-path="url(#clipPath5)" x="194.44444444444446" y="83.33333333333334" width="27.77777777777777" height="27.77777777777777" fill="#7396ff" opacity="1.0" stroke="none"/>
<clipPath id="clipPath6">
    <path d="M 222.22222222222223,111.11111111111111 L 222.22222222222223,55.55555555555556 L 277.77777777777777,55.55555555555556 L 277.77777777777777,111.11111111111111 L 222.22222222222223,111.11111111111111 "/>
</clipPath>
<rect clip-path="url(#clipPath6)" x="222.22222222222223" y="55.55555555555556" width="27.77777777777777" height="27.777777777777786" fill="#ff7f7f" opacity="1.0" stroke="none"/>
<rect clip-path="url(#clipPath6)" x="250.0" y="55.55555555555556" width="27.77777777777777" height="27.777777777777786" fill="#ff7f7f" opacity="1.0" stroke="none"/>
<rect clip-path="url(#clipPath6)" x="222.22222222222223" y="83.33333333333334" width="27.77777777777777" height="27.77777777777777" fill="#ff7f7f" opacity="1.0" stroke="none"/>
<rect clip-path="url(#clipPath6)" x="250.0" y="83.33333333333334" width="27.77777777777777" height="27.77777777777777" fill="#ff7f7f" opacity="1.0" stroke="none"/>
<clipPath id="clipPath7">
    <path d="M 277.77777777777777,111.11111111111111 L 277.77777777777777,55.55555555555556 L 333.33333333333337,55.55555555555556 L 333.33333333333337,111.11111111111111 L 277.77777777777777,111.11111111111111 "/>
</clipPath>
<rect clip-path="url(#clipPath7)" x="277.77777777777777" y="55.55555555555556" width="27.77777777777777" height="27.777777777777786" fill="#7396ff" opacity="1.0" stroke="none"/>
<rect clip-path="url(#clipPath7)" x="305.55555555555554" y="55.55555555555556" width="27.77777777777783" height="27.777777777777786" fill="#7396ff" opacity="1.0" stroke="none"/>
<rect clip-path="url(#clipPath7)" x="277.77777777777777" y="83.33333333333334" width="27.77777777777777" height="27.77777777777777" fill="#7396ff" opacity="1.0" stroke="none"/>
<rect clip-path="url(#clipPath7)" x="305.55555555555554" y="83.33333333333334" width="27.77777777777783" height="27.77777777777777" fill="#7396ff" opacity="1.0" stroke="none"/>
<clipPath id="clipPath8">
    <path d="M 333.33333333333337,111.11111111111111 L 333.33333333333337,55.55555555555556 L 388.8888888888889,55.55555555555556 L 388.8888888888889,111.11111111111111 L 333.33333333333337,111.11111111111111 "/>
</clipPath>
<rect clip-path="url(#clipPath8)" x="333.33333333333337" y="55.55555555555556" width="27.77777777777777" height="27.777777777777786" fill="#ff7f7f" opacity="1.0" stroke="none"/>
<rect clip-path="url(#clipPath8)" x="361.11111111111114" y="55.55555555555556" width="27.77777777777777" height="27.777777777777786" fill="#ff7f7f" opacity="1.0" stroke="none"/>
<rect clip-path="url(#clipPath8)" x="333.33333333333337" y="83.33333333333334" width="27.77777777777777" height="27.77777777777777" fill="#ff7f7f" opacity="1.0" stroke="none"/>
<rect clip-path="url(#clipPath8)" x="361.11111111111114" y="83.33333333333334" width="27.77777777777777" height="27.77777777777777" fill="#ff7f7f" opacity="1.0" stroke="none"/>
<clipPath id="clipPath9">
    <path d="M 55.55555555555556,111.11111111111111 a 1,1 0 0,0 0.0,55.55555555555556 L 55.55555555555556,111.11111111111111"/>
</clipPath>
<rect clip-path="url(#clipPath9)" x="27.77777777777778" y="111.11111111111111" width="27.77777777777778" height="27.77777777777777" fill="#7396ff" opacity="1.0" stroke="none"/>
<rect clip-path="url(#clipPath9)" x="27.77777777777778" y="138.88888888888889" width="27.77777777777778" height="27.7777777777778" fill="#7396ff" opacity="1.0" stroke="none"/>
<clipPath id="clipPath10">
    <path d="M 55.55555555555556,166.66666666666669 L 55.55555555555556,111.11111111111111 L 111.11111111111111,111.11111111111111 L 111.11111111111111,166.66666666666669 L 55.55555555555556,166.66666666666669 "/>
</clipPath>
<rect clip-path="url(#clipPath10)" x="55.55555555555556" y="111.11111111111111" width="27.777777777777786" height="27.77777777777777" fill="#ff7f7f" opacity="1.0" stroke="none"/>
<rect clip-path="url(#clipPath10)" x="83.33333333333334" y="111.11111111111111" width="27.77777777777777" height="27.77777777777777" fill="#ff7f7f" opacity="1.0" stroke="none"/>
<rect clip-path="url(#clipPath10)" x="55.55555555555556" y="138.88888888888889" width="27.777777777777786" height="27.7777777777778" fill="#ff7f7f" opacity="1.0" stroke="none"/>
<rect clip-path="url(#clipPath10)" x="83.33333333333334" y="138.88888888888889" width="27.77777777777777" height="27.7777777777778" fill="#ff7f7f" opacity="1.0" stroke="none"/>
<clipPath id="clipPath11">
    <path d="M 111.11111111111111,166.66666666666669 L 111.11111111111111,111.11111111111111 L 166.66666666666669,111.11111111111111 L 166.66666666666669,166.66666666666669 L 111.11111111111111,166.66666666666669 "/>
</clipPath>
<rect clip-path="url(#clipPath11)" x="111.11111111111111" y="111.11111111111111" width="27.77777777777777" height="27.77777777777777" fill="#7396ff" opacity="1.0" stroke="none"/>
<rect clip-path="url(#clipPath11)" x="138.88888888888889" y="111.11111111111111" width="27.7777777777778" height="27.77777777777777" fill="#7396ff" opacity="1.0" stroke="none"/>
<rect clip-path="url(#clipPath11)" x="111.11111111111111" y="138.88888888888889" width="27.77777777777777" height="27.7777777777778" fill="#7396ff" opacity="1.0" stroke="none"/>
<rect clip-path="url(#clipPath11)" x="138.88888888888889" y="138.88888888888889" width="27.7777777777778" height="27.7777777777778" fill="#7396ff" opacity="1.0" stroke="none"/>
<clipPath id="clipPath12">
    <path d="M 166.66666666666669,166.66666666666669 L 166.66666666666669,111.11111111111111 L 222.22222222222223,111.11111111111111 L 222.22222222222223,166.66666666666669 L 166.66666666666669,166.66666666666669 "/>
</clipPath>
<rect clip-path="url(#clipPath12)" x="166.66666666666669" y="111.11111111111111" width="27.77777777777777" height="27.77777777777777" fill="#ff7f7f" opacity="1.0" stroke="none"/>
<rect clip-path="url(#clipPath12)" x="194.44444444444446" y="111.11111111111111" width="27.77777777777777" height="27.77777777777777" fill="#ff7f7f" opacity="1.0" stroke="none"/>
<rect clip-path="url(#clipPath12)" x="166.66666666666669" y="138.88888888888889" width="27.77777777777777" height="27.7777777777778" fill="#ff7f7f" opacity="1.0" stroke="none"/>
<rect clip-path="url(#clipPath12)" x="194.44444444444446" y="138.88888888888889" width="27.77777777777777" height="27.7777777777778" fill="#ff7f7f" opacity="1.0" stroke="none"/>
<clipPath id="clipPath13">
    <path d="M 222.22222222222223,166.66666666666669 L 222.22222222222223,111.11111111111111 L 277.77777777777777,111.11111111111111 L 277.77777777777777,166.66666666666669 L 222.22222222222223,166.66666666666669 "/>
</clipPath>
<rect clip-path="url(#clipPath13)" x="222.22222222222223" y="111.11111111111111" width="27.77777777777777" height="27.77777777777777" fill="#7396ff" opacity="1.0" stroke="none"/>
<rect clip-path="url(#clipPath13)" x="250.0" y="111.11111111111111" width="27.77777777777777" height="27.77777777777777" fill="#7396ff" opacity="1.0" stroke="none"/>
<rect clip-path="url(#clipPath13)" x="222.22222222222223" y="138.88888888888889" width="27.77777777777777" height="27.7777777777778" fill="#7396ff" opacity="1.0" stroke="none"/>
<rect clip-path="url(#clipPath13)" x="250.0" y="138.88888888888889" width="27.77777777777777" height="27.7777777777778" fill="#7396ff" opacity="1.0" stroke="none"/>
<clipPath id="clipPath14">
    <path d="M 277.77777777777777,166.66666666666669 L 277.77777777777777,111.11111111111111 L 333.33333333333337,111.11111111111111 L 333.33333333333337,166.66666666666669 L 277.77777777777777,166.66666666666669 "/>
</clipPath>
<rect clip-path="url(#clipPath14)" x="277.77777777777777" y="111.11111111111111" width="27.77777777777777" height="27.77777777777777" fill="#ff7f7f" opacity="1.0" stroke="none"/>
<rect clip-path="url(#clipPath14)" x="305.55555555555554" y="111.11111111111111" width="27.77777777777783" height="27.77777777777777" fill="#ff7f7f" opacity="1.0" stroke="none"/>
<rect clip-path="url(#clipPath14)" x="277.77777777777777" y="138.88888888888889" width="27.77777777777777" height="27.7777777777778" fill="#ff7f7f" opacity="1.0" stroke="none"/>
<rect clip-path="url(#clipPath14)" x="305.55555555555554" y="138.88888888888889" width="27.77777777777783" height="27.7777777777778" fill="#ff7f7f" opacity="1.0" stroke="none"/>
<clipPath id="clipPath15">
    <path d="M 333.33333333333337,166.66666666666669 L 333.33333333333337,111.11111111111111 L 388.8888888888889,111.11111111111111 L 388.8888888888889,166.66666666666669 L 333.33333333333337,166.66666666666669 "/>
</clipPath>
<rect clip-path="url(#clipPath15)" x="333.33333333333337" y="111.11111111111111" width="27.77777777777777" height="27.77777777777777" fill="#7396ff" opacity="1.0" stroke="none"/>
<rect clip-path="url(#clipPath15)" x="361.11111111111114" y="111.11111111111111" width="27.77777777777777" height="27.77777777777777" fill="#7396ff" opacity="1.0" stroke="none"/>
<rect clip-path="url(#clipPath15)" x="333.33333333333337" y="138.88888888888889" width="27.77777777777777" height="27.7777777777778" fill="#7396ff" opacity="1.0" stroke="none"/>
<rect clip-path="url(#clipPath15)" x="361.11111111111114" y="138.88888888888889" width="27.77777777777777" height="27.7777777777778" fill="#7396ff" opacity="1.0" stroke="none"/>
<clipPath id="clipPath16">
    <path d="M 55.55555555555556,222.22222222222223 L 55.55555555555556,166.66666666666669 L 111.11111111111111,166.66666666666669 L 111.11111111111111,222.22222222222223 L 55.55555555555556,222.22222222222223 "/>
</clipPath>
<rect clip-path="url(#clipPath16)" x="55.55555555555556" y="166.66666666666669" width="27.777777777777786" height="27.77777777777777" fill="#7396ff" opacity="1.0" stroke="none"/>
<rect clip-path="url(#clipPath16)" x="83.33333333333334" y="166.66666666666669" width="27.77777777777777" height="27.77777777777777" fill="#7396ff" opacity="1.0" stroke="none"/>
<rect clip-path="url(#clipPath16)" x="55.55555555555556" y="194.44444444444446" width="27.777777777777786" height="27.77777777777777" fill="#7396ff" opacity="1.0" stroke="none"/>
<rect clip-path="url(#clipPath16)" x="83.33333333333334" y="194.44444444444446" width="27.77777777777777" height="27.77777777777777" fill="#7396ff" opacity="1.0" stroke="none"/>
<clipPath id="clipPath17">
    <path d="M 111.11111111111111,222.22222222222223 L 111.11111111111111,166.66666666666669 L 166.66666666666669,166.66666666666669 L 166.66666666666669,222.22222222222223 L 111.11111111111111,222.22222222222223 "/>
</clipPath>
<rect clip-path="url(#clipPath17)" x="111.11111111111111" y="166.66666666666669" width="27.77777777777777" height="27.77777777777777" fill="#ff7f7f" opacity="1.0" stroke="none"/>
<rect clip-path="url(#clipPath17)" x="138.88888888888889" y="166.66666666666669" width="27.7777777777778" height="27.77777777777777" fill="#ff7f7f" opacity="1.0" stroke="none"/>
<rect clip-path="url(#clipPath17)" x="111.11111111111111" y="194.44444444444446" width="27.77777777777777" height="27.77777777777777" fill="#ff7f7f" opacity="1.0" stroke="none"/>
<rect clip-path="url(#clipPath17)" x="138.88888888888889" y="194.44444444444446" width="27.7777777777778" height="27.77777777777777" fill="#ff7f7f" opacity="1.0" stroke="none"/>
<clipPath id="clipPath18">
    <path d="M 166.66666666666669,222.22222222222223 L 166.66666666666669,166.66666666666669 L 222.22222222222223,166.66666666666669 L 222.22222222222223,222.22222222222223 L 166.66666666666669,222.22222222222223 "/>
</clipPath>
<rect clip-path="url(#clipPath18)" x="166.66666666666669" y="166.66666666666669" width="27.77777777777777" height="27.77777777777777" fill="#7396ff" opacity="1.0" stroke="none"/>
<rect clip-path="url(#clipPath18)" x="194.44444444444446" y="166.66666666666669" width="27.77777777777777" height="27.77777777777777" fill="#7396ff" opacity="1.0" stroke="none"/>
<rect clip-path="url(#clipPath18)" x="166.66666666666669" y="194.44444444444446" width="27.77777777777777" height="27.77777777777777" fill="#7396ff" opacity="1.0" stroke="none"/>
<rect clip-path="url(#clipPath18)" x="194.44444444444446" y="194.44444444444446" width="27.77777777777777" height="27.77777777777777" fill="#7396ff" opacity="1.0" stroke="none"/>
<clipPath id="clipPath19">
    <path d="M 222.22222222222223,222.22222222222223 L 222.22222222222223,166.66666666666669 L 277.77777777777777,166.66666666666669 L 277.77777777777777,222.22222222222223 L 222.22222222222223,222.22222222222223 "/>
</clipPath>
<rect clip-path="url(#clipPath19)" x="222.22222222222223" y="166.66666666666669" width="27.77777777777777" height="27.77777777777777" fill="#ff7f7f" opacity="1.0" stroke="none"/>
<rect clip-path="url(#clipPath19)" x="250.0" y="166.66666666666669" width="27.77777777777777" height="27.77777777777777" fill="#ff7f7f" opacity="1.0" stroke="none"/>
<rect clip-path="url(#clipPath19)" x="222.22222222222223" y="194.44444444444446" width="27.77777777777777" height="27.77777777777777" fill="#ff7f7f" opacity="1.0" stroke="none"/>
<rect clip-path="url(#clipPath19)" x="250.0" y="194.44444444444446" width="27.77777777777777" height="27.77777777777777" fill="#ff7f7f" opacity="1.0" stroke="none"/>
<clipPath id="clipPath20">
    <path d="M 277.77777777777777,222.22222222222223 L 277.77777777777777,166.66666666666669 L 333.33333333333337,166.66666666666669 L 333.33333333333337,222.22222222222223 L 277.77777777777777,222.22222222222223 "/>
</clipPath>
<rect clip-path="url(#clipPath20)" x="277.77777777777777" y="166.66666666666669" width="27.77777777777777" height="27.77777777777777" fill="#7396ff" opacity="1.0" stroke="none"/>
<rect clip-path="url(#clipPath20)" x="305.55555555555554" y="166.66666666666669" width="27.77777777777783" height="27.77777777777777" fill="#7396ff" opacity="1.0" stroke="none"/>
<rect clip-path="url(#clipPath20)" x="277.77777777777777" y="194.44444444444446" width="27.77777777777777" height="27.77777777777777" fill="#7396ff" opacity="1.0" stroke="none"/>
<rect clip-path="url(#clipPath20)" x="305.55555555555554" y="194.44444444444446" width="27.77777777777783" height="27.77777777777777" fill="#7396ff" opacity="1.0" stroke="none"/>
<clipPath id="clipPath21">
    <path d="M 333.33333333333337,222.22222222222223 L 333.33333333333337,166.66666666666669 L 388.8888888888889,166.66666666666669 L 388.8888888888889,222.22222222222223 L 333.33333333333337,222.22222222222223 "/>
</clipPath>
<rect clip-path="url(#clipPath21)" x="333.33333333333337" y="166.66666666666669" width="27.77777777777777" height="27.77777777777777" fill="#ff7f7f" opacity="1.0" stroke="none"/>
<rect clip-path="url(#clipPath21)" x="361.11111111111114" y="166.66666666666669" width="27.77777777777777" height="27.77777777777777" fill="#ff7f7f" opacity="1.0" stroke="none"/>
<rect clip-path="url(#clipPath21)" x="333.33333333333337" y="194.44444444444446" width="27.77777777777777" height="27.77777777777777" fill="#ff7f7f" opacity="1.0" stroke="none"/>
<rect clip-path="url(#clipPath21)" x="361.11111111111114" y="194.44444444444446" width="27.77777777777777" height="27.77777777777777" fill="#ff7f7f" opacity="1.0" stroke="none"/>
<clipPath id="clipPath22">
    <path d="M 55.55555555555556,222.22222222222223 a 1,1 0 0,0 0.0,55.55555555555556 L 55.55555555555556,222.22222222222223"/>
</clipPath>
<rect clip-path="url(#clipPath22)" x="27.77777777777778" y="222.22222222222223" width="27.77777777777778" height="27.77777777777777" fill="#7396ff" opacity="1.0" stroke="none"/>
<rect clip-path="url(#clipPath22)" x="27.77777777777778" y="250.0" width="27.77777777777778" height="27.77777777777777" fill="#7396ff" opacity="1.0" stroke="none"/>
<clipPath id="clipPath23">
    <path d="M 55.55555555555556,277.77777777777777 L 55.55555555555556,222.22222222222223 L 111.11111111111111,222.22222222222223 L 111.11111111111111,277.77777777777777 L 55.55555555555556,277.77777777777777 "/>
</clipPath>
<rect clip-path="url(#clipPath23)" x="55.55555555555556" y="222.22222222222223" width="27.777777777777786" height="27.77777777777777" fill="#ff7f7f" opacity="1.0" stroke="none"/>
<rect clip-path="url(#clipPath23)" x="83.33333333333334" y="222.22222222222223" width="27.77777777777777" height="27.77777777777777" fill="#ff7f7f" opacity="1.0" stroke="none"/>
<rect clip-path="url(#clipPath23)" x="55.55555555555556" y="250.0" width="27.777777777777786" height="27.77777777777777" fill="#ff7f7f" opacity="1.0" stroke="none"/>
<rect clip-path="url(#clipPath23)" x="83.33333333333334" y="250.0" width="27.77777777777777" height="27.77777777777777" fill="#ff7f7f" opacity="1.0" stroke="none"/>
<clipPath id="clipPath24">
    <path d="M 111.11111111111111,277.77777777777777 L 111.11111111111111,222.22222222222223 L 166.66666666666669,222.22222222222223 L 166.66666666666669,277.77777777777777 L 111.11111111111111,277.77777777777777 "/>
</clipPath>
<rect clip-path="url(#clipPath24)" x="111.11111111111111" y="222.22222222222223" width="27.77777777777777" height="27.77777777777777" fill="#7396ff" opacity="1.0" stroke="none"/>
<rect clip-path="url(#clipPath24)" x="138.88888888888889" y="222.22222222222223" width="27.7777777777778" height="27.77777777777777" fill="#7396ff" opacity="1.0" stroke="none"/>
<rect clip-path="url(#clipPath24)" x="111.11111111111111" y="250.0" width="27.77777777777777" height="27.77777777777777" fill="#7396ff" opacity="1.0" stroke="none"/>
<rect clip-path="url(#clipPath24)" x="138.88888888888889" y="250.0" width="27.7777777777778" height="27.77777777777777" fill="#7396ff" opacity="1.0" stroke="none"/>
<clipPath id="clipPath25">
    <path d="M 166.66666666666669,277.77777777777777 L 166.66666666666669,222.22222222222223 L 222.22222222222223,222.22222222222223 L 222.22222222222223,277.77777777777777 L 166.66666666666669,277.77777777777777 "/>
</clipPath>
<rect clip-path="url(#clipPath25)" x="166.66666666666669" y="222.22222222222223" width="27.77777777777777" height="27.77777777777777" fill="#ff7f7f" opacity="1.0" stroke="none"/>
<rect clip-path="url(#clipPath25)" x="194.44444444444446" y="222.22222222222223" width="27.77777777777777" height="27.77777777777777" fill="#ff7f7f" opacity="1.0" stroke="none"/>
<rect clip-path="url(#clipPath25)" x="166.66666666666669" y="250.0" width="27.77777777777777" height="27.77777777777777" fill="#ff7f7f" opacity="1.0" stroke="none"/>
<rect clip-path="url(#clipPath25)" x="194.44444444444446" y="250.0" width="27.77777777777777" height="27.77777777777777" fill="#ff7f7f" opacity="1.0" stroke="none"/>
<clipPath id="clipPath26">
    <path d="M 222.22222222222223,277.77777777777777 L 222.22222222222223,222.22222222222223 L 277.77777777777777,222.22222222222223 L 277.77777777777777,277.77777777777777 L 222.22222222222223,277.77777777777777 "/>
</clipPath>
<rect clip-path="url(#clipPath26)" x="222.22222222222223" y="222.22222222222223" width="27.77777777777777" height="27.77777777777777" fill="#7396ff" opacity="1.0" stroke="none"/>
<rect clip-path="url(#clipPath26)" x="250.0" y="222.22222222222223" width="27.77777777777777" height="27.77777777777777" fill="#7396ff" opacity="1.0" stroke="none"/>
<rect clip-path="url(#clipPath26)" x="222.22222222222223" y="250.0" width="27.77777777777777" height="27.77777777777777" fill="#7396ff" opacity="1.0" stroke="none"/>
<rect clip-path="url(#clipPath26)" x="250.0" y="250.0" width="27.77777777777777" height="27.77777777777777" fill="#7396ff" opacity="1.0" stroke="none"/>
<clipPath id="clipPath27">
    <path d="M 277.77777777777777,277.77777777777777 L 277.77777777777777,222.22222222222223 L 333.33333333333337,222.22222222222223 L 333.33333333333337,277.77777777777777 L 277.77777777777777,277.77777777777777 "/>
</clipPath>
<rect clip-path="url(#clipPath27)" x="277.77777777777777" y="222.22222222222223" width="27.77777777777777" height="27.77777777777777" fill="#ff7f7f" opacity="1.0" stroke="none"/>
<rect clip-path="url(#clipPath27)" x="305.55555555555554" y="222.22222222222223" width="27.77777777777783" height="27.77777777777777" fill="#ff7f7f" opacity="1.0" stroke="none"/>
<rect clip-path="url(#clipPath27)" x="277.77777777777777" y="250.0" width="27.77777777777777" height="27.77777777777777" fill="#ff7f7f" opacity="1.0" stroke="none"/>
<rect clip-path="url(#clipPath27)" x="305.55555555555554" y="250.0" width="27.77777777777783" height="27.77777777777777" fill="#ff7f7f" opacity="1.0" stroke="none"/>
<clipPath id="clipPath28">
    <path d="M 333.33333333333337,277.77777777777777 L 333.33333333333337,222.22222222222223 L 388.8888888888889,222.22222222222223 L 388.8888888888889,277.77777777777777 L 333.33333333333337,277.77777777777777 "/>
</clipPath>
<rect clip-path="url(#clipPath28)" x="333.33333333333337" y="222.22222222222223" width="27.77777777777777" height="27.77777777777777" fill="#7396ff" opacity="1.0" stroke="none"/>
<rect clip-path="url(#clipPath28)" x="361.11111111111114" y="222.22222222222223" width="27.77777777777777" height="27.77777777777777" fill="#7396ff" opacity="1.0" stroke="none"/>
<rect clip-path="url(#clipPath28)" x="333.33333333333337" y="250.0" width="27.77777777777777" height="27.77777777777777" fill="#7396ff" opacity="1.0" stroke="none"/>
<rect clip-path="url(#clipPath28)" x="361.11111111111114" y="250.0" width="27.77777777777777" height="27.77777777777777" fill="#7396ff" opacity="1.0" stroke="none"/>
<clipPath id="clipPath29">
    <path d="M 55.55555555555556,333.33333333333337 L 55.55555555555556,277.77777777777777 L 111.11111111111111,277.77777777777777 L 111.11111111111111,333.33333333333337 L 55.55555555555556,333.33333333333337 "/>
</clipPath>
<rect clip-path="url(#clipPath29)" x="55.55555555555556" y="277.77777777777777" width="27.777777777777786" height="27.77777777777777" fill="#7396ff" opacity="1.0" stroke="none"/>
<rect clip-path="url(#clipPath29)" x="83.33333333333334" y="277.77777777777777" width="27.77777777777777" height="27.77777777777777" fill="#7396ff" opacity="1.0" stroke="none"/>
<rect clip-path="url(#clipPath29)" x="55.55555555555556" y="305.55555555555554" width="27.777777777777786" height="27.77777777777783" fill="#7396ff" opacity="1.0" stroke="none"/>
<rect clip-path="url(#clipPath29)" x="83.33333333333334" y="305.55555555555554" width="27.77777777777777" height="27.77777777777783" fill="#7396ff" opacity="1.0" stroke="none"/>
<clipPath id="clipPath30">
    <path d="M 111.11111111111111,333.33333333333337 L 111.11111111111111,277.77777777777777 L 166.66666666666669,277.77777777777777 L 166.66666666666669,333.33333333333337 L 111.11111111111111,333.33333333333337 "/>
</clipPath>
<rect clip-path="url(#clipPath30)" x="111.11111111111111" y="277.77777777777777" width="27.77777777777777" height="27.77777777777777" fill="#ff7f7f" opacity="1.0" stroke="none"/>
<rect clip-path="url(#clipPath30)" x="138.88888888888889" y="277.77777777777777" width="27.7777777777778" height="27.77777777777777" fill="#ff7f7f" opacity="1.0" stroke="none"/>
<rect clip-path="url(#clipPath30)" x="111.11111111111111" y="305.55555555555554" width="27.77777777777777" height="27.77777777777783" fill="#ff7f7f" opacity="1.0" stroke="none"/>
<rect clip-path="url(#clipPath30)" x="138.88888888888889" y="305.55555555555554" width="27.7777777777778" height="27.77777777777783" fill="#ff7f7f" opacity="1.0" stroke="none"/>
<clipPath id="clipPath31">
    <path d="M 166.66666666666669,333.33333333333337 L 166.66666666666669,277.77777777777777 L 222.22222222222223,277.77777777777777 L 222.22222222222223,333.33333333333337 L 166.66666666666669,333.33333333333337 "/>
</clipPath>
<rect clip-path="url(#clipPath31)" x="166.66666666666669" y="277.77777777777777" width="27.77777777777777" height="27.77777777777777" fill="#7396ff" opacity="1.0" stroke="none"/>
<rect clip-path="url(#clipPath31)" x="194.44444444444446" y="277.77777777777777" width="27.77777777777777" height="27.77777777777777" fill="#7396ff" opacity="1.0" stroke="none"/>
<rect clip-path="url(#clipPath31)" x="166.66666666666669" y="305.55555555555554" width="27.77777777777777" height="27.77777777777783" fill="#7396ff" opacity="1.0" stroke="none"/>
<rect clip-path="url(#clipPath31)" x="194.44444444444446" y="305.55555555555554" width="27.77777777777777" height="27.77777777777783" fill="#7396ff" opacity="1.0" stroke="none"/>
<clipPath id="clipPath32">
    <path d="M 222.22222222222223,333.33333333333337 L 222.22222222222223,277.77777777777777 L 277.77777777777777,277.77777777777777 L 277.77777777777777,333.33333333333337 L 222.22222222222223,333.33333333333337 "/>
</clipPath>
<rect clip-path="url(#clipPath32)" x="222.22222222222223" y="277.77777777777777" width="27.77777777777777" height="27.77777777777777" fill="#ff7f7f" opacity="1.0" stroke="none"/>
<rect clip-path="url(#clipPath32)" x="250.0" y="277.77777777777777" width="27.77777777777777" height="27.77777777777777" fill="#ff7f7f" opacity="1.0" stroke="none"/>
<rect clip-path="url(#clipPath32)" x="222.22222222222223" y="305.55555555555554" width="27.77777777777777" height="27.77777777777783" fill="#ff7f7f" opacity="1.0" stroke="none"/>
<rect clip-path="url(#clipPath32)" x="250.0" y="305.55555555555554" width="27.77777777777777" height="27.77777777777783" fill="#ff7f7f" opacity="1.0" stroke="none"/>
<clipPath id="clipPath33">
    <path d="M 277.77777777777777,333.33333333333337 L 277.77777777777777,277.77777777777777 L 333.33333333333337,277.77777777777777 L 333.33333333333337,333.33333333333337 L 277.77777777777777,333.33333333333337 "/>
</clipPath>
<rect clip-path="url(#clipPath33)" x="277.77777777777777" y="277.77777777777777" width="27.77777777777777" height="27.77777777777777" fill="#7396ff" opacity="1.0" stroke="none"/>
<rect clip-path="url(#clipPath33)" x="305.55555555555554" y="277.77777777777777" width="27.77777777777783" height="27.77777777777777" fill="#7396ff" opacity="1.0" stroke="none"/>
<rect clip-path="url(#clipPath33)" x="277.77777777777777" y="305.55555555555554" width="27.77777777777777" height="27.77777777777783" fill="#7396ff" opacity="1.0" stroke="none"/>
<rect clip-path="url(#clipPath33)" x="305.55555555555554" y="305.55555555555554" width="27.77777777777783" height="27.77777777777783" fill="#7396ff" opacity="1.0" stroke="none"/>
<clipPath id="clipPath34">
    <path d="M 333.33333333333337,333.33333333333337 L 333.33333333333337,277.77777777777777 L 388.8888888888889,277.77777777777777 L 388.8888888888889,333.33333333333337 L 333.33333333333337,333.33333333333337 "/>
</clipPath>
<rect clip-path="url(#clipPath34)" x="333.33333333333337" y="277.77777777777777" width="27.77777777777777" height="27.77777777777777" fill="#ff7f7f" opacity="1.0" stroke="none"/>
<rect clip-path="url(#clipPath34)" x="361.11111111111114" y="277.77777777777777" width="27.77777777777777" height="27.77777777777777" fill="#ff7f7f" opacity="1.0" stroke="none"/>
<rect clip-path="url(#clipPath34)" x="333.33333333333337" y="305.55555555555554" width="27.77777777777777" height="27.77777777777783" fill="#ff7f7f" opacity="1.0" stroke="none"/>
<rect clip-path="url(#clipPath34)" x="361.11111111111114" y="305.55555555555554" width="27.77777777777777" height="27.77777777777783" fill="#ff7f7f" opacity="1.0" stroke="none"/>
<clipPath id="clipPath35">
    <path d="M 55.55555555555556,333.33333333333337 a 1,1 0 0,0 0.0,55.55555555555556 L 55.55555555555556,333.33333333333337"/>
</clipPath>
<rect clip-path="url(#clipPath35)" x="27.77777777777778" y="333.33333333333337" width="27.77777777777778" height="27.77777777777777" fill="#7396ff" opacity="1.0" stroke="none"/>
<rect clip-path="url(#clipPath35)" x="27.77777777777778" y="361.11111111111114" width="27.77777777777778" height="27.77777777777777" fill="#7396ff" opacity="1.0" stroke="none"/>
<clipPath id="clipPath36">
    <path d="M 55.55555555555556,388.8888888888889 L 55.55555555555556,333.33333333333337 L 111.11111111111111,333.33333333333337 L 111.11111111111111,388.8888888888889 L 55.55555555555556,388.8888888888889 "/>
</clipPath>
<rect clip-path="url(#clipPath36)" x="55.55555555555556" y="333.33333333333337" width="27.777777777777786" height="27.77777777777777" fill="#ff7f7f" opacity="1.0" stroke="none"/>
<rect clip-path="url(#clipPath36)" x="83.33333333333334" y="333.33333333333337" width="27.77777777777777" height="27.77777777777777" fill="#ff7f7f" opacity="1.0" stroke="none"/>
<rect clip-path="url(#clipPath36)" x="55.55555555555556" y="361.11111111111114" width="27.777777777777786" height="27.77777777777777" fill="#ff7f7f" opacity="1.0" stroke="none"/>
<rect clip-path="url(#clipPath36)" x="83.33333333333334" y="361.11111111111114" width="27.77777777777777" height="27.77777777777777" fill="#ff7f7f" opacity="1.0" stroke="none"/>
<clipPath id="clipPath37">
    <path d="M 111.11111111111111,388.8888888888889 L 111.11111111111111,333.33333333333337 L 166.66666666666669,333.33333333333337 L 166.66666666666669,388.8888888888889 L 111.11111111111111,388.8888888888889 "/>
</clipPath>
<rect clip-path="url(#clipPath37)" x="111.11111111111111" y="333.33333333333337" width="27.77777777777777" height="27.77777777777777" fill="#7396ff" opacity="1.0" stroke="none"/>
<rect clip-path="url(#clipPath37)" x="138.88888888888889" y="333.33333333333337" width="27.7777777777778" height="27.77777777777777" fill="#7396ff" opacity="1.0" stroke="none"/>
<rect clip-path="url(#clipPath37)" x="111.11111111111111" y="361.11111111111114" width="27.77777777777777" height="27.77777777777777" fill="#7396ff" opacity="1.0" stroke="none"/>
<rect clip-path="url(#clipPath37)" x="138.88888888888889" y="361.11111111111114" width="27.7777777777778" height="27.77777777777777" fill="#7396ff" opacity="1.0" stroke="none"/>
<clipPath id="clipPath38">
    <path d="M 166.66666666666669,388.8888888888889 L 166.66666666666669,333.33333333333337 L 222.22222222222223,333.33333333333337 L 222.22222222222223,388.8888888888889 L 166.66666666666669,388.8888888888889 "/>
</clipPath>
<rect clip-path="url(#clipPath38)" x="166.66666666666669" y="333.33333333333337" width="27.77777777777777" height="27.77777777777777" fill="#ff7f7f" opacity="1.0" stroke="none"/>
<rect clip-path="url(#clipPath38)" x="194.44444444444446" y="333.33333333333337" width="27.77777777777777" height="27.77777777777777" fill="#ff7f7f" opacity="1.0" stroke="none"/>
<rect clip-path="url(#clipPath38)" x="166.66666666666669" y="361.11111111111114" width="27.77777777777777" height="27.77777777777777" fill="#ff7f7f" opacity="1.0" stroke="none"/>
<rect clip-path="url(#clipPath38)" x="194.44444444444446" y="361.11111111111114" width="27.77777777777777" height="27.77777777777777" fill="#ff7f7f" opacity="1.0" stroke="none"/>
<clipPath id="clipPath39">
    <path d="M 222.22222222222223,388.8888888888889 L 222.22222222222223,333.33333333333337 L 277.77777777777777,333.33333333333337 L 277.77777777777777,388.8888888888889 L 222.22222222222223,388.8888888888889 "/>
</clipPath>
<rect clip-path="url(#clipPath39)" x="222.22222222222223" y="333.33333333333337" width="27.77777777777777" height="27.77777777777777" fill="#7396ff" opacity="1.0" stroke="none"/>
<rect clip-path="url(#clipPath39)" x="250.0" y="333.33333333333337" width="27.77777777777777" height="27.77777777777777" fill="#7396ff" opacity="1.0" stroke="none"/>
<rect clip-path="url(#clipPath39)" x="222.22222222222223" y="361.11111111111114" width="27.77777777777777" height="27.77777777777777" fill="#7396ff" opacity="1.0" stroke="none"/>
<rect clip-path="url(#clipPath39)" x="250.0" y="361.11111111111114" width="27.77777777777777" height="27.77777777777777" fill="#7396ff" opacity="1.0" stroke="none"/>
<clipPath id="clipPath40">
    <path d="M 277.77777777777777,388.8888888888889 L 277.77777777777777,333.33333333333337 L 333.33333333333337,333.33333333333337 L 333.33333333333337,388.8888888888889 L 277.77777777777777,388.8888888888889 "/>
</clipPath>
<rect clip-path="url(#clipPath40)" x="277.77777777777777" y="333.33333333333337" width="27.77777777777777" height="27.77777777777777" fill="#ff7f7f" opacity="1.0" stroke="none"/>
<rect clip-path="url(#clipPath40)" x="305.55555555555554" y="333.33333333333337" width="27.77777777777783" height="27.77777777777777" fill="#ff7f7f" opacity="1.0" stroke="none"/>
<rect clip-path="url(#clipPath40)" x="277.77777777777777" y="361.11111111111114" width="27.77777777777777" height="27.77777777777777" fill="#ff7f7f" opacity="1.0" stroke="none"/>
<rect clip-path="url(#clipPath40)" x="305.55555555555554" y="361.11111111111114" width="27.77777777777783" height="27.77777777777777" fill="#ff7f7f" opacity="1.0" stroke="none"/>
<clipPath id="clipPath41">
    <path d="M 333.33333333333337,388.8888888888889 L 333.33333333333337,333.33333333333337 L 388.8888888888889,333.33333333333337 L 388.8888888888889,388.8888888888889 L 333.33333333333337,388.8888888888889 "/>
</clipPath>
<rect clip-path="url(#clipPath41)" x="333.33333333333337" y="333.33333333333337" width="27.77777777777777" height="27.77777777777777" fill="#7396ff" opacity="1.0" stroke="none"/>
<rect clip-path="url(#clipPath41)" x="361.11111111111114" y="333.33333333333337" width="27.77777777777777" height="27.77777777777777" fill="#7396ff" opacity="1.0" stroke="none"/>
<rect clip-path="url(#clipPath41)" x="333.33333333333337" y="361.11111111111114" width="27.77777777777777" height="27.77777777777777" fill="#7396ff" opacity="1.0" stroke="none"/>
<rect clip-path="url(#clipPath41)" x="361.11111111111114" y="361.11111111111114" width="27.77777777777777" height="27.77777777777777" fill="#7396ff" opacity="1.0" stroke="none"/>
<clipPath id="clipPath42">
    <path d="M 388.8888888888889,444.44444444444446 L 388.8888888888889,388.8888888888889 L 444.44444444444446,388.8888888888889 L 444.44444444444446,400.0 L 400.0,444.44444444444446 L 388.8888888888889,444.44444444444446 "/>
</clipPath>
<rect clip-path="url(#clipPath42)" x="388.8888888888889" y="388.8888888888889" width="27.77777777777777" height="27.77777777777777" fill="#7396ff" opacity="1.0" stroke="none"/>
<rect clip-path="url(#clipPath42)" x="416.6666666666667" y="388.8888888888889" width="27.77777777777777" height="27.77777777777777" fill="#7396ff" opacity="1.0" stroke="none"/>
<rect clip-path="url(#clipPath42)" x="388.8888888888889" y="416.6666666666667" width="27.77777777777777" height="27.77777777777777" fill="#7396ff" opacity="1.0" stroke="none"/>
<path d="M 166.66666666666669,55.55555555555556 a 1,1 0 0,0 -55.55555555555556,0.0 L 166.66666666666669,55.55555555555556" fill="none" stroke="black" stroke-width="1.388888888888889"/>
<path d="M 277.77777777777777,55.55555555555556 a 1,1 0 0,0 -55.55555555555556,0.0 L 277.77777777777777,55.55555555555556" fill="none" stroke="black" stroke-width="1.388888888888889"/>
<path d="M 388.8888888888889,55.55555555555556 a 1,1 0 0,0 -55.55555555555556,0.0 L 388.8888888888889,55.55555555555556" fill="none" stroke="black" stroke-width="1.388888888888889"/>
<path d="M 55.55555555555556,100.0 L 100.0,55.55555555555556 L 111.11111111111111,55.55555555555556 L 111.11111111111111,111.11111111111111 L 55.55555555555556,111.11111111111111 L 55.55555555555556,100.0 " fill="none" stroke="black" stroke-width="1.388888888888889"/>
<path d="M 111.11111111111111,111.11111111111111 L 111.11111111111111,55.55555555555556 L 166.66666666666669,55.55555555555556 L 166.66666666666669,111.11111111111111 L 111.11111111111111,111.11111111111111 " fill="none" stroke="black" stroke-width="1.388888888888889"/>
<path d="M 166.66666666666669,111.11111111111111 L 166.66666666666669,55.55555555555556 L 222.22222222222223,55.55555555555556 L 222.22222222222223,111.11111111111111 L 166.66666666666669,111.11111111111111 " fill="none" stroke="black" stroke-width="1.388888888888889"/>
<path d="M 222.22222222222223,111.11111111111111 L 222.22222222222223,55.55555555555556 L 277.77777777777777,55.55555555555556 L 277.77777777777777,111.11111111111111 L 222.22222222222223,111.11111111111111 " fill="none" stroke="black" stroke-width="1.388888888888889"/>
<path d="M 277.77777777777777,111.11111111111111 L 277.77777777777777,55.55555555555556 L 333.33333333333337,55.55555555555556 L 333.33333333333337,111.11111111111111 L 277.77777777777777,111.11111111111111 " fill="none" stroke="black" stroke-width="1.388888888888889"/>
<path d="M 333.33333333333337,111.11111111111111 L 333.33333333333337,55.55555555555556 L 388.8888888888889,55.55555555555556 L 388.8888888888889,111.11111111111111 L 333.33333333333337,111.11111111111111 " fill="none" stroke="black" stroke-width="1.388888888888889"/>
<path d="M 55.55555555555556,111.11111111111111 a 1,1 0 0,0 0.0,55.55555555555556 L 55.55555555555556,111.11111111111111" fill="none" stroke="black" stroke-width="1.388888888888889"/>
<path d="M 55.55555555555556,166.66666666666669 L 55.55555555555556,111.11111111111111 L 111.11111111111111,111.11111111111111 L 111.11111111111111,166.66666666666669 L 55.55555555555556,166.66666666666669 " fill="none" stroke="black" stroke-width="1.388888888888889"/>
<path d="M 111.11111111111111,166.66666666666669 L 111.11111111111111,111.11111111111111 L 166.66666666666669,111.11111111111111 L 166.66666666666669,166.66666666666669 L 111.11111111111111,166.66666666666669 " fill="none" stroke="black" stroke-width="1.388888888888889"/>
<path d="M 166.66666666666669,166.66666666666669 L 166.66666666666669,111.11111111111111 L 222.22222222222223,111.11111111111111 L 222.22222222222223,166.66666666666669 L 166.66666666666669,166.66666666666669 " fill="none" stroke="black" stroke-width="1.388888888888889"/>
<path d="M 222.22222222222223,166.66666666666669 L 222.22222222222223,111.11111111111111 L 277.77777777777777,111.11111111111111 L 277.77777777777777,166.66666666666669 L 222.22222222222223,166.66666666666669 " fill="none" stroke="black" stroke-width="1.388888888888889"/>
<path d="M 277.77777777777777,166.66666666666669 L 277.77777777777777,111.11111111111111 L 333.33333333333337,111.11111111111111 L 333.33333333333337,166.66666666666669 L 277.77777777777777,166.66666666666669 " fill="none" stroke="black" stroke-width="1.388888888888889"/>
<path d="M 333.33333333333337,166.66666666666669 L 333.33333333333337,111.11111111111111 L 388.8888888888889,111.11111111111111 L 388.8888888888889,166.66666666666669 L 333.33333333333337,166.66666666666669 " fill="none" stroke="black" stroke-width="1.388888888888889"/>
<path d="M 55.55555555555556,222.22222222222223 L 55.55555555555556,166.66666666666669 L 111.11111111111111,166.66666666666669 L 111.11111111111111,222.22222222222223 L 55.55555555555556,222.22222222222223 " fill="none" stroke="black" stroke-width="1.388888888888889"/>
<path d="M 111.11111111111111,222.22222222222223 L 111.11111111111111,166.66666666666669 L 166.66666666666669,166.66666666666669 L 166.66666666666669,222.22222222222223 L 111.11111111111111,222.22222222222223 " fill="none" stroke="black" stroke-width="1.388888888888889"/>
<path d="M 166.66666666666669,222.22222222222223 L 166.66666666666669,166.66666666666669 L 222.22222222222223,166.66666666666669 L 222.22222222222223,222.22222222222223 L 166.66666666666669,222.22222222222223 " fill="none" stroke="black" stroke-width="1.388888888888889"/>
<path d="M 222.22222222222223,222.22222222222223 L 222.22222222222223,166.66666666666669 L 277.77777777777777,166.66666666666669 L 277.77777777777777,222.22222222222223 L 222.22222222222223,222.22222222222223 " fill="none" stroke="black" stroke-width="1.388888888888889"/>
<path d="M 277.77777777777777,222.22222222222223 L 277.77777777777777,166.66666666666669 L 333.33333333333337,166.66666666666669 L 333.33333333333337,222.22222222222223 L 277.77777777777777,222.22222222222223 " fill="none" stroke="black" stroke-width="1.388888888888889"/>
<path d="M 333.33333333333337,222.22222222222223 L 333.33333333333337,166.66666666666669 L 388.8888888888889,166.66666666666669 L 388.8888888888889,222.22222222222223 L 333.33333333333337,222.22222222222223 " fill="none" stroke="black" stroke-width="1.388888888888889"/>
<path d="M 55.55555555555556,222.22222222222223 a 1,1 0 0,0 0.0,55.55555555555556 L 55.55555555555556,222.22222222222223" fill="none" stroke="black" stroke-width="1.388888888888889"/>
<path d="M 55.55555555555556,277.77777777777777 L 55.55555555555556,222.22222222222223 L 111.11111111111111,222.22222222222223 L 111.11111111111111,277.77777777777777 L 55.55555555555556,277.77777777777777 " fill="none" stroke="black" stroke-width="1.388888888888889"/>
<path d="M 111.11111111111111,277.77777777777777 L 111.11111111111111,222.22222222222223 L 166.66666666666669,222.22222222222223 L 166.66666666666669,277.77777777777777 L 111.11111111111111,277.77777777777777 " fill="none" stroke="black" stroke-width="1.388888888888889"/>
<path d="M 166.66666666666669,277.77777777777777 L 166.66666666666669,222.22222222222223 L 222.22222222222223,222.22222222222223 L 222.22222222222223,277.77777777777777 L 166.66666666666669,277.77777777777777 " fill="none" stroke="black" stroke-width="1.388888888888889"/>
<path d="M 222.22222222222223,277.77777777777777 L 222.22222222222223,222.22222222222223 L 277.77777777777777,222.22222222222223 L 277.77777777777777,277.77777777777777 L 222.22222222222223,277.77777777777777 " fill="none" stroke="black" stroke-width="1.388888888888889"/>
<path d="M 277.77777777777777,277.77777777777777 L 277.77777777777777,222.22222222222223 L 333.33333333333337,222.22222222222223 L 333.33333333333337,277.77777777777777 L 277.77777777777777,277.77777777777777 " fill="none" stroke="black" stroke-width="1.388888888888889"/>
<path d="M 333.33333333333337,277.77777777777777 L 333.33333333333337,222.22222222222223 L 388.8888888888889,222.22222222222223 L 388.8888888888889,277.77777777777777 L 333.33333333333337,277.77777777777777 " fill="none" stroke="black" stroke-width="1.388888888888889"/>
<path d="M 55.55555555555556,333.33333333333337 L 55.55555555555556,277.77777777777777 L 111.11111111111111,277.77777777777777 L 111.11111111111111,333.33333333333337 L 55.55555555555556,333.33333333333337 " fill="none" stroke="black" stroke-width="1.388888888888889"/>
<path d="M 111.11111111111111,333.33333333333337 L 111.11111111111111,277.77777777777777 L 166.66666666666669,277.77777777777777 L 166.66666666666669,333.33333333333337 L 111.11111111111111,333.33333333333337 " fill="none" stroke="black" stroke-width="1.388888888888889"/>
<path d="M 166.66666666666669,333.33333333333337 L 166.66666666666669,277.77777777777777 L 222.22222222222223,277.77777777777777 L 222.22222222222223,333.33333333333337 L 166.66666666666669,333.33333333333337 " fill="none" stroke="black" stroke-width="1.388888888888889"/>
<path d="M 222.22222222222223,333.33333333333337 L 222.22222222222223,277.77777777777777 L 277.77777777777777,277.77777777777777 L 277.77777777777777,333.33333333333337 L 222.22222222222223,333.33333333333337 " fill="none" stroke="black" stroke-width="1.388888888888889"/>
<path d="M 277.77777777777777,333.33333333333337 L 277.77777777777777,277.77777777777777 L 333.33333333333337,277.77777777777777 L 333.33333333333337,333.33333333333337 L 277.77777777777777,333.33333333333337 " fill="none" stroke="black" stroke-width="1.388888888888889"/>
<path d="M 333.33333333333337,333.33333333333337 L 333.33333333333337,277.77777777777777 L 388.8888888888889,277.77777777777777 L 388.8888888888889,333.33333333333337 L 333.33333333333337,333.33333333333337 " fill="none" stroke="black" stroke-width="1.388888888888889"/>
<path d="M 55.55555555555556,333.33333333333337 a 1,1 0 0,0 0.0,55.55555555555556 L 55.55555555555556,333.33333333333337" fill="none" stroke="black" stroke-width="1.388888888888889"/>
<path d="M 55.55555555555556,388.8888888888889 L 55.55555555555556,333.33333333333337 L 111.11111111111111,333.33333333333337 L 111.11111111111111,388.8888888888889 L 55.55555555555556,388.8888888888889 " fill="none" stroke="black" stroke-width="1.388888888888889"/>
<path d="M 111.11111111111111,388.8888888888889 L 111.11111111111111,333.33333333333337 L 166.66666666666669,333.33333333333337 L 166.66666666666669,388.8888888888889 L 111.11111111111111,388.8888888888889 " fill="none" stroke="black" stroke-width="1.388888888888889"/>
<path d="M 166.66666666666669,388.8888888888889 L 166.66666666666669,333.33333333333337 L 222.22222222222223,333.33333333333337 L 222.22222222222223,388.8888888888889 L 166.66666666666669,388.8888888888889 " fill="none" stroke="black" stroke-width="1.388888888888889"/>
<path d="M 222.22222222222223,388.8888888888889 L 222.22222222222223,333.33333333333337 L 277.77777777777777,333.33333333333337 L 277.77777777777777,388.8888888888889 L 222.22222222222223,388.8888888888889 " fill="none" stroke="black" stroke-width="1.388888888888889"/>
<path d="M 277.77777777777777,388.8888888888889 L 277.77777777777777,333.33333333333337 L 333.33333333333337,333.33333333333337 L 333.33333333333337,388.8888888888889 L 277.77777777777777,388.8888888888889 " fill="none" stroke="black" stroke-width="1.388888888888889"/>
<path d="M 333.33333333333337,388.8888888888889 L 333.33333333333337,333.33333333333337 L 388.8888888888889,333.33333333333337 L 388.8888888888889,388.8888888888889 L 333.33333333333337,388.8888888888889 " fill="none" stroke="black" stroke-width="1.388888888888889"/>
<path d="M 388.8888888888889,444.44444444444446 L 388.8888888888889,388.8888888888889 L 444.44444444444446,388.8888888888889 L 444.44444444444446,400.0 L 400.0,444.44444444444446 L 388.8888888888889,444.44444444444446 " fill="none" stroke="black" stroke-width="1.388888888888889"/>
<text x="119.44444444444444" y="47.22222222222222" fill="black" font-size="11.111111111111112" text-anchor="middle" dominant-baseline="central">3</text>
<text x="158.33333333333331" y="47.22222222222222" fill="black" font-size="11.111111111111112" text-anchor="middle" dominant-baseline="central">5</text>
<text x="230.55555555555557" y="47.22222222222222" fill="black" font-size="11.111111111111112" text-anchor="middle" dominant-baseline="central">3</text>
<text x="269.44444444444446" y="47.22222222222222" fill="black" font-size="11.111111111111112" text-anchor="middle" dominant-baseline="central">5</text>
<text x="341.66666666666663" y="47.22222222222222" fill="black" font-size="11.111111111111112" text-anchor="middle" dominant-baseline="central">3</text>
<text x="380.55555555555554" y="47.22222222222222" fill="black" font-size="11.111111111111112" text-anchor="middle" dominant-baseline="central">5</text>
<text x="102.77777777777779" y="63.888888888888886" fill="black" font-size="11.111111111111112" text-anchor="middle" dominant-baseline="central">4</text>
<text x="63.888888888888886" y="102.77777777777779" fill="black" font-size="11.111111111111112" text-anchor="middle" dominant-baseline="central">3</text>
<text x="102.77777777777779" y="102.77777777777779" fill="black" font-size="11.111111111111112" text-anchor="middle" dominant-baseline="central">5</text>
<text x="119.44444444444444" y="63.888888888888886" fill="black" font-size="11.111111111111112" text-anchor="middle" dominant-baseline="central">1</text>
<text x="158.33333333333331" y="63.888888888888886" fill="black" font-size="11.111111111111112" text-anchor="middle" dominant-baseline="central">4</text>
<text x="119.44444444444444" y="102.77777777777779" fill="black" font-size="11.111111111111112" text-anchor="middle" dominant-baseline="central">3</text>
<text x="158.33333333333331" y="102.77777777777779" fill="black" font-size="11.111111111111112" text-anchor="middle" dominant-baseline="central">5</text>
<text x="175.0" y="63.888888888888886" fill="black" font-size="11.111111111111112" text-anchor="middle" dominant-baseline="central">1</text>
<text x="213.88888888888889" y="63.888888888888886" fill="black" font-size="11.111111111111112" text-anchor="middle" dominant-baseline="central">2</text>
<text x="175.0" y="102.77777777777779" fill="black" font-size="11.111111111111112" text-anchor="middle" dominant-baseline="central">3</text>
<text x="213.88888888888889" y="102.77777777777779" fill="black" font-size="11.111111111111112" text-anchor="middle" dominant-baseline="central">5</text>
<text x="230.55555555555557" y="63.888888888888886" fill="black" font-size="11.111111111111112" text-anchor="middle" dominant-baseline="central">1</text>
<text x="269.44444444444446" y="63.888888888888886" fill="black" font-size="11.111111111111112" text-anchor="middle" dominant-baseline="central">4</text>
<text x="230.55555555555557" y="102.77777777777779" fill="black" font-size="11.111111111111112" text-anchor="middle" dominant-baseline="central">3</text>
<text x="269.44444444444446" y="102.77777777777779" fill="black" font-size="11.111111111111112" text-anchor="middle" dominant-baseline="central">5</text>
<text x="286.11111111111114" y="63.888888888888886" fill="black" font-size="11.111111111111112" text-anchor="middle" dominant-baseline="central">1</text>
<text x="325.0" y="63.888888888888886" fill="black" font-size="11.111111111111112" text-anchor="middle" dominant-baseline="central">2</text>
<text x="286.11111111111114" y="102.77777777777779" fill="black" font-size="11.111111111111112" text-anchor="middle" dominant-baseline="central">3</text>
<text x="325.0" y="102.77777777777779" fill="black" font-size="11.111111111111112" text-anchor="middle" dominant-baseline="central">5</text>
<text x="341.66666666666663" y="63.888888888888886" fill="black" font-size="11.111111111111112" text-anchor="middle" dominant-baseline="central">1</text>
<text x="380.55555555555554" y="63.888888888888886" fill="black" font-size="11.111111111111112" text-anchor="middle" dominant-baseline="central">4</text>
<text x="341.66666666666663" y="102.77777777777779" fill="black" font-size="11.111111111111112" text-anchor="middle" dominant-baseline="central">3</text>
<text x="380.55555555555554" y="102.77777777777779" fill="black" font-size="11.111111111111112" text-anchor="middle" dominant-baseline="central">5</text>
<text x="47.22222222222222" y="119.44444444444444" fill="black" font-size="11.111111111111112" text-anchor="middle" dominant-baseline="central">2</text>
<text x="47.22222222222222" y="158.33333333333331" fill="black" font-size="11.111111111111112" text-anchor="middle" dominant-baseline="central">5</text>
<text x="63.888888888888886" y="119.44444444444444" fill="black" font-size="11.111111111111112" text-anchor="middle" dominant-baseline="central">1</text>
<text x="102.77777777777779" y="119.44444444444444" fill="black" font-size="11.111111111111112" text-anchor="middle" dominant-baseline="central">2</text>
<text x="63.888888888888886" y="158.33333333333331" fill="black" font-size="11.111111111111112" text-anchor="middle" dominant-baseline="central">3</text>
<text x="102.77777777777779" y="158.33333333333331" fill="black" font-size="11.111111111111112" text-anchor="middle" dominant-baseline="central">5</text>
<text x="119.44444444444444" y="119.44444444444444" fill="black" font-size="11.111111111111112" text-anchor="middle" dominant-baseline="central">1</text>
<text x="158.33333333333331" y="119.44444444444444" fill="black" font-size="11.111111111111112" text-anchor="middle" dominant-baseline="central">2</text>
<text x="119.44444444444444" y="158.33333333333331" fill="black" font-size="11.111111111111112" text-anchor="middle" dominant-baseline="central">3</text>
<text x="158.33333333333331" y="158.33333333333331" fill="black" font-size="11.111111111111112" text-anchor="middle" dominant-baseline="central">5</text>
<text x="175.0" y="119.44444444444444" fill="black" font-size="11.111111111111112" text-anchor="middle" dominant-baseline="central">1</text>
<text x="213.88888888888889" y="119.44444444444444" fill="black" font-size="11.111111111111112" text-anchor="middle" dominant-baseline="central">4</text>
<text x="175.0" y="158.33333333333331" fill="black" font-size="11.111111111111112" text-anchor="middle" dominant-baseline="central">3</text>
<text x="213.88888888888889" y="158.33333333333331" fill="black" font-size="11.111111111111112" text-anchor="middle" dominant-baseline="central">5</text>
<text x="230.55555555555557" y="119.44444444444444" fill="black" font-size="11.111111111111112" text-anchor="middle" dominant-baseline="central">1</text>
<text x="269.44444444444446" y="119.44444444444444" fill="black" font-size="11.111111111111112" text-anchor="middle" dominant-baseline="central">2</text>
<text x="230.55555555555557" y="158.33333333333331" fill="black" font-size="11.111111111111112" text-anchor="middle" dominant-baseline="central">3</text>
<text x="269.44444444444446" y="158.33333333333331" fill="black" font-size="11.111111111111112" text-anchor="middle" dominant-baseline="central">5</text>
<text x="286.11111111111114" y="119.44444444444444" fill="black" font-size="11.111111111111112" text-anchor="middle" dominant-baseline="central">1</text>
<text x="325.0" y="119.44444444444444" fill="black" font-size="11.111111111111112" text-anchor="middle" dominant-baseline="central">4</text>
<text x="286.11111111111114" y="158.33333333333331" fill="black" font-size="11.111111111111112" text-anchor="middle" dominant-baseline="central">3</text>
<text x="325.0" y="158.33333333333331" fill="black" font-size="11.111111111111112" text-anchor="middle" dominant-baseline="central">5</text>
<text x="341.66666666666663" y="119.44444444444444" fill="black" font-size="11.111111111111112" text-anchor="middle" dominant-baseline="central">1</text>
<text x="380.55555555555554" y="119.44444444444444" fill="black" font-size="11.111111111111112" text-anchor="middle" dominant-baseline="central">2</text>
<text x="341.66666666666663" y="158.33333333333331" fill="black" font-size="11.111111111111112" text-anchor="middle" dominant-baseline="central">3</text>
<text x="380.55555555555554" y="158.33333333333331" fill="black" font-size="11.111111111111112" text-anchor="middle" dominant-baseline="central">5</text>
<text x="63.888888888888886" y="175.0" fill="black" font-size="11.111111111111112" text-anchor="middle" dominant-baseline="central">1</text>
<text x="102.77777777777779" y="175.0" fill="black" font-size="11.111111111111112" text-anchor="middle" dominant-baseline="central">4</text>
<text x="63.888888888888886" y="213.88888888888889" fill="black" font-size="11.111111111111112" text-anchor="middle" dominant-baseline="central">3</text>
<text x="102.77777777777779" y="213.88888888888889" fill="black" font-size="11.111111111111112" text-anchor="middle" dominant-baseline="central">5</text>
<text x="119.44444444444444" y="175.0" fill="black" font-size="11.111111111111112" text-anchor="middle" dominant-baseline="central">1</text>
<text x="158.33333333333331" y="175.0" fill="black" font-size="11.111111111111112" text-anchor="middle" dominant-baseline="central">2</text>
<text x="119.44444444444444" y="213.88888888888889" fill="black" font-size="11.111111111111112" text-anchor="middle" dominant-baseline="central">3</text>
<text x="158.33333333333331" y="213.88888888888889" fill="black" font-size="11.111111111111112" text-anchor="middle" dominant-baseline="central">5</text>
<text x="175.0" y="175.0" fill="black" font-size="11.111111111111112" text-anchor="middle" dominant-baseline="central">1</text>
<text x="213.88888888888889" y="175.0" fill="black" font-size="11.111111111111112" text-anchor="middle" dominant-baseline="central">2</text>
<text x="175.0" y="213.88888888888889" fill="black" font-size="11.111111111111112" text-anchor="middle" dominant-baseline="central">3</text>
<text x="213.88888888888889" y="213.88888888888889" fill="black" font-size="11.111111111111112" text-anchor="middle" dominant-baseline="central">5</text>
<text x="230.55555555555557" y="175.0" fill="black" font-size="11.111111111111112" text-anchor="middle" dominant-baseline="central">1</text>
<text x="269.44444444444446" y="175.0" fill="black" font-size="11.111111111111112" text-anchor="middle" dominant-baseline="central">4</text>
<text x="230.55555555555557" y="213.88888888888889" fill="black" font-size="11.111111111111112" text-anchor="middle" dominant-baseline="central">3</text>
<text x="269.44444444444446" y="213.88888888888889" fill="black" font-size="11.111111111111112" text-anchor="middle" dominant-baseline="central">5</text>
<text x="286.11111111111114" y="175.0" fill="black" font-size="11.111111111111112" text-anchor="middle" dominant-baseline="central">1</text>
<text x="325.0" y="175.0" fill="black" font-size="11.111111111111112" text-anchor="middle" dominant-baseline="central">2</text>
<text x="286.11111111111114" y="213.88888888888889" fill="black" font-size="11.111111111111112" text-anchor="middle" dominant-baseline="central">3</text>
<text x="325.0" y="213.88888888888889" fill="black" font-size="11.111111111111112" text-anchor="middle" dominant-baseline="central">5</text>
<text x="341.66666666666663" y="175.0" fill="black" font-size="11.111111111111112" text-anchor="middle" dominant-baseline="central">1</text>
<text x="380.55555555555554" y="175.0" fill="black" font-size="11.111111111111112" text-anchor="middle" dominant-baseline="central">4</text>
<text x="341.66666666666663" y="213.88888888888889" fill="black" font-size="11.111111111111112" text-anchor="middle" dominant-baseline="central">3</text>
<text x="380.55555555555554" y="213.88888888888889" fill="black" font-size="11.111111111111112" text-anchor="middle" dominant-baseline="central">5</text>
<text x="47.22222222222222" y="230.55555555555557" fill="black" font-size="11.111111111111112" text-anchor="middle" dominant-baseline="central">2</text>
<text x="47.22222222222222" y="269.44444444444446" fill="black" font-size="11.111111111111112" text-anchor="middle" dominant-baseline="central">5</text>
<text x="63.888888888888886" y="230.55555555555557" fill="black" font-size="11.111111111111112" text-anchor="middle" dominant-baseline="central">1</text>
<text x="102.77777777777779" y="230.55555555555557" fill="black" font-size="11.111111111111112" text-anchor="middle" dominant-baseline="central">2</text>
<text x="63.888888888888886" y="269.44444444444446" fill="black" font-size="11.111111111111112" text-anchor="middle" dominant-baseline="central">3</text>
<text x="102.77777777777779" y="269.44444444444446" fill="black" font-size="11.111111111111112" text-anchor="middle" dominant-baseline="central">5</text>
<text x="119.44444444444444" y="230.55555555555557" fill="black" font-size="11.111111111111112" text-anchor="middle" dominant-baseline="central">1</text>
<text x="158.33333333333331" y="230.55555555555557" fill="black" font-size="11.111111111111112" text-anchor="middle" dominant-baseline="central">4</text>
<text x="119.44444444444444" y="269.44444444444446" fill="black" font-size="11.111111111111112" text-anchor="middle" dominant-baseline="central">3</text>
<text x="158.33333333333331" y="269.44444444444446" fill="black" font-size="11.111111111111112" text-anchor="middle" dominant-baseline="central">5</text>
<text x="175.0" y="230.55555555555557" fill="black" font-size="11.111111111111112" text-anchor="middle" dominant-baseline="central">1</text>
<text x="213.88888888888889" y="230.55555555555557" fill="black" font-size="11.111111111111112" text-anchor="middle" dominant-baseline="central">2</text>
<text x="175.0" y="269.44444444444446" fill="black" font-size="11.111111111111112" text-anchor="middle" dominant-baseline="central">3</text>
<text x="213.88888888888889" y="269.44444444444446" fill="black" font-size="11.111111111111112" text-anchor="middle" dominant-baseline="central">5</text>
<text x="230.55555555555557" y="230.55555555555557" fill="black" font-size="11.111111111111112" text-anchor="middle" dominant-baseline="central">1</text>
<text x="269.44444444444446" y="230.55555555555557" fill="black" font-size="11.111111111111112" text-anchor="middle" dominant-baseline="central">4</text>
<text x="230.55555555555557" y="269.44444444444446" fill="black" font-size="11.111111111111112" text-anchor="middle" dominant-baseline="central">3</text>
<text x="269.44444444444446" y="269.44444444444446" fill="black" font-size="11.111111111111112" text-anchor="middle" dominant-baseline="central">5</text>
<text x="286.11111111111114" y="230.55555555555557" fill="black" font-size="11.111111111111112" text-anchor="middle" dominant-baseline="central">1</text>
<text x="325.0" y="230.55555555555557" fill="black" font-size="11.111111111111112" text-anchor="middle" dominant-baseline="central">4</text>
<text x="286.11111111111114" y="269.44444444444446" fill="black" font-size="11.111111111111112" text-anchor="middle" dominant-baseline="central">3</text>
<text x="325.0" y="269.44444444444446" fill="black" font-size="11.111111111111112" text-anchor="middle" dominant-baseline="central">5</text>
<text x="341.66666666666663" y="230.55555555555557" fill="black" font-size="11.111111111111112" text-anchor="middle" dominant-baseline="central">1</text>
<text x="380.55555555555554" y="230.55555555555557" fill="black" font-size="11.111111111111112" text-anchor="middle" dominant-baseline="central">2</text>
<text x="341.66666666666663" y="269.44444444444446" fill="black" font-size="11.111111111111112" text-anchor="middle" dominant-baseline="central">3</text>
<text x="380.55555555555554" y="269.44444444444446" fill="black" font-size="11.111111111111112" text-anchor="middle" dominant-baseline="central">5</text>
<text x="63.888888888888886" y="286.11111111111114" fill="black" font-size="11.111111111111112" text-anchor="middle" dominant-baseline="central">1</text>
<text x="102.77777777777779" y="286.11111111111114" fill="black" font-size="11.111111111111112" text-anchor="middle" dominant-baseline="central">4</text>
<text x="63.888888888888886" y="325.0" fill="black" font-size="11.111111111111112" text-anchor="middle" dominant-baseline="central">3</text>
<text x="102.77777777777779" y="325.0" fill="black" font-size="11.111111111111112" text-anchor="middle" dominant-baseline="central">5</text>
<text x="119.44444444444444" y="286.11111111111114" fill="black" font-size="11.111111111111112" text-anchor="middle" dominant-baseline="central">1</text>
<text x="158.33333333333331" y="286.11111111111114" fill="black" font-size="11.111111111111112" text-anchor="middle" dominant-baseline="central">2</text>
<text x="119.44444444444444" y="325.0" fill="black" font-size="11.111111111111112" text-anchor="middle" dominant-baseline="central">3</text>
<text x="158.33333333333331" y="325.0" fill="black" font-size="11.111111111111112" text-anchor="middle" dominant-baseline="central">5</text>
<text x="175.0" y="286.11111111111114" fill="black" font-size="11.111111111111112" text-anchor="middle" dominant-baseline="central">1</text>
<text x="213.88888888888889" y="286.11111111111114" fill="black" font-size="11.111111111111112" text-anchor="middle" dominant-baseline="central">4</text>
<text x="175.0" y="325.0" fill="black" font-size="11.111111111111112" text-anchor="middle" dominant-baseline="central">3</text>
<text x="213.88888888888889" y="325.0" fill="black" font-size="11.111111111111112" text-anchor="middle" dominant-baseline="central">5</text>
<text x="230.55555555555557" y="286.11111111111114" fill="black" font-size="11.111111111111112" text-anchor="middle" dominant-baseline="central">1</text>
<text x="269.44444444444446" y="286.11111111111114" fill="black" font-size="11.111111111111112" text-anchor="middle" dominant-baseline="central">2</text>
<text x="230.55555555555557" y="325.0" fill="black" font-size="11.111111111111112" text-anchor="middle" dominant-baseline="central">3</text>
<text x="269.44444444444446" y="325.0" fill="black" font-size="11.111111111111112" text-anchor="middle" dominant-baseline="central">5</text>
<text x="286.11111111111114" y="286.11111111111114" fill="black" font-size="11.111111111111112" text-anchor="middle" dominant-baseline="central">1</text>
<text x="325.0" y="286.11111111111114" fill="black" font-size="11.111111111111112" text-anchor="middle" dominant-baseline="central">4</text>
<text x="286.11111111111114" y="325.0" fill="black" font-size="11.111111111111112" text-anchor="middle" dominant-baseline="central">3</text>
<text x="325.0" y="325.0" fill="black" font-size="11.111111111111112" text-anchor="middle" dominant-baseline="central">5</text>
<text x="341.66666666666663" y="286.11111111111114" fill="black" font-size="11.111111111111112" text-anchor="middle" dominant-baseline="central">1</text>
<text x="380.55555555555554" y="286.11111111111114" fill="black" font-size="11.111111111111112" text-anchor="middle" dominant-baseline="central">4</text>
<text x="341.66666666666663" y="325.0" fill="black" font-size="11.111111111111112" text-anchor="middle" dominant-baseline="central">3</text>
<text x="380.55555555555554" y="325.0" fill="black" font-size="11.111111111111112" text-anchor="middle" dominant-baseline="central">5</text>
<text x="47.22222222222222" y="341.66666666666663" fill="black" font-size="11.111111111111112" text-anchor="middle" dominant-baseline="central">2</text>
<text x="47.22222222222222" y="380.55555555555554" fill="black" font-size="11.111111111111112" text-anchor="middle" dominant-baseline="central">5</text>
<text x="63.888888888888886" y="341.66666666666663" fill="black" font-size="11.111111111111112" text-anchor="middle" dominant-baseline="central">1</text>
<text x="102.77777777777779" y="341.66666666666663" fill="black" font-size="11.111111111111112" text-anchor="middle" dominant-baseline="central">2</text>
<text x="63.888888888888886" y="380.55555555555554" fill="black" font-size="11.111111111111112" text-anchor="middle" dominant-baseline="central">3</text>
<text x="102.77777777777779" y="380.55555555555554" fill="black" font-size="11.111111111111112" text-anchor="middle" dominant-baseline="central">5</text>
<text x="119.44444444444444" y="341.66666666666663" fill="black" font-size="11.111111111111112" text-anchor="middle" dominant-baseline="central">1</text>
<text x="158.33333333333331" y="341.66666666666663" fill="black" font-size="11.111111111111112" text-anchor="middle" dominant-baseline="central">4</text>
<text x="119.44444444444444" y="380.55555555555554" fill="black" font-size="11.111111111111112" text-anchor="middle" dominant-baseline="central">3</text>
<text x="158.33333333333331" y="380.55555555555554" fill="black" font-size="11.111111111111112" text-anchor="middle" dominant-baseline="central">5</text>
<text x="175.0" y="341.66666666666663" fill="black" font-size="11.111111111111112" text-anchor="middle" dominant-baseline="central">1</text>
<text x="213.88888888888889" y="341.66666666666663" fill="black" font-size="11.111111111111112" text-anchor="middle" dominant-baseline="central">2</text>
<text x="175.0" y="380.55555555555554" fill="black" font-size="11.111111111111112" text-anchor="middle" dominant-baseline="central">3</text>
<text x="213.88888888888889" y="380.55555555555554" fill="black" font-size="11.111111111111112" text-anchor="middle" dominant-baseline="central">5</text>
<text x="230.55555555555557" y="341.66666666666663" fill="black" font-size="11.111111111111112" text-anchor="middle" dominant-baseline="central">1</text>
<text x="269.44444444444446" y="341.66666666666663" fill="black" font-size="11.111111111111112" text-anchor="middle" dominant-baseline="central">4</text>
<text x="230.55555555555557" y="380.55555555555554" fill="black" font-size="11.111111111111112" text-anchor="middle" dominant-baseline="central">3</text>
<text x="269.44444444444446" y="380.55555555555554" fill="black" font-size="11.111111111111112" text-anchor="middle" dominant-baseline="central">5</text>
<text x="286.11111111111114" y="341.66666666666663" fill="black" font-size="11.111111111111112" text-anchor="middle" dominant-baseline="central">1</text>
<text x="325.0" y="341.66666666666663" fill="black" font-size="11.111111111111112" text-anchor="middle" dominant-baseline="central">2</text>
<text x="286.11111111111114" y="380.55555555555554" fill="black" font-size="11.111111111111112" text-anchor="middle" dominant-baseline="central">3</text>
<text x="325.0" y="380.55555555555554" fill="black" font-size="11.111111111111112" text-anchor="middle" dominant-baseline="central">5</text>
<text x="341.66666666666663" y="341.66666666666663" fill="black" font-size="11.111111111111112" text-anchor="middle" dominant-baseline="central">1</text>
<text x="380.55555555555554" y="341.66666666666663" fill="black" font-size="11.111111111111112" text-anchor="middle" dominant-baseline="central">4</text>
<text x="341.66666666666663" y="380.55555555555554" fill="black" font-size="11.111111111111112" text-anchor="middle" dominant-baseline="central">3</text>
<text x="380.55555555555554" y="380.55555555555554" fill="black" font-size="11.111111111111112" text-anchor="middle" dominant-baseline="central">5</text>
<text x="397.22222222222223" y="397.22222222222223" fill="black" font-size="11.111111111111112" text-anchor="middle" dominant-baseline="central">1</text>
<text x="436.1111111111111" y="397.22222222222223" fill="black" font-size="11.111111111111112" text-anchor="middle" dominant-baseline="central">4</text>
<text x="397.22222222222223" y="436.1111111111111" fill="black" font-size="11.111111111111112" text-anchor="middle" dominant-baseline="central">3</text>
</svg>
