<?xml version="1.0" encoding="utf-8" standalone="no"?>
<!DOCTYPE svg PUBLIC "-//W3C//DTD SVG 1.1//EN"
  "http://www.w3.org/Graphics/SVG/1.1/DTD/svg11.dtd">
<svg xmlns:xlink="http://www.w3.org/1999/xlink" width="416.020781pt" height="328.43325pt" viewBox="0 0 416.020781 328.43325" xmlns="http://www.w3.org/2000/svg" version="1.1">
 <metadata>
  <rdf:RDF xmlns:dc="http://purl.org/dc/elements/1.1/" xmlns:cc="http://creativecommons.org/ns#" xmlns:rdf="http://www.w3.org/1999/02/22-rdf-syntax-ns#">
   <cc:Work>
    <dc:type rdf:resource="http://purl.org/dc/dcmitype/StillImage"/>
    <dc:date>2026-06-20T13:31:21.385153</dc:date>
    <dc:format>image/svg+xml</dc:format>
    <dc:creator>
     <cc:Agent>
      <dc:title>Matplotlib v3.11.0, https://matplotlib.org/</dc:title>
     </cc:Agent>
    </dc:creator>
   </cc:Work>
  </rdf:RDF>
 </metadata>
 <defs>
  <style type="text/css">*{stroke-linejoin: round; stroke-linecap: butt}</style>
 </defs>
 <g id="figure_1">
  <g id="patch_1">
   <path d="M 0 328.43325 
L 416.020781 328.43325 
L 416.020781 0 
L 0 0 
z
" style="fill: #ffffff"/>
  </g>
  <g id="axes_1">
   <g id="patch_2">
    <path d="M 51.700781 288.430125 
L 408.820781 288.430125 
L 408.820781 22.318125 
L 51.700781 22.318125 
z
" style="fill: #ffffff"/>
   </g>
   <g id="FillBetweenPolyCollection_1">
    <defs>
     <path id="maae4dbeef8" d="M 67.933509 -181.61661 
L 67.933509 -174.424414 
L 67.933509 -183.593638 
L 104.006236 -195.477619 
L 104.006236 -202.985647 
L 140.078963 -215.689368 
L 140.078963 -221.151186 
L 176.15169 -233.969786 
L 176.15169 -239.660311 
L 212.224418 -251.615452 
L 212.224418 -257.203221 
L 248.297145 -267.828343 
L 248.297145 -272.782654 
L 284.369872 -280.635156 
L 284.369872 -283.497926 
L 320.442599 -284.6645 
L 320.442599 -284.497168 
L 356.515327 -285.276654 
L 356.515327 -284.669971 
L 392.588054 -285.042106 
L 392.588054 -284.808191 
L 392.588054 -291.282911 
L 392.588054 -291.282911 
L 392.588054 -291.417272 
L 356.515327 -291.199015 
L 356.515327 -291.516232 
L 320.442599 -291.077093 
L 320.442599 -291.173577 
L 284.369872 -285.883569 
L 284.369872 -281.765628 
L 248.297145 -273.370934 
L 248.297145 -268.452348 
L 212.224418 -257.715731 
L 212.224418 -252.236155 
L 176.15169 -240.217436 
L 176.15169 -234.66998 
L 140.078963 -222.326191 
L 140.078963 -217.15371 
L 104.006236 -205.416727 
L 104.006236 -198.741013 
L 67.933509 -188.731032 
L 67.933509 -181.61661 
z
" style="stroke: #1f77b4; stroke-opacity: 0.2"/>
    </defs>
    <g clip-path="url(#p3d843f3c84)">
     <use xlink:href="#maae4dbeef8" x="0" y="328.43325" style="fill: #1f77b4; fill-opacity: 0.2; stroke: #1f77b4; stroke-opacity: 0.2"/>
    </g>
   </g>
   <g id="FillBetweenPolyCollection_2">
    <defs>
     <path id="mc96623de32" d="M 67.933509 -143.736379 
L 67.933509 -84.950163 
L 67.933509 -116.339965 
L 104.006236 -153.599595 
L 104.006236 -157.173394 
L 140.078963 -184.082198 
L 140.078963 -190.235537 
L 176.15169 -213.321439 
L 176.15169 -218.311998 
L 212.224418 -240.096303 
L 212.224418 -245.153836 
L 248.297145 -264.614714 
L 248.297145 -269.128834 
L 284.369872 -281.19258 
L 284.369872 -280.724613 
L 320.442599 -281.621396 
L 320.442599 -281.38294 
L 356.515327 -280.748513 
L 356.515327 -282.940705 
L 392.588054 -281.421502 
L 392.588054 -281.028387 
L 392.588054 -292.831319 
L 392.588054 -292.831319 
L 392.588054 -292.976506 
L 356.515327 -293.30482 
L 356.515327 -292.680405 
L 320.442599 -292.967715 
L 320.442599 -293.047848 
L 284.369872 -292.538617 
L 284.369872 -292.796829 
L 248.297145 -269.790679 
L 248.297145 -265.273051 
L 212.224418 -245.670342 
L 212.224418 -240.718111 
L 176.15169 -219.342018 
L 176.15169 -214.580426 
L 140.078963 -193.387712 
L 140.078963 -188.079988 
L 104.006236 -167.754726 
L 104.006236 -165.50941 
L 67.933509 -149.417903 
L 67.933509 -143.736379 
z
" style="stroke: #ff7f0e; stroke-opacity: 0.2"/>
    </defs>
    <g clip-path="url(#p3d843f3c84)">
     <use xlink:href="#mc96623de32" x="0" y="328.43325" style="fill: #ff7f0e; fill-opacity: 0.2; stroke: #ff7f0e; stroke-opacity: 0.2"/>
    </g>
   </g>
   <g id="FillBetweenPolyCollection_3">
    <path d="M 67.933509 197.784015 
L 67.933509 27695.195764 
L 67.933509 27695.195764 
L 104.006236 27695.195764 
L 104.006236 276.334125 
L 140.078963 180.008906 
L 140.078963 174.489929 
L 176.15169 139.008267 
L 176.15169 133.710384 
L 212.224418 101.310409 
L 212.224418 96.364608 
L 248.297145 68.010239 
L 248.297145 63.706866 
L 284.369872 50.131822 
L 284.369872 49.068982 
L 320.442599 50.149096 
L 320.442599 50.619666 
L 356.515327 49.167311 
L 356.515327 50.490123 
L 392.588054 48.839216 
L 392.588054 50.186952 
L 392.588054 34.719196 
L 392.588054 34.719196 
L 392.588054 34.462736 
L 356.515327 34.837025 
L 356.515327 34.503932 
L 320.442599 34.798206 
L 320.442599 34.64676 
L 284.369872 34.414125 
L 284.369872 34.653777 
L 248.297145 63.039335 
L 248.297145 67.345456 
L 212.224418 95.856339 
L 212.224418 100.694121 
L 176.15169 131.455912 
L 176.15169 136.230001 
L 140.078963 164.193429 
L 140.078963 167.652801 
L 104.006236 193.070179 
L 104.006236 197.784015 
L 67.933509 197.784015 
L 67.933509 197.784015 
z
" clip-path="url(#p3d843f3c84)" style="fill: #2ca02c; fill-opacity: 0.2; stroke: #2ca02c; stroke-opacity: 0.2"/>
   </g>
   <g id="matplotlib.axis_1">
    <g id="xtick_1">
     <g id="line2d_1">
      <path d="M 67.933509 288.430125 
L 67.933509 22.318125 
" clip-path="url(#p3d843f3c84)" style="fill: none; stroke: #b0b0b0; stroke-width: 0.8; stroke-linecap: square"/>
     </g>
     <g id="line2d_2">
      <defs>
       <path id="m1f243f5840" d="M 0 0 
L 0 3.5 
" style="stroke: #000000; stroke-width: 0.8"/>
      </defs>
      <g>
       <use xlink:href="#m1f243f5840" x="67.933509" y="288.430125" style="stroke: #000000; stroke-width: 0.8"/>
      </g>
     </g>
     <g id="text_1">
      <!-- $\mathdefault{10^{-4}}$ -->
      <g transform="translate(56.183509 304.730125) scale(0.1 -0.1)">
       <defs>
        <path id="DejaVuSans-14" d="M 794 531 
L 1825 531 
L 1825 4091 
L 703 3866 
L 703 4441 
L 1819 4666 
L 2450 4666 
L 2450 531 
L 3481 531 
L 3481 0 
L 794 0 
L 794 531 
z
" transform="scale(0.015625)"/>
        <path id="DejaVuSans-13" d="M 2034 4250 
Q 1547 4250 1301 3770 
Q 1056 3291 1056 2328 
Q 1056 1369 1301 889 
Q 1547 409 2034 409 
Q 2525 409 2770 889 
Q 3016 1369 3016 2328 
Q 3016 3291 2770 3770 
Q 2525 4250 2034 4250 
z
M 2034 4750 
Q 2819 4750 3233 4129 
Q 3647 3509 3647 2328 
Q 3647 1150 3233 529 
Q 2819 -91 2034 -91 
Q 1250 -91 836 529 
Q 422 1150 422 2328 
Q 422 3509 836 4129 
Q 1250 4750 2034 4750 
z
" transform="scale(0.015625)"/>
        <path id="DejaVuSans-c9c" d="M 678 2272 
L 4684 2272 
L 4684 1741 
L 678 1741 
L 678 2272 
z
" transform="scale(0.015625)"/>
        <path id="DejaVuSans-17" d="M 2419 4116 
L 825 1625 
L 2419 1625 
L 2419 4116 
z
M 2253 4666 
L 3047 4666 
L 3047 1625 
L 3713 1625 
L 3713 1100 
L 3047 1100 
L 3047 0 
L 2419 0 
L 2419 1100 
L 313 1100 
L 313 1709 
L 2253 4666 
z
" transform="scale(0.015625)"/>
       </defs>
       <use xlink:href="#DejaVuSans-14" transform="translate(0 0.665625)"/>
       <use xlink:href="#DejaVuSans-13" transform="translate(63.623047 0.665625)"/>
       <use xlink:href="#DejaVuSans-c9c" transform="translate(128.203125 41.965625) scale(0.7)"/>
       <use xlink:href="#DejaVuSans-17" transform="translate(186.855469 41.965625) scale(0.7)"/>
      </g>
     </g>
    </g>
    <g id="xtick_2">
     <g id="line2d_3">
      <path d="M 176.15169 288.430125 
L 176.15169 22.318125 
" clip-path="url(#p3d843f3c84)" style="fill: none; stroke: #b0b0b0; stroke-width: 0.8; stroke-linecap: square"/>
     </g>
     <g id="line2d_4">
      <g>
       <use xlink:href="#m1f243f5840" x="176.15169" y="288.430125" style="stroke: #000000; stroke-width: 0.8"/>
      </g>
     </g>
     <g id="text_2">
      <!-- $\mathdefault{10^{-3}}$ -->
      <g transform="translate(164.40169 304.830125) scale(0.1 -0.1)">
       <defs>
        <path id="DejaVuSans-16" d="M 2597 2516 
Q 3050 2419 3304 2112 
Q 3559 1806 3559 1356 
Q 3559 666 3084 287 
Q 2609 -91 1734 -91 
Q 1441 -91 1130 -33 
Q 819 25 488 141 
L 488 750 
Q 750 597 1062 519 
Q 1375 441 1716 441 
Q 2309 441 2620 675 
Q 2931 909 2931 1356 
Q 2931 1769 2642 2001 
Q 2353 2234 1838 2234 
L 1294 2234 
L 1294 2753 
L 1863 2753 
Q 2328 2753 2575 2939 
Q 2822 3125 2822 3475 
Q 2822 3834 2567 4026 
Q 2313 4219 1838 4219 
Q 1578 4219 1281 4162 
Q 984 4106 628 3988 
L 628 4550 
Q 988 4650 1302 4700 
Q 1616 4750 1894 4750 
Q 2613 4750 3031 4423 
Q 3450 4097 3450 3541 
Q 3450 3153 3228 2886 
Q 3006 2619 2597 2516 
z
" transform="scale(0.015625)"/>
       </defs>
       <use xlink:href="#DejaVuSans-14" transform="translate(0 0.746875)"/>
       <use xlink:href="#DejaVuSans-13" transform="translate(63.623047 0.746875)"/>
       <use xlink:href="#DejaVuSans-c9c" transform="translate(128.203125 42.046875) scale(0.7)"/>
       <use xlink:href="#DejaVuSans-16" transform="translate(186.855469 42.046875) scale(0.7)"/>
      </g>
     </g>
    </g>
    <g id="xtick_3">
     <g id="line2d_5">
      <path d="M 284.369872 288.430125 
L 284.369872 22.318125 
" clip-path="url(#p3d843f3c84)" style="fill: none; stroke: #b0b0b0; stroke-width: 0.8; stroke-linecap: square"/>
     </g>
     <g id="line2d_6">
      <g>
       <use xlink:href="#m1f243f5840" x="284.369872" y="288.430125" style="stroke: #000000; stroke-width: 0.8"/>
      </g>
     </g>
     <g id="text_3">
      <!-- $\mathdefault{10^{-2}}$ -->
      <g transform="translate(272.619872 304.830125) scale(0.1 -0.1)">
       <defs>
        <path id="DejaVuSans-15" d="M 1228 531 
L 3431 531 
L 3431 0 
L 469 0 
L 469 531 
Q 828 903 1448 1529 
Q 2069 2156 2228 2338 
Q 2531 2678 2651 2914 
Q 2772 3150 2772 3378 
Q 2772 3750 2511 3984 
Q 2250 4219 1831 4219 
Q 1534 4219 1204 4116 
Q 875 4013 500 3803 
L 500 4441 
Q 881 4594 1212 4672 
Q 1544 4750 1819 4750 
Q 2544 4750 2975 4387 
Q 3406 4025 3406 3419 
Q 3406 3131 3298 2873 
Q 3191 2616 2906 2266 
Q 2828 2175 2409 1742 
Q 1991 1309 1228 531 
z
" transform="scale(0.015625)"/>
       </defs>
       <use xlink:href="#DejaVuSans-14" transform="translate(0 0.746875)"/>
       <use xlink:href="#DejaVuSans-13" transform="translate(63.623047 0.746875)"/>
       <use xlink:href="#DejaVuSans-c9c" transform="translate(128.203125 42.046875) scale(0.7)"/>
       <use xlink:href="#DejaVuSans-15" transform="translate(186.855469 42.046875) scale(0.7)"/>
      </g>
     </g>
    </g>
    <g id="xtick_4">
     <g id="line2d_7">
      <path d="M 392.588054 288.430125 
L 392.588054 22.318125 
" clip-path="url(#p3d843f3c84)" style="fill: none; stroke: #b0b0b0; stroke-width: 0.8; stroke-linecap: square"/>
     </g>
     <g id="line2d_8">
      <g>
       <use xlink:href="#m1f243f5840" x="392.588054" y="288.430125" style="stroke: #000000; stroke-width: 0.8"/>
      </g>
     </g>
     <g id="text_4">
      <!-- $\mathdefault{10^{-1}}$ -->
      <g transform="translate(380.838054 304.730125) scale(0.1 -0.1)">
       <use xlink:href="#DejaVuSans-14" transform="translate(0 0.665625)"/>
       <use xlink:href="#DejaVuSans-13" transform="translate(63.623047 0.665625)"/>
       <use xlink:href="#DejaVuSans-c9c" transform="translate(128.203125 41.965625) scale(0.7)"/>
       <use xlink:href="#DejaVuSans-14" transform="translate(186.855469 41.965625) scale(0.7)"/>
      </g>
     </g>
    </g>
    <g id="xtick_5">
     <g id="line2d_9">
      <defs>
       <path id="mb69de47136" d="M 0 0 
L 0 2 
" style="stroke: #000000; stroke-width: 0.6"/>
      </defs>
      <g>
       <use xlink:href="#mb69de47136" x="57.446083" y="288.430125" style="stroke: #000000; stroke-width: 0.6"/>
      </g>
     </g>
    </g>
    <g id="xtick_6">
     <g id="line2d_10">
      <g>
       <use xlink:href="#mb69de47136" x="62.981716" y="288.430125" style="stroke: #000000; stroke-width: 0.6"/>
      </g>
     </g>
    </g>
    <g id="xtick_7">
     <g id="line2d_11">
      <g>
       <use xlink:href="#mb69de47136" x="100.510427" y="288.430125" style="stroke: #000000; stroke-width: 0.6"/>
      </g>
     </g>
    </g>
    <g id="xtick_8">
     <g id="line2d_12">
      <g>
       <use xlink:href="#mb69de47136" x="119.566703" y="288.430125" style="stroke: #000000; stroke-width: 0.6"/>
      </g>
     </g>
    </g>
    <g id="xtick_9">
     <g id="line2d_13">
      <g>
       <use xlink:href="#mb69de47136" x="133.087346" y="288.430125" style="stroke: #000000; stroke-width: 0.6"/>
      </g>
     </g>
    </g>
    <g id="xtick_10">
     <g id="line2d_14">
      <g>
       <use xlink:href="#mb69de47136" x="143.574772" y="288.430125" style="stroke: #000000; stroke-width: 0.6"/>
      </g>
     </g>
    </g>
    <g id="xtick_11">
     <g id="line2d_15">
      <g>
       <use xlink:href="#mb69de47136" x="152.143622" y="288.430125" style="stroke: #000000; stroke-width: 0.6"/>
      </g>
     </g>
    </g>
    <g id="xtick_12">
     <g id="line2d_16">
      <g>
       <use xlink:href="#mb69de47136" x="159.388482" y="288.430125" style="stroke: #000000; stroke-width: 0.6"/>
      </g>
     </g>
    </g>
    <g id="xtick_13">
     <g id="line2d_17">
      <g>
       <use xlink:href="#mb69de47136" x="165.664265" y="288.430125" style="stroke: #000000; stroke-width: 0.6"/>
      </g>
     </g>
    </g>
    <g id="xtick_14">
     <g id="line2d_18">
      <g>
       <use xlink:href="#mb69de47136" x="171.199898" y="288.430125" style="stroke: #000000; stroke-width: 0.6"/>
      </g>
     </g>
    </g>
    <g id="xtick_15">
     <g id="line2d_19">
      <g>
       <use xlink:href="#mb69de47136" x="208.728609" y="288.430125" style="stroke: #000000; stroke-width: 0.6"/>
      </g>
     </g>
    </g>
    <g id="xtick_16">
     <g id="line2d_20">
      <g>
       <use xlink:href="#mb69de47136" x="227.784885" y="288.430125" style="stroke: #000000; stroke-width: 0.6"/>
      </g>
     </g>
    </g>
    <g id="xtick_17">
     <g id="line2d_21">
      <g>
       <use xlink:href="#mb69de47136" x="241.305528" y="288.430125" style="stroke: #000000; stroke-width: 0.6"/>
      </g>
     </g>
    </g>
    <g id="xtick_18">
     <g id="line2d_22">
      <g>
       <use xlink:href="#mb69de47136" x="251.792953" y="288.430125" style="stroke: #000000; stroke-width: 0.6"/>
      </g>
     </g>
    </g>
    <g id="xtick_19">
     <g id="line2d_23">
      <g>
       <use xlink:href="#mb69de47136" x="260.361804" y="288.430125" style="stroke: #000000; stroke-width: 0.6"/>
      </g>
     </g>
    </g>
    <g id="xtick_20">
     <g id="line2d_24">
      <g>
       <use xlink:href="#mb69de47136" x="267.606664" y="288.430125" style="stroke: #000000; stroke-width: 0.6"/>
      </g>
     </g>
    </g>
    <g id="xtick_21">
     <g id="line2d_25">
      <g>
       <use xlink:href="#mb69de47136" x="273.882447" y="288.430125" style="stroke: #000000; stroke-width: 0.6"/>
      </g>
     </g>
    </g>
    <g id="xtick_22">
     <g id="line2d_26">
      <g>
       <use xlink:href="#mb69de47136" x="279.41808" y="288.430125" style="stroke: #000000; stroke-width: 0.6"/>
      </g>
     </g>
    </g>
    <g id="xtick_23">
     <g id="line2d_27">
      <g>
       <use xlink:href="#mb69de47136" x="316.946791" y="288.430125" style="stroke: #000000; stroke-width: 0.6"/>
      </g>
     </g>
    </g>
    <g id="xtick_24">
     <g id="line2d_28">
      <g>
       <use xlink:href="#mb69de47136" x="336.003067" y="288.430125" style="stroke: #000000; stroke-width: 0.6"/>
      </g>
     </g>
    </g>
    <g id="xtick_25">
     <g id="line2d_29">
      <g>
       <use xlink:href="#mb69de47136" x="349.52371" y="288.430125" style="stroke: #000000; stroke-width: 0.6"/>
      </g>
     </g>
    </g>
    <g id="xtick_26">
     <g id="line2d_30">
      <g>
       <use xlink:href="#mb69de47136" x="360.011135" y="288.430125" style="stroke: #000000; stroke-width: 0.6"/>
      </g>
     </g>
    </g>
    <g id="xtick_27">
     <g id="line2d_31">
      <g>
       <use xlink:href="#mb69de47136" x="368.579986" y="288.430125" style="stroke: #000000; stroke-width: 0.6"/>
      </g>
     </g>
    </g>
    <g id="xtick_28">
     <g id="line2d_32">
      <g>
       <use xlink:href="#mb69de47136" x="375.824846" y="288.430125" style="stroke: #000000; stroke-width: 0.6"/>
      </g>
     </g>
    </g>
    <g id="xtick_29">
     <g id="line2d_33">
      <g>
       <use xlink:href="#mb69de47136" x="382.100629" y="288.430125" style="stroke: #000000; stroke-width: 0.6"/>
      </g>
     </g>
    </g>
    <g id="xtick_30">
     <g id="line2d_34">
      <g>
       <use xlink:href="#mb69de47136" x="387.636262" y="288.430125" style="stroke: #000000; stroke-width: 0.6"/>
      </g>
     </g>
    </g>
    <g id="text_5">
     <!-- Physical Error Rate -->
     <g transform="translate(183.09125 318.830906) scale(0.1 -0.1)">
      <defs>
       <path id="DejaVuSans-33" d="M 1259 4147 
L 1259 2394 
L 2053 2394 
Q 2494 2394 2734 2622 
Q 2975 2850 2975 3272 
Q 2975 3691 2734 3919 
Q 2494 4147 2053 4147 
L 1259 4147 
z
M 628 4666 
L 2053 4666 
Q 2838 4666 3239 4311 
Q 3641 3956 3641 3272 
Q 3641 2581 3239 2228 
Q 2838 1875 2053 1875 
L 1259 1875 
L 1259 0 
L 628 0 
L 628 4666 
z
" transform="scale(0.015625)"/>
       <path id="DejaVuSans-4b" d="M 3513 2113 
L 3513 0 
L 2938 0 
L 2938 2094 
Q 2938 2591 2744 2837 
Q 2550 3084 2163 3084 
Q 1697 3084 1428 2787 
Q 1159 2491 1159 1978 
L 1159 0 
L 581 0 
L 581 4863 
L 1159 4863 
L 1159 2956 
Q 1366 3272 1645 3428 
Q 1925 3584 2291 3584 
Q 2894 3584 3203 3211 
Q 3513 2838 3513 2113 
z
" transform="scale(0.015625)"/>
       <path id="DejaVuSans-5c" d="M 2059 -325 
Q 1816 -950 1584 -1140 
Q 1353 -1331 966 -1331 
L 506 -1331 
L 506 -850 
L 844 -850 
Q 1081 -850 1212 -737 
Q 1344 -625 1503 -206 
L 1606 56 
L 191 3500 
L 800 3500 
L 1894 763 
L 2988 3500 
L 3597 3500 
L 2059 -325 
z
" transform="scale(0.015625)"/>
       <path id="DejaVuSans-56" d="M 2834 3397 
L 2834 2853 
Q 2591 2978 2328 3040 
Q 2066 3103 1784 3103 
Q 1356 3103 1142 2972 
Q 928 2841 928 2578 
Q 928 2378 1081 2264 
Q 1234 2150 1697 2047 
L 1894 2003 
Q 2506 1872 2764 1633 
Q 3022 1394 3022 966 
Q 3022 478 2636 193 
Q 2250 -91 1575 -91 
Q 1294 -91 989 -36 
Q 684 19 347 128 
L 347 722 
Q 666 556 975 473 
Q 1284 391 1588 391 
Q 1994 391 2212 530 
Q 2431 669 2431 922 
Q 2431 1156 2273 1281 
Q 2116 1406 1581 1522 
L 1381 1569 
Q 847 1681 609 1914 
Q 372 2147 372 2553 
Q 372 3047 722 3315 
Q 1072 3584 1716 3584 
Q 2034 3584 2315 3537 
Q 2597 3491 2834 3397 
z
" transform="scale(0.015625)"/>
       <path id="DejaVuSans-4c" d="M 603 3500 
L 1178 3500 
L 1178 0 
L 603 0 
L 603 3500 
z
M 603 4863 
L 1178 4863 
L 1178 4134 
L 603 4134 
L 603 4863 
z
" transform="scale(0.015625)"/>
       <path id="DejaVuSans-46" d="M 3122 3366 
L 3122 2828 
Q 2878 2963 2633 3030 
Q 2388 3097 2138 3097 
Q 1578 3097 1268 2742 
Q 959 2388 959 1747 
Q 959 1106 1268 751 
Q 1578 397 2138 397 
Q 2388 397 2633 464 
Q 2878 531 3122 666 
L 3122 134 
Q 2881 22 2623 -34 
Q 2366 -91 2075 -91 
Q 1284 -91 818 406 
Q 353 903 353 1747 
Q 353 2603 823 3093 
Q 1294 3584 2113 3584 
Q 2378 3584 2631 3529 
Q 2884 3475 3122 3366 
z
" transform="scale(0.015625)"/>
       <path id="DejaVuSans-44" d="M 2194 1759 
Q 1497 1759 1228 1600 
Q 959 1441 959 1056 
Q 959 750 1161 570 
Q 1363 391 1709 391 
Q 2188 391 2477 730 
Q 2766 1069 2766 1631 
L 2766 1759 
L 2194 1759 
z
M 3341 1997 
L 3341 0 
L 2766 0 
L 2766 531 
Q 2569 213 2275 61 
Q 1981 -91 1556 -91 
Q 1019 -91 701 211 
Q 384 513 384 1019 
Q 384 1609 779 1909 
Q 1175 2209 1959 2209 
L 2766 2209 
L 2766 2266 
Q 2766 2663 2505 2880 
Q 2244 3097 1772 3097 
Q 1472 3097 1187 3025 
Q 903 2953 641 2809 
L 641 3341 
Q 956 3463 1253 3523 
Q 1550 3584 1831 3584 
Q 2591 3584 2966 3190 
Q 3341 2797 3341 1997 
z
" transform="scale(0.015625)"/>
       <path id="DejaVuSans-4f" d="M 603 4863 
L 1178 4863 
L 1178 0 
L 603 0 
L 603 4863 
z
" transform="scale(0.015625)"/>
       <path id="DejaVuSans-3" transform="scale(0.015625)"/>
       <path id="DejaVuSans-28" d="M 628 4666 
L 3578 4666 
L 3578 4134 
L 1259 4134 
L 1259 2753 
L 3481 2753 
L 3481 2222 
L 1259 2222 
L 1259 531 
L 3634 531 
L 3634 0 
L 628 0 
L 628 4666 
z
" transform="scale(0.015625)"/>
       <path id="DejaVuSans-55" d="M 2631 2963 
Q 2534 3019 2420 3045 
Q 2306 3072 2169 3072 
Q 1681 3072 1420 2755 
Q 1159 2438 1159 1844 
L 1159 0 
L 581 0 
L 581 3500 
L 1159 3500 
L 1159 2956 
Q 1341 3275 1631 3429 
Q 1922 3584 2338 3584 
Q 2397 3584 2469 3576 
Q 2541 3569 2628 3553 
L 2631 2963 
z
" transform="scale(0.015625)"/>
       <path id="DejaVuSans-52" d="M 1959 3097 
Q 1497 3097 1228 2736 
Q 959 2375 959 1747 
Q 959 1119 1226 758 
Q 1494 397 1959 397 
Q 2419 397 2687 759 
Q 2956 1122 2956 1747 
Q 2956 2369 2687 2733 
Q 2419 3097 1959 3097 
z
M 1959 3584 
Q 2709 3584 3137 3096 
Q 3566 2609 3566 1747 
Q 3566 888 3137 398 
Q 2709 -91 1959 -91 
Q 1206 -91 779 398 
Q 353 888 353 1747 
Q 353 2609 779 3096 
Q 1206 3584 1959 3584 
z
" transform="scale(0.015625)"/>
       <path id="DejaVuSans-35" d="M 2841 2188 
Q 3044 2119 3236 1894 
Q 3428 1669 3622 1275 
L 4263 0 
L 3584 0 
L 2988 1197 
Q 2756 1666 2539 1819 
Q 2322 1972 1947 1972 
L 1259 1972 
L 1259 0 
L 628 0 
L 628 4666 
L 2053 4666 
Q 2853 4666 3247 4331 
Q 3641 3997 3641 3322 
Q 3641 2881 3436 2590 
Q 3231 2300 2841 2188 
z
M 1259 4147 
L 1259 2491 
L 2053 2491 
Q 2509 2491 2742 2702 
Q 2975 2913 2975 3322 
Q 2975 3731 2742 3939 
Q 2509 4147 2053 4147 
L 1259 4147 
z
" transform="scale(0.015625)"/>
       <path id="DejaVuSans-57" d="M 1172 4494 
L 1172 3500 
L 2356 3500 
L 2356 3053 
L 1172 3053 
L 1172 1153 
Q 1172 725 1289 603 
Q 1406 481 1766 481 
L 2356 481 
L 2356 0 
L 1766 0 
Q 1100 0 847 248 
Q 594 497 594 1153 
L 594 3053 
L 172 3053 
L 172 3500 
L 594 3500 
L 594 4494 
L 1172 4494 
z
" transform="scale(0.015625)"/>
       <path id="DejaVuSans-48" d="M 3597 1894 
L 3597 1613 
L 953 1613 
Q 991 1019 1311 708 
Q 1631 397 2203 397 
Q 2534 397 2845 478 
Q 3156 559 3463 722 
L 3463 178 
Q 3153 47 2828 -22 
Q 2503 -91 2169 -91 
Q 1331 -91 842 396 
Q 353 884 353 1716 
Q 353 2575 817 3079 
Q 1281 3584 2069 3584 
Q 2775 3584 3186 3129 
Q 3597 2675 3597 1894 
z
M 3022 2063 
Q 3016 2534 2758 2815 
Q 2500 3097 2075 3097 
Q 1594 3097 1305 2825 
Q 1016 2553 972 2059 
L 3022 2063 
z
" transform="scale(0.015625)"/>
      </defs>
      <use xlink:href="#DejaVuSans-33"/>
      <use xlink:href="#DejaVuSans-4b" transform="translate(60.296875 0)"/>
      <use xlink:href="#DejaVuSans-5c" transform="translate(123.671875 0)"/>
      <use xlink:href="#DejaVuSans-56" transform="translate(182.859375 0)"/>
      <use xlink:href="#DejaVuSans-4c" transform="translate(234.953125 0)"/>
      <use xlink:href="#DejaVuSans-46" transform="translate(262.734375 0)"/>
      <use xlink:href="#DejaVuSans-44" transform="translate(317.71875 0)"/>
      <use xlink:href="#DejaVuSans-4f" transform="translate(379 0)"/>
      <use xlink:href="#DejaVuSans-3" transform="translate(406.78125 0)"/>
      <use xlink:href="#DejaVuSans-28" transform="translate(438.5625 0)"/>
      <use xlink:href="#DejaVuSans-55" transform="translate(501.75 0)"/>
      <use xlink:href="#DejaVuSans-55" transform="translate(541.109375 0)"/>
      <use xlink:href="#DejaVuSans-52" transform="translate(580.015625 0)"/>
      <use xlink:href="#DejaVuSans-55" transform="translate(641.203125 0)"/>
      <use xlink:href="#DejaVuSans-3" transform="translate(682.3125 0)"/>
      <use xlink:href="#DejaVuSans-35" transform="translate(714.09375 0)"/>
      <use xlink:href="#DejaVuSans-44" transform="translate(781.375 0)"/>
      <use xlink:href="#DejaVuSans-57" transform="translate(842.65625 0)"/>
      <use xlink:href="#DejaVuSans-48" transform="translate(881.859375 0)"/>
     </g>
    </g>
   </g>
   <g id="matplotlib.axis_2">
    <g id="ytick_1">
     <g id="line2d_35">
      <path d="M 51.700781 252.955714 
L 408.820781 252.955714 
" clip-path="url(#p3d843f3c84)" style="fill: none; stroke: #b0b0b0; stroke-width: 0.8; stroke-linecap: square"/>
     </g>
     <g id="line2d_36">
      <defs>
       <path id="m44bbcf0336" d="M 0 0 
L -3.5 0 
" style="stroke: #000000; stroke-width: 0.8"/>
      </defs>
      <g>
       <use xlink:href="#m44bbcf0336" x="51.700781" y="252.955714" style="stroke: #000000; stroke-width: 0.8"/>
      </g>
     </g>
     <g id="text_6">
      <!-- $\mathdefault{10^{-8}}$ -->
      <g transform="translate(21.200781 257.655714) scale(0.1 -0.1)">
       <defs>
        <path id="DejaVuSans-1b" d="M 2034 2216 
Q 1584 2216 1326 1975 
Q 1069 1734 1069 1313 
Q 1069 891 1326 650 
Q 1584 409 2034 409 
Q 2484 409 2743 651 
Q 3003 894 3003 1313 
Q 3003 1734 2745 1975 
Q 2488 2216 2034 2216 
z
M 1403 2484 
Q 997 2584 770 2862 
Q 544 3141 544 3541 
Q 544 4100 942 4425 
Q 1341 4750 2034 4750 
Q 2731 4750 3128 4425 
Q 3525 4100 3525 3541 
Q 3525 3141 3298 2862 
Q 3072 2584 2669 2484 
Q 3125 2378 3379 2068 
Q 3634 1759 3634 1313 
Q 3634 634 3220 271 
Q 2806 -91 2034 -91 
Q 1263 -91 848 271 
Q 434 634 434 1313 
Q 434 1759 690 2068 
Q 947 2378 1403 2484 
z
M 1172 3481 
Q 1172 3119 1398 2916 
Q 1625 2713 2034 2713 
Q 2441 2713 2670 2916 
Q 2900 3119 2900 3481 
Q 2900 3844 2670 4047 
Q 2441 4250 2034 4250 
Q 1625 4250 1398 4047 
Q 1172 3844 1172 3481 
z
" transform="scale(0.015625)"/>
       </defs>
       <use xlink:href="#DejaVuSans-14" transform="translate(0 0.746875)"/>
       <use xlink:href="#DejaVuSans-13" transform="translate(63.623047 0.746875)"/>
       <use xlink:href="#DejaVuSans-c9c" transform="translate(128.203125 42.046875) scale(0.7)"/>
       <use xlink:href="#DejaVuSans-1b" transform="translate(186.855469 42.046875) scale(0.7)"/>
      </g>
     </g>
    </g>
    <g id="ytick_2">
     <g id="line2d_37">
      <path d="M 51.700781 197.628618 
L 408.820781 197.628618 
" clip-path="url(#p3d843f3c84)" style="fill: none; stroke: #b0b0b0; stroke-width: 0.8; stroke-linecap: square"/>
     </g>
     <g id="line2d_38">
      <g>
       <use xlink:href="#m44bbcf0336" x="51.700781" y="197.628618" style="stroke: #000000; stroke-width: 0.8"/>
      </g>
     </g>
     <g id="text_7">
      <!-- $\mathdefault{10^{-6}}$ -->
      <g transform="translate(21.200781 202.328618) scale(0.1 -0.1)">
       <defs>
        <path id="DejaVuSans-19" d="M 2113 2584 
Q 1688 2584 1439 2293 
Q 1191 2003 1191 1497 
Q 1191 994 1439 701 
Q 1688 409 2113 409 
Q 2538 409 2786 701 
Q 3034 994 3034 1497 
Q 3034 2003 2786 2293 
Q 2538 2584 2113 2584 
z
M 3366 4563 
L 3366 3988 
Q 3128 4100 2886 4159 
Q 2644 4219 2406 4219 
Q 1781 4219 1451 3797 
Q 1122 3375 1075 2522 
Q 1259 2794 1537 2939 
Q 1816 3084 2150 3084 
Q 2853 3084 3261 2657 
Q 3669 2231 3669 1497 
Q 3669 778 3244 343 
Q 2819 -91 2113 -91 
Q 1303 -91 875 529 
Q 447 1150 447 2328 
Q 447 3434 972 4092 
Q 1497 4750 2381 4750 
Q 2619 4750 2861 4703 
Q 3103 4656 3366 4563 
z
" transform="scale(0.015625)"/>
       </defs>
       <use xlink:href="#DejaVuSans-14" transform="translate(0 0.746875)"/>
       <use xlink:href="#DejaVuSans-13" transform="translate(63.623047 0.746875)"/>
       <use xlink:href="#DejaVuSans-c9c" transform="translate(128.203125 42.046875) scale(0.7)"/>
       <use xlink:href="#DejaVuSans-19" transform="translate(186.855469 42.046875) scale(0.7)"/>
      </g>
     </g>
    </g>
    <g id="ytick_3">
     <g id="line2d_39">
      <path d="M 51.700781 142.301521 
L 408.820781 142.301521 
" clip-path="url(#p3d843f3c84)" style="fill: none; stroke: #b0b0b0; stroke-width: 0.8; stroke-linecap: square"/>
     </g>
     <g id="line2d_40">
      <g>
       <use xlink:href="#m44bbcf0336" x="51.700781" y="142.301521" style="stroke: #000000; stroke-width: 0.8"/>
      </g>
     </g>
     <g id="text_8">
      <!-- $\mathdefault{10^{-4}}$ -->
      <g transform="translate(21.200781 146.951521) scale(0.1 -0.1)">
       <use xlink:href="#DejaVuSans-14" transform="translate(0 0.665625)"/>
       <use xlink:href="#DejaVuSans-13" transform="translate(63.623047 0.665625)"/>
       <use xlink:href="#DejaVuSans-c9c" transform="translate(128.203125 41.965625) scale(0.7)"/>
       <use xlink:href="#DejaVuSans-17" transform="translate(186.855469 41.965625) scale(0.7)"/>
      </g>
     </g>
    </g>
    <g id="ytick_4">
     <g id="line2d_41">
      <path d="M 51.700781 86.974424 
L 408.820781 86.974424 
" clip-path="url(#p3d843f3c84)" style="fill: none; stroke: #b0b0b0; stroke-width: 0.8; stroke-linecap: square"/>
     </g>
     <g id="line2d_42">
      <g>
       <use xlink:href="#m44bbcf0336" x="51.700781" y="86.974424" style="stroke: #000000; stroke-width: 0.8"/>
      </g>
     </g>
     <g id="text_9">
      <!-- $\mathdefault{10^{-2}}$ -->
      <g transform="translate(21.200781 91.674424) scale(0.1 -0.1)">
       <use xlink:href="#DejaVuSans-14" transform="translate(0 0.746875)"/>
       <use xlink:href="#DejaVuSans-13" transform="translate(63.623047 0.746875)"/>
       <use xlink:href="#DejaVuSans-c9c" transform="translate(128.203125 42.046875) scale(0.7)"/>
       <use xlink:href="#DejaVuSans-15" transform="translate(186.855469 42.046875) scale(0.7)"/>
      </g>
     </g>
    </g>
    <g id="ytick_5">
     <g id="line2d_43">
      <path d="M 51.700781 31.647327 
L 408.820781 31.647327 
" clip-path="url(#p3d843f3c84)" style="fill: none; stroke: #b0b0b0; stroke-width: 0.8; stroke-linecap: square"/>
     </g>
     <g id="line2d_44">
      <g>
       <use xlink:href="#m44bbcf0336" x="51.700781" y="31.647327" style="stroke: #000000; stroke-width: 0.8"/>
      </g>
     </g>
     <g id="text_10">
      <!-- $\mathdefault{10^{0}}$ -->
      <g transform="translate(27.100781 36.347327) scale(0.1 -0.1)">
       <use xlink:href="#DejaVuSans-14" transform="translate(0 0.746875)"/>
       <use xlink:href="#DejaVuSans-13" transform="translate(63.623047 0.746875)"/>
       <use xlink:href="#DejaVuSans-13" transform="translate(128.203125 42.046875) scale(0.7)"/>
      </g>
     </g>
    </g>
    <g id="text_11">
     <!-- Logical Error Rate(per round) -->
     <g transform="translate(14.798438 228.041312) rotate(-90) scale(0.1 -0.1)">
      <defs>
       <path id="DejaVuSans-2f" d="M 628 4666 
L 1259 4666 
L 1259 531 
L 3531 531 
L 3531 0 
L 628 0 
L 628 4666 
z
" transform="scale(0.015625)"/>
       <path id="DejaVuSans-4a" d="M 2906 1791 
Q 2906 2416 2648 2759 
Q 2391 3103 1925 3103 
Q 1463 3103 1205 2759 
Q 947 2416 947 1791 
Q 947 1169 1205 825 
Q 1463 481 1925 481 
Q 2391 481 2648 825 
Q 2906 1169 2906 1791 
z
M 3481 434 
Q 3481 -459 3084 -895 
Q 2688 -1331 1869 -1331 
Q 1566 -1331 1297 -1286 
Q 1028 -1241 775 -1147 
L 775 -588 
Q 1028 -725 1275 -790 
Q 1522 -856 1778 -856 
Q 2344 -856 2625 -561 
Q 2906 -266 2906 331 
L 2906 616 
Q 2728 306 2450 153 
Q 2172 0 1784 0 
Q 1141 0 747 490 
Q 353 981 353 1791 
Q 353 2603 747 3093 
Q 1141 3584 1784 3584 
Q 2172 3584 2450 3431 
Q 2728 3278 2906 2969 
L 2906 3500 
L 3481 3500 
L 3481 434 
z
" transform="scale(0.015625)"/>
       <path id="DejaVuSans-b" d="M 1984 4856 
Q 1566 4138 1362 3434 
Q 1159 2731 1159 2009 
Q 1159 1288 1364 580 
Q 1569 -128 1984 -844 
L 1484 -844 
Q 1016 -109 783 600 
Q 550 1309 550 2009 
Q 550 2706 781 3412 
Q 1013 4119 1484 4856 
L 1984 4856 
z
" transform="scale(0.015625)"/>
       <path id="DejaVuSans-53" d="M 1159 525 
L 1159 -1331 
L 581 -1331 
L 581 3500 
L 1159 3500 
L 1159 2969 
Q 1341 3281 1617 3432 
Q 1894 3584 2278 3584 
Q 2916 3584 3314 3078 
Q 3713 2572 3713 1747 
Q 3713 922 3314 415 
Q 2916 -91 2278 -91 
Q 1894 -91 1617 61 
Q 1341 213 1159 525 
z
M 3116 1747 
Q 3116 2381 2855 2742 
Q 2594 3103 2138 3103 
Q 1681 3103 1420 2742 
Q 1159 2381 1159 1747 
Q 1159 1113 1420 752 
Q 1681 391 2138 391 
Q 2594 391 2855 752 
Q 3116 1113 3116 1747 
z
" transform="scale(0.015625)"/>
       <path id="DejaVuSans-58" d="M 544 1381 
L 544 3500 
L 1119 3500 
L 1119 1403 
Q 1119 906 1312 657 
Q 1506 409 1894 409 
Q 2359 409 2629 706 
Q 2900 1003 2900 1516 
L 2900 3500 
L 3475 3500 
L 3475 0 
L 2900 0 
L 2900 538 
Q 2691 219 2414 64 
Q 2138 -91 1772 -91 
Q 1169 -91 856 284 
Q 544 659 544 1381 
z
M 1991 3584 
L 1991 3584 
z
" transform="scale(0.015625)"/>
       <path id="DejaVuSans-51" d="M 3513 2113 
L 3513 0 
L 2938 0 
L 2938 2094 
Q 2938 2591 2744 2837 
Q 2550 3084 2163 3084 
Q 1697 3084 1428 2787 
Q 1159 2491 1159 1978 
L 1159 0 
L 581 0 
L 581 3500 
L 1159 3500 
L 1159 2956 
Q 1366 3272 1645 3428 
Q 1925 3584 2291 3584 
Q 2894 3584 3203 3211 
Q 3513 2838 3513 2113 
z
" transform="scale(0.015625)"/>
       <path id="DejaVuSans-47" d="M 2906 2969 
L 2906 4863 
L 3481 4863 
L 3481 0 
L 2906 0 
L 2906 525 
Q 2725 213 2448 61 
Q 2172 -91 1784 -91 
Q 1150 -91 751 415 
Q 353 922 353 1747 
Q 353 2572 751 3078 
Q 1150 3584 1784 3584 
Q 2172 3584 2448 3432 
Q 2725 3281 2906 2969 
z
M 947 1747 
Q 947 1113 1208 752 
Q 1469 391 1925 391 
Q 2381 391 2643 752 
Q 2906 1113 2906 1747 
Q 2906 2381 2643 2742 
Q 2381 3103 1925 3103 
Q 1469 3103 1208 2742 
Q 947 2381 947 1747 
z
" transform="scale(0.015625)"/>
       <path id="DejaVuSans-c" d="M 513 4856 
L 1013 4856 
Q 1481 4119 1714 3412 
Q 1947 2706 1947 2009 
Q 1947 1309 1714 600 
Q 1481 -109 1013 -844 
L 513 -844 
Q 928 -128 1133 580 
Q 1338 1288 1338 2009 
Q 1338 2731 1133 3434 
Q 928 4138 513 4856 
z
" transform="scale(0.015625)"/>
      </defs>
      <use xlink:href="#DejaVuSans-2f"/>
      <use xlink:href="#DejaVuSans-52" transform="translate(53.96875 0)"/>
      <use xlink:href="#DejaVuSans-4a" transform="translate(115.15625 0)"/>
      <use xlink:href="#DejaVuSans-4c" transform="translate(178.640625 0)"/>
      <use xlink:href="#DejaVuSans-46" transform="translate(206.421875 0)"/>
      <use xlink:href="#DejaVuSans-44" transform="translate(261.40625 0)"/>
      <use xlink:href="#DejaVuSans-4f" transform="translate(322.6875 0)"/>
      <use xlink:href="#DejaVuSans-3" transform="translate(350.46875 0)"/>
      <use xlink:href="#DejaVuSans-28" transform="translate(382.25 0)"/>
      <use xlink:href="#DejaVuSans-55" transform="translate(445.4375 0)"/>
      <use xlink:href="#DejaVuSans-55" transform="translate(484.796875 0)"/>
      <use xlink:href="#DejaVuSans-52" transform="translate(523.703125 0)"/>
      <use xlink:href="#DejaVuSans-55" transform="translate(584.890625 0)"/>
      <use xlink:href="#DejaVuSans-3" transform="translate(626 0)"/>
      <use xlink:href="#DejaVuSans-35" transform="translate(657.78125 0)"/>
      <use xlink:href="#DejaVuSans-44" transform="translate(725.0625 0)"/>
      <use xlink:href="#DejaVuSans-57" transform="translate(786.34375 0)"/>
      <use xlink:href="#DejaVuSans-48" transform="translate(825.546875 0)"/>
      <use xlink:href="#DejaVuSans-b" transform="translate(887.078125 0)"/>
      <use xlink:href="#DejaVuSans-53" transform="translate(926.09375 0)"/>
      <use xlink:href="#DejaVuSans-48" transform="translate(989.578125 0)"/>
      <use xlink:href="#DejaVuSans-55" transform="translate(1051.109375 0)"/>
      <use xlink:href="#DejaVuSans-3" transform="translate(1092.21875 0)"/>
      <use xlink:href="#DejaVuSans-55" transform="translate(1124 0)"/>
      <use xlink:href="#DejaVuSans-52" transform="translate(1162.90625 0)"/>
      <use xlink:href="#DejaVuSans-58" transform="translate(1224.09375 0)"/>
      <use xlink:href="#DejaVuSans-51" transform="translate(1287.46875 0)"/>
      <use xlink:href="#DejaVuSans-47" transform="translate(1350.84375 0)"/>
      <use xlink:href="#DejaVuSans-c" transform="translate(1414.328125 0)"/>
     </g>
    </g>
   </g>
   <g id="line2d_45">
    <path d="M 67.933509 150.233896 
L 67.933509 142.179549 
L 104.006236 131.287077 
L 104.006236 124.211616 
L 140.078963 112.004305 
L 140.078963 106.689776 
L 176.15169 94.11171 
L 176.15169 88.493307 
L 212.224418 76.506202 
L 212.224418 70.972969 
L 248.297145 60.29222 
L 248.297145 55.356549 
L 284.369872 47.252152 
L 284.369872 43.991149 
L 320.442599 41.525375 
L 320.442599 42.024103 
L 356.515327 37.981448 
L 356.515327 41.428308 
L 392.588054 38.305879 
L 392.588054 39.183814 
" clip-path="url(#p3d843f3c84)" style="fill: none; stroke: #1f77b4; stroke-width: 1.5; stroke-linecap: square"/>
    <defs>
     <path id="m699fbc95ff" d="M 0 3 
C 0.795609 3 1.55874 2.683901 2.12132 2.12132 
C 2.683901 1.55874 3 0.795609 3 0 
C 3 -0.795609 2.683901 -1.55874 2.12132 -2.12132 
C 1.55874 -2.683901 0.795609 -3 0 -3 
C -0.795609 -3 -1.55874 -2.683901 -2.12132 -2.12132 
C -2.683901 -1.55874 -3 -0.795609 -3 0 
C -3 0.795609 -2.683901 1.55874 -2.12132 2.12132 
C -1.55874 2.683901 -0.795609 3 0 3 
z
" style="stroke: #1f77b4"/>
    </defs>
    <g clip-path="url(#p3d843f3c84)">
     <use xlink:href="#m699fbc95ff" x="67.933509" y="150.233896" style="fill: #1f77b4; stroke: #1f77b4"/>
     <use xlink:href="#m699fbc95ff" x="67.933509" y="142.179549" style="fill: #1f77b4; stroke: #1f77b4"/>
     <use xlink:href="#m699fbc95ff" x="104.006236" y="131.287077" style="fill: #1f77b4; stroke: #1f77b4"/>
     <use xlink:href="#m699fbc95ff" x="104.006236" y="124.211616" style="fill: #1f77b4; stroke: #1f77b4"/>
     <use xlink:href="#m699fbc95ff" x="140.078963" y="112.004305" style="fill: #1f77b4; stroke: #1f77b4"/>
     <use xlink:href="#m699fbc95ff" x="140.078963" y="106.689776" style="fill: #1f77b4; stroke: #1f77b4"/>
     <use xlink:href="#m699fbc95ff" x="176.15169" y="94.11171" style="fill: #1f77b4; stroke: #1f77b4"/>
     <use xlink:href="#m699fbc95ff" x="176.15169" y="88.493307" style="fill: #1f77b4; stroke: #1f77b4"/>
     <use xlink:href="#m699fbc95ff" x="212.224418" y="76.506202" style="fill: #1f77b4; stroke: #1f77b4"/>
     <use xlink:href="#m699fbc95ff" x="212.224418" y="70.972969" style="fill: #1f77b4; stroke: #1f77b4"/>
     <use xlink:href="#m699fbc95ff" x="248.297145" y="60.29222" style="fill: #1f77b4; stroke: #1f77b4"/>
     <use xlink:href="#m699fbc95ff" x="248.297145" y="55.356549" style="fill: #1f77b4; stroke: #1f77b4"/>
     <use xlink:href="#m699fbc95ff" x="284.369872" y="47.252152" style="fill: #1f77b4; stroke: #1f77b4"/>
     <use xlink:href="#m699fbc95ff" x="284.369872" y="43.991149" style="fill: #1f77b4; stroke: #1f77b4"/>
     <use xlink:href="#m699fbc95ff" x="320.442599" y="41.525375" style="fill: #1f77b4; stroke: #1f77b4"/>
     <use xlink:href="#m699fbc95ff" x="320.442599" y="42.024103" style="fill: #1f77b4; stroke: #1f77b4"/>
     <use xlink:href="#m699fbc95ff" x="356.515327" y="37.981448" style="fill: #1f77b4; stroke: #1f77b4"/>
     <use xlink:href="#m699fbc95ff" x="356.515327" y="41.428308" style="fill: #1f77b4; stroke: #1f77b4"/>
     <use xlink:href="#m699fbc95ff" x="392.588054" y="38.305879" style="fill: #1f77b4; stroke: #1f77b4"/>
     <use xlink:href="#m699fbc95ff" x="392.588054" y="39.183814" style="fill: #1f77b4; stroke: #1f77b4"/>
    </g>
   </g>
   <g id="line2d_46">
    <path d="M 67.933509 203.765712 
L 67.933509 191.981858 
L 104.006236 168.390331 
L 104.006236 165.583509 
L 140.078963 142.296713 
L 140.078963 136.587184 
L 176.15169 114.476862 
L 176.15169 109.602625 
L 212.224418 88.024768 
L 212.224418 83.02033 
L 248.297145 63.489214 
L 248.297145 58.974521 
L 284.369872 43.985662 
L 284.369872 45.465108 
L 320.442599 36.666479 
L 320.442599 37.250044 
L 356.515327 45.161451 
L 356.515327 35.836295 
L 392.588054 37.130871 
L 392.588054 44.193971 
" clip-path="url(#p3d843f3c84)" style="fill: none; stroke: #ff7f0e; stroke-width: 1.5; stroke-linecap: square"/>
    <defs>
     <path id="mf1a1c687ea" d="M -0 3 
L 3 -3 
L -3 -3 
z
" style="stroke: #ff7f0e; stroke-linejoin: miter"/>
    </defs>
    <g clip-path="url(#p3d843f3c84)">
     <use xlink:href="#mf1a1c687ea" x="67.933509" y="203.765712" style="fill: #ff7f0e; stroke: #ff7f0e; stroke-linejoin: miter"/>
     <use xlink:href="#mf1a1c687ea" x="67.933509" y="191.981858" style="fill: #ff7f0e; stroke: #ff7f0e; stroke-linejoin: miter"/>
     <use xlink:href="#mf1a1c687ea" x="104.006236" y="168.390331" style="fill: #ff7f0e; stroke: #ff7f0e; stroke-linejoin: miter"/>
     <use xlink:href="#mf1a1c687ea" x="104.006236" y="165.583509" style="fill: #ff7f0e; stroke: #ff7f0e; stroke-linejoin: miter"/>
     <use xlink:href="#mf1a1c687ea" x="140.078963" y="142.296713" style="fill: #ff7f0e; stroke: #ff7f0e; stroke-linejoin: miter"/>
     <use xlink:href="#mf1a1c687ea" x="140.078963" y="136.587184" style="fill: #ff7f0e; stroke: #ff7f0e; stroke-linejoin: miter"/>
     <use xlink:href="#mf1a1c687ea" x="176.15169" y="114.476862" style="fill: #ff7f0e; stroke: #ff7f0e; stroke-linejoin: miter"/>
     <use xlink:href="#mf1a1c687ea" x="176.15169" y="109.602625" style="fill: #ff7f0e; stroke: #ff7f0e; stroke-linejoin: miter"/>
     <use xlink:href="#mf1a1c687ea" x="212.224418" y="88.024768" style="fill: #ff7f0e; stroke: #ff7f0e; stroke-linejoin: miter"/>
     <use xlink:href="#mf1a1c687ea" x="212.224418" y="83.02033" style="fill: #ff7f0e; stroke: #ff7f0e; stroke-linejoin: miter"/>
     <use xlink:href="#mf1a1c687ea" x="248.297145" y="63.489214" style="fill: #ff7f0e; stroke: #ff7f0e; stroke-linejoin: miter"/>
     <use xlink:href="#mf1a1c687ea" x="248.297145" y="58.974521" style="fill: #ff7f0e; stroke: #ff7f0e; stroke-linejoin: miter"/>
     <use xlink:href="#mf1a1c687ea" x="284.369872" y="43.985662" style="fill: #ff7f0e; stroke: #ff7f0e; stroke-linejoin: miter"/>
     <use xlink:href="#mf1a1c687ea" x="284.369872" y="45.465108" style="fill: #ff7f0e; stroke: #ff7f0e; stroke-linejoin: miter"/>
     <use xlink:href="#mf1a1c687ea" x="320.442599" y="36.666479" style="fill: #ff7f0e; stroke: #ff7f0e; stroke-linejoin: miter"/>
     <use xlink:href="#mf1a1c687ea" x="320.442599" y="37.250044" style="fill: #ff7f0e; stroke: #ff7f0e; stroke-linejoin: miter"/>
     <use xlink:href="#mf1a1c687ea" x="356.515327" y="45.161451" style="fill: #ff7f0e; stroke: #ff7f0e; stroke-linejoin: miter"/>
     <use xlink:href="#mf1a1c687ea" x="356.515327" y="35.836295" style="fill: #ff7f0e; stroke: #ff7f0e; stroke-linejoin: miter"/>
     <use xlink:href="#mf1a1c687ea" x="392.588054" y="37.130871" style="fill: #ff7f0e; stroke: #ff7f0e; stroke-linejoin: miter"/>
     <use xlink:href="#mf1a1c687ea" x="392.588054" y="44.193971" style="fill: #ff7f0e; stroke: #ff7f0e; stroke-linejoin: miter"/>
    </g>
   </g>
   <g id="line2d_47">
    <path d="M 104.006236 221.007018 
L 140.078963 173.306893 
L 140.078963 168.976268 
L 176.15169 137.592413 
L 176.15169 132.5656 
L 212.224418 101.001018 
L 212.224418 96.109625 
L 248.297145 67.67773 
L 248.297145 63.374034 
L 284.369872 46.018906 
L 284.369872 35.225863 
L 320.442599 46.003567 
L 320.442599 47.738604 
L 356.515327 35.427209 
L 356.515327 47.676403 
L 392.588054 35.246602 
L 392.588054 46.669277 
" clip-path="url(#p3d843f3c84)" style="fill: none; stroke: #2ca02c; stroke-width: 1.5; stroke-linecap: square"/>
    <defs>
     <path id="mbed805735c" d="M 0 -3 
L -0.673542 -0.927051 
L -2.85317 -0.927051 
L -1.089814 0.354102 
L -1.763356 2.427051 
L -0 1.145898 
L 1.763356 2.427051 
L 1.089814 0.354102 
L 2.85317 -0.927051 
L 0.673542 -0.927051 
z
" style="stroke: #2ca02c; stroke-linejoin: bevel"/>
    </defs>
    <g clip-path="url(#p3d843f3c84)">
     <use xlink:href="#mbed805735c" x="104.006236" y="221.007018" style="fill: #2ca02c; stroke: #2ca02c; stroke-linejoin: bevel"/>
     <use xlink:href="#mbed805735c" x="140.078963" y="173.306893" style="fill: #2ca02c; stroke: #2ca02c; stroke-linejoin: bevel"/>
     <use xlink:href="#mbed805735c" x="140.078963" y="168.976268" style="fill: #2ca02c; stroke: #2ca02c; stroke-linejoin: bevel"/>
     <use xlink:href="#mbed805735c" x="176.15169" y="137.592413" style="fill: #2ca02c; stroke: #2ca02c; stroke-linejoin: bevel"/>
     <use xlink:href="#mbed805735c" x="176.15169" y="132.5656" style="fill: #2ca02c; stroke: #2ca02c; stroke-linejoin: bevel"/>
     <use xlink:href="#mbed805735c" x="212.224418" y="101.001018" style="fill: #2ca02c; stroke: #2ca02c; stroke-linejoin: bevel"/>
     <use xlink:href="#mbed805735c" x="212.224418" y="96.109625" style="fill: #2ca02c; stroke: #2ca02c; stroke-linejoin: bevel"/>
     <use xlink:href="#mbed805735c" x="248.297145" y="67.67773" style="fill: #2ca02c; stroke: #2ca02c; stroke-linejoin: bevel"/>
     <use xlink:href="#mbed805735c" x="248.297145" y="63.374034" style="fill: #2ca02c; stroke: #2ca02c; stroke-linejoin: bevel"/>
     <use xlink:href="#mbed805735c" x="284.369872" y="46.018906" style="fill: #2ca02c; stroke: #2ca02c; stroke-linejoin: bevel"/>
     <use xlink:href="#mbed805735c" x="284.369872" y="35.225863" style="fill: #2ca02c; stroke: #2ca02c; stroke-linejoin: bevel"/>
     <use xlink:href="#mbed805735c" x="320.442599" y="46.003567" style="fill: #2ca02c; stroke: #2ca02c; stroke-linejoin: bevel"/>
     <use xlink:href="#mbed805735c" x="320.442599" y="47.738604" style="fill: #2ca02c; stroke: #2ca02c; stroke-linejoin: bevel"/>
     <use xlink:href="#mbed805735c" x="356.515327" y="35.427209" style="fill: #2ca02c; stroke: #2ca02c; stroke-linejoin: bevel"/>
     <use xlink:href="#mbed805735c" x="356.515327" y="47.676403" style="fill: #2ca02c; stroke: #2ca02c; stroke-linejoin: bevel"/>
     <use xlink:href="#mbed805735c" x="392.588054" y="35.246602" style="fill: #2ca02c; stroke: #2ca02c; stroke-linejoin: bevel"/>
     <use xlink:href="#mbed805735c" x="392.588054" y="46.669277" style="fill: #2ca02c; stroke: #2ca02c; stroke-linejoin: bevel"/>
    </g>
   </g>
   <g id="patch_3">
    <path d="M 51.700781 288.430125 
L 51.700781 22.318125 
" style="fill: none; stroke: #000000; stroke-width: 0.8; stroke-linejoin: miter; stroke-linecap: square"/>
   </g>
   <g id="patch_4">
    <path d="M 408.820781 288.430125 
L 408.820781 22.318125 
" style="fill: none; stroke: #000000; stroke-width: 0.8; stroke-linejoin: miter; stroke-linecap: square"/>
   </g>
   <g id="patch_5">
    <path d="M 51.700781 288.430125 
L 408.820781 288.430125 
" style="fill: none; stroke: #000000; stroke-width: 0.8; stroke-linejoin: miter; stroke-linecap: square"/>
   </g>
   <g id="patch_6">
    <path d="M 51.700781 22.318125 
L 408.820781 22.318125 
" style="fill: none; stroke: #000000; stroke-width: 0.8; stroke-linejoin: miter; stroke-linecap: square"/>
   </g>
   <g id="text_12">
    <!-- Three CNOTs Error Rate -->
    <g transform="translate(159.772969 16.318125) scale(0.12 -0.12)">
     <defs>
      <path id="DejaVuSans-37" d="M -19 4666 
L 3928 4666 
L 3928 4134 
L 2272 4134 
L 2272 0 
L 1638 0 
L 1638 4134 
L -19 4134 
L -19 4666 
z
" transform="scale(0.015625)"/>
      <path id="DejaVuSans-26" d="M 4122 4306 
L 4122 3641 
Q 3803 3938 3442 4084 
Q 3081 4231 2675 4231 
Q 1875 4231 1450 3742 
Q 1025 3253 1025 2328 
Q 1025 1406 1450 917 
Q 1875 428 2675 428 
Q 3081 428 3442 575 
Q 3803 722 4122 1019 
L 4122 359 
Q 3791 134 3420 21 
Q 3050 -91 2638 -91 
Q 1578 -91 968 557 
Q 359 1206 359 2328 
Q 359 3453 968 4101 
Q 1578 4750 2638 4750 
Q 3056 4750 3426 4639 
Q 3797 4528 4122 4306 
z
" transform="scale(0.015625)"/>
      <path id="DejaVuSans-31" d="M 628 4666 
L 1478 4666 
L 3547 763 
L 3547 4666 
L 4159 4666 
L 4159 0 
L 3309 0 
L 1241 3903 
L 1241 0 
L 628 0 
L 628 4666 
z
" transform="scale(0.015625)"/>
      <path id="DejaVuSans-32" d="M 2522 4238 
Q 1834 4238 1429 3725 
Q 1025 3213 1025 2328 
Q 1025 1447 1429 934 
Q 1834 422 2522 422 
Q 3209 422 3611 934 
Q 4013 1447 4013 2328 
Q 4013 3213 3611 3725 
Q 3209 4238 2522 4238 
z
M 2522 4750 
Q 3503 4750 4090 4092 
Q 4678 3434 4678 2328 
Q 4678 1225 4090 567 
Q 3503 -91 2522 -91 
Q 1538 -91 948 565 
Q 359 1222 359 2328 
Q 359 3434 948 4092 
Q 1538 4750 2522 4750 
z
" transform="scale(0.015625)"/>
     </defs>
     <use xlink:href="#DejaVuSans-37"/>
     <use xlink:href="#DejaVuSans-4b" transform="translate(61.078125 0)"/>
     <use xlink:href="#DejaVuSans-55" transform="translate(124.453125 0)"/>
     <use xlink:href="#DejaVuSans-48" transform="translate(163.359375 0)"/>
     <use xlink:href="#DejaVuSans-48" transform="translate(224.890625 0)"/>
     <use xlink:href="#DejaVuSans-3" transform="translate(286.421875 0)"/>
     <use xlink:href="#DejaVuSans-26" transform="translate(318.203125 0)"/>
     <use xlink:href="#DejaVuSans-31" transform="translate(388.03125 0)"/>
     <use xlink:href="#DejaVuSans-32" transform="translate(462.84375 0)"/>
     <use xlink:href="#DejaVuSans-37" transform="translate(541.5625 0)"/>
     <use xlink:href="#DejaVuSans-56" transform="translate(586.09375 0)"/>
     <use xlink:href="#DejaVuSans-3" transform="translate(638.1875 0)"/>
     <use xlink:href="#DejaVuSans-28" transform="translate(669.96875 0)"/>
     <use xlink:href="#DejaVuSans-55" transform="translate(733.15625 0)"/>
     <use xlink:href="#DejaVuSans-55" transform="translate(772.515625 0)"/>
     <use xlink:href="#DejaVuSans-52" transform="translate(811.421875 0)"/>
     <use xlink:href="#DejaVuSans-55" transform="translate(872.609375 0)"/>
     <use xlink:href="#DejaVuSans-3" transform="translate(913.71875 0)"/>
     <use xlink:href="#DejaVuSans-35" transform="translate(945.5 0)"/>
     <use xlink:href="#DejaVuSans-44" transform="translate(1012.78125 0)"/>
     <use xlink:href="#DejaVuSans-57" transform="translate(1074.0625 0)"/>
     <use xlink:href="#DejaVuSans-48" transform="translate(1113.265625 0)"/>
    </g>
   </g>
   <g id="patch_7">
    <path d="M 268.593581 288.430125 
L 388.343981 288.430125 
L 388.343981 168.679725 
L 268.593581 168.679725 
L 268.593581 288.430125 
z
" style="fill: none"/>
   </g>
   <g id="axes_2">
    <g id="line2d_48">
     <path d="M 301.786474 225.842149 
L 320.513997 231.352954 
" clip-path="url(#peadf56f1d1)" style="fill: none; stroke: #7f7f7f; stroke-linecap: square"/>
    </g>
    <g id="line2d_49">
     <path d="M 308.917747 241.293753 
L 320.513997 231.352954 
" clip-path="url(#peadf56f1d1)" style="fill: none; stroke: #7f7f7f; stroke-linecap: square"/>
    </g>
    <g id="line2d_50">
     <path d="M 320.513997 231.352954 
L 331.530995 221.908716 
" clip-path="url(#peadf56f1d1)" style="fill: none; stroke: #7f7f7f; stroke-linecap: square"/>
    </g>
    <g id="line2d_51">
     <path d="M 320.513997 231.352954 
L 339.803765 237.029208 
" clip-path="url(#peadf56f1d1)" style="fill: none; stroke: #7f7f7f; stroke-linecap: square"/>
    </g>
    <g id="line2d_52">
     <path d="M 331.530995 221.908716 
L 350.493124 227.302949 
" clip-path="url(#peadf56f1d1)" style="fill: none; stroke: #7f7f7f; stroke-linecap: square"/>
    </g>
    <g id="line2d_53">
     <path d="M 339.679068 251.287745 
L 339.803765 237.029208 
" clip-path="url(#peadf56f1d1)" style="fill: none; stroke: #7f7f7f; stroke-linecap: square"/>
    </g>
    <g id="line2d_54">
     <path d="M 339.803765 237.029208 
L 339.931747 222.395063 
" clip-path="url(#peadf56f1d1)" style="fill: none; stroke: #7f7f7f; stroke-linecap: square"/>
    </g>
    <g id="line2d_55">
     <path d="M 339.931747 222.395063 
L 350.755 212.919592 
" clip-path="url(#peadf56f1d1)" style="fill: none; stroke: #7f7f7f; stroke-linecap: square"/>
    </g>
    <g id="line2d_56">
     <path d="M 339.931747 222.395063 
L 340.063146 207.370272 
" clip-path="url(#peadf56f1d1)" style="fill: none; stroke: #7f7f7f; stroke-linecap: square"/>
    </g>
    <g id="line2d_57">
     <path d="M 350.237801 241.326374 
L 350.493124 227.302949 
" clip-path="url(#peadf56f1d1)" style="fill: none; stroke: #7f7f7f; stroke-linecap: square"/>
    </g>
    <g id="line2d_58">
     <path d="M 350.493124 227.302949 
L 350.755 212.919592 
" clip-path="url(#peadf56f1d1)" style="fill: none; stroke: #7f7f7f; stroke-linecap: square"/>
    </g>
    <g id="line2d_59">
     <path d="M 350.493124 227.302949 
L 370.018352 232.85737 
" clip-path="url(#peadf56f1d1)" style="fill: none; stroke: #7f7f7f; stroke-linecap: square"/>
    </g>
    <g id="line2d_60">
     <path d="M 339.931747 222.395063 
L 339.997011 214.93247 
" clip-path="url(#peadf56f1d1)" style="fill: none; stroke: #7396ff; stroke-width: 3; stroke-linecap: square"/>
    </g>
    <g id="line2d_61">
     <path d="M 339.931747 222.395063 
L 345.413725 217.595737 
" clip-path="url(#peadf56f1d1)" style="fill: none; stroke: #7396ff; stroke-width: 3; stroke-linecap: square"/>
    </g>
    <g id="line2d_62">
     <path d="M 340.063146 207.370272 
L 339.997011 214.93247 
" clip-path="url(#peadf56f1d1)" style="fill: none; stroke: #7396ff; stroke-width: 3; stroke-linecap: square"/>
    </g>
    <g id="line2d_63">
     <path d="M 350.755 212.919592 
L 345.413725 217.595737 
" clip-path="url(#peadf56f1d1)" style="fill: none; stroke: #7396ff; stroke-width: 3; stroke-linecap: square"/>
    </g>
    <g id="line2d_64">
     <path d="M 350.755 212.919592 
L 350.623227 220.157123 
" clip-path="url(#peadf56f1d1)" style="fill: none; stroke: #7396ff; stroke-width: 3; stroke-linecap: square"/>
    </g>
    <g id="line2d_65">
     <path d="M 350.493124 227.302949 
L 360.183794 230.059694 
" clip-path="url(#peadf56f1d1)" style="fill: none; stroke: #7396ff; stroke-width: 3; stroke-linecap: square"/>
    </g>
    <g id="line2d_66">
     <path d="M 350.493124 227.302949 
L 350.623227 220.157123 
" clip-path="url(#peadf56f1d1)" style="fill: none; stroke: #7396ff; stroke-width: 3; stroke-linecap: square"/>
    </g>
    <g id="line2d_67">
     <path d="M 350.493124 227.302949 
L 350.364658 234.358804 
" clip-path="url(#peadf56f1d1)" style="fill: none; stroke: #7396ff; stroke-width: 3; stroke-linecap: square"/>
    </g>
    <g id="line2d_68">
     <path d="M 350.493124 227.302949 
L 340.943205 224.586245 
" clip-path="url(#peadf56f1d1)" style="fill: none; stroke: #7396ff; stroke-width: 3; stroke-linecap: square"/>
    </g>
    <g id="line2d_69">
     <path d="M 370.018352 232.85737 
L 360.183794 230.059694 
" clip-path="url(#peadf56f1d1)" style="fill: none; stroke: #7396ff; stroke-width: 3; stroke-linecap: square"/>
    </g>
    <g id="line2d_70">
     <path d="M 350.237801 241.326374 
L 350.364658 234.358804 
" clip-path="url(#peadf56f1d1)" style="fill: none; stroke: #7396ff; stroke-width: 3; stroke-linecap: square"/>
    </g>
    <g id="line2d_71">
     <path d="M 331.530995 221.908716 
L 340.943205 224.586245 
" clip-path="url(#peadf56f1d1)" style="fill: none; stroke: #7396ff; stroke-width: 3; stroke-linecap: square"/>
    </g>
    <g id="line2d_72">
     <path d="M 331.530995 221.908716 
L 326.092156 226.57112 
" clip-path="url(#peadf56f1d1)" style="fill: none; stroke: #7396ff; stroke-width: 3; stroke-linecap: square"/>
    </g>
    <g id="line2d_73">
     <path d="M 308.917747 241.293753 
L 314.791097 236.258868 
" clip-path="url(#peadf56f1d1)" style="fill: none; stroke: #7396ff; stroke-width: 3; stroke-linecap: square"/>
    </g>
    <g id="line2d_74">
     <path d="M 320.513997 231.352954 
L 314.791097 236.258868 
" clip-path="url(#peadf56f1d1)" style="fill: none; stroke: #7396ff; stroke-width: 3; stroke-linecap: square"/>
    </g>
    <g id="line2d_75">
     <path d="M 320.513997 231.352954 
L 326.092156 226.57112 
" clip-path="url(#peadf56f1d1)" style="fill: none; stroke: #7396ff; stroke-width: 3; stroke-linecap: square"/>
    </g>
    <g id="Path3DCollection_1">
     <defs>
      <path id="C0_0_ebfb6700ef" d="M 0 3.535534 
C 0.937635 3.535534 1.836992 3.163008 2.5 2.5 
C 3.163008 1.836992 3.535534 0.937635 3.535534 -0 
C 3.535534 -0.937635 3.163008 -1.836992 2.5 -2.5 
C 1.836992 -3.163008 0.937635 -3.535534 0 -3.535534 
C -0.937635 -3.535534 -1.836992 -3.163008 -2.5 -2.5 
C -3.163008 -1.836992 -3.535534 -0.937635 -3.535534 0 
C -3.535534 0.937635 -3.163008 1.836992 -2.5 2.5 
C -1.836992 3.163008 -0.937635 3.535534 0 3.535534 
z
"/>
     </defs>
     <g clip-path="url(#peadf56f1d1)">
      <use xlink:href="#C0_0_ebfb6700ef" x="331.530995" y="221.908716" style="fill: #7396ff; fill-opacity: 0.533267; stroke: #000000; stroke-opacity: 0.533267"/>
     </g>
     <g clip-path="url(#peadf56f1d1)">
      <use xlink:href="#C0_0_ebfb6700ef" x="350.237801" y="241.326374" style="fill: #ff7f7f; fill-opacity: 0.546398; stroke: #000000; stroke-opacity: 0.546398"/>
     </g>
     <g clip-path="url(#peadf56f1d1)">
      <use xlink:href="#C0_0_ebfb6700ef" x="301.786474" y="225.842149" style="fill: #ff7f7f; fill-opacity: 0.605642; stroke: #000000; stroke-opacity: 0.605642"/>
     </g>
     <g clip-path="url(#peadf56f1d1)">
      <use xlink:href="#C0_0_ebfb6700ef" x="350.493124" y="227.302949" style="fill: #ff7f7f; fill-opacity: 0.63252; stroke: #000000; stroke-opacity: 0.63252"/>
     </g>
     <g clip-path="url(#peadf56f1d1)">
      <use xlink:href="#C0_0_ebfb6700ef" x="320.513997" y="231.352954" style="fill: #7396ff; fill-opacity: 0.70704; stroke: #000000; stroke-opacity: 0.70704"/>
     </g>
     <g clip-path="url(#peadf56f1d1)">
      <use xlink:href="#C0_0_ebfb6700ef" x="350.755" y="212.919592" style="fill: #7396ff; fill-opacity: 0.720853; stroke: #000000; stroke-opacity: 0.720853"/>
     </g>
     <g clip-path="url(#peadf56f1d1)">
      <use xlink:href="#C0_0_ebfb6700ef" x="339.679068" y="251.287745" style="fill: #ff7f7f; fill-opacity: 0.720853; stroke: #000000; stroke-opacity: 0.720853"/>
     </g>
     <g clip-path="url(#peadf56f1d1)">
      <use xlink:href="#C0_0_ebfb6700ef" x="370.018352" y="232.85737" style="fill: #ff7f7f; fill-opacity: 0.734721; stroke: #000000; stroke-opacity: 0.734721"/>
     </g>
     <g clip-path="url(#peadf56f1d1)">
      <use xlink:href="#C0_0_ebfb6700ef" x="339.803765" y="237.029208" style="fill: #ff7f7f; fill-opacity: 0.811483; stroke: #000000; stroke-opacity: 0.811483"/>
     </g>
     <g clip-path="url(#peadf56f1d1)">
      <use xlink:href="#C0_0_ebfb6700ef" x="308.917747" y="241.293753" style="fill: #ff7f7f; fill-opacity: 0.88995; stroke: #000000; stroke-opacity: 0.88995"/>
     </g>
     <g clip-path="url(#peadf56f1d1)">
      <use xlink:href="#C0_0_ebfb6700ef" x="339.931747" y="222.395063" style="fill: #7396ff; fill-opacity: 0.9045; stroke: #000000; stroke-opacity: 0.9045"/>
     </g>
     <g clip-path="url(#peadf56f1d1)">
      <use xlink:href="#C0_0_ebfb6700ef" x="340.063146" y="207.370272" style="fill: #ff7f7f; stroke: #000000"/>
     </g>
    </g>
   </g>
   <g id="legend_1">
    <g id="patch_8">
     <path d="M 58.700781 75.320469 
L 97.063281 75.320469 
Q 99.063281 75.320469 99.063281 73.320469 
L 99.063281 29.318125 
Q 99.063281 27.318125 97.063281 27.318125 
L 58.700781 27.318125 
Q 56.700781 27.318125 56.700781 29.318125 
L 56.700781 73.320469 
Q 56.700781 75.320469 58.700781 75.320469 
z
" style="fill: #ffffff; opacity: 0.8; stroke: #cccccc; stroke-linejoin: miter"/>
    </g>
    <g id="line2d_76">
     <path d="M 60.700781 35.416562 
L 70.700781 35.416562 
L 80.700781 35.416562 
" style="fill: none; stroke: #1f77b4; stroke-width: 1.5; stroke-linecap: square"/>
     <g>
      <use xlink:href="#m699fbc95ff" x="70.700781" y="35.416562" style="fill: #1f77b4; stroke: #1f77b4"/>
     </g>
    </g>
    <g id="text_13">
     <!-- 3 -->
     <g transform="translate(88.700781 38.916562) scale(0.1 -0.1)">
      <use xlink:href="#DejaVuSans-16"/>
     </g>
    </g>
    <g id="line2d_77">
     <path d="M 60.700781 50.417344 
L 70.700781 50.417344 
L 80.700781 50.417344 
" style="fill: none; stroke: #ff7f0e; stroke-width: 1.5; stroke-linecap: square"/>
     <g>
      <use xlink:href="#mf1a1c687ea" x="70.700781" y="50.417344" style="fill: #ff7f0e; stroke: #ff7f0e; stroke-linejoin: miter"/>
     </g>
    </g>
    <g id="text_14">
     <!-- 5 -->
     <g transform="translate(88.700781 53.917344) scale(0.1 -0.1)">
      <defs>
       <path id="DejaVuSans-18" d="M 691 4666 
L 3169 4666 
L 3169 4134 
L 1269 4134 
L 1269 2991 
Q 1406 3038 1543 3061 
Q 1681 3084 1819 3084 
Q 2600 3084 3056 2656 
Q 3513 2228 3513 1497 
Q 3513 744 3044 326 
Q 2575 -91 1722 -91 
Q 1428 -91 1123 -41 
Q 819 9 494 109 
L 494 744 
Q 775 591 1075 516 
Q 1375 441 1709 441 
Q 2250 441 2565 725 
Q 2881 1009 2881 1497 
Q 2881 1984 2565 2268 
Q 2250 2553 1709 2553 
Q 1456 2553 1204 2497 
Q 953 2441 691 2322 
L 691 4666 
z
" transform="scale(0.015625)"/>
      </defs>
      <use xlink:href="#DejaVuSans-18"/>
     </g>
    </g>
    <g id="line2d_78">
     <path d="M 60.700781 65.418125 
L 70.700781 65.418125 
L 80.700781 65.418125 
" style="fill: none; stroke: #2ca02c; stroke-width: 1.5; stroke-linecap: square"/>
     <g>
      <use xlink:href="#mbed805735c" x="70.700781" y="65.418125" style="fill: #2ca02c; stroke: #2ca02c; stroke-linejoin: bevel"/>
     </g>
    </g>
    <g id="text_15">
     <!-- 7 -->
     <g transform="translate(88.700781 68.918125) scale(0.1 -0.1)">
      <defs>
       <path id="DejaVuSans-1a" d="M 525 4666 
L 3525 4666 
L 3525 4397 
L 1831 0 
L 1172 0 
L 2766 4134 
L 525 4134 
L 525 4666 
z
" transform="scale(0.015625)"/>
      </defs>
      <use xlink:href="#DejaVuSans-1a"/>
     </g>
    </g>
   </g>
  </g>
 </g>
 <defs>
  <clipPath id="p3d843f3c84">
   <rect x="51.700781" y="22.318125" width="357.12" height="266.112"/>
  </clipPath>
  <clipPath id="peadf56f1d1">
   <rect x="268.593581" y="168.679725" width="119.7504" height="119.7504"/>
  </clipPath>
 </defs>
</svg>
