<?xml version="1.0" encoding="utf-8" standalone="no"?>
<!DOCTYPE svg PUBLIC "-//W3C//DTD SVG 1.1//EN"
  "http://www.w3.org/Graphics/SVG/1.1/DTD/svg11.dtd">
<svg xmlns:xlink="http://www.w3.org/1999/xlink" width="416.020781pt" height="328.43325pt" viewBox="0 0 416.020781 328.43325" xmlns="http://www.w3.org/2000/svg" version="1.1">
 <metadata>
  <rdf:RDF xmlns:dc="http://purl.org/dc/elements/1.1/" xmlns:cc="http://creativecommons.org/ns#" xmlns:rdf="http://www.w3.org/1999/02/22-rdf-syntax-ns#">
   <cc:Work>
    <dc:type rdf:resource="http://purl.org/dc/dcmitype/StillImage"/>
    <dc:date>2026-06-18T08:44:13.187659</dc:date>
    <dc:format>image/svg+xml</dc:format>
    <dc:creator>
     <cc:Agent>
      <dc:title>Matplotlib v3.11.0, https://matplotlib.org/</dc:title>
     </cc:Agent>
    </dc:creator>
   </cc:Work>
  </rdf:RDF>
 </metadata>
 <defs>
  <style type="text/css">*{stroke-linejoin: round; stroke-linecap: butt}</style>
 </defs>
 <g id="figure_1">
  <g id="patch_1">
   <path d="M 0 328.43325 
L 416.020781 328.43325 
L 416.020781 0 
L 0 0 
z
" style="fill: #ffffff"/>
  </g>
  <g id="axes_1">
   <g id="patch_2">
    <path d="M 51.700781 288.430125 
L 408.820781 288.430125 
L 408.820781 22.318125 
L 51.700781 22.318125 
z
" style="fill: #ffffff"/>
   </g>
   <g id="FillBetweenPolyCollection_1">
    <defs>
     <path id="m2e19ad4a66" d="M 67.933509 -182.12384 
L 67.933509 -175.062228 
L 67.933509 -182.837798 
L 104.006236 -197.165723 
L 104.006236 -203.46738 
L 140.078963 -216.068785 
L 140.078963 -222.029359 
L 176.15169 -234.089086 
L 176.15169 -240.124357 
L 212.224418 -251.899485 
L 212.224418 -257.554652 
L 248.297145 -268.414258 
L 248.297145 -273.207258 
L 284.369872 -281.093194 
L 284.369872 -283.861751 
L 320.442599 -285.918257 
L 320.442599 -285.376807 
L 356.515327 -285.51032 
L 356.515327 -285.248809 
L 392.588054 -285.078099 
L 392.588054 -286.238851 
L 392.588054 -291.550979 
L 392.588054 -291.550979 
L 392.588054 -290.944652 
L 356.515327 -291.076875 
L 356.515327 -291.25883 
L 320.442599 -291.167528 
L 320.442599 -291.435045 
L 284.369872 -285.913095 
L 284.369872 -282.073439 
L 248.297145 -273.927347 
L 248.297145 -269.173025 
L 212.224418 -258.261168 
L 212.224418 -252.759055 
L 176.15169 -240.843159 
L 176.15169 -234.990913 
L 140.078963 -223.170996 
L 140.078963 -217.520489 
L 104.006236 -205.86708 
L 104.006236 -200.238915 
L 67.933509 -188.149086 
L 67.933509 -182.12384 
z
" style="stroke: #1f77b4; stroke-opacity: 0.2"/>
    </defs>
    <g clip-path="url(#p6cde46997a)">
     <use xlink:href="#m2e19ad4a66" x="0" y="328.43325" style="fill: #1f77b4; fill-opacity: 0.2; stroke: #1f77b4; stroke-opacity: 0.2"/>
    </g>
   </g>
   <g id="FillBetweenPolyCollection_2">
    <defs>
     <path id="me2defbb0ff" d="M 67.933509 -141.977116 
L 67.933509 -64.479811 
L 67.933509 -108.836849 
L 104.006236 -152.843398 
L 104.006236 -154.736766 
L 140.078963 -184.883979 
L 140.078963 -186.46481 
L 176.15169 -213.438775 
L 176.15169 -215.544998 
L 212.224418 -240.18686 
L 212.224418 -243.092805 
L 248.297145 -265.132175 
L 248.297145 -268.259467 
L 284.369872 -281.473738 
L 284.369872 -281.584854 
L 320.442599 -282.053703 
L 320.442599 -282.242464 
L 356.515327 -281.408638 
L 356.515327 -282.04594 
L 392.588054 -282.315586 
L 392.588054 -281.487336 
L 392.588054 -292.536138 
L 392.588054 -292.536138 
L 392.588054 -292.975999 
L 356.515327 -292.846294 
L 356.515327 -292.463867 
L 320.442599 -292.935872 
L 320.442599 -292.861635 
L 284.369872 -292.633196 
L 284.369872 -292.525769 
L 248.297145 -269.064264 
L 248.297145 -265.937922 
L 212.224418 -243.905038 
L 212.224418 -241.083276 
L 176.15169 -216.70391 
L 176.15169 -214.700161 
L 140.078963 -190.132357 
L 140.078963 -188.7814 
L 104.006236 -166.25509 
L 104.006236 -165.096257 
L 67.933509 -147.656188 
L 67.933509 -141.977116 
z
" style="stroke: #ff7f0e; stroke-opacity: 0.2"/>
    </defs>
    <g clip-path="url(#p6cde46997a)">
     <use xlink:href="#me2defbb0ff" x="0" y="328.43325" style="fill: #ff7f0e; fill-opacity: 0.2; stroke: #ff7f0e; stroke-opacity: 0.2"/>
    </g>
   </g>
   <g id="FillBetweenPolyCollection_3">
    <path d="M 67.933509 197.716016 
L 67.933509 27718.931626 
L 67.933509 27718.931626 
L 104.006236 276.334125 
L 104.006236 27718.931626 
L 140.078963 180.226507 
L 140.078963 184.436174 
L 176.15169 138.370339 
L 176.15169 138.477177 
L 212.224418 101.323733 
L 212.224418 99.938775 
L 248.297145 67.608364 
L 248.297145 65.15506 
L 284.369872 49.082806 
L 284.369872 48.334638 
L 320.442599 48.327662 
L 320.442599 49.02036 
L 356.515327 49.369698 
L 356.515327 49.094054 
L 392.588054 48.993586 
L 392.588054 48.457316 
L 392.588054 34.498001 
L 392.588054 34.498001 
L 392.588054 34.610428 
L 356.515327 34.602836 
L 356.515327 34.823302 
L 320.442599 34.64321 
L 320.442599 34.540829 
L 284.369872 34.414125 
L 284.369872 34.598315 
L 248.297145 64.338763 
L 248.297145 66.787415 
L 212.224418 99.062192 
L 212.224418 100.412657 
L 176.15169 135.741185 
L 176.15169 135.645781 
L 140.078963 170.164392 
L 140.078963 167.738631 
L 104.006236 197.716016 
L 104.006236 192.9981 
L 67.933509 197.716016 
L 67.933509 197.716016 
z
" clip-path="url(#p6cde46997a)" style="fill: #2ca02c; fill-opacity: 0.2; stroke: #2ca02c; stroke-opacity: 0.2"/>
   </g>
   <g id="matplotlib.axis_1">
    <g id="xtick_1">
     <g id="line2d_1">
      <path d="M 67.933509 288.430125 
L 67.933509 22.318125 
" clip-path="url(#p6cde46997a)" style="fill: none; stroke: #b0b0b0; stroke-width: 0.8; stroke-linecap: square"/>
     </g>
     <g id="line2d_2">
      <defs>
       <path id="md73264bd1a" d="M 0 0 
L 0 3.5 
" style="stroke: #000000; stroke-width: 0.8"/>
      </defs>
      <g>
       <use xlink:href="#md73264bd1a" x="67.933509" y="288.430125" style="stroke: #000000; stroke-width: 0.8"/>
      </g>
     </g>
     <g id="text_1">
      <!-- $\mathdefault{10^{-4}}$ -->
      <g transform="translate(56.183509 304.730125) scale(0.1 -0.1)">
       <defs>
        <path id="DejaVuSans-14" d="M 794 531 
L 1825 531 
L 1825 4091 
L 703 3866 
L 703 4441 
L 1819 4666 
L 2450 4666 
L 2450 531 
L 3481 531 
L 3481 0 
L 794 0 
L 794 531 
z
" transform="scale(0.015625)"/>
        <path id="DejaVuSans-13" d="M 2034 4250 
Q 1547 4250 1301 3770 
Q 1056 3291 1056 2328 
Q 1056 1369 1301 889 
Q 1547 409 2034 409 
Q 2525 409 2770 889 
Q 3016 1369 3016 2328 
Q 3016 3291 2770 3770 
Q 2525 4250 2034 4250 
z
M 2034 4750 
Q 2819 4750 3233 4129 
Q 3647 3509 3647 2328 
Q 3647 1150 3233 529 
Q 2819 -91 2034 -91 
Q 1250 -91 836 529 
Q 422 1150 422 2328 
Q 422 3509 836 4129 
Q 1250 4750 2034 4750 
z
" transform="scale(0.015625)"/>
        <path id="DejaVuSans-c9c" d="M 678 2272 
L 4684 2272 
L 4684 1741 
L 678 1741 
L 678 2272 
z
" transform="scale(0.015625)"/>
        <path id="DejaVuSans-17" d="M 2419 4116 
L 825 1625 
L 2419 1625 
L 2419 4116 
z
M 2253 4666 
L 3047 4666 
L 3047 1625 
L 3713 1625 
L 3713 1100 
L 3047 1100 
L 3047 0 
L 2419 0 
L 2419 1100 
L 313 1100 
L 313 1709 
L 2253 4666 
z
" transform="scale(0.015625)"/>
       </defs>
       <use xlink:href="#DejaVuSans-14" transform="translate(0 0.665625)"/>
       <use xlink:href="#DejaVuSans-13" transform="translate(63.623047 0.665625)"/>
       <use xlink:href="#DejaVuSans-c9c" transform="translate(128.203125 41.965625) scale(0.7)"/>
       <use xlink:href="#DejaVuSans-17" transform="translate(186.855469 41.965625) scale(0.7)"/>
      </g>
     </g>
    </g>
    <g id="xtick_2">
     <g id="line2d_3">
      <path d="M 176.15169 288.430125 
L 176.15169 22.318125 
" clip-path="url(#p6cde46997a)" style="fill: none; stroke: #b0b0b0; stroke-width: 0.8; stroke-linecap: square"/>
     </g>
     <g id="line2d_4">
      <g>
       <use xlink:href="#md73264bd1a" x="176.15169" y="288.430125" style="stroke: #000000; stroke-width: 0.8"/>
      </g>
     </g>
     <g id="text_2">
      <!-- $\mathdefault{10^{-3}}$ -->
      <g transform="translate(164.40169 304.830125) scale(0.1 -0.1)">
       <defs>
        <path id="DejaVuSans-16" d="M 2597 2516 
Q 3050 2419 3304 2112 
Q 3559 1806 3559 1356 
Q 3559 666 3084 287 
Q 2609 -91 1734 -91 
Q 1441 -91 1130 -33 
Q 819 25 488 141 
L 488 750 
Q 750 597 1062 519 
Q 1375 441 1716 441 
Q 2309 441 2620 675 
Q 2931 909 2931 1356 
Q 2931 1769 2642 2001 
Q 2353 2234 1838 2234 
L 1294 2234 
L 1294 2753 
L 1863 2753 
Q 2328 2753 2575 2939 
Q 2822 3125 2822 3475 
Q 2822 3834 2567 4026 
Q 2313 4219 1838 4219 
Q 1578 4219 1281 4162 
Q 984 4106 628 3988 
L 628 4550 
Q 988 4650 1302 4700 
Q 1616 4750 1894 4750 
Q 2613 4750 3031 4423 
Q 3450 4097 3450 3541 
Q 3450 3153 3228 2886 
Q 3006 2619 2597 2516 
z
" transform="scale(0.015625)"/>
       </defs>
       <use xlink:href="#DejaVuSans-14" transform="translate(0 0.746875)"/>
       <use xlink:href="#DejaVuSans-13" transform="translate(63.623047 0.746875)"/>
       <use xlink:href="#DejaVuSans-c9c" transform="translate(128.203125 42.046875) scale(0.7)"/>
       <use xlink:href="#DejaVuSans-16" transform="translate(186.855469 42.046875) scale(0.7)"/>
      </g>
     </g>
    </g>
    <g id="xtick_3">
     <g id="line2d_5">
      <path d="M 284.369872 288.430125 
L 284.369872 22.318125 
" clip-path="url(#p6cde46997a)" style="fill: none; stroke: #b0b0b0; stroke-width: 0.8; stroke-linecap: square"/>
     </g>
     <g id="line2d_6">
      <g>
       <use xlink:href="#md73264bd1a" x="284.369872" y="288.430125" style="stroke: #000000; stroke-width: 0.8"/>
      </g>
     </g>
     <g id="text_3">
      <!-- $\mathdefault{10^{-2}}$ -->
      <g transform="translate(272.619872 304.830125) scale(0.1 -0.1)">
       <defs>
        <path id="DejaVuSans-15" d="M 1228 531 
L 3431 531 
L 3431 0 
L 469 0 
L 469 531 
Q 828 903 1448 1529 
Q 2069 2156 2228 2338 
Q 2531 2678 2651 2914 
Q 2772 3150 2772 3378 
Q 2772 3750 2511 3984 
Q 2250 4219 1831 4219 
Q 1534 4219 1204 4116 
Q 875 4013 500 3803 
L 500 4441 
Q 881 4594 1212 4672 
Q 1544 4750 1819 4750 
Q 2544 4750 2975 4387 
Q 3406 4025 3406 3419 
Q 3406 3131 3298 2873 
Q 3191 2616 2906 2266 
Q 2828 2175 2409 1742 
Q 1991 1309 1228 531 
z
" transform="scale(0.015625)"/>
       </defs>
       <use xlink:href="#DejaVuSans-14" transform="translate(0 0.746875)"/>
       <use xlink:href="#DejaVuSans-13" transform="translate(63.623047 0.746875)"/>
       <use xlink:href="#DejaVuSans-c9c" transform="translate(128.203125 42.046875) scale(0.7)"/>
       <use xlink:href="#DejaVuSans-15" transform="translate(186.855469 42.046875) scale(0.7)"/>
      </g>
     </g>
    </g>
    <g id="xtick_4">
     <g id="line2d_7">
      <path d="M 392.588054 288.430125 
L 392.588054 22.318125 
" clip-path="url(#p6cde46997a)" style="fill: none; stroke: #b0b0b0; stroke-width: 0.8; stroke-linecap: square"/>
     </g>
     <g id="line2d_8">
      <g>
       <use xlink:href="#md73264bd1a" x="392.588054" y="288.430125" style="stroke: #000000; stroke-width: 0.8"/>
      </g>
     </g>
     <g id="text_4">
      <!-- $\mathdefault{10^{-1}}$ -->
      <g transform="translate(380.838054 304.730125) scale(0.1 -0.1)">
       <use xlink:href="#DejaVuSans-14" transform="translate(0 0.665625)"/>
       <use xlink:href="#DejaVuSans-13" transform="translate(63.623047 0.665625)"/>
       <use xlink:href="#DejaVuSans-c9c" transform="translate(128.203125 41.965625) scale(0.7)"/>
       <use xlink:href="#DejaVuSans-14" transform="translate(186.855469 41.965625) scale(0.7)"/>
      </g>
     </g>
    </g>
    <g id="xtick_5">
     <g id="line2d_9">
      <defs>
       <path id="m7781a18312" d="M 0 0 
L 0 2 
" style="stroke: #000000; stroke-width: 0.6"/>
      </defs>
      <g>
       <use xlink:href="#m7781a18312" x="57.446083" y="288.430125" style="stroke: #000000; stroke-width: 0.6"/>
      </g>
     </g>
    </g>
    <g id="xtick_6">
     <g id="line2d_10">
      <g>
       <use xlink:href="#m7781a18312" x="62.981716" y="288.430125" style="stroke: #000000; stroke-width: 0.6"/>
      </g>
     </g>
    </g>
    <g id="xtick_7">
     <g id="line2d_11">
      <g>
       <use xlink:href="#m7781a18312" x="100.510427" y="288.430125" style="stroke: #000000; stroke-width: 0.6"/>
      </g>
     </g>
    </g>
    <g id="xtick_8">
     <g id="line2d_12">
      <g>
       <use xlink:href="#m7781a18312" x="119.566703" y="288.430125" style="stroke: #000000; stroke-width: 0.6"/>
      </g>
     </g>
    </g>
    <g id="xtick_9">
     <g id="line2d_13">
      <g>
       <use xlink:href="#m7781a18312" x="133.087346" y="288.430125" style="stroke: #000000; stroke-width: 0.6"/>
      </g>
     </g>
    </g>
    <g id="xtick_10">
     <g id="line2d_14">
      <g>
       <use xlink:href="#m7781a18312" x="143.574772" y="288.430125" style="stroke: #000000; stroke-width: 0.6"/>
      </g>
     </g>
    </g>
    <g id="xtick_11">
     <g id="line2d_15">
      <g>
       <use xlink:href="#m7781a18312" x="152.143622" y="288.430125" style="stroke: #000000; stroke-width: 0.6"/>
      </g>
     </g>
    </g>
    <g id="xtick_12">
     <g id="line2d_16">
      <g>
       <use xlink:href="#m7781a18312" x="159.388482" y="288.430125" style="stroke: #000000; stroke-width: 0.6"/>
      </g>
     </g>
    </g>
    <g id="xtick_13">
     <g id="line2d_17">
      <g>
       <use xlink:href="#m7781a18312" x="165.664265" y="288.430125" style="stroke: #000000; stroke-width: 0.6"/>
      </g>
     </g>
    </g>
    <g id="xtick_14">
     <g id="line2d_18">
      <g>
       <use xlink:href="#m7781a18312" x="171.199898" y="288.430125" style="stroke: #000000; stroke-width: 0.6"/>
      </g>
     </g>
    </g>
    <g id="xtick_15">
     <g id="line2d_19">
      <g>
       <use xlink:href="#m7781a18312" x="208.728609" y="288.430125" style="stroke: #000000; stroke-width: 0.6"/>
      </g>
     </g>
    </g>
    <g id="xtick_16">
     <g id="line2d_20">
      <g>
       <use xlink:href="#m7781a18312" x="227.784885" y="288.430125" style="stroke: #000000; stroke-width: 0.6"/>
      </g>
     </g>
    </g>
    <g id="xtick_17">
     <g id="line2d_21">
      <g>
       <use xlink:href="#m7781a18312" x="241.305528" y="288.430125" style="stroke: #000000; stroke-width: 0.6"/>
      </g>
     </g>
    </g>
    <g id="xtick_18">
     <g id="line2d_22">
      <g>
       <use xlink:href="#m7781a18312" x="251.792953" y="288.430125" style="stroke: #000000; stroke-width: 0.6"/>
      </g>
     </g>
    </g>
    <g id="xtick_19">
     <g id="line2d_23">
      <g>
       <use xlink:href="#m7781a18312" x="260.361804" y="288.430125" style="stroke: #000000; stroke-width: 0.6"/>
      </g>
     </g>
    </g>
    <g id="xtick_20">
     <g id="line2d_24">
      <g>
       <use xlink:href="#m7781a18312" x="267.606664" y="288.430125" style="stroke: #000000; stroke-width: 0.6"/>
      </g>
     </g>
    </g>
    <g id="xtick_21">
     <g id="line2d_25">
      <g>
       <use xlink:href="#m7781a18312" x="273.882447" y="288.430125" style="stroke: #000000; stroke-width: 0.6"/>
      </g>
     </g>
    </g>
    <g id="xtick_22">
     <g id="line2d_26">
      <g>
       <use xlink:href="#m7781a18312" x="279.41808" y="288.430125" style="stroke: #000000; stroke-width: 0.6"/>
      </g>
     </g>
    </g>
    <g id="xtick_23">
     <g id="line2d_27">
      <g>
       <use xlink:href="#m7781a18312" x="316.946791" y="288.430125" style="stroke: #000000; stroke-width: 0.6"/>
      </g>
     </g>
    </g>
    <g id="xtick_24">
     <g id="line2d_28">
      <g>
       <use xlink:href="#m7781a18312" x="336.003067" y="288.430125" style="stroke: #000000; stroke-width: 0.6"/>
      </g>
     </g>
    </g>
    <g id="xtick_25">
     <g id="line2d_29">
      <g>
       <use xlink:href="#m7781a18312" x="349.52371" y="288.430125" style="stroke: #000000; stroke-width: 0.6"/>
      </g>
     </g>
    </g>
    <g id="xtick_26">
     <g id="line2d_30">
      <g>
       <use xlink:href="#m7781a18312" x="360.011135" y="288.430125" style="stroke: #000000; stroke-width: 0.6"/>
      </g>
     </g>
    </g>
    <g id="xtick_27">
     <g id="line2d_31">
      <g>
       <use xlink:href="#m7781a18312" x="368.579986" y="288.430125" style="stroke: #000000; stroke-width: 0.6"/>
      </g>
     </g>
    </g>
    <g id="xtick_28">
     <g id="line2d_32">
      <g>
       <use xlink:href="#m7781a18312" x="375.824846" y="288.430125" style="stroke: #000000; stroke-width: 0.6"/>
      </g>
     </g>
    </g>
    <g id="xtick_29">
     <g id="line2d_33">
      <g>
       <use xlink:href="#m7781a18312" x="382.100629" y="288.430125" style="stroke: #000000; stroke-width: 0.6"/>
      </g>
     </g>
    </g>
    <g id="xtick_30">
     <g id="line2d_34">
      <g>
       <use xlink:href="#m7781a18312" x="387.636262" y="288.430125" style="stroke: #000000; stroke-width: 0.6"/>
      </g>
     </g>
    </g>
    <g id="text_5">
     <!-- Physical Error Rate -->
     <g transform="translate(183.09125 318.830906) scale(0.1 -0.1)">
      <defs>
       <path id="DejaVuSans-33" d="M 1259 4147 
L 1259 2394 
L 2053 2394 
Q 2494 2394 2734 2622 
Q 2975 2850 2975 3272 
Q 2975 3691 2734 3919 
Q 2494 4147 2053 4147 
L 1259 4147 
z
M 628 4666 
L 2053 4666 
Q 2838 4666 3239 4311 
Q 3641 3956 3641 3272 
Q 3641 2581 3239 2228 
Q 2838 1875 2053 1875 
L 1259 1875 
L 1259 0 
L 628 0 
L 628 4666 
z
" transform="scale(0.015625)"/>
       <path id="DejaVuSans-4b" d="M 3513 2113 
L 3513 0 
L 2938 0 
L 2938 2094 
Q 2938 2591 2744 2837 
Q 2550 3084 2163 3084 
Q 1697 3084 1428 2787 
Q 1159 2491 1159 1978 
L 1159 0 
L 581 0 
L 581 4863 
L 1159 4863 
L 1159 2956 
Q 1366 3272 1645 3428 
Q 1925 3584 2291 3584 
Q 2894 3584 3203 3211 
Q 3513 2838 3513 2113 
z
" transform="scale(0.015625)"/>
       <path id="DejaVuSans-5c" d="M 2059 -325 
Q 1816 -950 1584 -1140 
Q 1353 -1331 966 -1331 
L 506 -1331 
L 506 -850 
L 844 -850 
Q 1081 -850 1212 -737 
Q 1344 -625 1503 -206 
L 1606 56 
L 191 3500 
L 800 3500 
L 1894 763 
L 2988 3500 
L 3597 3500 
L 2059 -325 
z
" transform="scale(0.015625)"/>
       <path id="DejaVuSans-56" d="M 2834 3397 
L 2834 2853 
Q 2591 2978 2328 3040 
Q 2066 3103 1784 3103 
Q 1356 3103 1142 2972 
Q 928 2841 928 2578 
Q 928 2378 1081 2264 
Q 1234 2150 1697 2047 
L 1894 2003 
Q 2506 1872 2764 1633 
Q 3022 1394 3022 966 
Q 3022 478 2636 193 
Q 2250 -91 1575 -91 
Q 1294 -91 989 -36 
Q 684 19 347 128 
L 347 722 
Q 666 556 975 473 
Q 1284 391 1588 391 
Q 1994 391 2212 530 
Q 2431 669 2431 922 
Q 2431 1156 2273 1281 
Q 2116 1406 1581 1522 
L 1381 1569 
Q 847 1681 609 1914 
Q 372 2147 372 2553 
Q 372 3047 722 3315 
Q 1072 3584 1716 3584 
Q 2034 3584 2315 3537 
Q 2597 3491 2834 3397 
z
" transform="scale(0.015625)"/>
       <path id="DejaVuSans-4c" d="M 603 3500 
L 1178 3500 
L 1178 0 
L 603 0 
L 603 3500 
z
M 603 4863 
L 1178 4863 
L 1178 4134 
L 603 4134 
L 603 4863 
z
" transform="scale(0.015625)"/>
       <path id="DejaVuSans-46" d="M 3122 3366 
L 3122 2828 
Q 2878 2963 2633 3030 
Q 2388 3097 2138 3097 
Q 1578 3097 1268 2742 
Q 959 2388 959 1747 
Q 959 1106 1268 751 
Q 1578 397 2138 397 
Q 2388 397 2633 464 
Q 2878 531 3122 666 
L 3122 134 
Q 2881 22 2623 -34 
Q 2366 -91 2075 -91 
Q 1284 -91 818 406 
Q 353 903 353 1747 
Q 353 2603 823 3093 
Q 1294 3584 2113 3584 
Q 2378 3584 2631 3529 
Q 2884 3475 3122 3366 
z
" transform="scale(0.015625)"/>
       <path id="DejaVuSans-44" d="M 2194 1759 
Q 1497 1759 1228 1600 
Q 959 1441 959 1056 
Q 959 750 1161 570 
Q 1363 391 1709 391 
Q 2188 391 2477 730 
Q 2766 1069 2766 1631 
L 2766 1759 
L 2194 1759 
z
M 3341 1997 
L 3341 0 
L 2766 0 
L 2766 531 
Q 2569 213 2275 61 
Q 1981 -91 1556 -91 
Q 1019 -91 701 211 
Q 384 513 384 1019 
Q 384 1609 779 1909 
Q 1175 2209 1959 2209 
L 2766 2209 
L 2766 2266 
Q 2766 2663 2505 2880 
Q 2244 3097 1772 3097 
Q 1472 3097 1187 3025 
Q 903 2953 641 2809 
L 641 3341 
Q 956 3463 1253 3523 
Q 1550 3584 1831 3584 
Q 2591 3584 2966 3190 
Q 3341 2797 3341 1997 
z
" transform="scale(0.015625)"/>
       <path id="DejaVuSans-4f" d="M 603 4863 
L 1178 4863 
L 1178 0 
L 603 0 
L 603 4863 
z
" transform="scale(0.015625)"/>
       <path id="DejaVuSans-3" transform="scale(0.015625)"/>
       <path id="DejaVuSans-28" d="M 628 4666 
L 3578 4666 
L 3578 4134 
L 1259 4134 
L 1259 2753 
L 3481 2753 
L 3481 2222 
L 1259 2222 
L 1259 531 
L 3634 531 
L 3634 0 
L 628 0 
L 628 4666 
z
" transform="scale(0.015625)"/>
       <path id="DejaVuSans-55" d="M 2631 2963 
Q 2534 3019 2420 3045 
Q 2306 3072 2169 3072 
Q 1681 3072 1420 2755 
Q 1159 2438 1159 1844 
L 1159 0 
L 581 0 
L 581 3500 
L 1159 3500 
L 1159 2956 
Q 1341 3275 1631 3429 
Q 1922 3584 2338 3584 
Q 2397 3584 2469 3576 
Q 2541 3569 2628 3553 
L 2631 2963 
z
" transform="scale(0.015625)"/>
       <path id="DejaVuSans-52" d="M 1959 3097 
Q 1497 3097 1228 2736 
Q 959 2375 959 1747 
Q 959 1119 1226 758 
Q 1494 397 1959 397 
Q 2419 397 2687 759 
Q 2956 1122 2956 1747 
Q 2956 2369 2687 2733 
Q 2419 3097 1959 3097 
z
M 1959 3584 
Q 2709 3584 3137 3096 
Q 3566 2609 3566 1747 
Q 3566 888 3137 398 
Q 2709 -91 1959 -91 
Q 1206 -91 779 398 
Q 353 888 353 1747 
Q 353 2609 779 3096 
Q 1206 3584 1959 3584 
z
" transform="scale(0.015625)"/>
       <path id="DejaVuSans-35" d="M 2841 2188 
Q 3044 2119 3236 1894 
Q 3428 1669 3622 1275 
L 4263 0 
L 3584 0 
L 2988 1197 
Q 2756 1666 2539 1819 
Q 2322 1972 1947 1972 
L 1259 1972 
L 1259 0 
L 628 0 
L 628 4666 
L 2053 4666 
Q 2853 4666 3247 4331 
Q 3641 3997 3641 3322 
Q 3641 2881 3436 2590 
Q 3231 2300 2841 2188 
z
M 1259 4147 
L 1259 2491 
L 2053 2491 
Q 2509 2491 2742 2702 
Q 2975 2913 2975 3322 
Q 2975 3731 2742 3939 
Q 2509 4147 2053 4147 
L 1259 4147 
z
" transform="scale(0.015625)"/>
       <path id="DejaVuSans-57" d="M 1172 4494 
L 1172 3500 
L 2356 3500 
L 2356 3053 
L 1172 3053 
L 1172 1153 
Q 1172 725 1289 603 
Q 1406 481 1766 481 
L 2356 481 
L 2356 0 
L 1766 0 
Q 1100 0 847 248 
Q 594 497 594 1153 
L 594 3053 
L 172 3053 
L 172 3500 
L 594 3500 
L 594 4494 
L 1172 4494 
z
" transform="scale(0.015625)"/>
       <path id="DejaVuSans-48" d="M 3597 1894 
L 3597 1613 
L 953 1613 
Q 991 1019 1311 708 
Q 1631 397 2203 397 
Q 2534 397 2845 478 
Q 3156 559 3463 722 
L 3463 178 
Q 3153 47 2828 -22 
Q 2503 -91 2169 -91 
Q 1331 -91 842 396 
Q 353 884 353 1716 
Q 353 2575 817 3079 
Q 1281 3584 2069 3584 
Q 2775 3584 3186 3129 
Q 3597 2675 3597 1894 
z
M 3022 2063 
Q 3016 2534 2758 2815 
Q 2500 3097 2075 3097 
Q 1594 3097 1305 2825 
Q 1016 2553 972 2059 
L 3022 2063 
z
" transform="scale(0.015625)"/>
      </defs>
      <use xlink:href="#DejaVuSans-33"/>
      <use xlink:href="#DejaVuSans-4b" transform="translate(60.296875 0)"/>
      <use xlink:href="#DejaVuSans-5c" transform="translate(123.671875 0)"/>
      <use xlink:href="#DejaVuSans-56" transform="translate(182.859375 0)"/>
      <use xlink:href="#DejaVuSans-4c" transform="translate(234.953125 0)"/>
      <use xlink:href="#DejaVuSans-46" transform="translate(262.734375 0)"/>
      <use xlink:href="#DejaVuSans-44" transform="translate(317.71875 0)"/>
      <use xlink:href="#DejaVuSans-4f" transform="translate(379 0)"/>
      <use xlink:href="#DejaVuSans-3" transform="translate(406.78125 0)"/>
      <use xlink:href="#DejaVuSans-28" transform="translate(438.5625 0)"/>
      <use xlink:href="#DejaVuSans-55" transform="translate(501.75 0)"/>
      <use xlink:href="#DejaVuSans-55" transform="translate(541.109375 0)"/>
      <use xlink:href="#DejaVuSans-52" transform="translate(580.015625 0)"/>
      <use xlink:href="#DejaVuSans-55" transform="translate(641.203125 0)"/>
      <use xlink:href="#DejaVuSans-3" transform="translate(682.3125 0)"/>
      <use xlink:href="#DejaVuSans-35" transform="translate(714.09375 0)"/>
      <use xlink:href="#DejaVuSans-44" transform="translate(781.375 0)"/>
      <use xlink:href="#DejaVuSans-57" transform="translate(842.65625 0)"/>
      <use xlink:href="#DejaVuSans-48" transform="translate(881.859375 0)"/>
     </g>
    </g>
   </g>
   <g id="matplotlib.axis_2">
    <g id="ytick_1">
     <g id="line2d_35">
      <path d="M 51.700781 252.935476 
L 408.820781 252.935476 
" clip-path="url(#p6cde46997a)" style="fill: none; stroke: #b0b0b0; stroke-width: 0.8; stroke-linecap: square"/>
     </g>
     <g id="line2d_36">
      <defs>
       <path id="me675ae4eff" d="M 0 0 
L -3.5 0 
" style="stroke: #000000; stroke-width: 0.8"/>
      </defs>
      <g>
       <use xlink:href="#me675ae4eff" x="51.700781" y="252.935476" style="stroke: #000000; stroke-width: 0.8"/>
      </g>
     </g>
     <g id="text_6">
      <!-- $\mathdefault{10^{-8}}$ -->
      <g transform="translate(21.200781 257.635476) scale(0.1 -0.1)">
       <defs>
        <path id="DejaVuSans-1b" d="M 2034 2216 
Q 1584 2216 1326 1975 
Q 1069 1734 1069 1313 
Q 1069 891 1326 650 
Q 1584 409 2034 409 
Q 2484 409 2743 651 
Q 3003 894 3003 1313 
Q 3003 1734 2745 1975 
Q 2488 2216 2034 2216 
z
M 1403 2484 
Q 997 2584 770 2862 
Q 544 3141 544 3541 
Q 544 4100 942 4425 
Q 1341 4750 2034 4750 
Q 2731 4750 3128 4425 
Q 3525 4100 3525 3541 
Q 3525 3141 3298 2862 
Q 3072 2584 2669 2484 
Q 3125 2378 3379 2068 
Q 3634 1759 3634 1313 
Q 3634 634 3220 271 
Q 2806 -91 2034 -91 
Q 1263 -91 848 271 
Q 434 634 434 1313 
Q 434 1759 690 2068 
Q 947 2378 1403 2484 
z
M 1172 3481 
Q 1172 3119 1398 2916 
Q 1625 2713 2034 2713 
Q 2441 2713 2670 2916 
Q 2900 3119 2900 3481 
Q 2900 3844 2670 4047 
Q 2441 4250 2034 4250 
Q 1625 4250 1398 4047 
Q 1172 3844 1172 3481 
z
" transform="scale(0.015625)"/>
       </defs>
       <use xlink:href="#DejaVuSans-14" transform="translate(0 0.746875)"/>
       <use xlink:href="#DejaVuSans-13" transform="translate(63.623047 0.746875)"/>
       <use xlink:href="#DejaVuSans-c9c" transform="translate(128.203125 42.046875) scale(0.7)"/>
       <use xlink:href="#DejaVuSans-1b" transform="translate(186.855469 42.046875) scale(0.7)"/>
      </g>
     </g>
    </g>
    <g id="ytick_2">
     <g id="line2d_37">
      <path d="M 51.700781 197.560484 
L 408.820781 197.560484 
" clip-path="url(#p6cde46997a)" style="fill: none; stroke: #b0b0b0; stroke-width: 0.8; stroke-linecap: square"/>
     </g>
     <g id="line2d_38">
      <g>
       <use xlink:href="#me675ae4eff" x="51.700781" y="197.560484" style="stroke: #000000; stroke-width: 0.8"/>
      </g>
     </g>
     <g id="text_7">
      <!-- $\mathdefault{10^{-6}}$ -->
      <g transform="translate(21.200781 202.260484) scale(0.1 -0.1)">
       <defs>
        <path id="DejaVuSans-19" d="M 2113 2584 
Q 1688 2584 1439 2293 
Q 1191 2003 1191 1497 
Q 1191 994 1439 701 
Q 1688 409 2113 409 
Q 2538 409 2786 701 
Q 3034 994 3034 1497 
Q 3034 2003 2786 2293 
Q 2538 2584 2113 2584 
z
M 3366 4563 
L 3366 3988 
Q 3128 4100 2886 4159 
Q 2644 4219 2406 4219 
Q 1781 4219 1451 3797 
Q 1122 3375 1075 2522 
Q 1259 2794 1537 2939 
Q 1816 3084 2150 3084 
Q 2853 3084 3261 2657 
Q 3669 2231 3669 1497 
Q 3669 778 3244 343 
Q 2819 -91 2113 -91 
Q 1303 -91 875 529 
Q 447 1150 447 2328 
Q 447 3434 972 4092 
Q 1497 4750 2381 4750 
Q 2619 4750 2861 4703 
Q 3103 4656 3366 4563 
z
" transform="scale(0.015625)"/>
       </defs>
       <use xlink:href="#DejaVuSans-14" transform="translate(0 0.746875)"/>
       <use xlink:href="#DejaVuSans-13" transform="translate(63.623047 0.746875)"/>
       <use xlink:href="#DejaVuSans-c9c" transform="translate(128.203125 42.046875) scale(0.7)"/>
       <use xlink:href="#DejaVuSans-19" transform="translate(186.855469 42.046875) scale(0.7)"/>
      </g>
     </g>
    </g>
    <g id="ytick_3">
     <g id="line2d_39">
      <path d="M 51.700781 142.185492 
L 408.820781 142.185492 
" clip-path="url(#p6cde46997a)" style="fill: none; stroke: #b0b0b0; stroke-width: 0.8; stroke-linecap: square"/>
     </g>
     <g id="line2d_40">
      <g>
       <use xlink:href="#me675ae4eff" x="51.700781" y="142.185492" style="stroke: #000000; stroke-width: 0.8"/>
      </g>
     </g>
     <g id="text_8">
      <!-- $\mathdefault{10^{-4}}$ -->
      <g transform="translate(21.200781 146.835492) scale(0.1 -0.1)">
       <use xlink:href="#DejaVuSans-14" transform="translate(0 0.665625)"/>
       <use xlink:href="#DejaVuSans-13" transform="translate(63.623047 0.665625)"/>
       <use xlink:href="#DejaVuSans-c9c" transform="translate(128.203125 41.965625) scale(0.7)"/>
       <use xlink:href="#DejaVuSans-17" transform="translate(186.855469 41.965625) scale(0.7)"/>
      </g>
     </g>
    </g>
    <g id="ytick_4">
     <g id="line2d_41">
      <path d="M 51.700781 86.8105 
L 408.820781 86.8105 
" clip-path="url(#p6cde46997a)" style="fill: none; stroke: #b0b0b0; stroke-width: 0.8; stroke-linecap: square"/>
     </g>
     <g id="line2d_42">
      <g>
       <use xlink:href="#me675ae4eff" x="51.700781" y="86.8105" style="stroke: #000000; stroke-width: 0.8"/>
      </g>
     </g>
     <g id="text_9">
      <!-- $\mathdefault{10^{-2}}$ -->
      <g transform="translate(21.200781 91.5105) scale(0.1 -0.1)">
       <use xlink:href="#DejaVuSans-14" transform="translate(0 0.746875)"/>
       <use xlink:href="#DejaVuSans-13" transform="translate(63.623047 0.746875)"/>
       <use xlink:href="#DejaVuSans-c9c" transform="translate(128.203125 42.046875) scale(0.7)"/>
       <use xlink:href="#DejaVuSans-15" transform="translate(186.855469 42.046875) scale(0.7)"/>
      </g>
     </g>
    </g>
    <g id="ytick_5">
     <g id="line2d_43">
      <path d="M 51.700781 31.435507 
L 408.820781 31.435507 
" clip-path="url(#p6cde46997a)" style="fill: none; stroke: #b0b0b0; stroke-width: 0.8; stroke-linecap: square"/>
     </g>
     <g id="line2d_44">
      <g>
       <use xlink:href="#me675ae4eff" x="51.700781" y="31.435507" style="stroke: #000000; stroke-width: 0.8"/>
      </g>
     </g>
     <g id="text_10">
      <!-- $\mathdefault{10^{0}}$ -->
      <g transform="translate(27.100781 36.135507) scale(0.1 -0.1)">
       <use xlink:href="#DejaVuSans-14" transform="translate(0 0.746875)"/>
       <use xlink:href="#DejaVuSans-13" transform="translate(63.623047 0.746875)"/>
       <use xlink:href="#DejaVuSans-13" transform="translate(128.203125 42.046875) scale(0.7)"/>
      </g>
     </g>
    </g>
    <g id="text_11">
     <!-- Logical Error Rate(per round) -->
     <g transform="translate(14.798438 228.041312) rotate(-90) scale(0.1 -0.1)">
      <defs>
       <path id="DejaVuSans-2f" d="M 628 4666 
L 1259 4666 
L 1259 531 
L 3531 531 
L 3531 0 
L 628 0 
L 628 4666 
z
" transform="scale(0.015625)"/>
       <path id="DejaVuSans-4a" d="M 2906 1791 
Q 2906 2416 2648 2759 
Q 2391 3103 1925 3103 
Q 1463 3103 1205 2759 
Q 947 2416 947 1791 
Q 947 1169 1205 825 
Q 1463 481 1925 481 
Q 2391 481 2648 825 
Q 2906 1169 2906 1791 
z
M 3481 434 
Q 3481 -459 3084 -895 
Q 2688 -1331 1869 -1331 
Q 1566 -1331 1297 -1286 
Q 1028 -1241 775 -1147 
L 775 -588 
Q 1028 -725 1275 -790 
Q 1522 -856 1778 -856 
Q 2344 -856 2625 -561 
Q 2906 -266 2906 331 
L 2906 616 
Q 2728 306 2450 153 
Q 2172 0 1784 0 
Q 1141 0 747 490 
Q 353 981 353 1791 
Q 353 2603 747 3093 
Q 1141 3584 1784 3584 
Q 2172 3584 2450 3431 
Q 2728 3278 2906 2969 
L 2906 3500 
L 3481 3500 
L 3481 434 
z
" transform="scale(0.015625)"/>
       <path id="DejaVuSans-b" d="M 1984 4856 
Q 1566 4138 1362 3434 
Q 1159 2731 1159 2009 
Q 1159 1288 1364 580 
Q 1569 -128 1984 -844 
L 1484 -844 
Q 1016 -109 783 600 
Q 550 1309 550 2009 
Q 550 2706 781 3412 
Q 1013 4119 1484 4856 
L 1984 4856 
z
" transform="scale(0.015625)"/>
       <path id="DejaVuSans-53" d="M 1159 525 
L 1159 -1331 
L 581 -1331 
L 581 3500 
L 1159 3500 
L 1159 2969 
Q 1341 3281 1617 3432 
Q 1894 3584 2278 3584 
Q 2916 3584 3314 3078 
Q 3713 2572 3713 1747 
Q 3713 922 3314 415 
Q 2916 -91 2278 -91 
Q 1894 -91 1617 61 
Q 1341 213 1159 525 
z
M 3116 1747 
Q 3116 2381 2855 2742 
Q 2594 3103 2138 3103 
Q 1681 3103 1420 2742 
Q 1159 2381 1159 1747 
Q 1159 1113 1420 752 
Q 1681 391 2138 391 
Q 2594 391 2855 752 
Q 3116 1113 3116 1747 
z
" transform="scale(0.015625)"/>
       <path id="DejaVuSans-58" d="M 544 1381 
L 544 3500 
L 1119 3500 
L 1119 1403 
Q 1119 906 1312 657 
Q 1506 409 1894 409 
Q 2359 409 2629 706 
Q 2900 1003 2900 1516 
L 2900 3500 
L 3475 3500 
L 3475 0 
L 2900 0 
L 2900 538 
Q 2691 219 2414 64 
Q 2138 -91 1772 -91 
Q 1169 -91 856 284 
Q 544 659 544 1381 
z
M 1991 3584 
L 1991 3584 
z
" transform="scale(0.015625)"/>
       <path id="DejaVuSans-51" d="M 3513 2113 
L 3513 0 
L 2938 0 
L 2938 2094 
Q 2938 2591 2744 2837 
Q 2550 3084 2163 3084 
Q 1697 3084 1428 2787 
Q 1159 2491 1159 1978 
L 1159 0 
L 581 0 
L 581 3500 
L 1159 3500 
L 1159 2956 
Q 1366 3272 1645 3428 
Q 1925 3584 2291 3584 
Q 2894 3584 3203 3211 
Q 3513 2838 3513 2113 
z
" transform="scale(0.015625)"/>
       <path id="DejaVuSans-47" d="M 2906 2969 
L 2906 4863 
L 3481 4863 
L 3481 0 
L 2906 0 
L 2906 525 
Q 2725 213 2448 61 
Q 2172 -91 1784 -91 
Q 1150 -91 751 415 
Q 353 922 353 1747 
Q 353 2572 751 3078 
Q 1150 3584 1784 3584 
Q 2172 3584 2448 3432 
Q 2725 3281 2906 2969 
z
M 947 1747 
Q 947 1113 1208 752 
Q 1469 391 1925 391 
Q 2381 391 2643 752 
Q 2906 1113 2906 1747 
Q 2906 2381 2643 2742 
Q 2381 3103 1925 3103 
Q 1469 3103 1208 2742 
Q 947 2381 947 1747 
z
" transform="scale(0.015625)"/>
       <path id="DejaVuSans-c" d="M 513 4856 
L 1013 4856 
Q 1481 4119 1714 3412 
Q 1947 2706 1947 2009 
Q 1947 1309 1714 600 
Q 1481 -109 1013 -844 
L 513 -844 
Q 928 -128 1133 580 
Q 1338 1288 1338 2009 
Q 1338 2731 1133 3434 
Q 928 4138 513 4856 
z
" transform="scale(0.015625)"/>
      </defs>
      <use xlink:href="#DejaVuSans-2f"/>
      <use xlink:href="#DejaVuSans-52" transform="translate(53.96875 0)"/>
      <use xlink:href="#DejaVuSans-4a" transform="translate(115.15625 0)"/>
      <use xlink:href="#DejaVuSans-4c" transform="translate(178.640625 0)"/>
      <use xlink:href="#DejaVuSans-46" transform="translate(206.421875 0)"/>
      <use xlink:href="#DejaVuSans-44" transform="translate(261.40625 0)"/>
      <use xlink:href="#DejaVuSans-4f" transform="translate(322.6875 0)"/>
      <use xlink:href="#DejaVuSans-3" transform="translate(350.46875 0)"/>
      <use xlink:href="#DejaVuSans-28" transform="translate(382.25 0)"/>
      <use xlink:href="#DejaVuSans-55" transform="translate(445.4375 0)"/>
      <use xlink:href="#DejaVuSans-55" transform="translate(484.796875 0)"/>
      <use xlink:href="#DejaVuSans-52" transform="translate(523.703125 0)"/>
      <use xlink:href="#DejaVuSans-55" transform="translate(584.890625 0)"/>
      <use xlink:href="#DejaVuSans-3" transform="translate(626 0)"/>
      <use xlink:href="#DejaVuSans-35" transform="translate(657.78125 0)"/>
      <use xlink:href="#DejaVuSans-44" transform="translate(725.0625 0)"/>
      <use xlink:href="#DejaVuSans-57" transform="translate(786.34375 0)"/>
      <use xlink:href="#DejaVuSans-48" transform="translate(825.546875 0)"/>
      <use xlink:href="#DejaVuSans-b" transform="translate(887.078125 0)"/>
      <use xlink:href="#DejaVuSans-53" transform="translate(926.09375 0)"/>
      <use xlink:href="#DejaVuSans-48" transform="translate(989.578125 0)"/>
      <use xlink:href="#DejaVuSans-55" transform="translate(1051.109375 0)"/>
      <use xlink:href="#DejaVuSans-3" transform="translate(1092.21875 0)"/>
      <use xlink:href="#DejaVuSans-55" transform="translate(1124 0)"/>
      <use xlink:href="#DejaVuSans-52" transform="translate(1162.90625 0)"/>
      <use xlink:href="#DejaVuSans-58" transform="translate(1224.09375 0)"/>
      <use xlink:href="#DejaVuSans-51" transform="translate(1287.46875 0)"/>
      <use xlink:href="#DejaVuSans-47" transform="translate(1350.84375 0)"/>
      <use xlink:href="#DejaVuSans-c" transform="translate(1414.328125 0)"/>
     </g>
    </g>
   </g>
   <g id="line2d_45">
    <path d="M 67.933509 149.668003 
L 67.933509 142.842258 
L 104.006236 129.698222 
L 104.006236 123.746074 
L 140.078963 111.631326 
L 140.078963 105.828559 
L 176.15169 93.890473 
L 176.15169 87.947743 
L 212.224418 76.101603 
L 212.224418 70.523819 
L 248.297145 59.638655 
L 248.297145 54.866189 
L 284.369872 46.865242 
L 284.369872 43.731764 
L 320.442599 37.937298 
L 320.442599 40.846971 
L 356.515327 38.677552 
L 356.515327 41.406016 
L 392.588054 41.84976 
L 392.588054 37.669121 
" clip-path="url(#p6cde46997a)" style="fill: none; stroke: #1f77b4; stroke-width: 1.5; stroke-linecap: square"/>
    <defs>
     <path id="mfe06d8f431" d="M 0 3 
C 0.795609 3 1.55874 2.683901 2.12132 2.12132 
C 2.683901 1.55874 3 0.795609 3 0 
C 3 -0.795609 2.683901 -1.55874 2.12132 -2.12132 
C 1.55874 -2.683901 0.795609 -3 0 -3 
C -0.795609 -3 -1.55874 -2.683901 -2.12132 -2.12132 
C -2.683901 -1.55874 -3 -0.795609 -3 0 
C -3 0.795609 -2.683901 1.55874 -2.12132 2.12132 
C -1.55874 2.683901 -0.795609 3 0 3 
z
" style="stroke: #1f77b4"/>
    </defs>
    <g clip-path="url(#p6cde46997a)">
     <use xlink:href="#mfe06d8f431" x="67.933509" y="149.668003" style="fill: #1f77b4; stroke: #1f77b4"/>
     <use xlink:href="#mfe06d8f431" x="67.933509" y="142.842258" style="fill: #1f77b4; stroke: #1f77b4"/>
     <use xlink:href="#mfe06d8f431" x="104.006236" y="129.698222" style="fill: #1f77b4; stroke: #1f77b4"/>
     <use xlink:href="#mfe06d8f431" x="104.006236" y="123.746074" style="fill: #1f77b4; stroke: #1f77b4"/>
     <use xlink:href="#mfe06d8f431" x="140.078963" y="111.631326" style="fill: #1f77b4; stroke: #1f77b4"/>
     <use xlink:href="#mfe06d8f431" x="140.078963" y="105.828559" style="fill: #1f77b4; stroke: #1f77b4"/>
     <use xlink:href="#mfe06d8f431" x="176.15169" y="93.890473" style="fill: #1f77b4; stroke: #1f77b4"/>
     <use xlink:href="#mfe06d8f431" x="176.15169" y="87.947743" style="fill: #1f77b4; stroke: #1f77b4"/>
     <use xlink:href="#mfe06d8f431" x="212.224418" y="76.101603" style="fill: #1f77b4; stroke: #1f77b4"/>
     <use xlink:href="#mfe06d8f431" x="212.224418" y="70.523819" style="fill: #1f77b4; stroke: #1f77b4"/>
     <use xlink:href="#mfe06d8f431" x="248.297145" y="59.638655" style="fill: #1f77b4; stroke: #1f77b4"/>
     <use xlink:href="#mfe06d8f431" x="248.297145" y="54.866189" style="fill: #1f77b4; stroke: #1f77b4"/>
     <use xlink:href="#mfe06d8f431" x="284.369872" y="46.865242" style="fill: #1f77b4; stroke: #1f77b4"/>
     <use xlink:href="#mfe06d8f431" x="284.369872" y="43.731764" style="fill: #1f77b4; stroke: #1f77b4"/>
     <use xlink:href="#mfe06d8f431" x="320.442599" y="37.937298" style="fill: #1f77b4; stroke: #1f77b4"/>
     <use xlink:href="#mfe06d8f431" x="320.442599" y="40.846971" style="fill: #1f77b4; stroke: #1f77b4"/>
     <use xlink:href="#mfe06d8f431" x="356.515327" y="38.677552" style="fill: #1f77b4; stroke: #1f77b4"/>
     <use xlink:href="#mfe06d8f431" x="356.515327" y="41.406016" style="fill: #1f77b4; stroke: #1f77b4"/>
     <use xlink:href="#mfe06d8f431" x="392.588054" y="41.84976" style="fill: #1f77b4; stroke: #1f77b4"/>
     <use xlink:href="#mfe06d8f431" x="392.588054" y="37.669121" style="fill: #1f77b4; stroke: #1f77b4"/>
    </g>
   </g>
   <g id="line2d_46">
    <path d="M 67.933509 208.578427 
L 67.933509 195.368096 
L 104.006236 168.947048 
L 104.006236 167.481314 
L 140.078963 141.548021 
L 140.078963 140.088059 
L 176.15169 114.358295 
L 176.15169 112.304186 
L 212.224418 87.795552 
L 212.224418 84.932238 
L 248.297145 62.898071 
L 248.297145 59.772402 
L 284.369872 44.968796 
L 284.369872 44.651825 
L 320.442599 42.570206 
L 320.442599 37.070522 
L 356.515327 45.12358 
L 356.515327 42.805721 
L 392.588054 36.817096 
L 392.588054 44.938085 
" clip-path="url(#p6cde46997a)" style="fill: none; stroke: #ff7f0e; stroke-width: 1.5; stroke-linecap: square"/>
    <defs>
     <path id="m56e24e948c" d="M -0 3 
L 3 -3 
L -3 -3 
z
" style="stroke: #ff7f0e; stroke-linejoin: miter"/>
    </defs>
    <g clip-path="url(#p6cde46997a)">
     <use xlink:href="#m56e24e948c" x="67.933509" y="208.578427" style="fill: #ff7f0e; stroke: #ff7f0e; stroke-linejoin: miter"/>
     <use xlink:href="#m56e24e948c" x="67.933509" y="195.368096" style="fill: #ff7f0e; stroke: #ff7f0e; stroke-linejoin: miter"/>
     <use xlink:href="#m56e24e948c" x="104.006236" y="168.947048" style="fill: #ff7f0e; stroke: #ff7f0e; stroke-linejoin: miter"/>
     <use xlink:href="#m56e24e948c" x="104.006236" y="167.481314" style="fill: #ff7f0e; stroke: #ff7f0e; stroke-linejoin: miter"/>
     <use xlink:href="#m56e24e948c" x="140.078963" y="141.548021" style="fill: #ff7f0e; stroke: #ff7f0e; stroke-linejoin: miter"/>
     <use xlink:href="#m56e24e948c" x="140.078963" y="140.088059" style="fill: #ff7f0e; stroke: #ff7f0e; stroke-linejoin: miter"/>
     <use xlink:href="#m56e24e948c" x="176.15169" y="114.358295" style="fill: #ff7f0e; stroke: #ff7f0e; stroke-linejoin: miter"/>
     <use xlink:href="#m56e24e948c" x="176.15169" y="112.304186" style="fill: #ff7f0e; stroke: #ff7f0e; stroke-linejoin: miter"/>
     <use xlink:href="#m56e24e948c" x="212.224418" y="87.795552" style="fill: #ff7f0e; stroke: #ff7f0e; stroke-linejoin: miter"/>
     <use xlink:href="#m56e24e948c" x="212.224418" y="84.932238" style="fill: #ff7f0e; stroke: #ff7f0e; stroke-linejoin: miter"/>
     <use xlink:href="#m56e24e948c" x="248.297145" y="62.898071" style="fill: #ff7f0e; stroke: #ff7f0e; stroke-linejoin: miter"/>
     <use xlink:href="#m56e24e948c" x="248.297145" y="59.772402" style="fill: #ff7f0e; stroke: #ff7f0e; stroke-linejoin: miter"/>
     <use xlink:href="#m56e24e948c" x="284.369872" y="44.968796" style="fill: #ff7f0e; stroke: #ff7f0e; stroke-linejoin: miter"/>
     <use xlink:href="#m56e24e948c" x="284.369872" y="44.651825" style="fill: #ff7f0e; stroke: #ff7f0e; stroke-linejoin: miter"/>
     <use xlink:href="#m56e24e948c" x="320.442599" y="42.570206" style="fill: #ff7f0e; stroke: #ff7f0e; stroke-linejoin: miter"/>
     <use xlink:href="#m56e24e948c" x="320.442599" y="37.070522" style="fill: #ff7f0e; stroke: #ff7f0e; stroke-linejoin: miter"/>
     <use xlink:href="#m56e24e948c" x="356.515327" y="45.12358" style="fill: #ff7f0e; stroke: #ff7f0e; stroke-linejoin: miter"/>
     <use xlink:href="#m56e24e948c" x="356.515327" y="42.805721" style="fill: #ff7f0e; stroke: #ff7f0e; stroke-linejoin: miter"/>
     <use xlink:href="#m56e24e948c" x="392.588054" y="36.817096" style="fill: #ff7f0e; stroke: #ff7f0e; stroke-linejoin: miter"/>
     <use xlink:href="#m56e24e948c" x="392.588054" y="44.938085" style="fill: #ff7f0e; stroke: #ff7f0e; stroke-linejoin: miter"/>
    </g>
   </g>
   <g id="line2d_47">
    <path d="M 104.006236 220.959122 
L 140.078963 173.446761 
L 140.078963 176.601691 
L 176.15169 136.982392 
L 176.15169 137.083297 
L 212.224418 100.865398 
L 212.224418 99.497936 
L 248.297145 67.197766 
L 248.297145 64.747627 
L 284.369872 43.727532 
L 284.369872 35.225786 
L 320.442599 35.47535 
L 320.442599 44.536092 
L 356.515327 46.737973 
L 356.515327 44.072857 
L 392.588054 37.4011 
L 392.588054 35.440175 
" clip-path="url(#p6cde46997a)" style="fill: none; stroke: #2ca02c; stroke-width: 1.5; stroke-linecap: square"/>
    <defs>
     <path id="md0045a9f6f" d="M 0 -3 
L -0.673542 -0.927051 
L -2.85317 -0.927051 
L -1.089814 0.354102 
L -1.763356 2.427051 
L -0 1.145898 
L 1.763356 2.427051 
L 1.089814 0.354102 
L 2.85317 -0.927051 
L 0.673542 -0.927051 
z
" style="stroke: #2ca02c; stroke-linejoin: bevel"/>
    </defs>
    <g clip-path="url(#p6cde46997a)">
     <use xlink:href="#md0045a9f6f" x="104.006236" y="220.959122" style="fill: #2ca02c; stroke: #2ca02c; stroke-linejoin: bevel"/>
     <use xlink:href="#md0045a9f6f" x="140.078963" y="173.446761" style="fill: #2ca02c; stroke: #2ca02c; stroke-linejoin: bevel"/>
     <use xlink:href="#md0045a9f6f" x="140.078963" y="176.601691" style="fill: #2ca02c; stroke: #2ca02c; stroke-linejoin: bevel"/>
     <use xlink:href="#md0045a9f6f" x="176.15169" y="136.982392" style="fill: #2ca02c; stroke: #2ca02c; stroke-linejoin: bevel"/>
     <use xlink:href="#md0045a9f6f" x="176.15169" y="137.083297" style="fill: #2ca02c; stroke: #2ca02c; stroke-linejoin: bevel"/>
     <use xlink:href="#md0045a9f6f" x="212.224418" y="100.865398" style="fill: #2ca02c; stroke: #2ca02c; stroke-linejoin: bevel"/>
     <use xlink:href="#md0045a9f6f" x="212.224418" y="99.497936" style="fill: #2ca02c; stroke: #2ca02c; stroke-linejoin: bevel"/>
     <use xlink:href="#md0045a9f6f" x="248.297145" y="67.197766" style="fill: #2ca02c; stroke: #2ca02c; stroke-linejoin: bevel"/>
     <use xlink:href="#md0045a9f6f" x="248.297145" y="64.747627" style="fill: #2ca02c; stroke: #2ca02c; stroke-linejoin: bevel"/>
     <use xlink:href="#md0045a9f6f" x="284.369872" y="43.727532" style="fill: #2ca02c; stroke: #2ca02c; stroke-linejoin: bevel"/>
     <use xlink:href="#md0045a9f6f" x="284.369872" y="35.225786" style="fill: #2ca02c; stroke: #2ca02c; stroke-linejoin: bevel"/>
     <use xlink:href="#md0045a9f6f" x="320.442599" y="35.47535" style="fill: #2ca02c; stroke: #2ca02c; stroke-linejoin: bevel"/>
     <use xlink:href="#md0045a9f6f" x="320.442599" y="44.536092" style="fill: #2ca02c; stroke: #2ca02c; stroke-linejoin: bevel"/>
     <use xlink:href="#md0045a9f6f" x="356.515327" y="46.737973" style="fill: #2ca02c; stroke: #2ca02c; stroke-linejoin: bevel"/>
     <use xlink:href="#md0045a9f6f" x="356.515327" y="44.072857" style="fill: #2ca02c; stroke: #2ca02c; stroke-linejoin: bevel"/>
     <use xlink:href="#md0045a9f6f" x="392.588054" y="37.4011" style="fill: #2ca02c; stroke: #2ca02c; stroke-linejoin: bevel"/>
     <use xlink:href="#md0045a9f6f" x="392.588054" y="35.440175" style="fill: #2ca02c; stroke: #2ca02c; stroke-linejoin: bevel"/>
    </g>
   </g>
   <g id="patch_3">
    <path d="M 51.700781 288.430125 
L 51.700781 22.318125 
" style="fill: none; stroke: #000000; stroke-width: 0.8; stroke-linejoin: miter; stroke-linecap: square"/>
   </g>
   <g id="patch_4">
    <path d="M 408.820781 288.430125 
L 408.820781 22.318125 
" style="fill: none; stroke: #000000; stroke-width: 0.8; stroke-linejoin: miter; stroke-linecap: square"/>
   </g>
   <g id="patch_5">
    <path d="M 51.700781 288.430125 
L 408.820781 288.430125 
" style="fill: none; stroke: #000000; stroke-width: 0.8; stroke-linejoin: miter; stroke-linecap: square"/>
   </g>
   <g id="patch_6">
    <path d="M 51.700781 22.318125 
L 408.820781 22.318125 
" style="fill: none; stroke: #000000; stroke-width: 0.8; stroke-linejoin: miter; stroke-linecap: square"/>
   </g>
   <g id="text_12">
    <!-- Steane Encoding Error Rate -->
    <g transform="translate(147.481406 16.318125) scale(0.12 -0.12)">
     <defs>
      <path id="DejaVuSans-36" d="M 3425 4513 
L 3425 3897 
Q 3066 4069 2747 4153 
Q 2428 4238 2131 4238 
Q 1616 4238 1336 4038 
Q 1056 3838 1056 3469 
Q 1056 3159 1242 3001 
Q 1428 2844 1947 2747 
L 2328 2669 
Q 3034 2534 3370 2195 
Q 3706 1856 3706 1288 
Q 3706 609 3251 259 
Q 2797 -91 1919 -91 
Q 1588 -91 1214 -16 
Q 841 59 441 206 
L 441 856 
Q 825 641 1194 531 
Q 1563 422 1919 422 
Q 2459 422 2753 634 
Q 3047 847 3047 1241 
Q 3047 1584 2836 1778 
Q 2625 1972 2144 2069 
L 1759 2144 
Q 1053 2284 737 2584 
Q 422 2884 422 3419 
Q 422 4038 858 4394 
Q 1294 4750 2059 4750 
Q 2388 4750 2728 4690 
Q 3069 4631 3425 4513 
z
" transform="scale(0.015625)"/>
     </defs>
     <use xlink:href="#DejaVuSans-36"/>
     <use xlink:href="#DejaVuSans-57" transform="translate(63.484375 0)"/>
     <use xlink:href="#DejaVuSans-48" transform="translate(102.6875 0)"/>
     <use xlink:href="#DejaVuSans-44" transform="translate(164.21875 0)"/>
     <use xlink:href="#DejaVuSans-51" transform="translate(225.5 0)"/>
     <use xlink:href="#DejaVuSans-48" transform="translate(288.875 0)"/>
     <use xlink:href="#DejaVuSans-3" transform="translate(350.40625 0)"/>
     <use xlink:href="#DejaVuSans-28" transform="translate(382.1875 0)"/>
     <use xlink:href="#DejaVuSans-51" transform="translate(445.375 0)"/>
     <use xlink:href="#DejaVuSans-46" transform="translate(508.75 0)"/>
     <use xlink:href="#DejaVuSans-52" transform="translate(563.734375 0)"/>
     <use xlink:href="#DejaVuSans-47" transform="translate(624.921875 0)"/>
     <use xlink:href="#DejaVuSans-4c" transform="translate(688.40625 0)"/>
     <use xlink:href="#DejaVuSans-51" transform="translate(716.1875 0)"/>
     <use xlink:href="#DejaVuSans-4a" transform="translate(779.5625 0)"/>
     <use xlink:href="#DejaVuSans-3" transform="translate(843.046875 0)"/>
     <use xlink:href="#DejaVuSans-28" transform="translate(874.828125 0)"/>
     <use xlink:href="#DejaVuSans-55" transform="translate(938.015625 0)"/>
     <use xlink:href="#DejaVuSans-55" transform="translate(977.375 0)"/>
     <use xlink:href="#DejaVuSans-52" transform="translate(1016.28125 0)"/>
     <use xlink:href="#DejaVuSans-55" transform="translate(1077.46875 0)"/>
     <use xlink:href="#DejaVuSans-3" transform="translate(1118.578125 0)"/>
     <use xlink:href="#DejaVuSans-35" transform="translate(1150.359375 0)"/>
     <use xlink:href="#DejaVuSans-44" transform="translate(1217.640625 0)"/>
     <use xlink:href="#DejaVuSans-57" transform="translate(1278.921875 0)"/>
     <use xlink:href="#DejaVuSans-48" transform="translate(1318.125 0)"/>
    </g>
   </g>
   <g id="patch_7">
    <path d="M 268.593581 288.430125 
L 388.343981 288.430125 
L 388.343981 168.679725 
L 268.593581 168.679725 
L 268.593581 288.430125 
z
" style="fill: none"/>
   </g>
   <g id="axes_2">
    <g id="line2d_48">
     <path d="M 289.351184 220.896695 
L 308.63578 226.551644 
" clip-path="url(#p8182f7bd34)" style="fill: none; stroke: #7f7f7f; stroke-linecap: square"/>
    </g>
    <g id="line2d_49">
     <path d="M 289.351184 220.896695 
L 301.424722 211.497004 
" clip-path="url(#p8182f7bd34)" style="fill: none; stroke: #7f7f7f; stroke-linecap: square"/>
    </g>
    <g id="line2d_50">
     <path d="M 301.424722 211.497004 
L 312.896329 202.565939 
" clip-path="url(#p8182f7bd34)" style="fill: none; stroke: #7f7f7f; stroke-linecap: square"/>
    </g>
    <g id="line2d_51">
     <path d="M 312.896329 202.565939 
L 331.549255 207.667173 
" clip-path="url(#p8182f7bd34)" style="fill: none; stroke: #7f7f7f; stroke-linecap: square"/>
    </g>
    <g id="line2d_52">
     <path d="M 308.63578 226.551644 
L 328.522842 232.383258 
" clip-path="url(#p8182f7bd34)" style="fill: none; stroke: #7f7f7f; stroke-linecap: square"/>
    </g>
    <g id="line2d_53">
     <path d="M 308.63578 226.551644 
L 320.389797 216.864401 
" clip-path="url(#p8182f7bd34)" style="fill: none; stroke: #7f7f7f; stroke-linecap: square"/>
    </g>
    <g id="line2d_54">
     <path d="M 320.635056 245.475067 
L 320.513997 231.352954 
" clip-path="url(#p8182f7bd34)" style="fill: none; stroke: #7f7f7f; stroke-linecap: square"/>
    </g>
    <g id="line2d_55">
     <path d="M 320.513997 231.352954 
L 339.803765 237.029208 
" clip-path="url(#p8182f7bd34)" style="fill: none; stroke: #7f7f7f; stroke-linecap: square"/>
    </g>
    <g id="line2d_56">
     <path d="M 320.513997 231.352954 
L 320.389797 216.864401 
" clip-path="url(#p8182f7bd34)" style="fill: none; stroke: #7f7f7f; stroke-linecap: square"/>
    </g>
    <g id="line2d_57">
     <path d="M 320.389797 216.864401 
L 320.262331 201.994958 
" clip-path="url(#p8182f7bd34)" style="fill: none; stroke: #7f7f7f; stroke-linecap: square"/>
    </g>
    <g id="line2d_58">
     <path d="M 331.549255 207.667173 
L 350.755 212.919592 
" clip-path="url(#p8182f7bd34)" style="fill: none; stroke: #7f7f7f; stroke-linecap: square"/>
    </g>
    <g id="line2d_59">
     <path d="M 328.564047 261.773933 
L 328.543719 247.274736 
" clip-path="url(#p8182f7bd34)" style="fill: none; stroke: #7f7f7f; stroke-linecap: square"/>
    </g>
    <g id="line2d_60">
     <path d="M 328.543719 247.274736 
L 339.803765 237.029208 
" clip-path="url(#p8182f7bd34)" style="fill: none; stroke: #7f7f7f; stroke-linecap: square"/>
    </g>
    <g id="line2d_61">
     <path d="M 328.543719 247.274736 
L 328.522842 232.383258 
" clip-path="url(#p8182f7bd34)" style="fill: none; stroke: #7f7f7f; stroke-linecap: square"/>
    </g>
    <g id="line2d_62">
     <path d="M 328.522842 232.383258 
L 328.501392 217.083362 
" clip-path="url(#p8182f7bd34)" style="fill: none; stroke: #7f7f7f; stroke-linecap: square"/>
    </g>
    <g id="line2d_63">
     <path d="M 339.803765 237.029208 
L 350.493124 227.302949 
" clip-path="url(#p8182f7bd34)" style="fill: none; stroke: #7f7f7f; stroke-linecap: square"/>
    </g>
    <g id="line2d_64">
     <path d="M 339.803765 237.029208 
L 359.681484 242.878473 
" clip-path="url(#p8182f7bd34)" style="fill: none; stroke: #7f7f7f; stroke-linecap: square"/>
    </g>
    <g id="line2d_65">
     <path d="M 350.237801 241.326374 
L 350.493124 227.302949 
" clip-path="url(#p8182f7bd34)" style="fill: none; stroke: #7f7f7f; stroke-linecap: square"/>
    </g>
    <g id="line2d_66">
     <path d="M 350.493124 227.302949 
L 350.755 212.919592 
" clip-path="url(#p8182f7bd34)" style="fill: none; stroke: #7f7f7f; stroke-linecap: square"/>
    </g>
    <g id="line2d_67">
     <path d="M 350.755 212.919592 
L 351.023685 198.162266 
" clip-path="url(#p8182f7bd34)" style="fill: none; stroke: #7f7f7f; stroke-linecap: square"/>
    </g>
    <g id="line2d_68">
     <path d="M 308.63578 226.551644 
L 318.502252 229.444854 
" clip-path="url(#p8182f7bd34)" style="fill: none; stroke: #7396ff; stroke-width: 3; stroke-linecap: square"/>
    </g>
    <g id="line2d_69">
     <path d="M 308.63578 226.551644 
L 314.590039 221.644356 
" clip-path="url(#p8182f7bd34)" style="fill: none; stroke: #7396ff; stroke-width: 3; stroke-linecap: square"/>
    </g>
    <g id="line2d_70">
     <path d="M 308.63578 226.551644 
L 298.919898 223.702592 
" clip-path="url(#p8182f7bd34)" style="fill: none; stroke: #7396ff; stroke-width: 3; stroke-linecap: square"/>
    </g>
    <g id="line2d_71">
     <path d="M 328.522842 232.383258 
L 318.502252 229.444854 
" clip-path="url(#p8182f7bd34)" style="fill: none; stroke: #7396ff; stroke-width: 3; stroke-linecap: square"/>
    </g>
    <g id="line2d_72">
     <path d="M 328.522842 232.383258 
L 328.51219 224.785405 
" clip-path="url(#p8182f7bd34)" style="fill: none; stroke: #7396ff; stroke-width: 3; stroke-linecap: square"/>
    </g>
    <g id="line2d_73">
     <path d="M 320.389797 216.864401 
L 314.590039 221.644356 
" clip-path="url(#p8182f7bd34)" style="fill: none; stroke: #7396ff; stroke-width: 3; stroke-linecap: square"/>
    </g>
    <g id="line2d_74">
     <path d="M 320.389797 216.864401 
L 320.32648 209.478224 
" clip-path="url(#p8182f7bd34)" style="fill: none; stroke: #7396ff; stroke-width: 3; stroke-linecap: square"/>
    </g>
    <g id="line2d_75">
     <path d="M 289.351184 220.896695 
L 298.919898 223.702592 
" clip-path="url(#p8182f7bd34)" style="fill: none; stroke: #7396ff; stroke-width: 3; stroke-linecap: square"/>
    </g>
    <g id="line2d_76">
     <path d="M 289.351184 220.896695 
L 295.466117 216.135996 
" clip-path="url(#p8182f7bd34)" style="fill: none; stroke: #7396ff; stroke-width: 3; stroke-linecap: square"/>
    </g>
    <g id="line2d_77">
     <path d="M 328.501392 217.083362 
L 328.51219 224.785405 
" clip-path="url(#p8182f7bd34)" style="fill: none; stroke: #7396ff; stroke-width: 3; stroke-linecap: square"/>
    </g>
    <g id="line2d_78">
     <path d="M 312.896329 202.565939 
L 322.155193 205.098068 
" clip-path="url(#p8182f7bd34)" style="fill: none; stroke: #7396ff; stroke-width: 3; stroke-linecap: square"/>
    </g>
    <g id="line2d_79">
     <path d="M 312.896329 202.565939 
L 307.232918 206.975111 
" clip-path="url(#p8182f7bd34)" style="fill: none; stroke: #7396ff; stroke-width: 3; stroke-linecap: square"/>
    </g>
    <g id="line2d_80">
     <path d="M 331.549255 207.667173 
L 322.155193 205.098068 
" clip-path="url(#p8182f7bd34)" style="fill: none; stroke: #7396ff; stroke-width: 3; stroke-linecap: square"/>
    </g>
    <g id="line2d_81">
     <path d="M 331.549255 207.667173 
L 341.081501 210.274067 
" clip-path="url(#p8182f7bd34)" style="fill: none; stroke: #7396ff; stroke-width: 3; stroke-linecap: square"/>
    </g>
    <g id="line2d_82">
     <path d="M 301.424722 211.497004 
L 307.232918 206.975111 
" clip-path="url(#p8182f7bd34)" style="fill: none; stroke: #7396ff; stroke-width: 3; stroke-linecap: square"/>
    </g>
    <g id="line2d_83">
     <path d="M 301.424722 211.497004 
L 295.466117 216.135996 
" clip-path="url(#p8182f7bd34)" style="fill: none; stroke: #7396ff; stroke-width: 3; stroke-linecap: square"/>
    </g>
    <g id="line2d_84">
     <path d="M 350.755 212.919592 
L 341.081501 210.274067 
" clip-path="url(#p8182f7bd34)" style="fill: none; stroke: #7396ff; stroke-width: 3; stroke-linecap: square"/>
    </g>
    <g id="line2d_85">
     <path d="M 350.755 212.919592 
L 350.888475 205.588581 
" clip-path="url(#p8182f7bd34)" style="fill: none; stroke: #7396ff; stroke-width: 3; stroke-linecap: square"/>
    </g>
    <g id="line2d_86">
     <path d="M 351.023685 198.162266 
L 350.888475 205.588581 
" clip-path="url(#p8182f7bd34)" style="fill: none; stroke: #7396ff; stroke-width: 3; stroke-linecap: square"/>
    </g>
    <g id="line2d_87">
     <path d="M 320.262331 201.994958 
L 320.32648 209.478224 
" clip-path="url(#p8182f7bd34)" style="fill: none; stroke: #7396ff; stroke-width: 3; stroke-linecap: square"/>
    </g>
    <g id="Path3DCollection_1">
     <defs>
      <path id="C0_0_7d1c31f909" d="M 0 3.535534 
C 0.937635 3.535534 1.836992 3.163008 2.5 2.5 
C 3.163008 1.836992 3.535534 0.937635 3.535534 -0 
C 3.535534 -0.937635 3.163008 -1.836992 2.5 -2.5 
C 1.836992 -3.163008 0.937635 -3.535534 0 -3.535534 
C -0.937635 -3.535534 -1.836992 -3.163008 -2.5 -2.5 
C -3.163008 -1.836992 -3.535534 -0.937635 -3.535534 0 
C -3.535534 0.937635 -3.163008 1.836992 -2.5 2.5 
C -1.836992 3.163008 -0.937635 3.535534 0 3.535534 
z
"/>
     </defs>
     <g clip-path="url(#p8182f7bd34)">
      <use xlink:href="#C0_0_7d1c31f909" x="312.896329" y="202.565939" style="fill: #ff7f7f; fill-opacity: 0.451122; stroke: #000000; stroke-opacity: 0.451122"/>
     </g>
     <g clip-path="url(#p8182f7bd34)">
      <use xlink:href="#C0_0_7d1c31f909" x="350.237801" y="241.326374" style="fill: #ff7f7f; fill-opacity: 0.472321; stroke: #000000; stroke-opacity: 0.472321"/>
     </g>
     <g clip-path="url(#p8182f7bd34)">
      <use xlink:href="#C0_0_7d1c31f909" x="320.635056" y="245.475067" style="fill: #ff7f7f; fill-opacity: 0.531082; stroke: #000000; stroke-opacity: 0.531082"/>
     </g>
     <g clip-path="url(#p8182f7bd34)">
      <use xlink:href="#C0_0_7d1c31f909" x="331.549255" y="207.667173" style="fill: #7396ff; fill-opacity: 0.531082; stroke: #000000; stroke-opacity: 0.531082"/>
     </g>
     <g clip-path="url(#p8182f7bd34)">
      <use xlink:href="#C0_0_7d1c31f909" x="350.493124" y="227.302949" style="fill: #ff7f7f; fill-opacity: 0.541973; stroke: #000000; stroke-opacity: 0.541973"/>
     </g>
     <g clip-path="url(#p8182f7bd34)">
      <use xlink:href="#C0_0_7d1c31f909" x="301.424722" y="211.497004" style="fill: #7396ff; fill-opacity: 0.591114; stroke: #000000; stroke-opacity: 0.591114"/>
     </g>
     <g clip-path="url(#p8182f7bd34)">
      <use xlink:href="#C0_0_7d1c31f909" x="320.513997" y="231.352954" style="fill: #ff7f7f; fill-opacity: 0.602241; stroke: #000000; stroke-opacity: 0.602241"/>
     </g>
     <g clip-path="url(#p8182f7bd34)">
      <use xlink:href="#C0_0_7d1c31f909" x="350.755" y="212.919592" style="fill: #7396ff; fill-opacity: 0.613412; stroke: #000000; stroke-opacity: 0.613412"/>
     </g>
     <g clip-path="url(#p8182f7bd34)">
      <use xlink:href="#C0_0_7d1c31f909" x="320.389797" y="216.864401" style="fill: #7396ff; fill-opacity: 0.675246; stroke: #000000; stroke-opacity: 0.675246"/>
     </g>
     <g clip-path="url(#p8182f7bd34)">
      <use xlink:href="#C0_0_7d1c31f909" x="339.803765" y="237.029208" style="fill: #7396ff; fill-opacity: 0.686709; stroke: #000000; stroke-opacity: 0.686709"/>
     </g>
     <g clip-path="url(#p8182f7bd34)">
      <use xlink:href="#C0_0_7d1c31f909" x="351.023685" y="198.162266" style="fill: #ff7f7f; fill-opacity: 0.686709; stroke: #000000; stroke-opacity: 0.686709"/>
     </g>
     <g clip-path="url(#p8182f7bd34)">
      <use xlink:href="#C0_0_7d1c31f909" x="289.351184" y="220.896695" style="fill: #ff7f7f; fill-opacity: 0.738451; stroke: #000000; stroke-opacity: 0.738451"/>
     </g>
     <g clip-path="url(#p8182f7bd34)">
      <use xlink:href="#C0_0_7d1c31f909" x="320.262331" y="201.994958" style="fill: #ff7f7f; fill-opacity: 0.75017; stroke: #000000; stroke-opacity: 0.75017"/>
     </g>
     <g clip-path="url(#p8182f7bd34)">
      <use xlink:href="#C0_0_7d1c31f909" x="328.564047" y="261.773933" style="fill: #ff7f7f; fill-opacity: 0.761937; stroke: #000000; stroke-opacity: 0.761937"/>
     </g>
     <g clip-path="url(#p8182f7bd34)">
      <use xlink:href="#C0_0_7d1c31f909" x="359.681484" y="242.878473" style="fill: #ff7f7f; fill-opacity: 0.773752; stroke: #000000; stroke-opacity: 0.773752"/>
     </g>
     <g clip-path="url(#p8182f7bd34)">
      <use xlink:href="#C0_0_7d1c31f909" x="308.63578" y="226.551644" style="fill: #ff7f7f; fill-opacity: 0.82709; stroke: #000000; stroke-opacity: 0.82709"/>
     </g>
     <g clip-path="url(#p8182f7bd34)">
      <use xlink:href="#C0_0_7d1c31f909" x="328.543719" y="247.274736" style="fill: #ff7f7f; fill-opacity: 0.839173; stroke: #000000; stroke-opacity: 0.839173"/>
     </g>
     <g clip-path="url(#p8182f7bd34)">
      <use xlink:href="#C0_0_7d1c31f909" x="328.522842" y="232.383258" style="fill: #7396ff; fill-opacity: 0.918499; stroke: #000000; stroke-opacity: 0.918499"/>
     </g>
     <g clip-path="url(#p8182f7bd34)">
      <use xlink:href="#C0_0_7d1c31f909" x="328.501392" y="217.083362" style="fill: #ff7f7f; stroke: #000000"/>
     </g>
    </g>
   </g>
   <g id="legend_1">
    <g id="patch_8">
     <path d="M 58.700781 75.320469 
L 97.063281 75.320469 
Q 99.063281 75.320469 99.063281 73.320469 
L 99.063281 29.318125 
Q 99.063281 27.318125 97.063281 27.318125 
L 58.700781 27.318125 
Q 56.700781 27.318125 56.700781 29.318125 
L 56.700781 73.320469 
Q 56.700781 75.320469 58.700781 75.320469 
z
" style="fill: #ffffff; opacity: 0.8; stroke: #cccccc; stroke-linejoin: miter"/>
    </g>
    <g id="line2d_88">
     <path d="M 60.700781 35.416562 
L 70.700781 35.416562 
L 80.700781 35.416562 
" style="fill: none; stroke: #1f77b4; stroke-width: 1.5; stroke-linecap: square"/>
     <g>
      <use xlink:href="#mfe06d8f431" x="70.700781" y="35.416562" style="fill: #1f77b4; stroke: #1f77b4"/>
     </g>
    </g>
    <g id="text_13">
     <!-- 3 -->
     <g transform="translate(88.700781 38.916562) scale(0.1 -0.1)">
      <use xlink:href="#DejaVuSans-16"/>
     </g>
    </g>
    <g id="line2d_89">
     <path d="M 60.700781 50.417344 
L 70.700781 50.417344 
L 80.700781 50.417344 
" style="fill: none; stroke: #ff7f0e; stroke-width: 1.5; stroke-linecap: square"/>
     <g>
      <use xlink:href="#m56e24e948c" x="70.700781" y="50.417344" style="fill: #ff7f0e; stroke: #ff7f0e; stroke-linejoin: miter"/>
     </g>
    </g>
    <g id="text_14">
     <!-- 5 -->
     <g transform="translate(88.700781 53.917344) scale(0.1 -0.1)">
      <defs>
       <path id="DejaVuSans-18" d="M 691 4666 
L 3169 4666 
L 3169 4134 
L 1269 4134 
L 1269 2991 
Q 1406 3038 1543 3061 
Q 1681 3084 1819 3084 
Q 2600 3084 3056 2656 
Q 3513 2228 3513 1497 
Q 3513 744 3044 326 
Q 2575 -91 1722 -91 
Q 1428 -91 1123 -41 
Q 819 9 494 109 
L 494 744 
Q 775 591 1075 516 
Q 1375 441 1709 441 
Q 2250 441 2565 725 
Q 2881 1009 2881 1497 
Q 2881 1984 2565 2268 
Q 2250 2553 1709 2553 
Q 1456 2553 1204 2497 
Q 953 2441 691 2322 
L 691 4666 
z
" transform="scale(0.015625)"/>
      </defs>
      <use xlink:href="#DejaVuSans-18"/>
     </g>
    </g>
    <g id="line2d_90">
     <path d="M 60.700781 65.418125 
L 70.700781 65.418125 
L 80.700781 65.418125 
" style="fill: none; stroke: #2ca02c; stroke-width: 1.5; stroke-linecap: square"/>
     <g>
      <use xlink:href="#md0045a9f6f" x="70.700781" y="65.418125" style="fill: #2ca02c; stroke: #2ca02c; stroke-linejoin: bevel"/>
     </g>
    </g>
    <g id="text_15">
     <!-- 7 -->
     <g transform="translate(88.700781 68.918125) scale(0.1 -0.1)">
      <defs>
       <path id="DejaVuSans-1a" d="M 525 4666 
L 3525 4666 
L 3525 4397 
L 1831 0 
L 1172 0 
L 2766 4134 
L 525 4134 
L 525 4666 
z
" transform="scale(0.015625)"/>
      </defs>
      <use xlink:href="#DejaVuSans-1a"/>
     </g>
    </g>
   </g>
  </g>
 </g>
 <defs>
  <clipPath id="p6cde46997a">
   <rect x="51.700781" y="22.318125" width="357.12" height="266.112"/>
  </clipPath>
  <clipPath id="p8182f7bd34">
   <rect x="268.593581" y="168.679725" width="119.7504" height="119.7504"/>
  </clipPath>
 </defs>
</svg>
