<?xml version="1.0" encoding="utf-8" standalone="no"?>
<!DOCTYPE svg PUBLIC "-//W3C//DTD SVG 1.1//EN"
  "http://www.w3.org/Graphics/SVG/1.1/DTD/svg11.dtd">
<svg xmlns:xlink="http://www.w3.org/1999/xlink" width="415.698125pt" height="325.986375pt" viewBox="0 0 415.698125 325.986375" xmlns="http://www.w3.org/2000/svg" version="1.1">
 <metadata>
  <rdf:RDF xmlns:dc="http://purl.org/dc/elements/1.1/" xmlns:cc="http://creativecommons.org/ns#" xmlns:rdf="http://www.w3.org/1999/02/22-rdf-syntax-ns#">
   <cc:Work>
    <dc:type rdf:resource="http://purl.org/dc/dcmitype/StillImage"/>
    <dc:date>2025-06-19T15:06:23.742108</dc:date>
    <dc:format>image/svg+xml</dc:format>
    <dc:creator>
     <cc:Agent>
      <dc:title>Matplotlib v3.10.3, https://matplotlib.org/</dc:title>
     </cc:Agent>
    </dc:creator>
   </cc:Work>
  </rdf:RDF>
 </metadata>
 <defs>
  <style type="text/css">*{stroke-linejoin: round; stroke-linecap: butt}</style>
 </defs>
 <g id="figure_1">
  <g id="patch_1">
   <path d="M 0 325.986375 
L 415.698125 325.986375 
L 415.698125 0 
L 0 0 
z
" style="fill: #ffffff"/>
  </g>
  <g id="axes_1">
   <g id="patch_2">
    <path d="M 51.378125 288.430125 
L 408.498125 288.430125 
L 408.498125 22.318125 
L 51.378125 22.318125 
z
" style="fill: #ffffff"/>
   </g>
   <g id="FillBetweenPolyCollection_1">
    <defs>
     <path id="m714af3c5cc" d="M 67.610852 -190.051239 
L 67.610852 -185.724177 
L 67.610852 -185.12433 
L 103.68358 -205.000715 
L 103.68358 -204.954766 
L 139.756307 -223.714238 
L 139.756307 -223.588311 
L 175.829034 -242.010598 
L 175.829034 -241.927867 
L 211.901761 -259.147117 
L 211.901761 -259.073722 
L 247.974489 -274.109752 
L 247.974489 -273.98538 
L 284.047216 -282.432643 
L 284.047216 -281.802056 
L 320.119943 -282.28313 
L 320.119943 -282.62483 
L 356.19267 -283.224796 
L 356.19267 -283.253566 
L 392.265398 -282.21987 
L 392.265398 -283.086558 
L 392.265398 -289.190579 
L 392.265398 -289.190579 
L 392.265398 -288.787302 
L 356.19267 -289.241153 
L 356.19267 -289.217251 
L 320.119943 -288.992557 
L 320.119943 -288.827807 
L 284.047216 -288.408479 
L 284.047216 -288.874336 
L 247.974489 -274.788271 
L 247.974489 -274.91551 
L 211.901761 -259.686304 
L 211.901761 -259.752926 
L 175.829034 -242.524507 
L 175.829034 -242.597841 
L 139.756307 -224.554153 
L 139.756307 -224.67496 
L 103.68358 -206.997686 
L 103.68358 -207.039764 
L 67.610852 -189.550906 
L 67.610852 -190.051239 
z
" style="stroke: #1f77b4; stroke-opacity: 0.2"/>
    </defs>
    <g clip-path="url(#pd60e25fd6c)">
     <use xlink:href="#m714af3c5cc" x="0" y="325.986375" style="fill: #1f77b4; fill-opacity: 0.2; stroke: #1f77b4; stroke-opacity: 0.2"/>
    </g>
   </g>
   <g id="FillBetweenPolyCollection_2">
    <defs>
     <path id="mc2795878c4" d="M 67.610852 -147.787137 
L 67.610852 -116.744381 
L 67.610852 -123.231591 
L 103.68358 -162.822006 
L 103.68358 -164.429051 
L 139.756307 -193.714368 
L 139.756307 -194.191402 
L 175.829034 -221.559093 
L 175.829034 -221.358358 
L 211.901761 -248.058079 
L 211.901761 -248.140818 
L 247.974489 -270.912523 
L 247.974489 -270.798531 
L 284.047216 -278.071024 
L 284.047216 -279.420664 
L 320.119943 -278.469065 
L 320.119943 -278.991195 
L 356.19267 -279.385532 
L 356.19267 -278.423479 
L 392.265398 -279.444422 
L 392.265398 -278.511008 
L 392.265398 -290.350241 
L 392.265398 -290.350241 
L 392.265398 -290.700376 
L 356.19267 -290.327446 
L 356.19267 -290.673645 
L 320.119943 -290.566979 
L 320.119943 -290.345574 
L 284.047216 -290.678921 
L 284.047216 -290.088517 
L 247.974489 -271.725901 
L 247.974489 -271.854035 
L 211.901761 -248.626269 
L 211.901761 -248.545468 
L 175.829034 -222.18485 
L 175.829034 -222.378932 
L 139.756307 -196.646189 
L 139.756307 -196.21586 
L 103.68358 -172.00008 
L 103.68358 -170.836043 
L 67.610852 -149.837069 
L 67.610852 -147.787137 
z
" style="stroke: #ff7f0e; stroke-opacity: 0.2"/>
    </defs>
    <g clip-path="url(#pd60e25fd6c)">
     <use xlink:href="#mc2795878c4" x="0" y="325.986375" style="fill: #ff7f0e; fill-opacity: 0.2; stroke: #ff7f0e; stroke-opacity: 0.2"/>
    </g>
   </g>
   <g id="FillBetweenPolyCollection_3">
    <path d="M 67.610852 197.770805 
L 67.610852 27699.807113 
L 67.610852 276.334125 
L 103.68358 223.679041 
L 103.68358 236.293863 
L 139.756307 169.85241 
L 139.756307 168.653772 
L 175.829034 127.266944 
L 175.829034 127.271739 
L 211.901761 90.843546 
L 211.901761 90.745743 
L 247.974489 58.747813 
L 247.974489 58.855749 
L 284.047216 50.22091 
L 284.047216 49.952095 
L 320.119943 50.243423 
L 320.119943 49.74236 
L 356.19267 49.146193 
L 356.19267 50.503582 
L 392.265398 50.286223 
L 392.265398 49.761672 
L 392.265398 34.55855 
L 392.265398 34.55855 
L 392.265398 34.72363 
L 356.19267 34.801706 
L 356.19267 34.414125 
L 320.119943 34.492975 
L 320.119943 34.623318 
L 284.047216 34.550873 
L 284.047216 34.615758 
L 247.974489 57.928525 
L 247.974489 57.807494 
L 211.901761 90.336177 
L 211.901761 90.432675 
L 175.829034 125.525064 
L 175.829034 125.520616 
L 139.756307 160.221156 
L 139.756307 161.059904 
L 103.68358 187.239356 
L 103.68358 184.886741 
L 67.610852 193.056176 
L 67.610852 197.770805 
z
" clip-path="url(#pd60e25fd6c)" style="fill: #2ca02c; fill-opacity: 0.2; stroke: #2ca02c; stroke-opacity: 0.2"/>
   </g>
   <g id="matplotlib.axis_1">
    <g id="xtick_1">
     <g id="line2d_1">
      <path d="M 67.610852 288.430125 
L 67.610852 22.318125 
" clip-path="url(#pd60e25fd6c)" style="fill: none; stroke: #b0b0b0; stroke-width: 0.8; stroke-linecap: square"/>
     </g>
     <g id="line2d_2">
      <defs>
       <path id="m85fda0a59c" d="M 0 0 
L 0 3.5 
" style="stroke: #000000; stroke-width: 0.8"/>
      </defs>
      <g>
       <use xlink:href="#m85fda0a59c" x="67.610852" y="288.430125" style="stroke: #000000; stroke-width: 0.8"/>
      </g>
     </g>
     <g id="text_1">
      <!-- $\mathdefault{10^{-4}}$ -->
      <g transform="translate(55.860852 303.028562) scale(0.1 -0.1)">
       <defs>
        <path id="DejaVuSans-31" d="M 794 531 
L 1825 531 
L 1825 4091 
L 703 3866 
L 703 4441 
L 1819 4666 
L 2450 4666 
L 2450 531 
L 3481 531 
L 3481 0 
L 794 0 
L 794 531 
z
" transform="scale(0.015625)"/>
        <path id="DejaVuSans-30" d="M 2034 4250 
Q 1547 4250 1301 3770 
Q 1056 3291 1056 2328 
Q 1056 1369 1301 889 
Q 1547 409 2034 409 
Q 2525 409 2770 889 
Q 3016 1369 3016 2328 
Q 3016 3291 2770 3770 
Q 2525 4250 2034 4250 
z
M 2034 4750 
Q 2819 4750 3233 4129 
Q 3647 3509 3647 2328 
Q 3647 1150 3233 529 
Q 2819 -91 2034 -91 
Q 1250 -91 836 529 
Q 422 1150 422 2328 
Q 422 3509 836 4129 
Q 1250 4750 2034 4750 
z
" transform="scale(0.015625)"/>
        <path id="DejaVuSans-2212" d="M 678 2272 
L 4684 2272 
L 4684 1741 
L 678 1741 
L 678 2272 
z
" transform="scale(0.015625)"/>
        <path id="DejaVuSans-34" d="M 2419 4116 
L 825 1625 
L 2419 1625 
L 2419 4116 
z
M 2253 4666 
L 3047 4666 
L 3047 1625 
L 3713 1625 
L 3713 1100 
L 3047 1100 
L 3047 0 
L 2419 0 
L 2419 1100 
L 313 1100 
L 313 1709 
L 2253 4666 
z
" transform="scale(0.015625)"/>
       </defs>
       <use xlink:href="#DejaVuSans-31" transform="translate(0 0.684375)"/>
       <use xlink:href="#DejaVuSans-30" transform="translate(63.623047 0.684375)"/>
       <use xlink:href="#DejaVuSans-2212" transform="translate(128.203125 38.965625) scale(0.7)"/>
       <use xlink:href="#DejaVuSans-34" transform="translate(186.855469 38.965625) scale(0.7)"/>
      </g>
     </g>
    </g>
    <g id="xtick_2">
     <g id="line2d_3">
      <path d="M 175.829034 288.430125 
L 175.829034 22.318125 
" clip-path="url(#pd60e25fd6c)" style="fill: none; stroke: #b0b0b0; stroke-width: 0.8; stroke-linecap: square"/>
     </g>
     <g id="line2d_4">
      <g>
       <use xlink:href="#m85fda0a59c" x="175.829034" y="288.430125" style="stroke: #000000; stroke-width: 0.8"/>
      </g>
     </g>
     <g id="text_2">
      <!-- $\mathdefault{10^{-3}}$ -->
      <g transform="translate(164.079034 303.028562) scale(0.1 -0.1)">
       <defs>
        <path id="DejaVuSans-33" d="M 2597 2516 
Q 3050 2419 3304 2112 
Q 3559 1806 3559 1356 
Q 3559 666 3084 287 
Q 2609 -91 1734 -91 
Q 1441 -91 1130 -33 
Q 819 25 488 141 
L 488 750 
Q 750 597 1062 519 
Q 1375 441 1716 441 
Q 2309 441 2620 675 
Q 2931 909 2931 1356 
Q 2931 1769 2642 2001 
Q 2353 2234 1838 2234 
L 1294 2234 
L 1294 2753 
L 1863 2753 
Q 2328 2753 2575 2939 
Q 2822 3125 2822 3475 
Q 2822 3834 2567 4026 
Q 2313 4219 1838 4219 
Q 1578 4219 1281 4162 
Q 984 4106 628 3988 
L 628 4550 
Q 988 4650 1302 4700 
Q 1616 4750 1894 4750 
Q 2613 4750 3031 4423 
Q 3450 4097 3450 3541 
Q 3450 3153 3228 2886 
Q 3006 2619 2597 2516 
z
" transform="scale(0.015625)"/>
       </defs>
       <use xlink:href="#DejaVuSans-31" transform="translate(0 0.765625)"/>
       <use xlink:href="#DejaVuSans-30" transform="translate(63.623047 0.765625)"/>
       <use xlink:href="#DejaVuSans-2212" transform="translate(128.203125 39.046875) scale(0.7)"/>
       <use xlink:href="#DejaVuSans-33" transform="translate(186.855469 39.046875) scale(0.7)"/>
      </g>
     </g>
    </g>
    <g id="xtick_3">
     <g id="line2d_5">
      <path d="M 284.047216 288.430125 
L 284.047216 22.318125 
" clip-path="url(#pd60e25fd6c)" style="fill: none; stroke: #b0b0b0; stroke-width: 0.8; stroke-linecap: square"/>
     </g>
     <g id="line2d_6">
      <g>
       <use xlink:href="#m85fda0a59c" x="284.047216" y="288.430125" style="stroke: #000000; stroke-width: 0.8"/>
      </g>
     </g>
     <g id="text_3">
      <!-- $\mathdefault{10^{-2}}$ -->
      <g transform="translate(272.297216 303.028562) scale(0.1 -0.1)">
       <defs>
        <path id="DejaVuSans-32" d="M 1228 531 
L 3431 531 
L 3431 0 
L 469 0 
L 469 531 
Q 828 903 1448 1529 
Q 2069 2156 2228 2338 
Q 2531 2678 2651 2914 
Q 2772 3150 2772 3378 
Q 2772 3750 2511 3984 
Q 2250 4219 1831 4219 
Q 1534 4219 1204 4116 
Q 875 4013 500 3803 
L 500 4441 
Q 881 4594 1212 4672 
Q 1544 4750 1819 4750 
Q 2544 4750 2975 4387 
Q 3406 4025 3406 3419 
Q 3406 3131 3298 2873 
Q 3191 2616 2906 2266 
Q 2828 2175 2409 1742 
Q 1991 1309 1228 531 
z
" transform="scale(0.015625)"/>
       </defs>
       <use xlink:href="#DejaVuSans-31" transform="translate(0 0.765625)"/>
       <use xlink:href="#DejaVuSans-30" transform="translate(63.623047 0.765625)"/>
       <use xlink:href="#DejaVuSans-2212" transform="translate(128.203125 39.046875) scale(0.7)"/>
       <use xlink:href="#DejaVuSans-32" transform="translate(186.855469 39.046875) scale(0.7)"/>
      </g>
     </g>
    </g>
    <g id="xtick_4">
     <g id="line2d_7">
      <path d="M 392.265398 288.430125 
L 392.265398 22.318125 
" clip-path="url(#pd60e25fd6c)" style="fill: none; stroke: #b0b0b0; stroke-width: 0.8; stroke-linecap: square"/>
     </g>
     <g id="line2d_8">
      <g>
       <use xlink:href="#m85fda0a59c" x="392.265398" y="288.430125" style="stroke: #000000; stroke-width: 0.8"/>
      </g>
     </g>
     <g id="text_4">
      <!-- $\mathdefault{10^{-1}}$ -->
      <g transform="translate(380.515398 303.028562) scale(0.1 -0.1)">
       <use xlink:href="#DejaVuSans-31" transform="translate(0 0.684375)"/>
       <use xlink:href="#DejaVuSans-30" transform="translate(63.623047 0.684375)"/>
       <use xlink:href="#DejaVuSans-2212" transform="translate(128.203125 38.965625) scale(0.7)"/>
       <use xlink:href="#DejaVuSans-31" transform="translate(186.855469 38.965625) scale(0.7)"/>
      </g>
     </g>
    </g>
    <g id="xtick_5">
     <g id="line2d_9">
      <defs>
       <path id="m426043fe13" d="M 0 0 
L 0 2 
" style="stroke: #000000; stroke-width: 0.6"/>
      </defs>
      <g>
       <use xlink:href="#m426043fe13" x="57.123427" y="288.430125" style="stroke: #000000; stroke-width: 0.6"/>
      </g>
     </g>
    </g>
    <g id="xtick_6">
     <g id="line2d_10">
      <g>
       <use xlink:href="#m426043fe13" x="62.65906" y="288.430125" style="stroke: #000000; stroke-width: 0.6"/>
      </g>
     </g>
    </g>
    <g id="xtick_7">
     <g id="line2d_11">
      <g>
       <use xlink:href="#m426043fe13" x="100.187771" y="288.430125" style="stroke: #000000; stroke-width: 0.6"/>
      </g>
     </g>
    </g>
    <g id="xtick_8">
     <g id="line2d_12">
      <g>
       <use xlink:href="#m426043fe13" x="119.244047" y="288.430125" style="stroke: #000000; stroke-width: 0.6"/>
      </g>
     </g>
    </g>
    <g id="xtick_9">
     <g id="line2d_13">
      <g>
       <use xlink:href="#m426043fe13" x="132.76469" y="288.430125" style="stroke: #000000; stroke-width: 0.6"/>
      </g>
     </g>
    </g>
    <g id="xtick_10">
     <g id="line2d_14">
      <g>
       <use xlink:href="#m426043fe13" x="143.252115" y="288.430125" style="stroke: #000000; stroke-width: 0.6"/>
      </g>
     </g>
    </g>
    <g id="xtick_11">
     <g id="line2d_15">
      <g>
       <use xlink:href="#m426043fe13" x="151.820966" y="288.430125" style="stroke: #000000; stroke-width: 0.6"/>
      </g>
     </g>
    </g>
    <g id="xtick_12">
     <g id="line2d_16">
      <g>
       <use xlink:href="#m426043fe13" x="159.065826" y="288.430125" style="stroke: #000000; stroke-width: 0.6"/>
      </g>
     </g>
    </g>
    <g id="xtick_13">
     <g id="line2d_17">
      <g>
       <use xlink:href="#m426043fe13" x="165.341609" y="288.430125" style="stroke: #000000; stroke-width: 0.6"/>
      </g>
     </g>
    </g>
    <g id="xtick_14">
     <g id="line2d_18">
      <g>
       <use xlink:href="#m426043fe13" x="170.877242" y="288.430125" style="stroke: #000000; stroke-width: 0.6"/>
      </g>
     </g>
    </g>
    <g id="xtick_15">
     <g id="line2d_19">
      <g>
       <use xlink:href="#m426043fe13" x="208.405953" y="288.430125" style="stroke: #000000; stroke-width: 0.6"/>
      </g>
     </g>
    </g>
    <g id="xtick_16">
     <g id="line2d_20">
      <g>
       <use xlink:href="#m426043fe13" x="227.462229" y="288.430125" style="stroke: #000000; stroke-width: 0.6"/>
      </g>
     </g>
    </g>
    <g id="xtick_17">
     <g id="line2d_21">
      <g>
       <use xlink:href="#m426043fe13" x="240.982872" y="288.430125" style="stroke: #000000; stroke-width: 0.6"/>
      </g>
     </g>
    </g>
    <g id="xtick_18">
     <g id="line2d_22">
      <g>
       <use xlink:href="#m426043fe13" x="251.470297" y="288.430125" style="stroke: #000000; stroke-width: 0.6"/>
      </g>
     </g>
    </g>
    <g id="xtick_19">
     <g id="line2d_23">
      <g>
       <use xlink:href="#m426043fe13" x="260.039148" y="288.430125" style="stroke: #000000; stroke-width: 0.6"/>
      </g>
     </g>
    </g>
    <g id="xtick_20">
     <g id="line2d_24">
      <g>
       <use xlink:href="#m426043fe13" x="267.284007" y="288.430125" style="stroke: #000000; stroke-width: 0.6"/>
      </g>
     </g>
    </g>
    <g id="xtick_21">
     <g id="line2d_25">
      <g>
       <use xlink:href="#m426043fe13" x="273.559791" y="288.430125" style="stroke: #000000; stroke-width: 0.6"/>
      </g>
     </g>
    </g>
    <g id="xtick_22">
     <g id="line2d_26">
      <g>
       <use xlink:href="#m426043fe13" x="279.095423" y="288.430125" style="stroke: #000000; stroke-width: 0.6"/>
      </g>
     </g>
    </g>
    <g id="xtick_23">
     <g id="line2d_27">
      <g>
       <use xlink:href="#m426043fe13" x="316.624135" y="288.430125" style="stroke: #000000; stroke-width: 0.6"/>
      </g>
     </g>
    </g>
    <g id="xtick_24">
     <g id="line2d_28">
      <g>
       <use xlink:href="#m426043fe13" x="335.680411" y="288.430125" style="stroke: #000000; stroke-width: 0.6"/>
      </g>
     </g>
    </g>
    <g id="xtick_25">
     <g id="line2d_29">
      <g>
       <use xlink:href="#m426043fe13" x="349.201054" y="288.430125" style="stroke: #000000; stroke-width: 0.6"/>
      </g>
     </g>
    </g>
    <g id="xtick_26">
     <g id="line2d_30">
      <g>
       <use xlink:href="#m426043fe13" x="359.688479" y="288.430125" style="stroke: #000000; stroke-width: 0.6"/>
      </g>
     </g>
    </g>
    <g id="xtick_27">
     <g id="line2d_31">
      <g>
       <use xlink:href="#m426043fe13" x="368.257329" y="288.430125" style="stroke: #000000; stroke-width: 0.6"/>
      </g>
     </g>
    </g>
    <g id="xtick_28">
     <g id="line2d_32">
      <g>
       <use xlink:href="#m426043fe13" x="375.502189" y="288.430125" style="stroke: #000000; stroke-width: 0.6"/>
      </g>
     </g>
    </g>
    <g id="xtick_29">
     <g id="line2d_33">
      <g>
       <use xlink:href="#m426043fe13" x="381.777972" y="288.430125" style="stroke: #000000; stroke-width: 0.6"/>
      </g>
     </g>
    </g>
    <g id="xtick_30">
     <g id="line2d_34">
      <g>
       <use xlink:href="#m426043fe13" x="387.313605" y="288.430125" style="stroke: #000000; stroke-width: 0.6"/>
      </g>
     </g>
    </g>
    <g id="text_5">
     <!-- Physical Error Rate -->
     <g transform="translate(182.773281 316.706687) scale(0.1 -0.1)">
      <defs>
       <path id="DejaVuSans-50" d="M 1259 4147 
L 1259 2394 
L 2053 2394 
Q 2494 2394 2734 2622 
Q 2975 2850 2975 3272 
Q 2975 3691 2734 3919 
Q 2494 4147 2053 4147 
L 1259 4147 
z
M 628 4666 
L 2053 4666 
Q 2838 4666 3239 4311 
Q 3641 3956 3641 3272 
Q 3641 2581 3239 2228 
Q 2838 1875 2053 1875 
L 1259 1875 
L 1259 0 
L 628 0 
L 628 4666 
z
" transform="scale(0.015625)"/>
       <path id="DejaVuSans-68" d="M 3513 2113 
L 3513 0 
L 2938 0 
L 2938 2094 
Q 2938 2591 2744 2837 
Q 2550 3084 2163 3084 
Q 1697 3084 1428 2787 
Q 1159 2491 1159 1978 
L 1159 0 
L 581 0 
L 581 4863 
L 1159 4863 
L 1159 2956 
Q 1366 3272 1645 3428 
Q 1925 3584 2291 3584 
Q 2894 3584 3203 3211 
Q 3513 2838 3513 2113 
z
" transform="scale(0.015625)"/>
       <path id="DejaVuSans-79" d="M 2059 -325 
Q 1816 -950 1584 -1140 
Q 1353 -1331 966 -1331 
L 506 -1331 
L 506 -850 
L 844 -850 
Q 1081 -850 1212 -737 
Q 1344 -625 1503 -206 
L 1606 56 
L 191 3500 
L 800 3500 
L 1894 763 
L 2988 3500 
L 3597 3500 
L 2059 -325 
z
" transform="scale(0.015625)"/>
       <path id="DejaVuSans-73" d="M 2834 3397 
L 2834 2853 
Q 2591 2978 2328 3040 
Q 2066 3103 1784 3103 
Q 1356 3103 1142 2972 
Q 928 2841 928 2578 
Q 928 2378 1081 2264 
Q 1234 2150 1697 2047 
L 1894 2003 
Q 2506 1872 2764 1633 
Q 3022 1394 3022 966 
Q 3022 478 2636 193 
Q 2250 -91 1575 -91 
Q 1294 -91 989 -36 
Q 684 19 347 128 
L 347 722 
Q 666 556 975 473 
Q 1284 391 1588 391 
Q 1994 391 2212 530 
Q 2431 669 2431 922 
Q 2431 1156 2273 1281 
Q 2116 1406 1581 1522 
L 1381 1569 
Q 847 1681 609 1914 
Q 372 2147 372 2553 
Q 372 3047 722 3315 
Q 1072 3584 1716 3584 
Q 2034 3584 2315 3537 
Q 2597 3491 2834 3397 
z
" transform="scale(0.015625)"/>
       <path id="DejaVuSans-69" d="M 603 3500 
L 1178 3500 
L 1178 0 
L 603 0 
L 603 3500 
z
M 603 4863 
L 1178 4863 
L 1178 4134 
L 603 4134 
L 603 4863 
z
" transform="scale(0.015625)"/>
       <path id="DejaVuSans-63" d="M 3122 3366 
L 3122 2828 
Q 2878 2963 2633 3030 
Q 2388 3097 2138 3097 
Q 1578 3097 1268 2742 
Q 959 2388 959 1747 
Q 959 1106 1268 751 
Q 1578 397 2138 397 
Q 2388 397 2633 464 
Q 2878 531 3122 666 
L 3122 134 
Q 2881 22 2623 -34 
Q 2366 -91 2075 -91 
Q 1284 -91 818 406 
Q 353 903 353 1747 
Q 353 2603 823 3093 
Q 1294 3584 2113 3584 
Q 2378 3584 2631 3529 
Q 2884 3475 3122 3366 
z
" transform="scale(0.015625)"/>
       <path id="DejaVuSans-61" d="M 2194 1759 
Q 1497 1759 1228 1600 
Q 959 1441 959 1056 
Q 959 750 1161 570 
Q 1363 391 1709 391 
Q 2188 391 2477 730 
Q 2766 1069 2766 1631 
L 2766 1759 
L 2194 1759 
z
M 3341 1997 
L 3341 0 
L 2766 0 
L 2766 531 
Q 2569 213 2275 61 
Q 1981 -91 1556 -91 
Q 1019 -91 701 211 
Q 384 513 384 1019 
Q 384 1609 779 1909 
Q 1175 2209 1959 2209 
L 2766 2209 
L 2766 2266 
Q 2766 2663 2505 2880 
Q 2244 3097 1772 3097 
Q 1472 3097 1187 3025 
Q 903 2953 641 2809 
L 641 3341 
Q 956 3463 1253 3523 
Q 1550 3584 1831 3584 
Q 2591 3584 2966 3190 
Q 3341 2797 3341 1997 
z
" transform="scale(0.015625)"/>
       <path id="DejaVuSans-6c" d="M 603 4863 
L 1178 4863 
L 1178 0 
L 603 0 
L 603 4863 
z
" transform="scale(0.015625)"/>
       <path id="DejaVuSans-20" transform="scale(0.015625)"/>
       <path id="DejaVuSans-45" d="M 628 4666 
L 3578 4666 
L 3578 4134 
L 1259 4134 
L 1259 2753 
L 3481 2753 
L 3481 2222 
L 1259 2222 
L 1259 531 
L 3634 531 
L 3634 0 
L 628 0 
L 628 4666 
z
" transform="scale(0.015625)"/>
       <path id="DejaVuSans-72" d="M 2631 2963 
Q 2534 3019 2420 3045 
Q 2306 3072 2169 3072 
Q 1681 3072 1420 2755 
Q 1159 2438 1159 1844 
L 1159 0 
L 581 0 
L 581 3500 
L 1159 3500 
L 1159 2956 
Q 1341 3275 1631 3429 
Q 1922 3584 2338 3584 
Q 2397 3584 2469 3576 
Q 2541 3569 2628 3553 
L 2631 2963 
z
" transform="scale(0.015625)"/>
       <path id="DejaVuSans-6f" d="M 1959 3097 
Q 1497 3097 1228 2736 
Q 959 2375 959 1747 
Q 959 1119 1226 758 
Q 1494 397 1959 397 
Q 2419 397 2687 759 
Q 2956 1122 2956 1747 
Q 2956 2369 2687 2733 
Q 2419 3097 1959 3097 
z
M 1959 3584 
Q 2709 3584 3137 3096 
Q 3566 2609 3566 1747 
Q 3566 888 3137 398 
Q 2709 -91 1959 -91 
Q 1206 -91 779 398 
Q 353 888 353 1747 
Q 353 2609 779 3096 
Q 1206 3584 1959 3584 
z
" transform="scale(0.015625)"/>
       <path id="DejaVuSans-52" d="M 2841 2188 
Q 3044 2119 3236 1894 
Q 3428 1669 3622 1275 
L 4263 0 
L 3584 0 
L 2988 1197 
Q 2756 1666 2539 1819 
Q 2322 1972 1947 1972 
L 1259 1972 
L 1259 0 
L 628 0 
L 628 4666 
L 2053 4666 
Q 2853 4666 3247 4331 
Q 3641 3997 3641 3322 
Q 3641 2881 3436 2590 
Q 3231 2300 2841 2188 
z
M 1259 4147 
L 1259 2491 
L 2053 2491 
Q 2509 2491 2742 2702 
Q 2975 2913 2975 3322 
Q 2975 3731 2742 3939 
Q 2509 4147 2053 4147 
L 1259 4147 
z
" transform="scale(0.015625)"/>
       <path id="DejaVuSans-74" d="M 1172 4494 
L 1172 3500 
L 2356 3500 
L 2356 3053 
L 1172 3053 
L 1172 1153 
Q 1172 725 1289 603 
Q 1406 481 1766 481 
L 2356 481 
L 2356 0 
L 1766 0 
Q 1100 0 847 248 
Q 594 497 594 1153 
L 594 3053 
L 172 3053 
L 172 3500 
L 594 3500 
L 594 4494 
L 1172 4494 
z
" transform="scale(0.015625)"/>
       <path id="DejaVuSans-65" d="M 3597 1894 
L 3597 1613 
L 953 1613 
Q 991 1019 1311 708 
Q 1631 397 2203 397 
Q 2534 397 2845 478 
Q 3156 559 3463 722 
L 3463 178 
Q 3153 47 2828 -22 
Q 2503 -91 2169 -91 
Q 1331 -91 842 396 
Q 353 884 353 1716 
Q 353 2575 817 3079 
Q 1281 3584 2069 3584 
Q 2775 3584 3186 3129 
Q 3597 2675 3597 1894 
z
M 3022 2063 
Q 3016 2534 2758 2815 
Q 2500 3097 2075 3097 
Q 1594 3097 1305 2825 
Q 1016 2553 972 2059 
L 3022 2063 
z
" transform="scale(0.015625)"/>
      </defs>
      <use xlink:href="#DejaVuSans-50"/>
      <use xlink:href="#DejaVuSans-68" transform="translate(60.302734 0)"/>
      <use xlink:href="#DejaVuSans-79" transform="translate(123.681641 0)"/>
      <use xlink:href="#DejaVuSans-73" transform="translate(182.861328 0)"/>
      <use xlink:href="#DejaVuSans-69" transform="translate(234.960938 0)"/>
      <use xlink:href="#DejaVuSans-63" transform="translate(262.744141 0)"/>
      <use xlink:href="#DejaVuSans-61" transform="translate(317.724609 0)"/>
      <use xlink:href="#DejaVuSans-6c" transform="translate(379.003906 0)"/>
      <use xlink:href="#DejaVuSans-20" transform="translate(406.787109 0)"/>
      <use xlink:href="#DejaVuSans-45" transform="translate(438.574219 0)"/>
      <use xlink:href="#DejaVuSans-72" transform="translate(501.757812 0)"/>
      <use xlink:href="#DejaVuSans-72" transform="translate(541.121094 0)"/>
      <use xlink:href="#DejaVuSans-6f" transform="translate(579.984375 0)"/>
      <use xlink:href="#DejaVuSans-72" transform="translate(641.166016 0)"/>
      <use xlink:href="#DejaVuSans-20" transform="translate(682.279297 0)"/>
      <use xlink:href="#DejaVuSans-52" transform="translate(714.066406 0)"/>
      <use xlink:href="#DejaVuSans-61" transform="translate(781.298828 0)"/>
      <use xlink:href="#DejaVuSans-74" transform="translate(842.578125 0)"/>
      <use xlink:href="#DejaVuSans-65" transform="translate(881.787109 0)"/>
     </g>
    </g>
   </g>
   <g id="matplotlib.axis_2">
    <g id="ytick_1">
     <g id="line2d_35">
      <path d="M 51.378125 252.951783 
L 408.498125 252.951783 
" clip-path="url(#pd60e25fd6c)" style="fill: none; stroke: #b0b0b0; stroke-width: 0.8; stroke-linecap: square"/>
     </g>
     <g id="line2d_36">
      <defs>
       <path id="me9ba0a29a4" d="M 0 0 
L -3.5 0 
" style="stroke: #000000; stroke-width: 0.8"/>
      </defs>
      <g>
       <use xlink:href="#me9ba0a29a4" x="51.378125" y="252.951783" style="stroke: #000000; stroke-width: 0.8"/>
      </g>
     </g>
     <g id="text_6">
      <!-- $\mathdefault{10^{-8}}$ -->
      <g transform="translate(20.878125 256.751001) scale(0.1 -0.1)">
       <defs>
        <path id="DejaVuSans-38" d="M 2034 2216 
Q 1584 2216 1326 1975 
Q 1069 1734 1069 1313 
Q 1069 891 1326 650 
Q 1584 409 2034 409 
Q 2484 409 2743 651 
Q 3003 894 3003 1313 
Q 3003 1734 2745 1975 
Q 2488 2216 2034 2216 
z
M 1403 2484 
Q 997 2584 770 2862 
Q 544 3141 544 3541 
Q 544 4100 942 4425 
Q 1341 4750 2034 4750 
Q 2731 4750 3128 4425 
Q 3525 4100 3525 3541 
Q 3525 3141 3298 2862 
Q 3072 2584 2669 2484 
Q 3125 2378 3379 2068 
Q 3634 1759 3634 1313 
Q 3634 634 3220 271 
Q 2806 -91 2034 -91 
Q 1263 -91 848 271 
Q 434 634 434 1313 
Q 434 1759 690 2068 
Q 947 2378 1403 2484 
z
M 1172 3481 
Q 1172 3119 1398 2916 
Q 1625 2713 2034 2713 
Q 2441 2713 2670 2916 
Q 2900 3119 2900 3481 
Q 2900 3844 2670 4047 
Q 2441 4250 2034 4250 
Q 1625 4250 1398 4047 
Q 1172 3844 1172 3481 
z
" transform="scale(0.015625)"/>
       </defs>
       <use xlink:href="#DejaVuSans-31" transform="translate(0 0.765625)"/>
       <use xlink:href="#DejaVuSans-30" transform="translate(63.623047 0.765625)"/>
       <use xlink:href="#DejaVuSans-2212" transform="translate(128.203125 39.046875) scale(0.7)"/>
       <use xlink:href="#DejaVuSans-38" transform="translate(186.855469 39.046875) scale(0.7)"/>
      </g>
     </g>
    </g>
    <g id="ytick_2">
     <g id="line2d_37">
      <path d="M 51.378125 197.615381 
L 408.498125 197.615381 
" clip-path="url(#pd60e25fd6c)" style="fill: none; stroke: #b0b0b0; stroke-width: 0.8; stroke-linecap: square"/>
     </g>
     <g id="line2d_38">
      <g>
       <use xlink:href="#me9ba0a29a4" x="51.378125" y="197.615381" style="stroke: #000000; stroke-width: 0.8"/>
      </g>
     </g>
     <g id="text_7">
      <!-- $\mathdefault{10^{-6}}$ -->
      <g transform="translate(20.878125 201.414599) scale(0.1 -0.1)">
       <defs>
        <path id="DejaVuSans-36" d="M 2113 2584 
Q 1688 2584 1439 2293 
Q 1191 2003 1191 1497 
Q 1191 994 1439 701 
Q 1688 409 2113 409 
Q 2538 409 2786 701 
Q 3034 994 3034 1497 
Q 3034 2003 2786 2293 
Q 2538 2584 2113 2584 
z
M 3366 4563 
L 3366 3988 
Q 3128 4100 2886 4159 
Q 2644 4219 2406 4219 
Q 1781 4219 1451 3797 
Q 1122 3375 1075 2522 
Q 1259 2794 1537 2939 
Q 1816 3084 2150 3084 
Q 2853 3084 3261 2657 
Q 3669 2231 3669 1497 
Q 3669 778 3244 343 
Q 2819 -91 2113 -91 
Q 1303 -91 875 529 
Q 447 1150 447 2328 
Q 447 3434 972 4092 
Q 1497 4750 2381 4750 
Q 2619 4750 2861 4703 
Q 3103 4656 3366 4563 
z
" transform="scale(0.015625)"/>
       </defs>
       <use xlink:href="#DejaVuSans-31" transform="translate(0 0.765625)"/>
       <use xlink:href="#DejaVuSans-30" transform="translate(63.623047 0.765625)"/>
       <use xlink:href="#DejaVuSans-2212" transform="translate(128.203125 39.046875) scale(0.7)"/>
       <use xlink:href="#DejaVuSans-36" transform="translate(186.855469 39.046875) scale(0.7)"/>
      </g>
     </g>
    </g>
    <g id="ytick_3">
     <g id="line2d_39">
      <path d="M 51.378125 142.278979 
L 408.498125 142.278979 
" clip-path="url(#pd60e25fd6c)" style="fill: none; stroke: #b0b0b0; stroke-width: 0.8; stroke-linecap: square"/>
     </g>
     <g id="line2d_40">
      <g>
       <use xlink:href="#me9ba0a29a4" x="51.378125" y="142.278979" style="stroke: #000000; stroke-width: 0.8"/>
      </g>
     </g>
     <g id="text_8">
      <!-- $\mathdefault{10^{-4}}$ -->
      <g transform="translate(20.878125 146.078198) scale(0.1 -0.1)">
       <use xlink:href="#DejaVuSans-31" transform="translate(0 0.684375)"/>
       <use xlink:href="#DejaVuSans-30" transform="translate(63.623047 0.684375)"/>
       <use xlink:href="#DejaVuSans-2212" transform="translate(128.203125 38.965625) scale(0.7)"/>
       <use xlink:href="#DejaVuSans-34" transform="translate(186.855469 38.965625) scale(0.7)"/>
      </g>
     </g>
    </g>
    <g id="ytick_4">
     <g id="line2d_41">
      <path d="M 51.378125 86.942577 
L 408.498125 86.942577 
" clip-path="url(#pd60e25fd6c)" style="fill: none; stroke: #b0b0b0; stroke-width: 0.8; stroke-linecap: square"/>
     </g>
     <g id="line2d_42">
      <g>
       <use xlink:href="#me9ba0a29a4" x="51.378125" y="86.942577" style="stroke: #000000; stroke-width: 0.8"/>
      </g>
     </g>
     <g id="text_9">
      <!-- $\mathdefault{10^{-2}}$ -->
      <g transform="translate(20.878125 90.741796) scale(0.1 -0.1)">
       <use xlink:href="#DejaVuSans-31" transform="translate(0 0.765625)"/>
       <use xlink:href="#DejaVuSans-30" transform="translate(63.623047 0.765625)"/>
       <use xlink:href="#DejaVuSans-2212" transform="translate(128.203125 39.046875) scale(0.7)"/>
       <use xlink:href="#DejaVuSans-32" transform="translate(186.855469 39.046875) scale(0.7)"/>
      </g>
     </g>
    </g>
    <g id="ytick_5">
     <g id="line2d_43">
      <path d="M 51.378125 31.606175 
L 408.498125 31.606175 
" clip-path="url(#pd60e25fd6c)" style="fill: none; stroke: #b0b0b0; stroke-width: 0.8; stroke-linecap: square"/>
     </g>
     <g id="line2d_44">
      <g>
       <use xlink:href="#me9ba0a29a4" x="51.378125" y="31.606175" style="stroke: #000000; stroke-width: 0.8"/>
      </g>
     </g>
     <g id="text_10">
      <!-- $\mathdefault{10^{0}}$ -->
      <g transform="translate(26.778125 35.405394) scale(0.1 -0.1)">
       <use xlink:href="#DejaVuSans-31" transform="translate(0 0.765625)"/>
       <use xlink:href="#DejaVuSans-30" transform="translate(63.623047 0.765625)"/>
       <use xlink:href="#DejaVuSans-30" transform="translate(128.203125 39.046875) scale(0.7)"/>
      </g>
     </g>
    </g>
    <g id="text_11">
     <!-- Logical Error Rate(per round) -->
     <g transform="translate(14.798438 228.034281) rotate(-90) scale(0.1 -0.1)">
      <defs>
       <path id="DejaVuSans-4c" d="M 628 4666 
L 1259 4666 
L 1259 531 
L 3531 531 
L 3531 0 
L 628 0 
L 628 4666 
z
" transform="scale(0.015625)"/>
       <path id="DejaVuSans-67" d="M 2906 1791 
Q 2906 2416 2648 2759 
Q 2391 3103 1925 3103 
Q 1463 3103 1205 2759 
Q 947 2416 947 1791 
Q 947 1169 1205 825 
Q 1463 481 1925 481 
Q 2391 481 2648 825 
Q 2906 1169 2906 1791 
z
M 3481 434 
Q 3481 -459 3084 -895 
Q 2688 -1331 1869 -1331 
Q 1566 -1331 1297 -1286 
Q 1028 -1241 775 -1147 
L 775 -588 
Q 1028 -725 1275 -790 
Q 1522 -856 1778 -856 
Q 2344 -856 2625 -561 
Q 2906 -266 2906 331 
L 2906 616 
Q 2728 306 2450 153 
Q 2172 0 1784 0 
Q 1141 0 747 490 
Q 353 981 353 1791 
Q 353 2603 747 3093 
Q 1141 3584 1784 3584 
Q 2172 3584 2450 3431 
Q 2728 3278 2906 2969 
L 2906 3500 
L 3481 3500 
L 3481 434 
z
" transform="scale(0.015625)"/>
       <path id="DejaVuSans-28" d="M 1984 4856 
Q 1566 4138 1362 3434 
Q 1159 2731 1159 2009 
Q 1159 1288 1364 580 
Q 1569 -128 1984 -844 
L 1484 -844 
Q 1016 -109 783 600 
Q 550 1309 550 2009 
Q 550 2706 781 3412 
Q 1013 4119 1484 4856 
L 1984 4856 
z
" transform="scale(0.015625)"/>
       <path id="DejaVuSans-70" d="M 1159 525 
L 1159 -1331 
L 581 -1331 
L 581 3500 
L 1159 3500 
L 1159 2969 
Q 1341 3281 1617 3432 
Q 1894 3584 2278 3584 
Q 2916 3584 3314 3078 
Q 3713 2572 3713 1747 
Q 3713 922 3314 415 
Q 2916 -91 2278 -91 
Q 1894 -91 1617 61 
Q 1341 213 1159 525 
z
M 3116 1747 
Q 3116 2381 2855 2742 
Q 2594 3103 2138 3103 
Q 1681 3103 1420 2742 
Q 1159 2381 1159 1747 
Q 1159 1113 1420 752 
Q 1681 391 2138 391 
Q 2594 391 2855 752 
Q 3116 1113 3116 1747 
z
" transform="scale(0.015625)"/>
       <path id="DejaVuSans-75" d="M 544 1381 
L 544 3500 
L 1119 3500 
L 1119 1403 
Q 1119 906 1312 657 
Q 1506 409 1894 409 
Q 2359 409 2629 706 
Q 2900 1003 2900 1516 
L 2900 3500 
L 3475 3500 
L 3475 0 
L 2900 0 
L 2900 538 
Q 2691 219 2414 64 
Q 2138 -91 1772 -91 
Q 1169 -91 856 284 
Q 544 659 544 1381 
z
M 1991 3584 
L 1991 3584 
z
" transform="scale(0.015625)"/>
       <path id="DejaVuSans-6e" d="M 3513 2113 
L 3513 0 
L 2938 0 
L 2938 2094 
Q 2938 2591 2744 2837 
Q 2550 3084 2163 3084 
Q 1697 3084 1428 2787 
Q 1159 2491 1159 1978 
L 1159 0 
L 581 0 
L 581 3500 
L 1159 3500 
L 1159 2956 
Q 1366 3272 1645 3428 
Q 1925 3584 2291 3584 
Q 2894 3584 3203 3211 
Q 3513 2838 3513 2113 
z
" transform="scale(0.015625)"/>
       <path id="DejaVuSans-64" d="M 2906 2969 
L 2906 4863 
L 3481 4863 
L 3481 0 
L 2906 0 
L 2906 525 
Q 2725 213 2448 61 
Q 2172 -91 1784 -91 
Q 1150 -91 751 415 
Q 353 922 353 1747 
Q 353 2572 751 3078 
Q 1150 3584 1784 3584 
Q 2172 3584 2448 3432 
Q 2725 3281 2906 2969 
z
M 947 1747 
Q 947 1113 1208 752 
Q 1469 391 1925 391 
Q 2381 391 2643 752 
Q 2906 1113 2906 1747 
Q 2906 2381 2643 2742 
Q 2381 3103 1925 3103 
Q 1469 3103 1208 2742 
Q 947 2381 947 1747 
z
" transform="scale(0.015625)"/>
       <path id="DejaVuSans-29" d="M 513 4856 
L 1013 4856 
Q 1481 4119 1714 3412 
Q 1947 2706 1947 2009 
Q 1947 1309 1714 600 
Q 1481 -109 1013 -844 
L 513 -844 
Q 928 -128 1133 580 
Q 1338 1288 1338 2009 
Q 1338 2731 1133 3434 
Q 928 4138 513 4856 
z
" transform="scale(0.015625)"/>
      </defs>
      <use xlink:href="#DejaVuSans-4c"/>
      <use xlink:href="#DejaVuSans-6f" transform="translate(53.962891 0)"/>
      <use xlink:href="#DejaVuSans-67" transform="translate(115.144531 0)"/>
      <use xlink:href="#DejaVuSans-69" transform="translate(178.621094 0)"/>
      <use xlink:href="#DejaVuSans-63" transform="translate(206.404297 0)"/>
      <use xlink:href="#DejaVuSans-61" transform="translate(261.384766 0)"/>
      <use xlink:href="#DejaVuSans-6c" transform="translate(322.664062 0)"/>
      <use xlink:href="#DejaVuSans-20" transform="translate(350.447266 0)"/>
      <use xlink:href="#DejaVuSans-45" transform="translate(382.234375 0)"/>
      <use xlink:href="#DejaVuSans-72" transform="translate(445.417969 0)"/>
      <use xlink:href="#DejaVuSans-72" transform="translate(484.78125 0)"/>
      <use xlink:href="#DejaVuSans-6f" transform="translate(523.644531 0)"/>
      <use xlink:href="#DejaVuSans-72" transform="translate(584.826172 0)"/>
      <use xlink:href="#DejaVuSans-20" transform="translate(625.939453 0)"/>
      <use xlink:href="#DejaVuSans-52" transform="translate(657.726562 0)"/>
      <use xlink:href="#DejaVuSans-61" transform="translate(724.958984 0)"/>
      <use xlink:href="#DejaVuSans-74" transform="translate(786.238281 0)"/>
      <use xlink:href="#DejaVuSans-65" transform="translate(825.447266 0)"/>
      <use xlink:href="#DejaVuSans-28" transform="translate(886.970703 0)"/>
      <use xlink:href="#DejaVuSans-70" transform="translate(925.984375 0)"/>
      <use xlink:href="#DejaVuSans-65" transform="translate(989.460938 0)"/>
      <use xlink:href="#DejaVuSans-72" transform="translate(1050.984375 0)"/>
      <use xlink:href="#DejaVuSans-20" transform="translate(1092.097656 0)"/>
      <use xlink:href="#DejaVuSans-72" transform="translate(1123.884766 0)"/>
      <use xlink:href="#DejaVuSans-6f" transform="translate(1162.748047 0)"/>
      <use xlink:href="#DejaVuSans-75" transform="translate(1223.929688 0)"/>
      <use xlink:href="#DejaVuSans-6e" transform="translate(1287.308594 0)"/>
      <use xlink:href="#DejaVuSans-64" transform="translate(1350.6875 0)"/>
      <use xlink:href="#DejaVuSans-29" transform="translate(1414.164062 0)"/>
     </g>
    </g>
   </g>
   <g id="line2d_45">
    <path d="M 67.610852 138.033839 
L 67.610852 138.580928 
L 103.68358 119.951761 
L 103.68358 119.995683 
L 139.756307 101.788637 
L 139.756307 101.911938 
L 175.829034 83.680995 
L 175.829034 83.758989 
L 211.901761 66.535358 
L 211.901761 66.605346 
L 247.974489 51.476352 
L 247.974489 51.602013 
L 284.047216 39.019164 
L 284.047216 42.63198 
L 320.119943 41.187651 
L 320.119943 38.310938 
L 356.19267 37.657179 
L 356.19267 37.621328 
L 392.265398 41.498436 
L 392.265398 37.73745 
" clip-path="url(#pd60e25fd6c)" style="fill: none; stroke: #1f77b4; stroke-width: 1.5; stroke-linecap: square"/>
    <defs>
     <path id="me342e46237" d="M 0 3 
C 0.795609 3 1.55874 2.683901 2.12132 2.12132 
C 2.683901 1.55874 3 0.795609 3 0 
C 3 -0.795609 2.683901 -1.55874 2.12132 -2.12132 
C 1.55874 -2.683901 0.795609 -3 0 -3 
C -0.795609 -3 -1.55874 -2.683901 -2.12132 -2.12132 
C -2.683901 -1.55874 -3 -0.795609 -3 0 
C -3 0.795609 -2.683901 1.55874 -2.12132 2.12132 
C -1.55874 2.683901 -0.795609 3 0 3 
z
" style="stroke: #1f77b4"/>
    </defs>
    <g clip-path="url(#pd60e25fd6c)">
     <use xlink:href="#me342e46237" x="67.610852" y="138.033839" style="fill: #1f77b4; stroke: #1f77b4"/>
     <use xlink:href="#me342e46237" x="67.610852" y="138.580928" style="fill: #1f77b4; stroke: #1f77b4"/>
     <use xlink:href="#me342e46237" x="103.68358" y="119.951761" style="fill: #1f77b4; stroke: #1f77b4"/>
     <use xlink:href="#me342e46237" x="103.68358" y="119.995683" style="fill: #1f77b4; stroke: #1f77b4"/>
     <use xlink:href="#me342e46237" x="139.756307" y="101.788637" style="fill: #1f77b4; stroke: #1f77b4"/>
     <use xlink:href="#me342e46237" x="139.756307" y="101.911938" style="fill: #1f77b4; stroke: #1f77b4"/>
     <use xlink:href="#me342e46237" x="175.829034" y="83.680995" style="fill: #1f77b4; stroke: #1f77b4"/>
     <use xlink:href="#me342e46237" x="175.829034" y="83.758989" style="fill: #1f77b4; stroke: #1f77b4"/>
     <use xlink:href="#me342e46237" x="211.901761" y="66.535358" style="fill: #1f77b4; stroke: #1f77b4"/>
     <use xlink:href="#me342e46237" x="211.901761" y="66.605346" style="fill: #1f77b4; stroke: #1f77b4"/>
     <use xlink:href="#me342e46237" x="247.974489" y="51.476352" style="fill: #1f77b4; stroke: #1f77b4"/>
     <use xlink:href="#me342e46237" x="247.974489" y="51.602013" style="fill: #1f77b4; stroke: #1f77b4"/>
     <use xlink:href="#me342e46237" x="284.047216" y="39.019164" style="fill: #1f77b4; stroke: #1f77b4"/>
     <use xlink:href="#me342e46237" x="284.047216" y="42.63198" style="fill: #1f77b4; stroke: #1f77b4"/>
     <use xlink:href="#me342e46237" x="320.119943" y="41.187651" style="fill: #1f77b4; stroke: #1f77b4"/>
     <use xlink:href="#me342e46237" x="320.119943" y="38.310938" style="fill: #1f77b4; stroke: #1f77b4"/>
     <use xlink:href="#me342e46237" x="356.19267" y="37.657179" style="fill: #1f77b4; stroke: #1f77b4"/>
     <use xlink:href="#me342e46237" x="356.19267" y="37.621328" style="fill: #1f77b4; stroke: #1f77b4"/>
     <use xlink:href="#me342e46237" x="392.265398" y="41.498436" style="fill: #1f77b4; stroke: #1f77b4"/>
     <use xlink:href="#me342e46237" x="392.265398" y="37.73745" style="fill: #1f77b4; stroke: #1f77b4"/>
    </g>
   </g>
   <g id="line2d_46">
    <path d="M 67.610852 190.552363 
L 67.610852 187.095504 
L 103.68358 158.935694 
L 103.68358 157.573776 
L 139.756307 130.999621 
L 139.756307 130.546701 
L 175.829034 104.015051 
L 175.829034 104.21243 
L 211.901761 77.683912 
L 211.901761 77.602197 
L 247.974489 54.610106 
L 247.974489 54.730789 
L 284.047216 45.762754 
L 284.047216 36.413002 
L 320.119943 44.744624 
L 320.119943 37.145468 
L 356.19267 36.442286 
L 356.19267 44.868887 
L 392.265398 36.359718 
L 392.265398 44.661268 
" clip-path="url(#pd60e25fd6c)" style="fill: none; stroke: #ff7f0e; stroke-width: 1.5; stroke-linecap: square"/>
    <defs>
     <path id="mac7163e666" d="M -0 3 
L 3 -3 
L -3 -3 
z
" style="stroke: #ff7f0e; stroke-linejoin: miter"/>
    </defs>
    <g clip-path="url(#pd60e25fd6c)">
     <use xlink:href="#mac7163e666" x="67.610852" y="190.552363" style="fill: #ff7f0e; stroke: #ff7f0e; stroke-linejoin: miter"/>
     <use xlink:href="#mac7163e666" x="67.610852" y="187.095504" style="fill: #ff7f0e; stroke: #ff7f0e; stroke-linejoin: miter"/>
     <use xlink:href="#mac7163e666" x="103.68358" y="158.935694" style="fill: #ff7f0e; stroke: #ff7f0e; stroke-linejoin: miter"/>
     <use xlink:href="#mac7163e666" x="103.68358" y="157.573776" style="fill: #ff7f0e; stroke: #ff7f0e; stroke-linejoin: miter"/>
     <use xlink:href="#mac7163e666" x="139.756307" y="130.999621" style="fill: #ff7f0e; stroke: #ff7f0e; stroke-linejoin: miter"/>
     <use xlink:href="#mac7163e666" x="139.756307" y="130.546701" style="fill: #ff7f0e; stroke: #ff7f0e; stroke-linejoin: miter"/>
     <use xlink:href="#mac7163e666" x="175.829034" y="104.015051" style="fill: #ff7f0e; stroke: #ff7f0e; stroke-linejoin: miter"/>
     <use xlink:href="#mac7163e666" x="175.829034" y="104.21243" style="fill: #ff7f0e; stroke: #ff7f0e; stroke-linejoin: miter"/>
     <use xlink:href="#mac7163e666" x="211.901761" y="77.683912" style="fill: #ff7f0e; stroke: #ff7f0e; stroke-linejoin: miter"/>
     <use xlink:href="#mac7163e666" x="211.901761" y="77.602197" style="fill: #ff7f0e; stroke: #ff7f0e; stroke-linejoin: miter"/>
     <use xlink:href="#mac7163e666" x="247.974489" y="54.610106" style="fill: #ff7f0e; stroke: #ff7f0e; stroke-linejoin: miter"/>
     <use xlink:href="#mac7163e666" x="247.974489" y="54.730789" style="fill: #ff7f0e; stroke: #ff7f0e; stroke-linejoin: miter"/>
     <use xlink:href="#mac7163e666" x="284.047216" y="45.762754" style="fill: #ff7f0e; stroke: #ff7f0e; stroke-linejoin: miter"/>
     <use xlink:href="#mac7163e666" x="284.047216" y="36.413002" style="fill: #ff7f0e; stroke: #ff7f0e; stroke-linejoin: miter"/>
     <use xlink:href="#mac7163e666" x="320.119943" y="44.744624" style="fill: #ff7f0e; stroke: #ff7f0e; stroke-linejoin: miter"/>
     <use xlink:href="#mac7163e666" x="320.119943" y="37.145468" style="fill: #ff7f0e; stroke: #ff7f0e; stroke-linejoin: miter"/>
     <use xlink:href="#mac7163e666" x="356.19267" y="36.442286" style="fill: #ff7f0e; stroke: #ff7f0e; stroke-linejoin: miter"/>
     <use xlink:href="#mac7163e666" x="356.19267" y="44.868887" style="fill: #ff7f0e; stroke: #ff7f0e; stroke-linejoin: miter"/>
     <use xlink:href="#mac7163e666" x="392.265398" y="36.359718" style="fill: #ff7f0e; stroke: #ff7f0e; stroke-linejoin: miter"/>
     <use xlink:href="#mac7163e666" x="392.265398" y="44.661268" style="fill: #ff7f0e; stroke: #ff7f0e; stroke-linejoin: miter"/>
    </g>
   </g>
   <g id="line2d_47">
    <path d="M 67.610852 220.997713 
L 103.68358 199.467616 
L 103.68358 204.339765 
L 139.756307 165.188968 
L 139.756307 164.191572 
L 175.829034 126.383244 
L 175.829034 126.387838 
L 211.901761 90.63753 
L 211.901761 90.540416 
L 247.974489 58.284583 
L 247.974489 58.398692 
L 284.047216 46.368529 
L 284.047216 42.916184 
L 320.119943 46.481653 
L 320.119943 35.869274 
L 356.19267 35.294225 
L 356.19267 47.723726 
L 392.265398 47.123021 
L 392.265398 36.340055 
" clip-path="url(#pd60e25fd6c)" style="fill: none; stroke: #2ca02c; stroke-width: 1.5; stroke-linecap: square"/>
    <defs>
     <path id="m54ca17f396" d="M 0 -3 
L -0.673542 -0.927051 
L -2.85317 -0.927051 
L -1.089814 0.354102 
L -1.763356 2.427051 
L -0 1.145898 
L 1.763356 2.427051 
L 1.089814 0.354102 
L 2.85317 -0.927051 
L 0.673542 -0.927051 
z
" style="stroke: #2ca02c; stroke-linejoin: bevel"/>
    </defs>
    <g clip-path="url(#pd60e25fd6c)">
     <use xlink:href="#m54ca17f396" x="67.610852" y="220.997713" style="fill: #2ca02c; stroke: #2ca02c; stroke-linejoin: bevel"/>
     <use xlink:href="#m54ca17f396" x="103.68358" y="199.467616" style="fill: #2ca02c; stroke: #2ca02c; stroke-linejoin: bevel"/>
     <use xlink:href="#m54ca17f396" x="103.68358" y="204.339765" style="fill: #2ca02c; stroke: #2ca02c; stroke-linejoin: bevel"/>
     <use xlink:href="#m54ca17f396" x="139.756307" y="165.188968" style="fill: #2ca02c; stroke: #2ca02c; stroke-linejoin: bevel"/>
     <use xlink:href="#m54ca17f396" x="139.756307" y="164.191572" style="fill: #2ca02c; stroke: #2ca02c; stroke-linejoin: bevel"/>
     <use xlink:href="#m54ca17f396" x="175.829034" y="126.383244" style="fill: #2ca02c; stroke: #2ca02c; stroke-linejoin: bevel"/>
     <use xlink:href="#m54ca17f396" x="175.829034" y="126.387838" style="fill: #2ca02c; stroke: #2ca02c; stroke-linejoin: bevel"/>
     <use xlink:href="#m54ca17f396" x="211.901761" y="90.63753" style="fill: #2ca02c; stroke: #2ca02c; stroke-linejoin: bevel"/>
     <use xlink:href="#m54ca17f396" x="211.901761" y="90.540416" style="fill: #2ca02c; stroke: #2ca02c; stroke-linejoin: bevel"/>
     <use xlink:href="#m54ca17f396" x="247.974489" y="58.284583" style="fill: #2ca02c; stroke: #2ca02c; stroke-linejoin: bevel"/>
     <use xlink:href="#m54ca17f396" x="247.974489" y="58.398692" style="fill: #2ca02c; stroke: #2ca02c; stroke-linejoin: bevel"/>
     <use xlink:href="#m54ca17f396" x="284.047216" y="46.368529" style="fill: #2ca02c; stroke: #2ca02c; stroke-linejoin: bevel"/>
     <use xlink:href="#m54ca17f396" x="284.047216" y="42.916184" style="fill: #2ca02c; stroke: #2ca02c; stroke-linejoin: bevel"/>
     <use xlink:href="#m54ca17f396" x="320.119943" y="46.481653" style="fill: #2ca02c; stroke: #2ca02c; stroke-linejoin: bevel"/>
     <use xlink:href="#m54ca17f396" x="320.119943" y="35.869274" style="fill: #2ca02c; stroke: #2ca02c; stroke-linejoin: bevel"/>
     <use xlink:href="#m54ca17f396" x="356.19267" y="35.294225" style="fill: #2ca02c; stroke: #2ca02c; stroke-linejoin: bevel"/>
     <use xlink:href="#m54ca17f396" x="356.19267" y="47.723726" style="fill: #2ca02c; stroke: #2ca02c; stroke-linejoin: bevel"/>
     <use xlink:href="#m54ca17f396" x="392.265398" y="47.123021" style="fill: #2ca02c; stroke: #2ca02c; stroke-linejoin: bevel"/>
     <use xlink:href="#m54ca17f396" x="392.265398" y="36.340055" style="fill: #2ca02c; stroke: #2ca02c; stroke-linejoin: bevel"/>
    </g>
   </g>
   <g id="patch_3">
    <path d="M 51.378125 288.430125 
L 51.378125 22.318125 
" style="fill: none; stroke: #000000; stroke-width: 0.8; stroke-linejoin: miter; stroke-linecap: square"/>
   </g>
   <g id="patch_4">
    <path d="M 408.498125 288.430125 
L 408.498125 22.318125 
" style="fill: none; stroke: #000000; stroke-width: 0.8; stroke-linejoin: miter; stroke-linecap: square"/>
   </g>
   <g id="patch_5">
    <path d="M 51.378125 288.430125 
L 408.498125 288.430125 
" style="fill: none; stroke: #000000; stroke-width: 0.8; stroke-linejoin: miter; stroke-linecap: square"/>
   </g>
   <g id="patch_6">
    <path d="M 51.378125 22.318125 
L 408.498125 22.318125 
" style="fill: none; stroke: #000000; stroke-width: 0.8; stroke-linejoin: miter; stroke-linecap: square"/>
   </g>
   <g id="text_12">
    <!-- Steane Encoding Error Rate -->
    <g transform="translate(147.164375 16.318125) scale(0.12 -0.12)">
     <defs>
      <path id="DejaVuSans-53" d="M 3425 4513 
L 3425 3897 
Q 3066 4069 2747 4153 
Q 2428 4238 2131 4238 
Q 1616 4238 1336 4038 
Q 1056 3838 1056 3469 
Q 1056 3159 1242 3001 
Q 1428 2844 1947 2747 
L 2328 2669 
Q 3034 2534 3370 2195 
Q 3706 1856 3706 1288 
Q 3706 609 3251 259 
Q 2797 -91 1919 -91 
Q 1588 -91 1214 -16 
Q 841 59 441 206 
L 441 856 
Q 825 641 1194 531 
Q 1563 422 1919 422 
Q 2459 422 2753 634 
Q 3047 847 3047 1241 
Q 3047 1584 2836 1778 
Q 2625 1972 2144 2069 
L 1759 2144 
Q 1053 2284 737 2584 
Q 422 2884 422 3419 
Q 422 4038 858 4394 
Q 1294 4750 2059 4750 
Q 2388 4750 2728 4690 
Q 3069 4631 3425 4513 
z
" transform="scale(0.015625)"/>
     </defs>
     <use xlink:href="#DejaVuSans-53"/>
     <use xlink:href="#DejaVuSans-74" transform="translate(63.476562 0)"/>
     <use xlink:href="#DejaVuSans-65" transform="translate(102.685547 0)"/>
     <use xlink:href="#DejaVuSans-61" transform="translate(164.208984 0)"/>
     <use xlink:href="#DejaVuSans-6e" transform="translate(225.488281 0)"/>
     <use xlink:href="#DejaVuSans-65" transform="translate(288.867188 0)"/>
     <use xlink:href="#DejaVuSans-20" transform="translate(350.390625 0)"/>
     <use xlink:href="#DejaVuSans-45" transform="translate(382.177734 0)"/>
     <use xlink:href="#DejaVuSans-6e" transform="translate(445.361328 0)"/>
     <use xlink:href="#DejaVuSans-63" transform="translate(508.740234 0)"/>
     <use xlink:href="#DejaVuSans-6f" transform="translate(563.720703 0)"/>
     <use xlink:href="#DejaVuSans-64" transform="translate(624.902344 0)"/>
     <use xlink:href="#DejaVuSans-69" transform="translate(688.378906 0)"/>
     <use xlink:href="#DejaVuSans-6e" transform="translate(716.162109 0)"/>
     <use xlink:href="#DejaVuSans-67" transform="translate(779.541016 0)"/>
     <use xlink:href="#DejaVuSans-20" transform="translate(843.017578 0)"/>
     <use xlink:href="#DejaVuSans-45" transform="translate(874.804688 0)"/>
     <use xlink:href="#DejaVuSans-72" transform="translate(937.988281 0)"/>
     <use xlink:href="#DejaVuSans-72" transform="translate(977.351562 0)"/>
     <use xlink:href="#DejaVuSans-6f" transform="translate(1016.214844 0)"/>
     <use xlink:href="#DejaVuSans-72" transform="translate(1077.396484 0)"/>
     <use xlink:href="#DejaVuSans-20" transform="translate(1118.509766 0)"/>
     <use xlink:href="#DejaVuSans-52" transform="translate(1150.296875 0)"/>
     <use xlink:href="#DejaVuSans-61" transform="translate(1217.529297 0)"/>
     <use xlink:href="#DejaVuSans-74" transform="translate(1278.808594 0)"/>
     <use xlink:href="#DejaVuSans-65" transform="translate(1318.017578 0)"/>
    </g>
   </g>
   <g id="patch_7">
    <path d="M 268.270925 288.430125 
L 388.021325 288.430125 
L 388.021325 168.679725 
L 268.270925 168.679725 
L 268.270925 288.430125 
z
" style="fill: none"/>
   </g>
   <g id="axes_2">
    <g id="line2d_48">
     <path d="M 289.028528 220.896695 
L 308.313124 226.551644 
" clip-path="url(#p3fce65ef40)" style="fill: none; stroke: #7f7f7f; stroke-linecap: square"/>
    </g>
    <g id="line2d_49">
     <path d="M 289.028528 220.896695 
L 301.102066 211.497004 
" clip-path="url(#p3fce65ef40)" style="fill: none; stroke: #7f7f7f; stroke-linecap: square"/>
    </g>
    <g id="line2d_50">
     <path d="M 301.102066 211.497004 
L 312.573673 202.565939 
" clip-path="url(#p3fce65ef40)" style="fill: none; stroke: #7f7f7f; stroke-linecap: square"/>
    </g>
    <g id="line2d_51">
     <path d="M 312.573673 202.565939 
L 331.226599 207.667173 
" clip-path="url(#p3fce65ef40)" style="fill: none; stroke: #7f7f7f; stroke-linecap: square"/>
    </g>
    <g id="line2d_52">
     <path d="M 308.313124 226.551644 
L 328.200186 232.383258 
" clip-path="url(#p3fce65ef40)" style="fill: none; stroke: #7f7f7f; stroke-linecap: square"/>
    </g>
    <g id="line2d_53">
     <path d="M 308.313124 226.551644 
L 320.06714 216.864401 
" clip-path="url(#p3fce65ef40)" style="fill: none; stroke: #7f7f7f; stroke-linecap: square"/>
    </g>
    <g id="line2d_54">
     <path d="M 320.3124 245.475067 
L 320.191341 231.352954 
" clip-path="url(#p3fce65ef40)" style="fill: none; stroke: #7f7f7f; stroke-linecap: square"/>
    </g>
    <g id="line2d_55">
     <path d="M 320.191341 231.352954 
L 339.481109 237.029208 
" clip-path="url(#p3fce65ef40)" style="fill: none; stroke: #7f7f7f; stroke-linecap: square"/>
    </g>
    <g id="line2d_56">
     <path d="M 320.191341 231.352954 
L 320.06714 216.864401 
" clip-path="url(#p3fce65ef40)" style="fill: none; stroke: #7f7f7f; stroke-linecap: square"/>
    </g>
    <g id="line2d_57">
     <path d="M 320.06714 216.864401 
L 319.939675 201.994958 
" clip-path="url(#p3fce65ef40)" style="fill: none; stroke: #7f7f7f; stroke-linecap: square"/>
    </g>
    <g id="line2d_58">
     <path d="M 331.226599 207.667173 
L 350.432344 212.919592 
" clip-path="url(#p3fce65ef40)" style="fill: none; stroke: #7f7f7f; stroke-linecap: square"/>
    </g>
    <g id="line2d_59">
     <path d="M 328.241391 261.773933 
L 328.221063 247.274736 
" clip-path="url(#p3fce65ef40)" style="fill: none; stroke: #7f7f7f; stroke-linecap: square"/>
    </g>
    <g id="line2d_60">
     <path d="M 328.221063 247.274736 
L 339.481109 237.029208 
" clip-path="url(#p3fce65ef40)" style="fill: none; stroke: #7f7f7f; stroke-linecap: square"/>
    </g>
    <g id="line2d_61">
     <path d="M 328.221063 247.274736 
L 328.200186 232.383258 
" clip-path="url(#p3fce65ef40)" style="fill: none; stroke: #7f7f7f; stroke-linecap: square"/>
    </g>
    <g id="line2d_62">
     <path d="M 328.200186 232.383258 
L 328.178736 217.083362 
" clip-path="url(#p3fce65ef40)" style="fill: none; stroke: #7f7f7f; stroke-linecap: square"/>
    </g>
    <g id="line2d_63">
     <path d="M 339.481109 237.029208 
L 350.170467 227.302949 
" clip-path="url(#p3fce65ef40)" style="fill: none; stroke: #7f7f7f; stroke-linecap: square"/>
    </g>
    <g id="line2d_64">
     <path d="M 339.481109 237.029208 
L 359.358828 242.878473 
" clip-path="url(#p3fce65ef40)" style="fill: none; stroke: #7f7f7f; stroke-linecap: square"/>
    </g>
    <g id="line2d_65">
     <path d="M 349.915144 241.326374 
L 350.170467 227.302949 
" clip-path="url(#p3fce65ef40)" style="fill: none; stroke: #7f7f7f; stroke-linecap: square"/>
    </g>
    <g id="line2d_66">
     <path d="M 350.170467 227.302949 
L 350.432344 212.919592 
" clip-path="url(#p3fce65ef40)" style="fill: none; stroke: #7f7f7f; stroke-linecap: square"/>
    </g>
    <g id="line2d_67">
     <path d="M 350.432344 212.919592 
L 350.701029 198.162266 
" clip-path="url(#p3fce65ef40)" style="fill: none; stroke: #7f7f7f; stroke-linecap: square"/>
    </g>
    <g id="line2d_68">
     <path d="M 308.313124 226.551644 
L 318.179596 229.444854 
" clip-path="url(#p3fce65ef40)" style="fill: none; stroke: #ff7f7f; stroke-width: 3; stroke-linecap: square"/>
    </g>
    <g id="line2d_69">
     <path d="M 328.200186 232.383258 
L 318.179596 229.444854 
" clip-path="url(#p3fce65ef40)" style="fill: none; stroke: #ff7f7f; stroke-width: 3; stroke-linecap: square"/>
    </g>
    <g id="line2d_70">
     <path d="M 301.102066 211.497004 
L 306.910262 206.975111 
" clip-path="url(#p3fce65ef40)" style="fill: none; stroke: #ff7f7f; stroke-width: 3; stroke-linecap: square"/>
    </g>
    <g id="line2d_71">
     <path d="M 312.573673 202.565939 
L 306.910262 206.975111 
" clip-path="url(#p3fce65ef40)" style="fill: none; stroke: #ff7f7f; stroke-width: 3; stroke-linecap: square"/>
    </g>
    <g id="line2d_72">
     <path d="M 289.028528 220.896695 
L 295.143461 216.135996 
" clip-path="url(#p3fce65ef40)" style="fill: none; stroke: #ff7f7f; stroke-width: 3; stroke-linecap: square"/>
    </g>
    <g id="line2d_73">
     <path d="M 301.102066 211.497004 
L 295.143461 216.135996 
" clip-path="url(#p3fce65ef40)" style="fill: none; stroke: #ff7f7f; stroke-width: 3; stroke-linecap: square"/>
    </g>
    <g id="line2d_74">
     <path d="M 328.200186 232.383258 
L 328.189534 224.785405 
" clip-path="url(#p3fce65ef40)" style="fill: none; stroke: #ff7f7f; stroke-width: 3; stroke-linecap: square"/>
    </g>
    <g id="line2d_75">
     <path d="M 328.178736 217.083362 
L 328.189534 224.785405 
" clip-path="url(#p3fce65ef40)" style="fill: none; stroke: #ff7f7f; stroke-width: 3; stroke-linecap: square"/>
    </g>
    <g id="line2d_76">
     <path d="M 328.221063 247.274736 
L 328.210695 239.87902 
" clip-path="url(#p3fce65ef40)" style="fill: none; stroke: #ff7f7f; stroke-width: 3; stroke-linecap: square"/>
    </g>
    <g id="line2d_77">
     <path d="M 328.200186 232.383258 
L 328.210695 239.87902 
" clip-path="url(#p3fce65ef40)" style="fill: none; stroke: #ff7f7f; stroke-width: 3; stroke-linecap: square"/>
    </g>
    <g id="line2d_78">
     <path d="M 349.915144 241.326374 
L 350.042002 234.358804 
" clip-path="url(#p3fce65ef40)" style="fill: none; stroke: #ff7f7f; stroke-width: 3; stroke-linecap: square"/>
    </g>
    <g id="line2d_79">
     <path d="M 350.170467 227.302949 
L 350.042002 234.358804 
" clip-path="url(#p3fce65ef40)" style="fill: none; stroke: #ff7f7f; stroke-width: 3; stroke-linecap: square"/>
    </g>
    <g id="line2d_80">
     <path d="M 289.028528 220.896695 
L 298.597242 223.702592 
" clip-path="url(#p3fce65ef40)" style="fill: none; stroke: #ff7f7f; stroke-width: 3; stroke-linecap: square"/>
    </g>
    <g id="line2d_81">
     <path d="M 308.313124 226.551644 
L 298.597242 223.702592 
" clip-path="url(#p3fce65ef40)" style="fill: none; stroke: #ff7f7f; stroke-width: 3; stroke-linecap: square"/>
    </g>
    <g id="line2d_82">
     <path d="M 350.432344 212.919592 
L 350.565819 205.588581 
" clip-path="url(#p3fce65ef40)" style="fill: none; stroke: #ff7f7f; stroke-width: 3; stroke-linecap: square"/>
    </g>
    <g id="line2d_83">
     <path d="M 350.701029 198.162266 
L 350.565819 205.588581 
" clip-path="url(#p3fce65ef40)" style="fill: none; stroke: #ff7f7f; stroke-width: 3; stroke-linecap: square"/>
    </g>
    <g id="line2d_84">
     <path d="M 331.226599 207.667173 
L 340.758844 210.274067 
" clip-path="url(#p3fce65ef40)" style="fill: none; stroke: #ff7f7f; stroke-width: 3; stroke-linecap: square"/>
    </g>
    <g id="line2d_85">
     <path d="M 350.432344 212.919592 
L 340.758844 210.274067 
" clip-path="url(#p3fce65ef40)" style="fill: none; stroke: #ff7f7f; stroke-width: 3; stroke-linecap: square"/>
    </g>
    <g id="line2d_86">
     <path d="M 328.241391 261.773933 
L 328.231294 254.572394 
" clip-path="url(#p3fce65ef40)" style="fill: none; stroke: #ff7f7f; stroke-width: 3; stroke-linecap: square"/>
    </g>
    <g id="line2d_87">
     <path d="M 328.221063 247.274736 
L 328.231294 254.572394 
" clip-path="url(#p3fce65ef40)" style="fill: none; stroke: #ff7f7f; stroke-width: 3; stroke-linecap: square"/>
    </g>
    <g id="line2d_88">
     <path d="M 312.573673 202.565939 
L 321.832536 205.098068 
" clip-path="url(#p3fce65ef40)" style="fill: none; stroke: #ff7f7f; stroke-width: 3; stroke-linecap: square"/>
    </g>
    <g id="line2d_89">
     <path d="M 331.226599 207.667173 
L 321.832536 205.098068 
" clip-path="url(#p3fce65ef40)" style="fill: none; stroke: #ff7f7f; stroke-width: 3; stroke-linecap: square"/>
    </g>
    <g id="line2d_90">
     <path d="M 350.170467 227.302949 
L 350.300571 220.157123 
" clip-path="url(#p3fce65ef40)" style="fill: none; stroke: #ff7f7f; stroke-width: 3; stroke-linecap: square"/>
    </g>
    <g id="line2d_91">
     <path d="M 350.432344 212.919592 
L 350.300571 220.157123 
" clip-path="url(#p3fce65ef40)" style="fill: none; stroke: #ff7f7f; stroke-width: 3; stroke-linecap: square"/>
    </g>
    <g id="Path3DCollection_1">
     <defs>
      <path id="C0_0_3467834c23" d="M 0 3.535534 
C 0.937635 3.535534 1.836992 3.163008 2.5 2.5 
C 3.163008 1.836992 3.535534 0.937635 3.535534 -0 
C 3.535534 -0.937635 3.163008 -1.836992 2.5 -2.5 
C 1.836992 -3.163008 0.937635 -3.535534 0 -3.535534 
C -0.937635 -3.535534 -1.836992 -3.163008 -2.5 -2.5 
C -3.163008 -1.836992 -3.535534 -0.937635 -3.535534 0 
C -3.535534 0.937635 -3.163008 1.836992 -2.5 2.5 
C -1.836992 3.163008 -0.937635 3.535534 0 3.535534 
z
"/>
     </defs>
     <g clip-path="url(#p3fce65ef40)">
      <use xlink:href="#C0_0_3467834c23" x="312.573673" y="202.565939" style="fill: #ff7f7f; stroke: #000000"/>
     </g>
     <g clip-path="url(#p3fce65ef40)">
      <use xlink:href="#C0_0_3467834c23" x="349.915144" y="241.326374" style="fill: #7396ff; stroke: #000000"/>
     </g>
     <g clip-path="url(#p3fce65ef40)">
      <use xlink:href="#C0_0_3467834c23" x="320.3124" y="245.475067" style="fill: #7396ff; stroke: #000000"/>
     </g>
     <g clip-path="url(#p3fce65ef40)">
      <use xlink:href="#C0_0_3467834c23" x="331.226599" y="207.667173" style="fill: #7396ff; stroke: #000000"/>
     </g>
     <g clip-path="url(#p3fce65ef40)">
      <use xlink:href="#C0_0_3467834c23" x="350.170467" y="227.302949" style="fill: #ff7f7f; stroke: #000000"/>
     </g>
     <g clip-path="url(#p3fce65ef40)">
      <use xlink:href="#C0_0_3467834c23" x="301.102066" y="211.497004" style="fill: #7396ff; stroke: #000000"/>
     </g>
     <g clip-path="url(#p3fce65ef40)">
      <use xlink:href="#C0_0_3467834c23" x="320.191341" y="231.352954" style="fill: #ff7f7f; stroke: #000000"/>
     </g>
     <g clip-path="url(#p3fce65ef40)">
      <use xlink:href="#C0_0_3467834c23" x="350.432344" y="212.919592" style="fill: #7396ff; stroke: #000000"/>
     </g>
     <g clip-path="url(#p3fce65ef40)">
      <use xlink:href="#C0_0_3467834c23" x="320.06714" y="216.864401" style="fill: #7396ff; stroke: #000000"/>
     </g>
     <g clip-path="url(#p3fce65ef40)">
      <use xlink:href="#C0_0_3467834c23" x="339.481109" y="237.029208" style="fill: #7396ff; stroke: #000000"/>
     </g>
     <g clip-path="url(#p3fce65ef40)">
      <use xlink:href="#C0_0_3467834c23" x="350.701029" y="198.162266" style="fill: #7396ff; stroke: #000000"/>
     </g>
     <g clip-path="url(#p3fce65ef40)">
      <use xlink:href="#C0_0_3467834c23" x="289.028528" y="220.896695" style="fill: #ff7f7f; stroke: #000000"/>
     </g>
     <g clip-path="url(#p3fce65ef40)">
      <use xlink:href="#C0_0_3467834c23" x="319.939675" y="201.994958" style="fill: #7396ff; stroke: #000000"/>
     </g>
     <g clip-path="url(#p3fce65ef40)">
      <use xlink:href="#C0_0_3467834c23" x="328.241391" y="261.773933" style="fill: #7396ff; stroke: #000000"/>
     </g>
     <g clip-path="url(#p3fce65ef40)">
      <use xlink:href="#C0_0_3467834c23" x="359.358828" y="242.878473" style="fill: #7396ff; stroke: #000000"/>
     </g>
     <g clip-path="url(#p3fce65ef40)">
      <use xlink:href="#C0_0_3467834c23" x="308.313124" y="226.551644" style="fill: #ff7f7f; stroke: #000000"/>
     </g>
     <g clip-path="url(#p3fce65ef40)">
      <use xlink:href="#C0_0_3467834c23" x="328.221063" y="247.274736" style="fill: #ff7f7f; stroke: #000000"/>
     </g>
     <g clip-path="url(#p3fce65ef40)">
      <use xlink:href="#C0_0_3467834c23" x="328.200186" y="232.383258" style="fill: #7396ff; stroke: #000000"/>
     </g>
     <g clip-path="url(#p3fce65ef40)">
      <use xlink:href="#C0_0_3467834c23" x="328.178736" y="217.083362" style="fill: #7396ff; stroke: #000000"/>
     </g>
    </g>
   </g>
   <g id="legend_1">
    <g id="patch_8">
     <path d="M 58.378125 74.3525 
L 96.740625 74.3525 
Q 98.740625 74.3525 98.740625 72.3525 
L 98.740625 29.318125 
Q 98.740625 27.318125 96.740625 27.318125 
L 58.378125 27.318125 
Q 56.378125 27.318125 56.378125 29.318125 
L 56.378125 72.3525 
Q 56.378125 74.3525 58.378125 74.3525 
z
" style="fill: #ffffff; opacity: 0.8; stroke: #cccccc; stroke-linejoin: miter"/>
    </g>
    <g id="line2d_92">
     <path d="M 60.378125 35.416562 
L 70.378125 35.416562 
L 80.378125 35.416562 
" style="fill: none; stroke: #1f77b4; stroke-width: 1.5; stroke-linecap: square"/>
     <g>
      <use xlink:href="#me342e46237" x="70.378125" y="35.416562" style="fill: #1f77b4; stroke: #1f77b4"/>
     </g>
    </g>
    <g id="text_13">
     <!-- 3 -->
     <g transform="translate(88.378125 38.916562) scale(0.1 -0.1)">
      <use xlink:href="#DejaVuSans-33"/>
     </g>
    </g>
    <g id="line2d_93">
     <path d="M 60.378125 50.094688 
L 70.378125 50.094688 
L 80.378125 50.094688 
" style="fill: none; stroke: #ff7f0e; stroke-width: 1.5; stroke-linecap: square"/>
     <g>
      <use xlink:href="#mac7163e666" x="70.378125" y="50.094688" style="fill: #ff7f0e; stroke: #ff7f0e; stroke-linejoin: miter"/>
     </g>
    </g>
    <g id="text_14">
     <!-- 5 -->
     <g transform="translate(88.378125 53.594688) scale(0.1 -0.1)">
      <defs>
       <path id="DejaVuSans-35" d="M 691 4666 
L 3169 4666 
L 3169 4134 
L 1269 4134 
L 1269 2991 
Q 1406 3038 1543 3061 
Q 1681 3084 1819 3084 
Q 2600 3084 3056 2656 
Q 3513 2228 3513 1497 
Q 3513 744 3044 326 
Q 2575 -91 1722 -91 
Q 1428 -91 1123 -41 
Q 819 9 494 109 
L 494 744 
Q 775 591 1075 516 
Q 1375 441 1709 441 
Q 2250 441 2565 725 
Q 2881 1009 2881 1497 
Q 2881 1984 2565 2268 
Q 2250 2553 1709 2553 
Q 1456 2553 1204 2497 
Q 953 2441 691 2322 
L 691 4666 
z
" transform="scale(0.015625)"/>
      </defs>
      <use xlink:href="#DejaVuSans-35"/>
     </g>
    </g>
    <g id="line2d_94">
     <path d="M 60.378125 64.772812 
L 70.378125 64.772812 
L 80.378125 64.772812 
" style="fill: none; stroke: #2ca02c; stroke-width: 1.5; stroke-linecap: square"/>
     <g>
      <use xlink:href="#m54ca17f396" x="70.378125" y="64.772812" style="fill: #2ca02c; stroke: #2ca02c; stroke-linejoin: bevel"/>
     </g>
    </g>
    <g id="text_15">
     <!-- 7 -->
     <g transform="translate(88.378125 68.272812) scale(0.1 -0.1)">
      <defs>
       <path id="DejaVuSans-37" d="M 525 4666 
L 3525 4666 
L 3525 4397 
L 1831 0 
L 1172 0 
L 2766 4134 
L 525 4134 
L 525 4666 
z
" transform="scale(0.015625)"/>
      </defs>
      <use xlink:href="#DejaVuSans-37"/>
     </g>
    </g>
   </g>
  </g>
 </g>
 <defs>
  <clipPath id="pd60e25fd6c">
   <rect x="51.378125" y="22.318125" width="357.12" height="266.112"/>
  </clipPath>
  <clipPath id="p3fce65ef40">
   <rect x="268.270925" y="168.679725" width="119.7504" height="119.7504"/>
  </clipPath>
 </defs>
</svg>
