<?xml version="1.0" encoding="utf-8" standalone="no"?>
<!DOCTYPE svg PUBLIC "-//W3C//DTD SVG 1.1//EN"
  "http://www.w3.org/Graphics/SVG/1.1/DTD/svg11.dtd">
<svg xmlns:xlink="http://www.w3.org/1999/xlink" width="402.02pt" height="312.30825pt" viewBox="0 0 402.02 312.30825" xmlns="http://www.w3.org/2000/svg" version="1.1">
 <metadata>
  <rdf:RDF xmlns:dc="http://purl.org/dc/elements/1.1/" xmlns:cc="http://creativecommons.org/ns#" xmlns:rdf="http://www.w3.org/1999/02/22-rdf-syntax-ns#">
   <cc:Work>
    <dc:type rdf:resource="http://purl.org/dc/dcmitype/StillImage"/>
    <dc:date>2025-06-03T16:54:16.640878</dc:date>
    <dc:format>image/svg+xml</dc:format>
    <dc:creator>
     <cc:Agent>
      <dc:title>Matplotlib v3.10.3, https://matplotlib.org/</dc:title>
     </cc:Agent>
    </dc:creator>
   </cc:Work>
  </rdf:RDF>
 </metadata>
 <defs>
  <style type="text/css">*{stroke-linejoin: round; stroke-linecap: butt}</style>
 </defs>
 <g id="figure_1">
  <g id="patch_1">
   <path d="M 0 312.30825 
L 402.02 312.30825 
L 402.02 0 
L 0 0 
z
" style="fill: #ffffff"/>
  </g>
  <g id="axes_1">
   <g id="patch_2">
    <path d="M 37.7 288.430125 
L 394.82 288.430125 
L 394.82 22.318125 
L 37.7 22.318125 
z
" style="fill: #ffffff"/>
   </g>
   <g id="FillBetweenPolyCollection_1">
    <defs>
     <path id="m4dc7594033" d="M 53.932727 -184.806791 
L 53.932727 -180.817533 
L 90.005455 -199.29885 
L 126.078182 -218.509048 
L 162.150909 -235.629501 
L 198.223636 -252.355848 
L 234.296364 -266.291542 
L 270.369091 -273.891021 
L 306.441818 -275.029578 
L 342.514545 -275.466867 
L 378.587273 -274.887533 
L 378.587273 -277.359093 
L 378.587273 -277.359093 
L 342.514545 -277.830207 
L 306.441818 -277.474807 
L 270.369091 -276.54885 
L 234.296364 -269.481164 
L 198.223636 -256.113767 
L 162.150909 -239.501952 
L 126.078182 -222.481127 
L 90.005455 -203.286438 
L 53.932727 -184.806791 
z
" style="stroke: #1f77b4; stroke-opacity: 0.2"/>
    </defs>
    <g clip-path="url(#padf9248000)">
     <use xlink:href="#m4dc7594033" x="0" y="312.30825" style="fill: #1f77b4; fill-opacity: 0.2; stroke: #1f77b4; stroke-opacity: 0.2"/>
    </g>
   </g>
   <g id="FillBetweenPolyCollection_2">
    <defs>
     <path id="md7c8a42db3" d="M 53.932727 -147.770786 
L 53.932727 -137.424639 
L 90.005455 -168.59883 
L 126.078182 -194.906522 
L 162.150909 -221.251981 
L 198.223636 -248.085595 
L 234.296364 -268.693183 
L 270.369091 -275.269947 
L 306.441818 -275.466867 
L 342.514545 -274.681618 
L 378.587273 -275.269947 
L 378.587273 -277.670055 
L 378.587273 -277.670055 
L 342.514545 -277.1918 
L 306.441818 -277.830207 
L 270.369091 -277.670055 
L 234.296364 -271.501935 
L 198.223636 -251.828153 
L 162.150909 -225.205763 
L 126.078182 -198.882936 
L 90.005455 -172.588292 
L 53.932727 -147.770786 
z
" style="stroke: #ff7f0e; stroke-opacity: 0.2"/>
    </defs>
    <g clip-path="url(#padf9248000)">
     <use xlink:href="#md7c8a42db3" x="0" y="312.30825" style="fill: #ff7f0e; fill-opacity: 0.2; stroke: #ff7f0e; stroke-opacity: 0.2"/>
    </g>
   </g>
   <g id="FillBetweenPolyCollection_3">
    <defs>
     <path id="mfa6ae17e31" d="M 53.932727 -119.0791 
L 53.932727 -35.974125 
L 90.005455 -122.806823 
L 126.078182 -166.964821 
L 162.150909 -203.806691 
L 198.223636 -239.774899 
L 234.296364 -268.525232 
L 270.369091 -274.989078 
L 306.441818 -274.889046 
L 342.514545 -274.580318 
L 378.587273 -275.240373 
L 378.587273 -277.894125 
L 378.587273 -277.894125 
L 342.514545 -277.370117 
L 306.441818 -277.615207 
L 270.369091 -277.441788 
L 234.296364 -271.360003 
L 198.223636 -243.594487 
L 162.150909 -207.789455 
L 126.078182 -170.782007 
L 90.005455 -139.291933 
L 53.932727 -119.0791 
z
" style="stroke: #2ca02c; stroke-opacity: 0.2"/>
    </defs>
    <g clip-path="url(#padf9248000)">
     <use xlink:href="#mfa6ae17e31" x="0" y="312.30825" style="fill: #2ca02c; fill-opacity: 0.2; stroke: #2ca02c; stroke-opacity: 0.2"/>
    </g>
   </g>
   <g id="matplotlib.axis_1">
    <g id="xtick_1">
     <g id="line2d_1">
      <path d="M 53.932727 288.430125 
L 53.932727 22.318125 
" clip-path="url(#padf9248000)" style="fill: none; stroke: #b0b0b0; stroke-width: 0.8; stroke-linecap: square"/>
     </g>
     <g id="line2d_2">
      <defs>
       <path id="m4cafe5de75" d="M 0 0 
L 0 3.5 
" style="stroke: #000000; stroke-width: 0.8"/>
      </defs>
      <g>
       <use xlink:href="#m4cafe5de75" x="53.932727" y="288.430125" style="stroke: #000000; stroke-width: 0.8"/>
      </g>
     </g>
     <g id="text_1">
      <!-- $\mathdefault{10^{-4}}$ -->
      <g transform="translate(42.182727 303.028562) scale(0.1 -0.1)">
       <defs>
        <path id="DejaVuSans-31" d="M 794 531 
L 1825 531 
L 1825 4091 
L 703 3866 
L 703 4441 
L 1819 4666 
L 2450 4666 
L 2450 531 
L 3481 531 
L 3481 0 
L 794 0 
L 794 531 
z
" transform="scale(0.015625)"/>
        <path id="DejaVuSans-30" d="M 2034 4250 
Q 1547 4250 1301 3770 
Q 1056 3291 1056 2328 
Q 1056 1369 1301 889 
Q 1547 409 2034 409 
Q 2525 409 2770 889 
Q 3016 1369 3016 2328 
Q 3016 3291 2770 3770 
Q 2525 4250 2034 4250 
z
M 2034 4750 
Q 2819 4750 3233 4129 
Q 3647 3509 3647 2328 
Q 3647 1150 3233 529 
Q 2819 -91 2034 -91 
Q 1250 -91 836 529 
Q 422 1150 422 2328 
Q 422 3509 836 4129 
Q 1250 4750 2034 4750 
z
" transform="scale(0.015625)"/>
        <path id="DejaVuSans-2212" d="M 678 2272 
L 4684 2272 
L 4684 1741 
L 678 1741 
L 678 2272 
z
" transform="scale(0.015625)"/>
        <path id="DejaVuSans-34" d="M 2419 4116 
L 825 1625 
L 2419 1625 
L 2419 4116 
z
M 2253 4666 
L 3047 4666 
L 3047 1625 
L 3713 1625 
L 3713 1100 
L 3047 1100 
L 3047 0 
L 2419 0 
L 2419 1100 
L 313 1100 
L 313 1709 
L 2253 4666 
z
" transform="scale(0.015625)"/>
       </defs>
       <use xlink:href="#DejaVuSans-31" transform="translate(0 0.684375)"/>
       <use xlink:href="#DejaVuSans-30" transform="translate(63.623047 0.684375)"/>
       <use xlink:href="#DejaVuSans-2212" transform="translate(128.203125 38.965625) scale(0.7)"/>
       <use xlink:href="#DejaVuSans-34" transform="translate(186.855469 38.965625) scale(0.7)"/>
      </g>
     </g>
    </g>
    <g id="xtick_2">
     <g id="line2d_3">
      <path d="M 162.150909 288.430125 
L 162.150909 22.318125 
" clip-path="url(#padf9248000)" style="fill: none; stroke: #b0b0b0; stroke-width: 0.8; stroke-linecap: square"/>
     </g>
     <g id="line2d_4">
      <g>
       <use xlink:href="#m4cafe5de75" x="162.150909" y="288.430125" style="stroke: #000000; stroke-width: 0.8"/>
      </g>
     </g>
     <g id="text_2">
      <!-- $\mathdefault{10^{-3}}$ -->
      <g transform="translate(150.400909 303.028562) scale(0.1 -0.1)">
       <defs>
        <path id="DejaVuSans-33" d="M 2597 2516 
Q 3050 2419 3304 2112 
Q 3559 1806 3559 1356 
Q 3559 666 3084 287 
Q 2609 -91 1734 -91 
Q 1441 -91 1130 -33 
Q 819 25 488 141 
L 488 750 
Q 750 597 1062 519 
Q 1375 441 1716 441 
Q 2309 441 2620 675 
Q 2931 909 2931 1356 
Q 2931 1769 2642 2001 
Q 2353 2234 1838 2234 
L 1294 2234 
L 1294 2753 
L 1863 2753 
Q 2328 2753 2575 2939 
Q 2822 3125 2822 3475 
Q 2822 3834 2567 4026 
Q 2313 4219 1838 4219 
Q 1578 4219 1281 4162 
Q 984 4106 628 3988 
L 628 4550 
Q 988 4650 1302 4700 
Q 1616 4750 1894 4750 
Q 2613 4750 3031 4423 
Q 3450 4097 3450 3541 
Q 3450 3153 3228 2886 
Q 3006 2619 2597 2516 
z
" transform="scale(0.015625)"/>
       </defs>
       <use xlink:href="#DejaVuSans-31" transform="translate(0 0.765625)"/>
       <use xlink:href="#DejaVuSans-30" transform="translate(63.623047 0.765625)"/>
       <use xlink:href="#DejaVuSans-2212" transform="translate(128.203125 39.046875) scale(0.7)"/>
       <use xlink:href="#DejaVuSans-33" transform="translate(186.855469 39.046875) scale(0.7)"/>
      </g>
     </g>
    </g>
    <g id="xtick_3">
     <g id="line2d_5">
      <path d="M 270.369091 288.430125 
L 270.369091 22.318125 
" clip-path="url(#padf9248000)" style="fill: none; stroke: #b0b0b0; stroke-width: 0.8; stroke-linecap: square"/>
     </g>
     <g id="line2d_6">
      <g>
       <use xlink:href="#m4cafe5de75" x="270.369091" y="288.430125" style="stroke: #000000; stroke-width: 0.8"/>
      </g>
     </g>
     <g id="text_3">
      <!-- $\mathdefault{10^{-2}}$ -->
      <g transform="translate(258.619091 303.028562) scale(0.1 -0.1)">
       <defs>
        <path id="DejaVuSans-32" d="M 1228 531 
L 3431 531 
L 3431 0 
L 469 0 
L 469 531 
Q 828 903 1448 1529 
Q 2069 2156 2228 2338 
Q 2531 2678 2651 2914 
Q 2772 3150 2772 3378 
Q 2772 3750 2511 3984 
Q 2250 4219 1831 4219 
Q 1534 4219 1204 4116 
Q 875 4013 500 3803 
L 500 4441 
Q 881 4594 1212 4672 
Q 1544 4750 1819 4750 
Q 2544 4750 2975 4387 
Q 3406 4025 3406 3419 
Q 3406 3131 3298 2873 
Q 3191 2616 2906 2266 
Q 2828 2175 2409 1742 
Q 1991 1309 1228 531 
z
" transform="scale(0.015625)"/>
       </defs>
       <use xlink:href="#DejaVuSans-31" transform="translate(0 0.765625)"/>
       <use xlink:href="#DejaVuSans-30" transform="translate(63.623047 0.765625)"/>
       <use xlink:href="#DejaVuSans-2212" transform="translate(128.203125 39.046875) scale(0.7)"/>
       <use xlink:href="#DejaVuSans-32" transform="translate(186.855469 39.046875) scale(0.7)"/>
      </g>
     </g>
    </g>
    <g id="xtick_4">
     <g id="line2d_7">
      <path d="M 378.587273 288.430125 
L 378.587273 22.318125 
" clip-path="url(#padf9248000)" style="fill: none; stroke: #b0b0b0; stroke-width: 0.8; stroke-linecap: square"/>
     </g>
     <g id="line2d_8">
      <g>
       <use xlink:href="#m4cafe5de75" x="378.587273" y="288.430125" style="stroke: #000000; stroke-width: 0.8"/>
      </g>
     </g>
     <g id="text_4">
      <!-- $\mathdefault{10^{-1}}$ -->
      <g transform="translate(366.837273 303.028562) scale(0.1 -0.1)">
       <use xlink:href="#DejaVuSans-31" transform="translate(0 0.684375)"/>
       <use xlink:href="#DejaVuSans-30" transform="translate(63.623047 0.684375)"/>
       <use xlink:href="#DejaVuSans-2212" transform="translate(128.203125 38.965625) scale(0.7)"/>
       <use xlink:href="#DejaVuSans-31" transform="translate(186.855469 38.965625) scale(0.7)"/>
      </g>
     </g>
    </g>
    <g id="xtick_5">
     <g id="line2d_9">
      <defs>
       <path id="m6c9fc6e7ce" d="M 0 0 
L 0 2 
" style="stroke: #000000; stroke-width: 0.6"/>
      </defs>
      <g>
       <use xlink:href="#m6c9fc6e7ce" x="43.445302" y="288.430125" style="stroke: #000000; stroke-width: 0.6"/>
      </g>
     </g>
    </g>
    <g id="xtick_6">
     <g id="line2d_10">
      <g>
       <use xlink:href="#m6c9fc6e7ce" x="48.980935" y="288.430125" style="stroke: #000000; stroke-width: 0.6"/>
      </g>
     </g>
    </g>
    <g id="xtick_7">
     <g id="line2d_11">
      <g>
       <use xlink:href="#m6c9fc6e7ce" x="86.509646" y="288.430125" style="stroke: #000000; stroke-width: 0.6"/>
      </g>
     </g>
    </g>
    <g id="xtick_8">
     <g id="line2d_12">
      <g>
       <use xlink:href="#m6c9fc6e7ce" x="105.565922" y="288.430125" style="stroke: #000000; stroke-width: 0.6"/>
      </g>
     </g>
    </g>
    <g id="xtick_9">
     <g id="line2d_13">
      <g>
       <use xlink:href="#m6c9fc6e7ce" x="119.086565" y="288.430125" style="stroke: #000000; stroke-width: 0.6"/>
      </g>
     </g>
    </g>
    <g id="xtick_10">
     <g id="line2d_14">
      <g>
       <use xlink:href="#m6c9fc6e7ce" x="129.57399" y="288.430125" style="stroke: #000000; stroke-width: 0.6"/>
      </g>
     </g>
    </g>
    <g id="xtick_11">
     <g id="line2d_15">
      <g>
       <use xlink:href="#m6c9fc6e7ce" x="138.142841" y="288.430125" style="stroke: #000000; stroke-width: 0.6"/>
      </g>
     </g>
    </g>
    <g id="xtick_12">
     <g id="line2d_16">
      <g>
       <use xlink:href="#m6c9fc6e7ce" x="145.387701" y="288.430125" style="stroke: #000000; stroke-width: 0.6"/>
      </g>
     </g>
    </g>
    <g id="xtick_13">
     <g id="line2d_17">
      <g>
       <use xlink:href="#m6c9fc6e7ce" x="151.663484" y="288.430125" style="stroke: #000000; stroke-width: 0.6"/>
      </g>
     </g>
    </g>
    <g id="xtick_14">
     <g id="line2d_18">
      <g>
       <use xlink:href="#m6c9fc6e7ce" x="157.199117" y="288.430125" style="stroke: #000000; stroke-width: 0.6"/>
      </g>
     </g>
    </g>
    <g id="xtick_15">
     <g id="line2d_19">
      <g>
       <use xlink:href="#m6c9fc6e7ce" x="194.727828" y="288.430125" style="stroke: #000000; stroke-width: 0.6"/>
      </g>
     </g>
    </g>
    <g id="xtick_16">
     <g id="line2d_20">
      <g>
       <use xlink:href="#m6c9fc6e7ce" x="213.784104" y="288.430125" style="stroke: #000000; stroke-width: 0.6"/>
      </g>
     </g>
    </g>
    <g id="xtick_17">
     <g id="line2d_21">
      <g>
       <use xlink:href="#m6c9fc6e7ce" x="227.304747" y="288.430125" style="stroke: #000000; stroke-width: 0.6"/>
      </g>
     </g>
    </g>
    <g id="xtick_18">
     <g id="line2d_22">
      <g>
       <use xlink:href="#m6c9fc6e7ce" x="237.792172" y="288.430125" style="stroke: #000000; stroke-width: 0.6"/>
      </g>
     </g>
    </g>
    <g id="xtick_19">
     <g id="line2d_23">
      <g>
       <use xlink:href="#m6c9fc6e7ce" x="246.361023" y="288.430125" style="stroke: #000000; stroke-width: 0.6"/>
      </g>
     </g>
    </g>
    <g id="xtick_20">
     <g id="line2d_24">
      <g>
       <use xlink:href="#m6c9fc6e7ce" x="253.605882" y="288.430125" style="stroke: #000000; stroke-width: 0.6"/>
      </g>
     </g>
    </g>
    <g id="xtick_21">
     <g id="line2d_25">
      <g>
       <use xlink:href="#m6c9fc6e7ce" x="259.881666" y="288.430125" style="stroke: #000000; stroke-width: 0.6"/>
      </g>
     </g>
    </g>
    <g id="xtick_22">
     <g id="line2d_26">
      <g>
       <use xlink:href="#m6c9fc6e7ce" x="265.417298" y="288.430125" style="stroke: #000000; stroke-width: 0.6"/>
      </g>
     </g>
    </g>
    <g id="xtick_23">
     <g id="line2d_27">
      <g>
       <use xlink:href="#m6c9fc6e7ce" x="302.94601" y="288.430125" style="stroke: #000000; stroke-width: 0.6"/>
      </g>
     </g>
    </g>
    <g id="xtick_24">
     <g id="line2d_28">
      <g>
       <use xlink:href="#m6c9fc6e7ce" x="322.002286" y="288.430125" style="stroke: #000000; stroke-width: 0.6"/>
      </g>
     </g>
    </g>
    <g id="xtick_25">
     <g id="line2d_29">
      <g>
       <use xlink:href="#m6c9fc6e7ce" x="335.522929" y="288.430125" style="stroke: #000000; stroke-width: 0.6"/>
      </g>
     </g>
    </g>
    <g id="xtick_26">
     <g id="line2d_30">
      <g>
       <use xlink:href="#m6c9fc6e7ce" x="346.010354" y="288.430125" style="stroke: #000000; stroke-width: 0.6"/>
      </g>
     </g>
    </g>
    <g id="xtick_27">
     <g id="line2d_31">
      <g>
       <use xlink:href="#m6c9fc6e7ce" x="354.579204" y="288.430125" style="stroke: #000000; stroke-width: 0.6"/>
      </g>
     </g>
    </g>
    <g id="xtick_28">
     <g id="line2d_32">
      <g>
       <use xlink:href="#m6c9fc6e7ce" x="361.824064" y="288.430125" style="stroke: #000000; stroke-width: 0.6"/>
      </g>
     </g>
    </g>
    <g id="xtick_29">
     <g id="line2d_33">
      <g>
       <use xlink:href="#m6c9fc6e7ce" x="368.099847" y="288.430125" style="stroke: #000000; stroke-width: 0.6"/>
      </g>
     </g>
    </g>
    <g id="xtick_30">
     <g id="line2d_34">
      <g>
       <use xlink:href="#m6c9fc6e7ce" x="373.63548" y="288.430125" style="stroke: #000000; stroke-width: 0.6"/>
      </g>
     </g>
    </g>
   </g>
   <g id="matplotlib.axis_2">
    <g id="ytick_1">
     <g id="line2d_35">
      <path d="M 37.7 248.723358 
L 394.82 248.723358 
" clip-path="url(#padf9248000)" style="fill: none; stroke: #b0b0b0; stroke-width: 0.8; stroke-linecap: square"/>
     </g>
     <g id="line2d_36">
      <defs>
       <path id="m5262e2976e" d="M 0 0 
L -3.5 0 
" style="stroke: #000000; stroke-width: 0.8"/>
      </defs>
      <g>
       <use xlink:href="#m5262e2976e" x="37.7" y="248.723358" style="stroke: #000000; stroke-width: 0.8"/>
      </g>
     </g>
     <g id="text_5">
      <!-- $\mathdefault{10^{-8}}$ -->
      <g transform="translate(7.2 252.522577) scale(0.1 -0.1)">
       <defs>
        <path id="DejaVuSans-38" d="M 2034 2216 
Q 1584 2216 1326 1975 
Q 1069 1734 1069 1313 
Q 1069 891 1326 650 
Q 1584 409 2034 409 
Q 2484 409 2743 651 
Q 3003 894 3003 1313 
Q 3003 1734 2745 1975 
Q 2488 2216 2034 2216 
z
M 1403 2484 
Q 997 2584 770 2862 
Q 544 3141 544 3541 
Q 544 4100 942 4425 
Q 1341 4750 2034 4750 
Q 2731 4750 3128 4425 
Q 3525 4100 3525 3541 
Q 3525 3141 3298 2862 
Q 3072 2584 2669 2484 
Q 3125 2378 3379 2068 
Q 3634 1759 3634 1313 
Q 3634 634 3220 271 
Q 2806 -91 2034 -91 
Q 1263 -91 848 271 
Q 434 634 434 1313 
Q 434 1759 690 2068 
Q 947 2378 1403 2484 
z
M 1172 3481 
Q 1172 3119 1398 2916 
Q 1625 2713 2034 2713 
Q 2441 2713 2670 2916 
Q 2900 3119 2900 3481 
Q 2900 3844 2670 4047 
Q 2441 4250 2034 4250 
Q 1625 4250 1398 4047 
Q 1172 3844 1172 3481 
z
" transform="scale(0.015625)"/>
       </defs>
       <use xlink:href="#DejaVuSans-31" transform="translate(0 0.765625)"/>
       <use xlink:href="#DejaVuSans-30" transform="translate(63.623047 0.765625)"/>
       <use xlink:href="#DejaVuSans-2212" transform="translate(128.203125 39.046875) scale(0.7)"/>
       <use xlink:href="#DejaVuSans-38" transform="translate(186.855469 39.046875) scale(0.7)"/>
      </g>
     </g>
    </g>
    <g id="ytick_2">
     <g id="line2d_37">
      <path d="M 37.7 193.501824 
L 394.82 193.501824 
" clip-path="url(#padf9248000)" style="fill: none; stroke: #b0b0b0; stroke-width: 0.8; stroke-linecap: square"/>
     </g>
     <g id="line2d_38">
      <g>
       <use xlink:href="#m5262e2976e" x="37.7" y="193.501824" style="stroke: #000000; stroke-width: 0.8"/>
      </g>
     </g>
     <g id="text_6">
      <!-- $\mathdefault{10^{-6}}$ -->
      <g transform="translate(7.2 197.301043) scale(0.1 -0.1)">
       <defs>
        <path id="DejaVuSans-36" d="M 2113 2584 
Q 1688 2584 1439 2293 
Q 1191 2003 1191 1497 
Q 1191 994 1439 701 
Q 1688 409 2113 409 
Q 2538 409 2786 701 
Q 3034 994 3034 1497 
Q 3034 2003 2786 2293 
Q 2538 2584 2113 2584 
z
M 3366 4563 
L 3366 3988 
Q 3128 4100 2886 4159 
Q 2644 4219 2406 4219 
Q 1781 4219 1451 3797 
Q 1122 3375 1075 2522 
Q 1259 2794 1537 2939 
Q 1816 3084 2150 3084 
Q 2853 3084 3261 2657 
Q 3669 2231 3669 1497 
Q 3669 778 3244 343 
Q 2819 -91 2113 -91 
Q 1303 -91 875 529 
Q 447 1150 447 2328 
Q 447 3434 972 4092 
Q 1497 4750 2381 4750 
Q 2619 4750 2861 4703 
Q 3103 4656 3366 4563 
z
" transform="scale(0.015625)"/>
       </defs>
       <use xlink:href="#DejaVuSans-31" transform="translate(0 0.765625)"/>
       <use xlink:href="#DejaVuSans-30" transform="translate(63.623047 0.765625)"/>
       <use xlink:href="#DejaVuSans-2212" transform="translate(128.203125 39.046875) scale(0.7)"/>
       <use xlink:href="#DejaVuSans-36" transform="translate(186.855469 39.046875) scale(0.7)"/>
      </g>
     </g>
    </g>
    <g id="ytick_3">
     <g id="line2d_39">
      <path d="M 37.7 138.28029 
L 394.82 138.28029 
" clip-path="url(#padf9248000)" style="fill: none; stroke: #b0b0b0; stroke-width: 0.8; stroke-linecap: square"/>
     </g>
     <g id="line2d_40">
      <g>
       <use xlink:href="#m5262e2976e" x="37.7" y="138.28029" style="stroke: #000000; stroke-width: 0.8"/>
      </g>
     </g>
     <g id="text_7">
      <!-- $\mathdefault{10^{-4}}$ -->
      <g transform="translate(7.2 142.079509) scale(0.1 -0.1)">
       <use xlink:href="#DejaVuSans-31" transform="translate(0 0.684375)"/>
       <use xlink:href="#DejaVuSans-30" transform="translate(63.623047 0.684375)"/>
       <use xlink:href="#DejaVuSans-2212" transform="translate(128.203125 38.965625) scale(0.7)"/>
       <use xlink:href="#DejaVuSans-34" transform="translate(186.855469 38.965625) scale(0.7)"/>
      </g>
     </g>
    </g>
    <g id="ytick_4">
     <g id="line2d_41">
      <path d="M 37.7 83.058756 
L 394.82 83.058756 
" clip-path="url(#padf9248000)" style="fill: none; stroke: #b0b0b0; stroke-width: 0.8; stroke-linecap: square"/>
     </g>
     <g id="line2d_42">
      <g>
       <use xlink:href="#m5262e2976e" x="37.7" y="83.058756" style="stroke: #000000; stroke-width: 0.8"/>
      </g>
     </g>
     <g id="text_8">
      <!-- $\mathdefault{10^{-2}}$ -->
      <g transform="translate(7.2 86.857975) scale(0.1 -0.1)">
       <use xlink:href="#DejaVuSans-31" transform="translate(0 0.765625)"/>
       <use xlink:href="#DejaVuSans-30" transform="translate(63.623047 0.765625)"/>
       <use xlink:href="#DejaVuSans-2212" transform="translate(128.203125 39.046875) scale(0.7)"/>
       <use xlink:href="#DejaVuSans-32" transform="translate(186.855469 39.046875) scale(0.7)"/>
      </g>
     </g>
    </g>
    <g id="ytick_5">
     <g id="line2d_43">
      <path d="M 37.7 27.837222 
L 394.82 27.837222 
" clip-path="url(#padf9248000)" style="fill: none; stroke: #b0b0b0; stroke-width: 0.8; stroke-linecap: square"/>
     </g>
     <g id="line2d_44">
      <g>
       <use xlink:href="#m5262e2976e" x="37.7" y="27.837222" style="stroke: #000000; stroke-width: 0.8"/>
      </g>
     </g>
     <g id="text_9">
      <!-- $\mathdefault{10^{0}}$ -->
      <g transform="translate(13.1 31.636441) scale(0.1 -0.1)">
       <use xlink:href="#DejaVuSans-31" transform="translate(0 0.765625)"/>
       <use xlink:href="#DejaVuSans-30" transform="translate(63.623047 0.765625)"/>
       <use xlink:href="#DejaVuSans-30" transform="translate(128.203125 39.046875) scale(0.7)"/>
      </g>
     </g>
    </g>
   </g>
   <g id="line2d_45">
    <path d="M 53.932727 129.440768 
L 90.005455 110.960305 
L 126.078182 91.757873 
L 162.150909 74.688371 
L 198.223636 58.015853 
L 234.296364 44.362798 
L 270.369091 37.021189 
L 306.441818 35.992742 
L 342.514545 35.597786 
L 378.587273 36.121187 
" clip-path="url(#padf9248000)" style="fill: none; stroke: #1f77b4; stroke-width: 1.5; stroke-linecap: square"/>
    <defs>
     <path id="m9098867cbd" d="M 0 3 
C 0.795609 3 1.55874 2.683901 2.12132 2.12132 
C 2.683901 1.55874 3 0.795609 3 0 
C 3 -0.795609 2.683901 -1.55874 2.12132 -2.12132 
C 1.55874 -2.683901 0.795609 -3 0 -3 
C -0.795609 -3 -1.55874 -2.683901 -2.12132 -2.12132 
C -2.683901 -1.55874 -3 -0.795609 -3 0 
C -3 0.795609 -2.683901 1.55874 -2.12132 2.12132 
C -1.55874 2.683901 -0.795609 3 0 3 
z
" style="stroke: #1f77b4"/>
    </defs>
    <g clip-path="url(#padf9248000)">
     <use xlink:href="#m9098867cbd" x="53.932727" y="129.440768" style="fill: #1f77b4; stroke: #1f77b4"/>
     <use xlink:href="#m9098867cbd" x="90.005455" y="110.960305" style="fill: #1f77b4; stroke: #1f77b4"/>
     <use xlink:href="#m9098867cbd" x="126.078182" y="91.757873" style="fill: #1f77b4; stroke: #1f77b4"/>
     <use xlink:href="#m9098867cbd" x="162.150909" y="74.688371" style="fill: #1f77b4; stroke: #1f77b4"/>
     <use xlink:href="#m9098867cbd" x="198.223636" y="58.015853" style="fill: #1f77b4; stroke: #1f77b4"/>
     <use xlink:href="#m9098867cbd" x="234.296364" y="44.362798" style="fill: #1f77b4; stroke: #1f77b4"/>
     <use xlink:href="#m9098867cbd" x="270.369091" y="37.021189" style="fill: #1f77b4; stroke: #1f77b4"/>
     <use xlink:href="#m9098867cbd" x="306.441818" y="35.992742" style="fill: #1f77b4; stroke: #1f77b4"/>
     <use xlink:href="#m9098867cbd" x="342.514545" y="35.597786" style="fill: #1f77b4; stroke: #1f77b4"/>
     <use xlink:href="#m9098867cbd" x="378.587273" y="36.121187" style="fill: #1f77b4; stroke: #1f77b4"/>
    </g>
   </g>
   <g id="line2d_46">
    <path d="M 53.932727 169.340711 
L 90.005455 141.659471 
L 126.078182 115.358606 
L 162.150909 89.024381 
L 198.223636 62.296996 
L 234.296364 42.159474 
L 270.369091 35.7757 
L 306.441818 35.597786 
L 342.514545 36.307101 
L 378.587273 35.7757 
" clip-path="url(#padf9248000)" style="fill: none; stroke: #ff7f0e; stroke-width: 1.5; stroke-linecap: square"/>
    <defs>
     <path id="mb387966265" d="M -0 3 
L 3 -3 
L -3 -3 
z
" style="stroke: #ff7f0e; stroke-linejoin: miter"/>
    </defs>
    <g clip-path="url(#padf9248000)">
     <use xlink:href="#mb387966265" x="53.932727" y="169.340711" style="fill: #ff7f0e; stroke: #ff7f0e; stroke-linejoin: miter"/>
     <use xlink:href="#mb387966265" x="90.005455" y="141.659471" style="fill: #ff7f0e; stroke: #ff7f0e; stroke-linejoin: miter"/>
     <use xlink:href="#mb387966265" x="126.078182" y="115.358606" style="fill: #ff7f0e; stroke: #ff7f0e; stroke-linejoin: miter"/>
     <use xlink:href="#mb387966265" x="162.150909" y="89.024381" style="fill: #ff7f0e; stroke: #ff7f0e; stroke-linejoin: miter"/>
     <use xlink:href="#mb387966265" x="198.223636" y="62.296996" style="fill: #ff7f0e; stroke: #ff7f0e; stroke-linejoin: miter"/>
     <use xlink:href="#mb387966265" x="234.296364" y="42.159474" style="fill: #ff7f0e; stroke: #ff7f0e; stroke-linejoin: miter"/>
     <use xlink:href="#mb387966265" x="270.369091" y="35.7757" style="fill: #ff7f0e; stroke: #ff7f0e; stroke-linejoin: miter"/>
     <use xlink:href="#mb387966265" x="306.441818" y="35.597786" style="fill: #ff7f0e; stroke: #ff7f0e; stroke-linejoin: miter"/>
     <use xlink:href="#mb387966265" x="342.514545" y="36.307101" style="fill: #ff7f0e; stroke: #ff7f0e; stroke-linejoin: miter"/>
     <use xlink:href="#mb387966265" x="378.587273" y="35.7757" style="fill: #ff7f0e; stroke: #ff7f0e; stroke-linejoin: miter"/>
    </g>
   </g>
   <g id="line2d_47">
    <path d="M 53.932727 221.112591 
L 90.005455 180.32814 
L 126.078182 143.384291 
L 162.150909 106.454936 
L 198.223636 70.569905 
L 234.296364 42.31398 
L 270.369091 36.0293 
L 306.441818 35.97734 
L 342.514545 36.253012 
L 378.587273 35.663534 
" clip-path="url(#padf9248000)" style="fill: none; stroke: #2ca02c; stroke-width: 1.5; stroke-linecap: square"/>
    <defs>
     <path id="m2fdbd15130" d="M 0 -3 
L -0.673542 -0.927051 
L -2.85317 -0.927051 
L -1.089814 0.354102 
L -1.763356 2.427051 
L -0 1.145898 
L 1.763356 2.427051 
L 1.089814 0.354102 
L 2.85317 -0.927051 
L 0.673542 -0.927051 
z
" style="stroke: #2ca02c; stroke-linejoin: bevel"/>
    </defs>
    <g clip-path="url(#padf9248000)">
     <use xlink:href="#m2fdbd15130" x="53.932727" y="221.112591" style="fill: #2ca02c; stroke: #2ca02c; stroke-linejoin: bevel"/>
     <use xlink:href="#m2fdbd15130" x="90.005455" y="180.32814" style="fill: #2ca02c; stroke: #2ca02c; stroke-linejoin: bevel"/>
     <use xlink:href="#m2fdbd15130" x="126.078182" y="143.384291" style="fill: #2ca02c; stroke: #2ca02c; stroke-linejoin: bevel"/>
     <use xlink:href="#m2fdbd15130" x="162.150909" y="106.454936" style="fill: #2ca02c; stroke: #2ca02c; stroke-linejoin: bevel"/>
     <use xlink:href="#m2fdbd15130" x="198.223636" y="70.569905" style="fill: #2ca02c; stroke: #2ca02c; stroke-linejoin: bevel"/>
     <use xlink:href="#m2fdbd15130" x="234.296364" y="42.31398" style="fill: #2ca02c; stroke: #2ca02c; stroke-linejoin: bevel"/>
     <use xlink:href="#m2fdbd15130" x="270.369091" y="36.0293" style="fill: #2ca02c; stroke: #2ca02c; stroke-linejoin: bevel"/>
     <use xlink:href="#m2fdbd15130" x="306.441818" y="35.97734" style="fill: #2ca02c; stroke: #2ca02c; stroke-linejoin: bevel"/>
     <use xlink:href="#m2fdbd15130" x="342.514545" y="36.253012" style="fill: #2ca02c; stroke: #2ca02c; stroke-linejoin: bevel"/>
     <use xlink:href="#m2fdbd15130" x="378.587273" y="35.663534" style="fill: #2ca02c; stroke: #2ca02c; stroke-linejoin: bevel"/>
    </g>
   </g>
   <g id="patch_3">
    <path d="M 37.7 288.430125 
L 37.7 22.318125 
" style="fill: none; stroke: #000000; stroke-width: 0.8; stroke-linejoin: miter; stroke-linecap: square"/>
   </g>
   <g id="patch_4">
    <path d="M 394.82 288.430125 
L 394.82 22.318125 
" style="fill: none; stroke: #000000; stroke-width: 0.8; stroke-linejoin: miter; stroke-linecap: square"/>
   </g>
   <g id="patch_5">
    <path d="M 37.7 288.430125 
L 394.82 288.430125 
" style="fill: none; stroke: #000000; stroke-width: 0.8; stroke-linejoin: miter; stroke-linecap: square"/>
   </g>
   <g id="patch_6">
    <path d="M 37.7 22.318125 
L 394.82 22.318125 
" style="fill: none; stroke: #000000; stroke-width: 0.8; stroke-linejoin: miter; stroke-linecap: square"/>
   </g>
   <g id="text_10">
    <!-- Logical CNOT Error Rate -->
    <g transform="translate(144.067813 16.318125) scale(0.12 -0.12)">
     <defs>
      <path id="DejaVuSans-4c" d="M 628 4666 
L 1259 4666 
L 1259 531 
L 3531 531 
L 3531 0 
L 628 0 
L 628 4666 
z
" transform="scale(0.015625)"/>
      <path id="DejaVuSans-6f" d="M 1959 3097 
Q 1497 3097 1228 2736 
Q 959 2375 959 1747 
Q 959 1119 1226 758 
Q 1494 397 1959 397 
Q 2419 397 2687 759 
Q 2956 1122 2956 1747 
Q 2956 2369 2687 2733 
Q 2419 3097 1959 3097 
z
M 1959 3584 
Q 2709 3584 3137 3096 
Q 3566 2609 3566 1747 
Q 3566 888 3137 398 
Q 2709 -91 1959 -91 
Q 1206 -91 779 398 
Q 353 888 353 1747 
Q 353 2609 779 3096 
Q 1206 3584 1959 3584 
z
" transform="scale(0.015625)"/>
      <path id="DejaVuSans-67" d="M 2906 1791 
Q 2906 2416 2648 2759 
Q 2391 3103 1925 3103 
Q 1463 3103 1205 2759 
Q 947 2416 947 1791 
Q 947 1169 1205 825 
Q 1463 481 1925 481 
Q 2391 481 2648 825 
Q 2906 1169 2906 1791 
z
M 3481 434 
Q 3481 -459 3084 -895 
Q 2688 -1331 1869 -1331 
Q 1566 -1331 1297 -1286 
Q 1028 -1241 775 -1147 
L 775 -588 
Q 1028 -725 1275 -790 
Q 1522 -856 1778 -856 
Q 2344 -856 2625 -561 
Q 2906 -266 2906 331 
L 2906 616 
Q 2728 306 2450 153 
Q 2172 0 1784 0 
Q 1141 0 747 490 
Q 353 981 353 1791 
Q 353 2603 747 3093 
Q 1141 3584 1784 3584 
Q 2172 3584 2450 3431 
Q 2728 3278 2906 2969 
L 2906 3500 
L 3481 3500 
L 3481 434 
z
" transform="scale(0.015625)"/>
      <path id="DejaVuSans-69" d="M 603 3500 
L 1178 3500 
L 1178 0 
L 603 0 
L 603 3500 
z
M 603 4863 
L 1178 4863 
L 1178 4134 
L 603 4134 
L 603 4863 
z
" transform="scale(0.015625)"/>
      <path id="DejaVuSans-63" d="M 3122 3366 
L 3122 2828 
Q 2878 2963 2633 3030 
Q 2388 3097 2138 3097 
Q 1578 3097 1268 2742 
Q 959 2388 959 1747 
Q 959 1106 1268 751 
Q 1578 397 2138 397 
Q 2388 397 2633 464 
Q 2878 531 3122 666 
L 3122 134 
Q 2881 22 2623 -34 
Q 2366 -91 2075 -91 
Q 1284 -91 818 406 
Q 353 903 353 1747 
Q 353 2603 823 3093 
Q 1294 3584 2113 3584 
Q 2378 3584 2631 3529 
Q 2884 3475 3122 3366 
z
" transform="scale(0.015625)"/>
      <path id="DejaVuSans-61" d="M 2194 1759 
Q 1497 1759 1228 1600 
Q 959 1441 959 1056 
Q 959 750 1161 570 
Q 1363 391 1709 391 
Q 2188 391 2477 730 
Q 2766 1069 2766 1631 
L 2766 1759 
L 2194 1759 
z
M 3341 1997 
L 3341 0 
L 2766 0 
L 2766 531 
Q 2569 213 2275 61 
Q 1981 -91 1556 -91 
Q 1019 -91 701 211 
Q 384 513 384 1019 
Q 384 1609 779 1909 
Q 1175 2209 1959 2209 
L 2766 2209 
L 2766 2266 
Q 2766 2663 2505 2880 
Q 2244 3097 1772 3097 
Q 1472 3097 1187 3025 
Q 903 2953 641 2809 
L 641 3341 
Q 956 3463 1253 3523 
Q 1550 3584 1831 3584 
Q 2591 3584 2966 3190 
Q 3341 2797 3341 1997 
z
" transform="scale(0.015625)"/>
      <path id="DejaVuSans-6c" d="M 603 4863 
L 1178 4863 
L 1178 0 
L 603 0 
L 603 4863 
z
" transform="scale(0.015625)"/>
      <path id="DejaVuSans-20" transform="scale(0.015625)"/>
      <path id="DejaVuSans-43" d="M 4122 4306 
L 4122 3641 
Q 3803 3938 3442 4084 
Q 3081 4231 2675 4231 
Q 1875 4231 1450 3742 
Q 1025 3253 1025 2328 
Q 1025 1406 1450 917 
Q 1875 428 2675 428 
Q 3081 428 3442 575 
Q 3803 722 4122 1019 
L 4122 359 
Q 3791 134 3420 21 
Q 3050 -91 2638 -91 
Q 1578 -91 968 557 
Q 359 1206 359 2328 
Q 359 3453 968 4101 
Q 1578 4750 2638 4750 
Q 3056 4750 3426 4639 
Q 3797 4528 4122 4306 
z
" transform="scale(0.015625)"/>
      <path id="DejaVuSans-4e" d="M 628 4666 
L 1478 4666 
L 3547 763 
L 3547 4666 
L 4159 4666 
L 4159 0 
L 3309 0 
L 1241 3903 
L 1241 0 
L 628 0 
L 628 4666 
z
" transform="scale(0.015625)"/>
      <path id="DejaVuSans-4f" d="M 2522 4238 
Q 1834 4238 1429 3725 
Q 1025 3213 1025 2328 
Q 1025 1447 1429 934 
Q 1834 422 2522 422 
Q 3209 422 3611 934 
Q 4013 1447 4013 2328 
Q 4013 3213 3611 3725 
Q 3209 4238 2522 4238 
z
M 2522 4750 
Q 3503 4750 4090 4092 
Q 4678 3434 4678 2328 
Q 4678 1225 4090 567 
Q 3503 -91 2522 -91 
Q 1538 -91 948 565 
Q 359 1222 359 2328 
Q 359 3434 948 4092 
Q 1538 4750 2522 4750 
z
" transform="scale(0.015625)"/>
      <path id="DejaVuSans-54" d="M -19 4666 
L 3928 4666 
L 3928 4134 
L 2272 4134 
L 2272 0 
L 1638 0 
L 1638 4134 
L -19 4134 
L -19 4666 
z
" transform="scale(0.015625)"/>
      <path id="DejaVuSans-45" d="M 628 4666 
L 3578 4666 
L 3578 4134 
L 1259 4134 
L 1259 2753 
L 3481 2753 
L 3481 2222 
L 1259 2222 
L 1259 531 
L 3634 531 
L 3634 0 
L 628 0 
L 628 4666 
z
" transform="scale(0.015625)"/>
      <path id="DejaVuSans-72" d="M 2631 2963 
Q 2534 3019 2420 3045 
Q 2306 3072 2169 3072 
Q 1681 3072 1420 2755 
Q 1159 2438 1159 1844 
L 1159 0 
L 581 0 
L 581 3500 
L 1159 3500 
L 1159 2956 
Q 1341 3275 1631 3429 
Q 1922 3584 2338 3584 
Q 2397 3584 2469 3576 
Q 2541 3569 2628 3553 
L 2631 2963 
z
" transform="scale(0.015625)"/>
      <path id="DejaVuSans-52" d="M 2841 2188 
Q 3044 2119 3236 1894 
Q 3428 1669 3622 1275 
L 4263 0 
L 3584 0 
L 2988 1197 
Q 2756 1666 2539 1819 
Q 2322 1972 1947 1972 
L 1259 1972 
L 1259 0 
L 628 0 
L 628 4666 
L 2053 4666 
Q 2853 4666 3247 4331 
Q 3641 3997 3641 3322 
Q 3641 2881 3436 2590 
Q 3231 2300 2841 2188 
z
M 1259 4147 
L 1259 2491 
L 2053 2491 
Q 2509 2491 2742 2702 
Q 2975 2913 2975 3322 
Q 2975 3731 2742 3939 
Q 2509 4147 2053 4147 
L 1259 4147 
z
" transform="scale(0.015625)"/>
      <path id="DejaVuSans-74" d="M 1172 4494 
L 1172 3500 
L 2356 3500 
L 2356 3053 
L 1172 3053 
L 1172 1153 
Q 1172 725 1289 603 
Q 1406 481 1766 481 
L 2356 481 
L 2356 0 
L 1766 0 
Q 1100 0 847 248 
Q 594 497 594 1153 
L 594 3053 
L 172 3053 
L 172 3500 
L 594 3500 
L 594 4494 
L 1172 4494 
z
" transform="scale(0.015625)"/>
      <path id="DejaVuSans-65" d="M 3597 1894 
L 3597 1613 
L 953 1613 
Q 991 1019 1311 708 
Q 1631 397 2203 397 
Q 2534 397 2845 478 
Q 3156 559 3463 722 
L 3463 178 
Q 3153 47 2828 -22 
Q 2503 -91 2169 -91 
Q 1331 -91 842 396 
Q 353 884 353 1716 
Q 353 2575 817 3079 
Q 1281 3584 2069 3584 
Q 2775 3584 3186 3129 
Q 3597 2675 3597 1894 
z
M 3022 2063 
Q 3016 2534 2758 2815 
Q 2500 3097 2075 3097 
Q 1594 3097 1305 2825 
Q 1016 2553 972 2059 
L 3022 2063 
z
" transform="scale(0.015625)"/>
     </defs>
     <use xlink:href="#DejaVuSans-4c"/>
     <use xlink:href="#DejaVuSans-6f" transform="translate(53.962891 0)"/>
     <use xlink:href="#DejaVuSans-67" transform="translate(115.144531 0)"/>
     <use xlink:href="#DejaVuSans-69" transform="translate(178.621094 0)"/>
     <use xlink:href="#DejaVuSans-63" transform="translate(206.404297 0)"/>
     <use xlink:href="#DejaVuSans-61" transform="translate(261.384766 0)"/>
     <use xlink:href="#DejaVuSans-6c" transform="translate(322.664062 0)"/>
     <use xlink:href="#DejaVuSans-20" transform="translate(350.447266 0)"/>
     <use xlink:href="#DejaVuSans-43" transform="translate(382.234375 0)"/>
     <use xlink:href="#DejaVuSans-4e" transform="translate(452.058594 0)"/>
     <use xlink:href="#DejaVuSans-4f" transform="translate(526.863281 0)"/>
     <use xlink:href="#DejaVuSans-54" transform="translate(605.574219 0)"/>
     <use xlink:href="#DejaVuSans-20" transform="translate(666.658203 0)"/>
     <use xlink:href="#DejaVuSans-45" transform="translate(698.445312 0)"/>
     <use xlink:href="#DejaVuSans-72" transform="translate(761.628906 0)"/>
     <use xlink:href="#DejaVuSans-72" transform="translate(800.992188 0)"/>
     <use xlink:href="#DejaVuSans-6f" transform="translate(839.855469 0)"/>
     <use xlink:href="#DejaVuSans-72" transform="translate(901.037109 0)"/>
     <use xlink:href="#DejaVuSans-20" transform="translate(942.150391 0)"/>
     <use xlink:href="#DejaVuSans-52" transform="translate(973.9375 0)"/>
     <use xlink:href="#DejaVuSans-61" transform="translate(1041.169922 0)"/>
     <use xlink:href="#DejaVuSans-74" transform="translate(1102.449219 0)"/>
     <use xlink:href="#DejaVuSans-65" transform="translate(1141.658203 0)"/>
    </g>
   </g>
   <g id="patch_7">
    <path d="M 254.5928 288.430125 
L 374.3432 288.430125 
L 374.3432 168.679725 
L 254.5928 168.679725 
L 254.5928 288.430125 
z
" style="fill: none"/>
   </g>
   <g id="axes_2">
    <g id="line2d_48">
     <path d="M 300.986223 250.49902 
L 300.790315 236.258868 
" clip-path="url(#pe9b0bd8957)" style="fill: none; stroke: #7f7f7f; stroke-linecap: square"/>
    </g>
    <g id="line2d_49">
     <path d="M 300.790315 236.258868 
L 312.091375 226.57112 
" clip-path="url(#pe9b0bd8957)" style="fill: none; stroke: #7f7f7f; stroke-linecap: square"/>
    </g>
    <g id="line2d_50">
     <path d="M 300.790315 236.258868 
L 300.589258 221.644356 
" clip-path="url(#pe9b0bd8957)" style="fill: none; stroke: #7f7f7f; stroke-linecap: square"/>
    </g>
    <g id="line2d_51">
     <path d="M 300.589258 221.644356 
L 300.382844 206.640525 
" clip-path="url(#pe9b0bd8957)" style="fill: none; stroke: #7f7f7f; stroke-linecap: square"/>
    </g>
    <g id="line2d_52">
     <path d="M 312.091375 226.57112 
L 312.040209 212.206889 
" clip-path="url(#pe9b0bd8957)" style="fill: none; stroke: #7f7f7f; stroke-linecap: square"/>
    </g>
    <g id="line2d_53">
     <path d="M 312.040209 212.206889 
L 331.412944 217.595737 
" clip-path="url(#pe9b0bd8957)" style="fill: none; stroke: #7f7f7f; stroke-linecap: square"/>
    </g>
    <g id="line2d_54">
     <path d="M 331.024546 246.243951 
L 331.216253 232.103669 
" clip-path="url(#pe9b0bd8957)" style="fill: none; stroke: #7f7f7f; stroke-linecap: square"/>
    </g>
    <g id="line2d_55">
     <path d="M 331.216253 232.103669 
L 331.412944 217.595737 
" clip-path="url(#pe9b0bd8957)" style="fill: none; stroke: #7f7f7f; stroke-linecap: square"/>
    </g>
    <g id="line2d_56">
     <path d="M 331.412944 217.595737 
L 331.614816 202.705628 
" clip-path="url(#pe9b0bd8957)" style="fill: none; stroke: #7f7f7f; stroke-linecap: square"/>
    </g>
    <g id="line2d_57">
     <path d="M 300.790315 236.258868 
L 306.513216 231.352954 
" clip-path="url(#pe9b0bd8957)" style="fill: none; stroke: #7396ff; stroke-width: 3; stroke-linecap: square"/>
    </g>
    <g id="line2d_58">
     <path d="M 312.091375 226.57112 
L 306.513216 231.352954 
" clip-path="url(#pe9b0bd8957)" style="fill: none; stroke: #7396ff; stroke-width: 3; stroke-linecap: square"/>
    </g>
    <g id="line2d_59">
     <path d="M 331.024546 246.243951 
L 331.119788 239.218887 
" clip-path="url(#pe9b0bd8957)" style="fill: none; stroke: #7396ff; stroke-width: 3; stroke-linecap: square"/>
    </g>
    <g id="line2d_60">
     <path d="M 331.216253 232.103669 
L 331.119788 239.218887 
" clip-path="url(#pe9b0bd8957)" style="fill: none; stroke: #7396ff; stroke-width: 3; stroke-linecap: square"/>
    </g>
    <g id="line2d_61">
     <path d="M 312.091375 226.57112 
L 312.065954 219.434705 
" clip-path="url(#pe9b0bd8957)" style="fill: none; stroke: #7396ff; stroke-width: 3; stroke-linecap: square"/>
    </g>
    <g id="line2d_62">
     <path d="M 312.040209 212.206889 
L 312.065954 219.434705 
" clip-path="url(#pe9b0bd8957)" style="fill: none; stroke: #7396ff; stroke-width: 3; stroke-linecap: square"/>
    </g>
    <g id="line2d_63">
     <path d="M 312.040209 212.206889 
L 321.654416 214.88124 
" clip-path="url(#pe9b0bd8957)" style="fill: none; stroke: #7396ff; stroke-width: 3; stroke-linecap: square"/>
    </g>
    <g id="line2d_64">
     <path d="M 331.412944 217.595737 
L 321.654416 214.88124 
" clip-path="url(#pe9b0bd8957)" style="fill: none; stroke: #7396ff; stroke-width: 3; stroke-linecap: square"/>
    </g>
    <g id="line2d_65">
     <path d="M 331.412944 217.595737 
L 331.51322 210.199392 
" clip-path="url(#pe9b0bd8957)" style="fill: none; stroke: #7396ff; stroke-width: 3; stroke-linecap: square"/>
    </g>
    <g id="line2d_66">
     <path d="M 331.614816 202.705628 
L 331.51322 210.199392 
" clip-path="url(#pe9b0bd8957)" style="fill: none; stroke: #7396ff; stroke-width: 3; stroke-linecap: square"/>
    </g>
    <g id="line2d_67">
     <path d="M 331.216253 232.103669 
L 331.313963 224.896549 
" clip-path="url(#pe9b0bd8957)" style="fill: none; stroke: #7396ff; stroke-width: 3; stroke-linecap: square"/>
    </g>
    <g id="line2d_68">
     <path d="M 331.412944 217.595737 
L 331.313963 224.896549 
" clip-path="url(#pe9b0bd8957)" style="fill: none; stroke: #7396ff; stroke-width: 3; stroke-linecap: square"/>
    </g>
    <g id="line2d_69">
     <path d="M 300.986223 250.49902 
L 300.8889 243.424834 
" clip-path="url(#pe9b0bd8957)" style="fill: none; stroke: #7396ff; stroke-width: 3; stroke-linecap: square"/>
    </g>
    <g id="line2d_70">
     <path d="M 300.790315 236.258868 
L 300.8889 243.424834 
" clip-path="url(#pe9b0bd8957)" style="fill: none; stroke: #7396ff; stroke-width: 3; stroke-linecap: square"/>
    </g>
    <g id="Path3DCollection_1">
     <defs>
      <path id="C0_0_a9878a9e24" d="M 0 3.535534 
C 0.937635 3.535534 1.836992 3.163008 2.5 2.5 
C 3.163008 1.836992 3.535534 0.937635 3.535534 -0 
C 3.535534 -0.937635 3.163008 -1.836992 2.5 -2.5 
C 1.836992 -3.163008 0.937635 -3.535534 0 -3.535534 
C -0.937635 -3.535534 -1.836992 -3.163008 -2.5 -2.5 
C -3.163008 -1.836992 -3.535534 -0.937635 -3.535534 0 
C -3.535534 0.937635 -3.163008 1.836992 -2.5 2.5 
C -1.836992 3.163008 -0.937635 3.535534 0 3.535534 
z
"/>
     </defs>
     <g clip-path="url(#pe9b0bd8957)">
      <use xlink:href="#C0_0_a9878a9e24" x="312.091375" y="226.57112" style="fill: #7396ff; stroke: #000000"/>
     </g>
     <g clip-path="url(#pe9b0bd8957)">
      <use xlink:href="#C0_0_a9878a9e24" x="331.024546" y="246.243951" style="fill: #ff7f7f; stroke: #000000"/>
     </g>
     <g clip-path="url(#pe9b0bd8957)">
      <use xlink:href="#C0_0_a9878a9e24" x="312.040209" y="212.206889" style="fill: #ff7f7f; stroke: #000000"/>
     </g>
     <g clip-path="url(#pe9b0bd8957)">
      <use xlink:href="#C0_0_a9878a9e24" x="300.986223" y="250.49902" style="fill: #ff7f7f; stroke: #000000"/>
     </g>
     <g clip-path="url(#pe9b0bd8957)">
      <use xlink:href="#C0_0_a9878a9e24" x="331.216253" y="232.103669" style="fill: #ff7f7f; stroke: #000000"/>
     </g>
     <g clip-path="url(#pe9b0bd8957)">
      <use xlink:href="#C0_0_a9878a9e24" x="300.790315" y="236.258868" style="fill: #7396ff; stroke: #000000"/>
     </g>
     <g clip-path="url(#pe9b0bd8957)">
      <use xlink:href="#C0_0_a9878a9e24" x="331.412944" y="217.595737" style="fill: #ff7f7f; stroke: #000000"/>
     </g>
     <g clip-path="url(#pe9b0bd8957)">
      <use xlink:href="#C0_0_a9878a9e24" x="300.589258" y="221.644356" style="fill: #ff7f7f; stroke: #000000"/>
     </g>
     <g clip-path="url(#pe9b0bd8957)">
      <use xlink:href="#C0_0_a9878a9e24" x="331.614816" y="202.705628" style="fill: #ff7f7f; stroke: #000000"/>
     </g>
     <g clip-path="url(#pe9b0bd8957)">
      <use xlink:href="#C0_0_a9878a9e24" x="300.382844" y="206.640525" style="fill: #ff7f7f; stroke: #000000"/>
     </g>
    </g>
   </g>
   <g id="legend_1">
    <g id="patch_8">
     <path d="M 44.7 74.3525 
L 83.0625 74.3525 
Q 85.0625 74.3525 85.0625 72.3525 
L 85.0625 29.318125 
Q 85.0625 27.318125 83.0625 27.318125 
L 44.7 27.318125 
Q 42.7 27.318125 42.7 29.318125 
L 42.7 72.3525 
Q 42.7 74.3525 44.7 74.3525 
z
" style="fill: #ffffff; opacity: 0.8; stroke: #cccccc; stroke-linejoin: miter"/>
    </g>
    <g id="line2d_71">
     <path d="M 46.7 35.416562 
L 56.7 35.416562 
L 66.7 35.416562 
" style="fill: none; stroke: #1f77b4; stroke-width: 1.5; stroke-linecap: square"/>
     <g>
      <use xlink:href="#m9098867cbd" x="56.7" y="35.416562" style="fill: #1f77b4; stroke: #1f77b4"/>
     </g>
    </g>
    <g id="text_11">
     <!-- 3 -->
     <g transform="translate(74.7 38.916562) scale(0.1 -0.1)">
      <use xlink:href="#DejaVuSans-33"/>
     </g>
    </g>
    <g id="line2d_72">
     <path d="M 46.7 50.094687 
L 56.7 50.094687 
L 66.7 50.094687 
" style="fill: none; stroke: #ff7f0e; stroke-width: 1.5; stroke-linecap: square"/>
     <g>
      <use xlink:href="#mb387966265" x="56.7" y="50.094687" style="fill: #ff7f0e; stroke: #ff7f0e; stroke-linejoin: miter"/>
     </g>
    </g>
    <g id="text_12">
     <!-- 5 -->
     <g transform="translate(74.7 53.594687) scale(0.1 -0.1)">
      <defs>
       <path id="DejaVuSans-35" d="M 691 4666 
L 3169 4666 
L 3169 4134 
L 1269 4134 
L 1269 2991 
Q 1406 3038 1543 3061 
Q 1681 3084 1819 3084 
Q 2600 3084 3056 2656 
Q 3513 2228 3513 1497 
Q 3513 744 3044 326 
Q 2575 -91 1722 -91 
Q 1428 -91 1123 -41 
Q 819 9 494 109 
L 494 744 
Q 775 591 1075 516 
Q 1375 441 1709 441 
Q 2250 441 2565 725 
Q 2881 1009 2881 1497 
Q 2881 1984 2565 2268 
Q 2250 2553 1709 2553 
Q 1456 2553 1204 2497 
Q 953 2441 691 2322 
L 691 4666 
z
" transform="scale(0.015625)"/>
      </defs>
      <use xlink:href="#DejaVuSans-35"/>
     </g>
    </g>
    <g id="line2d_73">
     <path d="M 46.7 64.772812 
L 56.7 64.772812 
L 66.7 64.772812 
" style="fill: none; stroke: #2ca02c; stroke-width: 1.5; stroke-linecap: square"/>
     <g>
      <use xlink:href="#m2fdbd15130" x="56.7" y="64.772812" style="fill: #2ca02c; stroke: #2ca02c; stroke-linejoin: bevel"/>
     </g>
    </g>
    <g id="text_13">
     <!-- 7 -->
     <g transform="translate(74.7 68.272812) scale(0.1 -0.1)">
      <defs>
       <path id="DejaVuSans-37" d="M 525 4666 
L 3525 4666 
L 3525 4397 
L 1831 0 
L 1172 0 
L 2766 4134 
L 525 4134 
L 525 4666 
z
" transform="scale(0.015625)"/>
      </defs>
      <use xlink:href="#DejaVuSans-37"/>
     </g>
    </g>
   </g>
  </g>
 </g>
 <defs>
  <clipPath id="padf9248000">
   <rect x="37.7" y="22.318125" width="357.12" height="266.112"/>
  </clipPath>
  <clipPath id="pe9b0bd8957">
   <rect x="254.5928" y="168.679725" width="119.7504" height="119.7504"/>
  </clipPath>
 </defs>
</svg>
