<svg xmlns="http://www.w3.org/2000/svg" viewBox="0 0 8 8"><g><defs><g id="plaquette_drawing_6"><path stroke="black" stroke-width="0.01" d="M 0 1 A 0.5 0.5 180 1 1 1 1 Z " fill="#7396ff"/><g/><text dominant-baseline="central" text-anchor="middle" font-size="0.1" fill="black" x="0.09999999999999998" y="0.9">3</text><text dominant-baseline="central" text-anchor="middle" font-size="0.1" fill="black" x="0.9" y="0.9">5</text></g><g id="plaquette_drawing_7"><path stroke="black" stroke-width="0.01" d="M 1 0 A 0.5 0.5 180 1 0 1 1 Z " fill="#ff7f7f"/><g/><text dominant-baseline="central" text-anchor="middle" font-size="0.1" fill="black" x="0.9" y="0.09999999999999998">4</text><text dominant-baseline="central" text-anchor="middle" font-size="0.1" fill="black" x="0.9" y="0.9">5</text></g><g id="plaquette_drawing_9"><path stroke="black" stroke-width="0.01" d="M 0.0 0.0 L 1.0 0.0 L 1.0 1.0 L 0.0 1.0 Z " fill="#7396ff"/><g/><line stroke="black" stroke-width="0.01" x1="0.95" y1="0.95" x2="0.04999999999999999" y2="0.95"/><text dominant-baseline="central" text-anchor="middle" font-size="0.1" fill="black" x="0.09999999999999998" y="0.09999999999999998">1</text><text dominant-baseline="central" text-anchor="middle" font-size="0.1" fill="black" x="0.9" y="0.09999999999999998">2</text><text dominant-baseline="central" text-anchor="middle" font-size="0.1" fill="black" x="0.09999999999999998" y="0.9">3</text><text dominant-baseline="central" text-anchor="middle" font-size="0.1" fill="black" x="0.9" y="0.9">5</text></g><g id="plaquette_drawing_10"><path stroke="black" stroke-width="0.01" d="M 0.0 0.0 L 1.0 0.0 L 1.0 1.0 L 0.0 1.0 Z " fill="#ff7f7f"/><g/><line stroke="black" stroke-width="0.01" x1="0.95" y1="0.95" x2="0.95" y2="0.04999999999999999"/><text dominant-baseline="central" text-anchor="middle" font-size="0.1" fill="black" x="0.09999999999999998" y="0.09999999999999998">1</text><text dominant-baseline="central" text-anchor="middle" font-size="0.1" fill="black" x="0.9" y="0.09999999999999998">4</text><text dominant-baseline="central" text-anchor="middle" font-size="0.1" fill="black" x="0.09999999999999998" y="0.9">3</text><text dominant-baseline="central" text-anchor="middle" font-size="0.1" fill="black" x="0.9" y="0.9">5</text></g><g id="plaquette_drawing_12"><path stroke="black" stroke-width="0.01" d="M 0 0 A 0.5 0.5 180 1 1 0 1 Z " fill="#ff7f7f"/><g/><text dominant-baseline="central" text-anchor="middle" font-size="0.1" fill="black" x="0.09999999999999998" y="0.09999999999999998">1</text><text dominant-baseline="central" text-anchor="middle" font-size="0.1" fill="black" x="0.09999999999999998" y="0.9">3</text></g><g id="plaquette_drawing_13"><path stroke="black" stroke-width="0.01" d="M 0 0 A 0.5 0.5 180 1 0 1 0 Z " fill="#7396ff"/><g/><text dominant-baseline="central" text-anchor="middle" font-size="0.1" fill="black" x="0.09999999999999998" y="0.09999999999999998">1</text><text dominant-baseline="central" text-anchor="middle" font-size="0.1" fill="black" x="0.9" y="0.09999999999999998">4</text></g><g id="plaquette_drawing_default"/></defs><use href="#plaquette_drawing_default" x="0.0" y="0.0"/><use href="#plaquette_drawing_default" x="1.0" y="0.0"/><use href="#plaquette_drawing_6" x="2.0" y="0.0"/><use href="#plaquette_drawing_default" x="3.0" y="0.0"/><use href="#plaquette_drawing_6" x="4.0" y="0.0"/><use href="#plaquette_drawing_default" x="5.0" y="0.0"/><use href="#plaquette_drawing_6" x="6.0" y="0.0"/><use href="#plaquette_drawing_default" x="7.0" y="0.0"/><use href="#plaquette_drawing_7" x="0.0" y="1.0"/><use href="#plaquette_drawing_9" x="1.0" y="1.0"/><use href="#plaquette_drawing_10" x="2.0" y="1.0"/><use href="#plaquette_drawing_9" x="3.0" y="1.0"/><use href="#plaquette_drawing_10" x="4.0" y="1.0"/><use href="#plaquette_drawing_9" x="5.0" y="1.0"/><use href="#plaquette_drawing_10" x="6.0" y="1.0"/><use href="#plaquette_drawing_default" x="7.0" y="1.0"/><use href="#plaquette_drawing_default" x="0.0" y="2.0"/><use href="#plaquette_drawing_10" x="1.0" y="2.0"/><use href="#plaquette_drawing_9" x="2.0" y="2.0"/><use href="#plaquette_drawing_10" x="3.0" y="2.0"/><use href="#plaquette_drawing_9" x="4.0" y="2.0"/><use href="#plaquette_drawing_10" x="5.0" y="2.0"/><use href="#plaquette_drawing_9" x="6.0" y="2.0"/><use href="#plaquette_drawing_12" x="7.0" y="2.0"/><use href="#plaquette_drawing_7" x="0.0" y="3.0"/><use href="#plaquette_drawing_9" x="1.0" y="3.0"/><use href="#plaquette_drawing_10" x="2.0" y="3.0"/><use href="#plaquette_drawing_9" x="3.0" y="3.0"/><use href="#plaquette_drawing_10" x="4.0" y="3.0"/><use href="#plaquette_drawing_9" x="5.0" y="3.0"/><use href="#plaquette_drawing_10" x="6.0" y="3.0"/><use href="#plaquette_drawing_default" x="7.0" y="3.0"/><use href="#plaquette_drawing_default" x="0.0" y="4.0"/><use href="#plaquette_drawing_10" x="1.0" y="4.0"/><use href="#plaquette_drawing_9" x="2.0" y="4.0"/><use href="#plaquette_drawing_10" x="3.0" y="4.0"/><use href="#plaquette_drawing_9" x="4.0" y="4.0"/><use href="#plaquette_drawing_10" x="5.0" y="4.0"/><use href="#plaquette_drawing_9" x="6.0" y="4.0"/><use href="#plaquette_drawing_12" x="7.0" y="4.0"/><use href="#plaquette_drawing_7" x="0.0" y="5.0"/><use href="#plaquette_drawing_9" x="1.0" y="5.0"/><use href="#plaquette_drawing_10" x="2.0" y="5.0"/><use href="#plaquette_drawing_9" x="3.0" y="5.0"/><use href="#plaquette_drawing_10" x="4.0" y="5.0"/><use href="#plaquette_drawing_9" x="5.0" y="5.0"/><use href="#plaquette_drawing_10" x="6.0" y="5.0"/><use href="#plaquette_drawing_default" x="7.0" y="5.0"/><use href="#plaquette_drawing_default" x="0.0" y="6.0"/><use href="#plaquette_drawing_10" x="1.0" y="6.0"/><use href="#plaquette_drawing_9" x="2.0" y="6.0"/><use href="#plaquette_drawing_10" x="3.0" y="6.0"/><use href="#plaquette_drawing_9" x="4.0" y="6.0"/><use href="#plaquette_drawing_10" x="5.0" y="6.0"/><use href="#plaquette_drawing_9" x="6.0" y="6.0"/><use href="#plaquette_drawing_12" x="7.0" y="6.0"/><use href="#plaquette_drawing_default" x="0.0" y="7.0"/><use href="#plaquette_drawing_13" x="1.0" y="7.0"/><use href="#plaquette_drawing_default" x="2.0" y="7.0"/><use href="#plaquette_drawing_13" x="3.0" y="7.0"/><use href="#plaquette_drawing_default" x="4.0" y="7.0"/><use href="#plaquette_drawing_13" x="5.0" y="7.0"/><use href="#plaquette_drawing_default" x="6.0" y="7.0"/><use href="#plaquette_drawing_default" x="7.0" y="7.0"/></g><text dominant-baseline="hanging" text-anchor="start" font-size="0.5" fill="red" x="0.25" y="0.15">Moments: 133 -> 140</text></svg>