<svg xmlns="http://www.w3.org/2000/svg" viewBox="0 0 16 16"><g><defs><g id="plaquette_drawing_5"><path stroke="black" stroke-width="0.01" d="M 0 1 A 0.5 0.5 180 1 1 1 1 Z " fill="#ff7f7f"/><g/><text dominant-baseline="central" text-anchor="middle" font-size="0.1" fill="black" x="0.09999999999999998" y="0.9">3</text><text dominant-baseline="central" text-anchor="middle" font-size="0.1" fill="black" x="0.9" y="0.9">5</text></g><g id="plaquette_drawing_8"><path stroke="black" stroke-width="0.01" d="M 1 0 A 0.5 0.5 180 1 0 1 1 Z " fill="#7396ff"/><g/><text dominant-baseline="central" text-anchor="middle" font-size="0.1" fill="black" x="0.9" y="0.09999999999999998">2</text><text dominant-baseline="central" text-anchor="middle" font-size="0.1" fill="black" x="0.9" y="0.9">5</text></g><g id="plaquette_drawing_9"><path stroke="black" stroke-width="0.01" d="M 0.0 0.0 L 1.0 0.0 L 1.0 1.0 L 0.0 1.0 Z " fill="#7396ff"/><g/><line stroke="black" stroke-width="0.01" x1="0.95" y1="0.95" x2="0.95" y2="0.04999999999999999"/><text dominant-baseline="central" text-anchor="middle" font-size="0.1" fill="black" x="0.09999999999999998" y="0.09999999999999998">1</text><text dominant-baseline="central" text-anchor="middle" font-size="0.1" fill="black" x="0.9" y="0.09999999999999998">4</text><text dominant-baseline="central" text-anchor="middle" font-size="0.1" fill="black" x="0.09999999999999998" y="0.9">3</text><text dominant-baseline="central" text-anchor="middle" font-size="0.1" fill="black" x="0.9" y="0.9">5</text></g><g id="plaquette_drawing_10"><path stroke="black" stroke-width="0.01" d="M 0.0 0.0 L 1.0 0.0 L 1.0 1.0 L 0.0 1.0 Z " fill="#ff7f7f"/><g/><line stroke="black" stroke-width="0.01" x1="0.95" y1="0.95" x2="0.04999999999999999" y2="0.95"/><text dominant-baseline="central" text-anchor="middle" font-size="0.1" fill="black" x="0.09999999999999998" y="0.09999999999999998">1</text><text dominant-baseline="central" text-anchor="middle" font-size="0.1" fill="black" x="0.9" y="0.09999999999999998">2</text><text dominant-baseline="central" text-anchor="middle" font-size="0.1" fill="black" x="0.09999999999999998" y="0.9">3</text><text dominant-baseline="central" text-anchor="middle" font-size="0.1" fill="black" x="0.9" y="0.9">5</text></g><g id="plaquette_drawing_11"><path stroke="black" stroke-width="0.01" d="M 0 0 A 0.5 0.5 180 1 1 0 1 Z " fill="#7396ff"/><g/><text dominant-baseline="central" text-anchor="middle" font-size="0.1" fill="black" x="0.09999999999999998" y="0.09999999999999998">1</text><text dominant-baseline="central" text-anchor="middle" font-size="0.1" fill="black" x="0.09999999999999998" y="0.9">3</text></g><g id="plaquette_drawing_4"><path stroke="black" stroke-width="0.01" d="M 0 0 A 0.5 0.5 180 1 1 0 1 Z " fill="#7396ff"/><g/><text dominant-baseline="central" text-anchor="middle" font-size="0.1" fill="black" x="0.09999999999999998" y="0.09999999999999998">1</text><text dominant-baseline="central" text-anchor="middle" font-size="0.1" fill="black" x="0.09999999999999998" y="0.9">3</text></g><g id="plaquette_drawing_13"><path stroke="black" stroke-width="0.01" d="M 0.0 0.0 L 1.0 0.0 L 1.0 1.0 L 0.0 1.0 Z " fill="#7396ff"/><g/><line stroke="black" stroke-width="0.01" x1="0.95" y1="0.95" x2="0.95" y2="0.04999999999999999"/><text dominant-baseline="central" text-anchor="middle" font-size="0.1" fill="black" x="0.09999999999999998" y="0.09999999999999998">1</text><text dominant-baseline="central" text-anchor="middle" font-size="0.1" fill="black" x="0.9" y="0.09999999999999998">4</text><text dominant-baseline="central" text-anchor="middle" font-size="0.1" fill="black" x="0.09999999999999998" y="0.9">3</text><text dominant-baseline="central" text-anchor="middle" font-size="0.1" fill="black" x="0.9" y="0.9">5</text></g><g id="plaquette_drawing_14"><path stroke="black" stroke-width="0.01" d="M 0.0 0.0 L 1.0 0.0 L 1.0 1.0 L 0.0 1.0 Z " fill="#ff7f7f"/><g/><line stroke="black" stroke-width="0.01" x1="0.95" y1="0.95" x2="0.04999999999999999" y2="0.95"/><text dominant-baseline="central" text-anchor="middle" font-size="0.1" fill="black" x="0.09999999999999998" y="0.09999999999999998">1</text><text dominant-baseline="central" text-anchor="middle" font-size="0.1" fill="black" x="0.9" y="0.09999999999999998">2</text><text dominant-baseline="central" text-anchor="middle" font-size="0.1" fill="black" x="0.09999999999999998" y="0.9">3</text><text dominant-baseline="central" text-anchor="middle" font-size="0.1" fill="black" x="0.9" y="0.9">5</text></g><g id="plaquette_drawing_37"><path stroke="black" stroke-width="0.01" d="M 0 0 A 0.5 0.5 180 1 0 1 0 Z " fill="#7396ff"/><g/><text dominant-baseline="central" text-anchor="middle" font-size="0.1" fill="black" x="0.09999999999999998" y="0.09999999999999998">1</text><text dominant-baseline="central" text-anchor="middle" font-size="0.1" fill="black" x="0.9" y="0.09999999999999998">2</text></g><g id="plaquette_drawing_26"><path stroke="black" stroke-width="0.01" d="M 1 0 A 0.5 0.5 180 1 0 1 1 Z " fill="#7396ff"/><g/><text dominant-baseline="central" text-anchor="middle" font-size="0.1" fill="black" x="0.9" y="0.09999999999999998">2</text><text dominant-baseline="central" text-anchor="middle" font-size="0.1" fill="black" x="0.9" y="0.9">5</text></g><g id="plaquette_drawing_19"><path stroke="black" stroke-width="0.01" d="M 0.0 0.0 L 1.0 0.0 L 1.0 1.0 L 0.0 1.0 Z " fill="#7396ff"/><g/><line stroke="black" stroke-width="0.01" x1="0.95" y1="0.95" x2="0.95" y2="0.04999999999999999"/><text dominant-baseline="central" text-anchor="middle" font-size="0.1" fill="black" x="0.09999999999999998" y="0.09999999999999998">1</text><text dominant-baseline="central" text-anchor="middle" font-size="0.1" fill="black" x="0.9" y="0.09999999999999998">4</text><text dominant-baseline="central" text-anchor="middle" font-size="0.1" fill="black" x="0.09999999999999998" y="0.9">3</text><text dominant-baseline="central" text-anchor="middle" font-size="0.1" fill="black" x="0.9" y="0.9">5</text></g><g id="plaquette_drawing_27"><path stroke="black" stroke-width="0.01" d="M 0.0 0.0 L 1.0 0.0 L 1.0 1.0 L 0.0 1.0 Z " fill="#7396ff"/><g/><line stroke="black" stroke-width="0.01" x1="0.95" y1="0.95" x2="0.95" y2="0.04999999999999999"/><text dominant-baseline="central" text-anchor="middle" font-size="0.1" fill="black" x="0.09999999999999998" y="0.09999999999999998">1</text><text dominant-baseline="central" text-anchor="middle" font-size="0.1" fill="black" x="0.9" y="0.09999999999999998">4</text><text dominant-baseline="central" text-anchor="middle" font-size="0.1" fill="black" x="0.09999999999999998" y="0.9">3</text><text dominant-baseline="central" text-anchor="middle" font-size="0.1" fill="black" x="0.9" y="0.9">5</text></g><g id="plaquette_drawing_22"><path stroke="black" stroke-width="0.01" d="M 0.0 0.0 L 1.0 0.0 L 1.0 1.0 L 0.0 1.0 Z " fill="#7396ff"/><g/><line stroke="black" stroke-width="0.01" x1="0.95" y1="0.95" x2="0.04999999999999999" y2="0.95"/><text dominant-baseline="central" text-anchor="middle" font-size="0.1" fill="black" x="0.09999999999999998" y="0.09999999999999998">1</text><text dominant-baseline="central" text-anchor="middle" font-size="0.1" fill="black" x="0.9" y="0.09999999999999998">2</text><text dominant-baseline="central" text-anchor="middle" font-size="0.1" fill="black" x="0.09999999999999998" y="0.9">3</text><text dominant-baseline="central" text-anchor="middle" font-size="0.1" fill="black" x="0.9" y="0.9">5</text></g><g id="plaquette_drawing_29"><path stroke="black" stroke-width="0.01" d="M 0.0 0.0 L 1.0 0.0 L 1.0 1.0 L 0.0 1.0 Z " fill="#7396ff"/><g/><line stroke="black" stroke-width="0.01" x1="0.95" y1="0.95" x2="0.04999999999999999" y2="0.95"/><text dominant-baseline="central" text-anchor="middle" font-size="0.1" fill="black" x="0.09999999999999998" y="0.09999999999999998">1</text><text dominant-baseline="central" text-anchor="middle" font-size="0.1" fill="black" x="0.9" y="0.09999999999999998">2</text><text dominant-baseline="central" text-anchor="middle" font-size="0.1" fill="black" x="0.09999999999999998" y="0.9">3</text><text dominant-baseline="central" text-anchor="middle" font-size="0.1" fill="black" x="0.9" y="0.9">5</text></g><g id="plaquette_drawing_28"><path stroke="black" stroke-width="0.01" d="M 0.0 0.0 L 1.0 0.0 L 1.0 1.0 L 0.0 1.0 Z " fill="#7396ff"/><g/><line stroke="black" stroke-width="0.01" x1="0.95" y1="0.95" x2="0.04999999999999999" y2="0.95"/><text dominant-baseline="central" text-anchor="middle" font-size="0.1" fill="black" x="0.09999999999999998" y="0.09999999999999998">1</text><text dominant-baseline="central" text-anchor="middle" font-size="0.1" fill="black" x="0.9" y="0.09999999999999998">2</text><text dominant-baseline="central" text-anchor="middle" font-size="0.1" fill="black" x="0.09999999999999998" y="0.9">3</text><text dominant-baseline="central" text-anchor="middle" font-size="0.1" fill="black" x="0.9" y="0.9">5</text></g><g id="plaquette_drawing_30"><path stroke="black" stroke-width="0.01" d="M 0.0 0.0 L 1.0 0.0 L 1.0 1.0 L 0.0 1.0 Z " fill="#7396ff"/><g/><line stroke="black" stroke-width="0.01" x1="0.95" y1="0.95" x2="0.95" y2="0.04999999999999999"/><text dominant-baseline="central" text-anchor="middle" font-size="0.1" fill="black" x="0.09999999999999998" y="0.09999999999999998">1</text><text dominant-baseline="central" text-anchor="middle" font-size="0.1" fill="black" x="0.9" y="0.09999999999999998">4</text><text dominant-baseline="central" text-anchor="middle" font-size="0.1" fill="black" x="0.09999999999999998" y="0.9">3</text><text dominant-baseline="central" text-anchor="middle" font-size="0.1" fill="black" x="0.9" y="0.9">5</text></g><g id="plaquette_drawing_20"><path stroke="black" stroke-width="0.01" d="M 0.0 0.0 L 1.0 0.0 L 1.0 1.0 L 0.0 1.0 Z " fill="#ff7f7f"/><g/><line stroke="black" stroke-width="0.01" x1="0.95" y1="0.95" x2="0.04999999999999999" y2="0.95"/><text dominant-baseline="central" text-anchor="middle" font-size="0.1" fill="black" x="0.09999999999999998" y="0.09999999999999998">1</text><text dominant-baseline="central" text-anchor="middle" font-size="0.1" fill="black" x="0.9" y="0.09999999999999998">2</text><text dominant-baseline="central" text-anchor="middle" font-size="0.1" fill="black" x="0.09999999999999998" y="0.9">3</text><text dominant-baseline="central" text-anchor="middle" font-size="0.1" fill="black" x="0.9" y="0.9">5</text></g><g id="plaquette_drawing_31"><path stroke="black" stroke-width="0.01" d="M 0.0 0.0 L 1.0 0.0 L 1.0 1.0 L 0.0 1.0 Z " fill="#ff7f7f"/><g/><line stroke="black" stroke-width="0.01" x1="0.95" y1="0.95" x2="0.04999999999999999" y2="0.95"/><text dominant-baseline="central" text-anchor="middle" font-size="0.1" fill="black" x="0.09999999999999998" y="0.09999999999999998">1</text><text dominant-baseline="central" text-anchor="middle" font-size="0.1" fill="black" x="0.9" y="0.09999999999999998">2</text><text dominant-baseline="central" text-anchor="middle" font-size="0.1" fill="black" x="0.09999999999999998" y="0.9">3</text><text dominant-baseline="central" text-anchor="middle" font-size="0.1" fill="black" x="0.9" y="0.9">5</text></g><g id="plaquette_drawing_21"><path stroke="black" stroke-width="0.01" d="M 0.0 0.0 L 1.0 0.0 L 1.0 1.0 L 0.0 1.0 Z " fill="#ff7f7f"/><g/><line stroke="black" stroke-width="0.01" x1="0.95" y1="0.95" x2="0.95" y2="0.04999999999999999"/><text dominant-baseline="central" text-anchor="middle" font-size="0.1" fill="black" x="0.09999999999999998" y="0.09999999999999998">1</text><text dominant-baseline="central" text-anchor="middle" font-size="0.1" fill="black" x="0.9" y="0.09999999999999998">4</text><text dominant-baseline="central" text-anchor="middle" font-size="0.1" fill="black" x="0.09999999999999998" y="0.9">3</text><text dominant-baseline="central" text-anchor="middle" font-size="0.1" fill="black" x="0.9" y="0.9">5</text></g><g id="plaquette_drawing_33"><path stroke="black" stroke-width="0.01" d="M 0.0 0.0 L 1.0 0.0 L 1.0 1.0 L 0.0 1.0 Z " fill="#ff7f7f"/><g/><line stroke="black" stroke-width="0.01" x1="0.95" y1="0.95" x2="0.95" y2="0.04999999999999999"/><text dominant-baseline="central" text-anchor="middle" font-size="0.1" fill="black" x="0.09999999999999998" y="0.09999999999999998">1</text><text dominant-baseline="central" text-anchor="middle" font-size="0.1" fill="black" x="0.9" y="0.09999999999999998">4</text><text dominant-baseline="central" text-anchor="middle" font-size="0.1" fill="black" x="0.09999999999999998" y="0.9">3</text><text dominant-baseline="central" text-anchor="middle" font-size="0.1" fill="black" x="0.9" y="0.9">5</text></g><g id="plaquette_drawing_32"><path stroke="black" stroke-width="0.01" d="M 0.0 0.0 L 1.0 0.0 L 1.0 1.0 L 0.0 1.0 Z " fill="#ff7f7f"/><g/><line stroke="black" stroke-width="0.01" x1="0.95" y1="0.95" x2="0.95" y2="0.04999999999999999"/><text dominant-baseline="central" text-anchor="middle" font-size="0.1" fill="black" x="0.09999999999999998" y="0.09999999999999998">1</text><text dominant-baseline="central" text-anchor="middle" font-size="0.1" fill="black" x="0.9" y="0.09999999999999998">4</text><text dominant-baseline="central" text-anchor="middle" font-size="0.1" fill="black" x="0.09999999999999998" y="0.9">3</text><text dominant-baseline="central" text-anchor="middle" font-size="0.1" fill="black" x="0.9" y="0.9">5</text></g><g id="plaquette_drawing_34"><path stroke="black" stroke-width="0.01" d="M 0.0 0.0 L 1.0 0.0 L 1.0 1.0 L 0.0 1.0 Z " fill="#ff7f7f"/><g/><line stroke="black" stroke-width="0.01" x1="0.95" y1="0.95" x2="0.04999999999999999" y2="0.95"/><text dominant-baseline="central" text-anchor="middle" font-size="0.1" fill="black" x="0.09999999999999998" y="0.09999999999999998">1</text><text dominant-baseline="central" text-anchor="middle" font-size="0.1" fill="black" x="0.9" y="0.09999999999999998">2</text><text dominant-baseline="central" text-anchor="middle" font-size="0.1" fill="black" x="0.09999999999999998" y="0.9">3</text><text dominant-baseline="central" text-anchor="middle" font-size="0.1" fill="black" x="0.9" y="0.9">5</text></g><g id="plaquette_drawing_15"><path stroke="black" stroke-width="0.01" d="M 1 0 A 0.5 0.5 180 1 0 1 1 Z " fill="#7396ff"/><g/><text dominant-baseline="central" text-anchor="middle" font-size="0.1" fill="black" x="0.9" y="0.09999999999999998">2</text><text dominant-baseline="central" text-anchor="middle" font-size="0.1" fill="black" x="0.9" y="0.9">5</text></g><g id="plaquette_drawing_23"><path stroke="black" stroke-width="0.01" d="M 0.0 0.0 L 1.0 0.0 L 1.0 1.0 L 0.0 1.0 Z " fill="#ff7f7f"/><g/><line stroke="black" stroke-width="0.01" x1="0.95" y1="0.95" x2="0.04999999999999999" y2="0.95"/><text dominant-baseline="central" text-anchor="middle" font-size="0.1" fill="black" x="0.09999999999999998" y="0.09999999999999998">1</text><text dominant-baseline="central" text-anchor="middle" font-size="0.1" fill="black" x="0.9" y="0.09999999999999998">2</text><text dominant-baseline="central" text-anchor="middle" font-size="0.1" fill="black" x="0.09999999999999998" y="0.9">3</text><text dominant-baseline="central" text-anchor="middle" font-size="0.1" fill="black" x="0.9" y="0.9">5</text></g><g id="plaquette_drawing_24"><path stroke="black" stroke-width="0.01" d="M 0.0 0.0 L 1.0 0.0 L 1.0 1.0 L 0.0 1.0 Z " fill="#7396ff"/><g/><line stroke="black" stroke-width="0.01" x1="0.95" y1="0.95" x2="0.95" y2="0.04999999999999999"/><text dominant-baseline="central" text-anchor="middle" font-size="0.1" fill="black" x="0.09999999999999998" y="0.09999999999999998">1</text><text dominant-baseline="central" text-anchor="middle" font-size="0.1" fill="black" x="0.9" y="0.09999999999999998">4</text><text dominant-baseline="central" text-anchor="middle" font-size="0.1" fill="black" x="0.09999999999999998" y="0.9">3</text><text dominant-baseline="central" text-anchor="middle" font-size="0.1" fill="black" x="0.9" y="0.9">5</text></g><g id="plaquette_drawing_18"><path stroke="black" stroke-width="0.01" d="M 0 0 A 0.5 0.5 180 1 0 1 0 Z " fill="#7396ff"/><g/><text dominant-baseline="central" text-anchor="middle" font-size="0.1" fill="black" x="0.09999999999999998" y="0.09999999999999998">1</text><text dominant-baseline="central" text-anchor="middle" font-size="0.1" fill="black" x="0.9" y="0.09999999999999998">2</text></g><g id="plaquette_drawing_35"><path stroke="black" stroke-width="0.01" d="M 0.0 0.0 L 1.0 0.0 L 1.0 1.0 L 0.0 1.0 Z " fill="#7396ff"/><g/><line stroke="black" stroke-width="0.01" x1="0.95" y1="0.95" x2="0.04999999999999999" y2="0.95"/><text dominant-baseline="central" text-anchor="middle" font-size="0.1" fill="black" x="0.09999999999999998" y="0.09999999999999998">1</text><text dominant-baseline="central" text-anchor="middle" font-size="0.1" fill="black" x="0.9" y="0.09999999999999998">2</text><text dominant-baseline="central" text-anchor="middle" font-size="0.1" fill="black" x="0.09999999999999998" y="0.9">3</text><text dominant-baseline="central" text-anchor="middle" font-size="0.1" fill="black" x="0.9" y="0.9">5</text></g><g id="plaquette_drawing_36"><path stroke="black" stroke-width="0.01" d="M 0.0 0.0 L 1.0 0.0 L 1.0 1.0 L 0.0 1.0 Z " fill="#ff7f7f"/><g/><line stroke="black" stroke-width="0.01" x1="0.95" y1="0.95" x2="0.95" y2="0.04999999999999999"/><text dominant-baseline="central" text-anchor="middle" font-size="0.1" fill="black" x="0.09999999999999998" y="0.09999999999999998">1</text><text dominant-baseline="central" text-anchor="middle" font-size="0.1" fill="black" x="0.9" y="0.09999999999999998">4</text><text dominant-baseline="central" text-anchor="middle" font-size="0.1" fill="black" x="0.09999999999999998" y="0.9">3</text><text dominant-baseline="central" text-anchor="middle" font-size="0.1" fill="black" x="0.9" y="0.9">5</text></g><g id="plaquette_drawing_44"><path stroke="black" stroke-width="0.01" d="M 0 1 A 0.5 0.5 180 1 1 1 1 Z " fill="#7396ff"/><g/><text dominant-baseline="central" text-anchor="middle" font-size="0.1" fill="black" x="0.09999999999999998" y="0.9">3</text><text dominant-baseline="central" text-anchor="middle" font-size="0.1" fill="black" x="0.9" y="0.9">5</text></g><g id="plaquette_drawing_47"><path stroke="black" stroke-width="0.01" d="M 0.0 0.0 L 1.0 0.0 L 1.0 1.0 L 0.0 1.0 Z " fill="#7396ff"/><g/><line stroke="black" stroke-width="0.01" x1="0.95" y1="0.95" x2="0.04999999999999999" y2="0.95"/><text dominant-baseline="central" text-anchor="middle" font-size="0.1" fill="black" x="0.09999999999999998" y="0.09999999999999998">1</text><text dominant-baseline="central" text-anchor="middle" font-size="0.1" fill="black" x="0.9" y="0.09999999999999998">2</text><text dominant-baseline="central" text-anchor="middle" font-size="0.1" fill="black" x="0.09999999999999998" y="0.9">3</text><text dominant-baseline="central" text-anchor="middle" font-size="0.1" fill="black" x="0.9" y="0.9">5</text></g><g id="plaquette_drawing_48"><path stroke="black" stroke-width="0.01" d="M 0.0 0.0 L 1.0 0.0 L 1.0 1.0 L 0.0 1.0 Z " fill="#ff7f7f"/><g/><line stroke="black" stroke-width="0.01" x1="0.95" y1="0.95" x2="0.95" y2="0.04999999999999999"/><text dominant-baseline="central" text-anchor="middle" font-size="0.1" fill="black" x="0.09999999999999998" y="0.09999999999999998">1</text><text dominant-baseline="central" text-anchor="middle" font-size="0.1" fill="black" x="0.9" y="0.09999999999999998">4</text><text dominant-baseline="central" text-anchor="middle" font-size="0.1" fill="black" x="0.09999999999999998" y="0.9">3</text><text dominant-baseline="central" text-anchor="middle" font-size="0.1" fill="black" x="0.9" y="0.9">5</text></g><g id="plaquette_drawing_50"><path stroke="black" stroke-width="0.01" d="M 0 0 A 0.5 0.5 180 1 1 0 1 Z " fill="#ff7f7f"/><g/><text dominant-baseline="central" text-anchor="middle" font-size="0.1" fill="black" x="0.09999999999999998" y="0.09999999999999998">1</text><text dominant-baseline="central" text-anchor="middle" font-size="0.1" fill="black" x="0.09999999999999998" y="0.9">3</text></g><g id="plaquette_drawing_51"><path stroke="black" stroke-width="0.01" d="M 0 0 A 0.5 0.5 180 1 0 1 0 Z " fill="#7396ff"/><g/><text dominant-baseline="central" text-anchor="middle" font-size="0.1" fill="black" x="0.09999999999999998" y="0.09999999999999998">1</text><text dominant-baseline="central" text-anchor="middle" font-size="0.1" fill="black" x="0.9" y="0.09999999999999998">2</text></g><g id="plaquette_drawing_39"><path stroke="black" stroke-width="0.01" d="M 0 1 A 0.5 0.5 180 1 1 1 1 Z " fill="#7396ff"/><g/><text dominant-baseline="central" text-anchor="middle" font-size="0.1" fill="black" x="0.09999999999999998" y="0.9">3</text><text dominant-baseline="central" text-anchor="middle" font-size="0.1" fill="black" x="0.9" y="0.9">5</text></g><g id="plaquette_drawing_45"><path stroke="black" stroke-width="0.01" d="M 0.0 0.0 L 1.0 0.0 L 1.0 1.0 L 0.0 1.0 Z " fill="#ff7f7f"/><g/><line stroke="black" stroke-width="0.01" x1="0.95" y1="0.95" x2="0.95" y2="0.04999999999999999"/><text dominant-baseline="central" text-anchor="middle" font-size="0.1" fill="black" x="0.09999999999999998" y="0.09999999999999998">1</text><text dominant-baseline="central" text-anchor="middle" font-size="0.1" fill="black" x="0.9" y="0.09999999999999998">4</text><text dominant-baseline="central" text-anchor="middle" font-size="0.1" fill="black" x="0.09999999999999998" y="0.9">3</text><text dominant-baseline="central" text-anchor="middle" font-size="0.1" fill="black" x="0.9" y="0.9">5</text></g><g id="plaquette_drawing_46"><path stroke="black" stroke-width="0.01" d="M 0.0 0.0 L 1.0 0.0 L 1.0 1.0 L 0.0 1.0 Z " fill="#7396ff"/><g/><line stroke="black" stroke-width="0.01" x1="0.95" y1="0.95" x2="0.04999999999999999" y2="0.95"/><text dominant-baseline="central" text-anchor="middle" font-size="0.1" fill="black" x="0.09999999999999998" y="0.09999999999999998">1</text><text dominant-baseline="central" text-anchor="middle" font-size="0.1" fill="black" x="0.9" y="0.09999999999999998">2</text><text dominant-baseline="central" text-anchor="middle" font-size="0.1" fill="black" x="0.09999999999999998" y="0.9">3</text><text dominant-baseline="central" text-anchor="middle" font-size="0.1" fill="black" x="0.9" y="0.9">5</text></g><g id="plaquette_drawing_default"/></defs><use href="#plaquette_drawing_default" x="0.0" y="0.0"/><use href="#plaquette_drawing_5" x="1.0" y="0.0"/><use href="#plaquette_drawing_default" x="2.0" y="0.0"/><use href="#plaquette_drawing_5" x="3.0" y="0.0"/><use href="#plaquette_drawing_default" x="4.0" y="0.0"/><use href="#plaquette_drawing_5" x="5.0" y="0.0"/><use href="#plaquette_drawing_default" x="6.0" y="0.0"/><use href="#plaquette_drawing_default" x="7.0" y="0.0"/><use href="#plaquette_drawing_default" x="0.0" y="1.0"/><use href="#plaquette_drawing_9" x="1.0" y="1.0"/><use href="#plaquette_drawing_10" x="2.0" y="1.0"/><use href="#plaquette_drawing_9" x="3.0" y="1.0"/><use href="#plaquette_drawing_10" x="4.0" y="1.0"/><use href="#plaquette_drawing_9" x="5.0" y="1.0"/><use href="#plaquette_drawing_10" x="6.0" y="1.0"/><use href="#plaquette_drawing_11" x="7.0" y="1.0"/><use href="#plaquette_drawing_8" x="0.0" y="2.0"/><use href="#plaquette_drawing_10" x="1.0" y="2.0"/><use href="#plaquette_drawing_9" x="2.0" y="2.0"/><use href="#plaquette_drawing_10" x="3.0" y="2.0"/><use href="#plaquette_drawing_9" x="4.0" y="2.0"/><use href="#plaquette_drawing_10" x="5.0" y="2.0"/><use href="#plaquette_drawing_9" x="6.0" y="2.0"/><use href="#plaquette_drawing_default" x="7.0" y="2.0"/><use href="#plaquette_drawing_default" x="0.0" y="3.0"/><use href="#plaquette_drawing_9" x="1.0" y="3.0"/><use href="#plaquette_drawing_10" x="2.0" y="3.0"/><use href="#plaquette_drawing_9" x="3.0" y="3.0"/><use href="#plaquette_drawing_10" x="4.0" y="3.0"/><use href="#plaquette_drawing_9" x="5.0" y="3.0"/><use href="#plaquette_drawing_10" x="6.0" y="3.0"/><use href="#plaquette_drawing_11" x="7.0" y="3.0"/><use href="#plaquette_drawing_8" x="0.0" y="4.0"/><use href="#plaquette_drawing_10" x="1.0" y="4.0"/><use href="#plaquette_drawing_9" x="2.0" y="4.0"/><use href="#plaquette_drawing_10" x="3.0" y="4.0"/><use href="#plaquette_drawing_9" x="4.0" y="4.0"/><use href="#plaquette_drawing_10" x="5.0" y="4.0"/><use href="#plaquette_drawing_9" x="6.0" y="4.0"/><use href="#plaquette_drawing_default" x="7.0" y="4.0"/><use href="#plaquette_drawing_default" x="0.0" y="5.0"/><use href="#plaquette_drawing_9" x="1.0" y="5.0"/><use href="#plaquette_drawing_10" x="2.0" y="5.0"/><use href="#plaquette_drawing_9" x="3.0" y="5.0"/><use href="#plaquette_drawing_10" x="4.0" y="5.0"/><use href="#plaquette_drawing_9" x="5.0" y="5.0"/><use href="#plaquette_drawing_10" x="6.0" y="5.0"/><use href="#plaquette_drawing_11" x="7.0" y="5.0"/><use href="#plaquette_drawing_8" x="0.0" y="6.0"/><use href="#plaquette_drawing_10" x="1.0" y="6.0"/><use href="#plaquette_drawing_9" x="2.0" y="6.0"/><use href="#plaquette_drawing_10" x="3.0" y="6.0"/><use href="#plaquette_drawing_9" x="4.0" y="6.0"/><use href="#plaquette_drawing_10" x="5.0" y="6.0"/><use href="#plaquette_drawing_9" x="6.0" y="6.0"/><use href="#plaquette_drawing_default" x="7.0" y="6.0"/><use href="#plaquette_drawing_default" x="0.0" y="7.0"/><use href="#plaquette_drawing_13" x="1.0" y="7.0"/><use href="#plaquette_drawing_14" x="2.0" y="7.0"/><use href="#plaquette_drawing_13" x="3.0" y="7.0"/><use href="#plaquette_drawing_14" x="4.0" y="7.0"/><use href="#plaquette_drawing_13" x="5.0" y="7.0"/><use href="#plaquette_drawing_14" x="6.0" y="7.0"/><use href="#plaquette_drawing_4" x="7.0" y="7.0"/><use href="#plaquette_drawing_15" x="0.0" y="8.0"/><use href="#plaquette_drawing_23" x="1.0" y="8.0"/><use href="#plaquette_drawing_24" x="2.0" y="8.0"/><use href="#plaquette_drawing_23" x="3.0" y="8.0"/><use href="#plaquette_drawing_24" x="4.0" y="8.0"/><use href="#plaquette_drawing_23" x="5.0" y="8.0"/><use href="#plaquette_drawing_24" x="6.0" y="8.0"/><use href="#plaquette_drawing_default" x="7.0" y="8.0"/><use href="#plaquette_drawing_39" x="8.0" y="8.0"/><use href="#plaquette_drawing_default" x="9.0" y="8.0"/><use href="#plaquette_drawing_44" x="10.0" y="8.0"/><use href="#plaquette_drawing_default" x="11.0" y="8.0"/><use href="#plaquette_drawing_44" x="12.0" y="8.0"/><use href="#plaquette_drawing_default" x="13.0" y="8.0"/><use href="#plaquette_drawing_44" x="14.0" y="8.0"/><use href="#plaquette_drawing_default" x="15.0" y="8.0"/><use href="#plaquette_drawing_default" x="0.0" y="9.0"/><use href="#plaquette_drawing_19" x="1.0" y="9.0"/><use href="#plaquette_drawing_31" x="2.0" y="9.0"/><use href="#plaquette_drawing_27" x="3.0" y="9.0"/><use href="#plaquette_drawing_31" x="4.0" y="9.0"/><use href="#plaquette_drawing_27" x="5.0" y="9.0"/><use href="#plaquette_drawing_20" x="6.0" y="9.0"/><use href="#plaquette_drawing_35" x="7.0" y="9.0"/><use href="#plaquette_drawing_45" x="8.0" y="9.0"/><use href="#plaquette_drawing_47" x="9.0" y="9.0"/><use href="#plaquette_drawing_48" x="10.0" y="9.0"/><use href="#plaquette_drawing_47" x="11.0" y="9.0"/><use href="#plaquette_drawing_48" x="12.0" y="9.0"/><use href="#plaquette_drawing_47" x="13.0" y="9.0"/><use href="#plaquette_drawing_48" x="14.0" y="9.0"/><use href="#plaquette_drawing_default" x="15.0" y="9.0"/><use href="#plaquette_drawing_26" x="0.0" y="10.0"/><use href="#plaquette_drawing_34" x="1.0" y="10.0"/><use href="#plaquette_drawing_27" x="2.0" y="10.0"/><use href="#plaquette_drawing_31" x="3.0" y="10.0"/><use href="#plaquette_drawing_27" x="4.0" y="10.0"/><use href="#plaquette_drawing_31" x="5.0" y="10.0"/><use href="#plaquette_drawing_28" x="6.0" y="10.0"/><use href="#plaquette_drawing_36" x="7.0" y="10.0"/><use href="#plaquette_drawing_46" x="8.0" y="10.0"/><use href="#plaquette_drawing_48" x="9.0" y="10.0"/><use href="#plaquette_drawing_47" x="10.0" y="10.0"/><use href="#plaquette_drawing_48" x="11.0" y="10.0"/><use href="#plaquette_drawing_47" x="12.0" y="10.0"/><use href="#plaquette_drawing_48" x="13.0" y="10.0"/><use href="#plaquette_drawing_47" x="14.0" y="10.0"/><use href="#plaquette_drawing_50" x="15.0" y="10.0"/><use href="#plaquette_drawing_default" x="0.0" y="11.0"/><use href="#plaquette_drawing_30" x="1.0" y="11.0"/><use href="#plaquette_drawing_34" x="2.0" y="11.0"/><use href="#plaquette_drawing_27" x="3.0" y="11.0"/><use href="#plaquette_drawing_31" x="4.0" y="11.0"/><use href="#plaquette_drawing_28" x="5.0" y="11.0"/><use href="#plaquette_drawing_32" x="6.0" y="11.0"/><use href="#plaquette_drawing_35" x="7.0" y="11.0"/><use href="#plaquette_drawing_45" x="8.0" y="11.0"/><use href="#plaquette_drawing_47" x="9.0" y="11.0"/><use href="#plaquette_drawing_48" x="10.0" y="11.0"/><use href="#plaquette_drawing_47" x="11.0" y="11.0"/><use href="#plaquette_drawing_48" x="12.0" y="11.0"/><use href="#plaquette_drawing_47" x="13.0" y="11.0"/><use href="#plaquette_drawing_48" x="14.0" y="11.0"/><use href="#plaquette_drawing_default" x="15.0" y="11.0"/><use href="#plaquette_drawing_26" x="0.0" y="12.0"/><use href="#plaquette_drawing_34" x="1.0" y="12.0"/><use href="#plaquette_drawing_30" x="2.0" y="12.0"/><use href="#plaquette_drawing_33" x="3.0" y="12.0"/><use href="#plaquette_drawing_29" x="4.0" y="12.0"/><use href="#plaquette_drawing_32" x="5.0" y="12.0"/><use href="#plaquette_drawing_28" x="6.0" y="12.0"/><use href="#plaquette_drawing_36" x="7.0" y="12.0"/><use href="#plaquette_drawing_46" x="8.0" y="12.0"/><use href="#plaquette_drawing_48" x="9.0" y="12.0"/><use href="#plaquette_drawing_47" x="10.0" y="12.0"/><use href="#plaquette_drawing_48" x="11.0" y="12.0"/><use href="#plaquette_drawing_47" x="12.0" y="12.0"/><use href="#plaquette_drawing_48" x="13.0" y="12.0"/><use href="#plaquette_drawing_47" x="14.0" y="12.0"/><use href="#plaquette_drawing_50" x="15.0" y="12.0"/><use href="#plaquette_drawing_default" x="0.0" y="13.0"/><use href="#plaquette_drawing_30" x="1.0" y="13.0"/><use href="#plaquette_drawing_33" x="2.0" y="13.0"/><use href="#plaquette_drawing_29" x="3.0" y="13.0"/><use href="#plaquette_drawing_33" x="4.0" y="13.0"/><use href="#plaquette_drawing_29" x="5.0" y="13.0"/><use href="#plaquette_drawing_32" x="6.0" y="13.0"/><use href="#plaquette_drawing_35" x="7.0" y="13.0"/><use href="#plaquette_drawing_45" x="8.0" y="13.0"/><use href="#plaquette_drawing_47" x="9.0" y="13.0"/><use href="#plaquette_drawing_48" x="10.0" y="13.0"/><use href="#plaquette_drawing_47" x="11.0" y="13.0"/><use href="#plaquette_drawing_48" x="12.0" y="13.0"/><use href="#plaquette_drawing_47" x="13.0" y="13.0"/><use href="#plaquette_drawing_48" x="14.0" y="13.0"/><use href="#plaquette_drawing_default" x="15.0" y="13.0"/><use href="#plaquette_drawing_26" x="0.0" y="14.0"/><use href="#plaquette_drawing_21" x="1.0" y="14.0"/><use href="#plaquette_drawing_29" x="2.0" y="14.0"/><use href="#plaquette_drawing_33" x="3.0" y="14.0"/><use href="#plaquette_drawing_29" x="4.0" y="14.0"/><use href="#plaquette_drawing_33" x="5.0" y="14.0"/><use href="#plaquette_drawing_22" x="6.0" y="14.0"/><use href="#plaquette_drawing_36" x="7.0" y="14.0"/><use href="#plaquette_drawing_46" x="8.0" y="14.0"/><use href="#plaquette_drawing_48" x="9.0" y="14.0"/><use href="#plaquette_drawing_47" x="10.0" y="14.0"/><use href="#plaquette_drawing_48" x="11.0" y="14.0"/><use href="#plaquette_drawing_47" x="12.0" y="14.0"/><use href="#plaquette_drawing_48" x="13.0" y="14.0"/><use href="#plaquette_drawing_47" x="14.0" y="14.0"/><use href="#plaquette_drawing_50" x="15.0" y="14.0"/><use href="#plaquette_drawing_default" x="0.0" y="15.0"/><use href="#plaquette_drawing_37" x="1.0" y="15.0"/><use href="#plaquette_drawing_default" x="2.0" y="15.0"/><use href="#plaquette_drawing_37" x="3.0" y="15.0"/><use href="#plaquette_drawing_default" x="4.0" y="15.0"/><use href="#plaquette_drawing_37" x="5.0" y="15.0"/><use href="#plaquette_drawing_default" x="6.0" y="15.0"/><use href="#plaquette_drawing_18" x="7.0" y="15.0"/><use href="#plaquette_drawing_default" x="8.0" y="15.0"/><use href="#plaquette_drawing_51" x="9.0" y="15.0"/><use href="#plaquette_drawing_default" x="10.0" y="15.0"/><use href="#plaquette_drawing_51" x="11.0" y="15.0"/><use href="#plaquette_drawing_default" x="12.0" y="15.0"/><use href="#plaquette_drawing_51" x="13.0" y="15.0"/><use href="#plaquette_drawing_default" x="14.0" y="15.0"/><use href="#plaquette_drawing_default" x="15.0" y="15.0"/></g><text dominant-baseline="hanging" text-anchor="start" font-size="0.5" fill="red" x="0.25" y="0.15">Moments: 77 -> 84</text></svg>